<svg xmlns="http://www.w3.org/2000/svg" viewBox="0 0 94.16 23"><defs><style>.cls-1,.cls-2{fill:#e43345;}.cls-2{fill-rule:evenodd;}</style></defs><title>nintendo-logo</title><g id="Layer_2" data-name="Layer 2"><g id="Layer_1-2" data-name="Layer 1"><path class="cls-1" d="M81.85,0H12.3C4.95,0,0,5.18,0,11.52S4.93,23,12.32,23H81.84c7.38,0,12.32-5.14,12.32-11.48S89.21,0,81.85,0Zm0,20H12.34c-5.87,0-9.43-3.67-9.43-8.5S6.49,3,12.34,3H81.82c5.85,0,9.43,3.67,9.43,8.5S87.68,20,81.82,20Z"/><polygon class="cls-2" points="9.34 6.2 12.74 6.2 17.45 13.81 17.45 6.2 20.82 6.2 20.82 17.12 17.45 17.12 12.72 9.5 12.72 17.12 9.34 17.12 9.34 6.2 9.34 6.2"/><polygon class="cls-2" points="39.17 7.32 42.46 7.32 42.46 8.79 44.24 8.79 44.24 9.87 42.46 9.87 42.46 17.12 39.17 17.12 39.18 9.87 37.39 9.87 37.39 8.79 39.18 8.79 39.17 7.32 39.17 7.32"/><polygon class="cls-2" points="22.7 9.86 25.99 9.86 25.99 17.12 22.7 17.12 22.7 9.86 22.7 9.86"/><polygon class="cls-2" points="22.7 6.19 25.99 6.19 25.99 8.43 22.7 8.43 22.7 6.19 22.7 6.19"/><path class="cls-2" d="M81.56,13.43s0,1.1,0,1.54c0,1.16-.68,1.64-1.34,1.64s-1.34-.48-1.34-1.64c0-.44,0-1.57,0-1.57s0-1.07,0-1.51c0-1.15.69-1.63,1.34-1.63s1.34.47,1.34,1.63c0,.44,0,1.25,0,1.55ZM80.24,9.36c-2.65,0-4.8,1.83-4.8,4.08s2.15,4.08,4.8,4.08S85,15.69,85,13.44s-2.15-4.08-4.8-4.08Z"/><path class="cls-2" d="M71.14,6.2h3.24V17.11H71.13s0-.35,0-.42a4,4,0,0,1-3.78.27,3.88,3.88,0,0,1-2.25-3.6,4,4,0,0,1,4.17-3.8,4.4,4.4,0,0,1,1.86.65v-4Zm0,7.25v-1.3a1.29,1.29,0,1,0-2.57,0c0,.37,0,1.3,0,1.3s0,.9,0,1.29a1.29,1.29,0,1,0,2.57,0V13.45Z"/><path class="cls-2" d="M33.67,9.52a3.55,3.55,0,0,1,3.7,3.65c0,.51,0,3.95,0,3.95H34.11V12.35A1.45,1.45,0,0,0,32.61,11a1.51,1.51,0,0,0-1.56,1.34c0,.31,0,4.77,0,4.77H27.79V9.85h3.26s0,.58,0,.76a4,4,0,0,1,2.62-1.09Z"/><path class="cls-2" d="M60.36,9.52a3.55,3.55,0,0,1,3.7,3.65c0,.51,0,3.95,0,3.95H60.8V12.35A1.45,1.45,0,0,0,59.3,11a1.52,1.52,0,0,0-1.56,1.34c0,.31,0,4.77,0,4.77H54.48V9.85h3.26s0,.58,0,.76a4,4,0,0,1,2.62-1.09Z"/><path class="cls-2" d="M47.3,12.39A2.75,2.75,0,0,1,47.51,11a1.35,1.35,0,0,1,1.16-.66h0a1.34,1.34,0,0,1,1.15.66A2.76,2.76,0,0,1,50,12.39ZM50,14.58s0,0,0,.44c0,1.33-.87,1.62-1.36,1.62S47.3,16.35,47.3,15c0-.4,0-1.5,0-1.5h6.18c0-2.25-2.17-4.12-4.84-4.12s-4.84,1.83-4.84,4.08,2.17,4.08,4.84,4.08a4.8,4.8,0,0,0,4.66-3Z"/><path class="cls-2" d="M85.27,8.79h-.38V6.31h.95c.59,0,.88.22.88.71a.65.65,0,0,1-.65.69l.71,1.1h-.42L85.7,7.72h-.43V8.79Zm.45-1.4c.32,0,.6,0,.6-.4s-.28-.36-.54-.36h-.51V7.4Z"/><path class="cls-2" d="M83.54,7.54a2.18,2.18,0,1,1,2.19,2.16,2.15,2.15,0,0,1-2.19-2.16Zm2.19,1.8a1.74,1.74,0,0,0,1.74-1.8,1.75,1.75,0,1,0-3.5,0,1.74,1.74,0,0,0,1.76,1.8Z"/></g></g></svg>