<svg xmlns="http://www.w3.org/2000/svg" viewBox="0 0 35.57 27.5"><defs><style>.cls-1{fill:#e43345;}</style></defs><title>ps4-logo</title><g id="Layer_2" data-name="Layer 2"><g id="Layer_1-2" data-name="Layer 1"><path class="cls-1" d="M13.26,0a1.53,1.53,0,0,1,.5.1l.35,0c.27.1.56.14.84.23l.37,0,.36.13a6.17,6.17,0,0,0,.7.14v0a8.68,8.68,0,0,1,1,.27,6.24,6.24,0,0,1,.94.29l.32,0v.07l.27,0,.34.13c.22.05.43.12.64.19s.49.17.74.23l.53.17.38.14.27.1.38.13.35.15.3.11.45.2.47.26h.09a6.11,6.11,0,0,0,.64.39l.33.22a8.65,8.65,0,0,1,1.19,1v.09l.06,0a11.15,11.15,0,0,1,.72,1l.17.33h0l.11.31.17.36A7.45,7.45,0,0,1,27.6,8h.06c0,.21,0,.43,0,.64h.06a15.64,15.64,0,0,1,0,3c0,.2,0,.41,0,.62l-.06,0c0,.17,0,.34,0,.52a5.25,5.25,0,0,0-.18.54l-.14.38q-.1.19-.2.37v.07l-.14.22,0,0-.23.34-.11.13h0l-.09.13-.33.31-.39.26-.18.12h-.09a4.69,4.69,0,0,1-2.57.24c-.33-.11-.67-.19-1-.33l-.34-.12v-.09l-.17,0v-.12h-.09c0-2.28,0-4.56,0-6.85,0-.9,0-1.81,0-2.71h-.06a1.34,1.34,0,0,0-1.55-1.2l-.19.13a1.55,1.55,0,0,0-.42,1.21q0,10,0,19.92c0,.57,0,1.14,0,1.71l-.24,0,.16-.13a1.45,1.45,0,0,1-.8-.15c-.25-.08-.49-.16-.74-.23l-.36-.13-.24,0v-.06a5,5,0,0,1-.64-.19,4.61,4.61,0,0,0-.56-.15v-.05l-.24,0-.35-.14-.28-.08L14.5,26l-.83-.27-.41-.12Q13.27,12.82,13.26,0Z"/><path class="cls-1" d="M11.88,15.53h.29c0,1.12,0,2.24,0,3.36a3.12,3.12,0,0,0-.6.21l-.21,0-.3.15-.15,0c-.39.16-.79.27-1.17.44l-.24,0v.06L9.07,20l-.33.09v0l-.32.09L8,20.34v.06l-.24,0a2.69,2.69,0,0,1-.49.18v0A11.11,11.11,0,0,0,6,21.07l-.36.18-.29.2c0,.14-.09.28-.12.42h.08l.12.13v0l.33.14.42.09,0,.05a17.32,17.32,0,0,0,2,0l0-.07A3,3,0,0,0,9.34,22l.2,0,.33-.15.41-.13.35-.14L11,21.4c.2-.07.4-.15.6-.24h.18v-.09l.38,0c0,1,0,2,0,3a6,6,0,0,1-.74.11v.05l-.92,0,0,.07a7.84,7.84,0,0,0-1.09.06,11.07,11.07,0,0,1-1.84,0l-1.07,0,0-.07-.81,0c0-.11-.1-.25-.17-.08H5.28l0,0a2.33,2.33,0,0,1-.48-.09,2.78,2.78,0,0,1-.47-.1l-.35-.06-.37-.13-.33,0v-.05a6.91,6.91,0,0,1-.87-.26l-.47-.15L1.64,23h-.1l-.19-.12L.88,22.6l-.46-.4-.29-.37a1.71,1.71,0,0,1,0-1.31,3.13,3.13,0,0,1,.72-.69c.16-.1.32-.19.48-.28v-.07l.16,0,0-.07.58-.28.45-.21.3-.12a5.51,5.51,0,0,1,.77-.28v-.06l.25,0,.3-.15.16,0,.28-.1.88-.32.29-.1.45-.18.21,0c.29-.13.59-.22.89-.33s.5-.17.73-.28l.2,0,.46-.19L9,16.62v0a5.65,5.65,0,0,0,.71-.23l.44-.16.66-.22.34-.13.36-.13.34-.1Z"/><path class="cls-1" d="M25.94,17l0-.06c.48,0,1,0,1.44,0s.85.06,1.28.1a5,5,0,0,0,.54.06l0,.06.77,0c.33.11.69.11,1,.23l.41.05v.06a6,6,0,0,1,.93.23v0a11,11,0,0,1,1.14.37l.31.14.36.16.12,0v.12h.14c.19.14.38.28.56.43H35v.11h.07l.17.22.15.17s0,.07,0,.09l.16.25a1.69,1.69,0,0,1-.15.94l-.14.22-.1.12h0l-.1.12a6.57,6.57,0,0,1-1.45.94,7.59,7.59,0,0,1-.75.33l-.27.1c-.63.25-1.28.46-1.91.69l-.46.16-.28.11-.21.05-.44.17-.29.1-.89.33-.38.13-.36.14-.28.1c-.15.06-.3.11-.45.18l-.2,0L26,25l-.33.1v0c-.54.14-1.05.37-1.58.54l-.29.11-.65.23-.74.27-.28.1-.61.23a9.61,9.61,0,0,1-1.32.43c0-1.08,0-2.17,0-3.25.08-.17.32-.16.47-.25l.65-.23.58-.2c.16-.06.32-.12.49-.16v-.06l.36,0v-.06l.69-.23.46-.16.28-.11.29-.09.45-.17L26,21.62l.29-.11.13,0,.32-.15.2,0c.43-.18.87-.32,1.31-.48l.28-.08v0l.33-.08a6.92,6.92,0,0,1,.7-.24v0a1.34,1.34,0,0,0,.43-.2h.08l.1-.15.14-.07a.44.44,0,0,0-.22-.62l-.3-.12a1.63,1.63,0,0,0-.61-.09V19a5.48,5.48,0,0,0-1.41.06l-.55,0c-.25.08-.5.13-.75.21l-.74.25-.36.15-.19,0-.46.19a3.44,3.44,0,0,1-.77.22s0,.07,0,.09l-.42.1-.26.1-.47.17-.35.12c-.25.09-.5.17-.74.27l-.18,0-.47.19-.28.09a2.87,2.87,0,0,1-.65.21c0-1,0-2.08,0-3.12a1,1,0,0,1,.07-.4,2.2,2.2,0,0,0,.6-.18l.26,0a6.7,6.7,0,0,1,1-.28,2.3,2.3,0,0,1,.46-.09l.45-.12.52,0V17.2l.83,0,0-.06A13.64,13.64,0,0,1,25.94,17Z"/></g></g></svg>