<?xml version="1.0" encoding="UTF-8" standalone="no"?>
<!-- Created with Inkscape (http://www.inkscape.org/) -->

<svg
   xmlns:dc="http://purl.org/dc/elements/1.1/"
   xmlns:cc="http://creativecommons.org/ns#"
   xmlns:rdf="http://www.w3.org/1999/02/22-rdf-syntax-ns#"
   xmlns:svg="http://www.w3.org/2000/svg"
   xmlns="http://www.w3.org/2000/svg"
   xmlns:sodipodi="http://sodipodi.sourceforge.net/DTD/sodipodi-0.dtd"
   xmlns:inkscape="http://www.inkscape.org/namespaces/inkscape"
   width="52.527"
   height="40"
   viewBox="0 0 52.527001 40.000001"
   id="svg5784"
   version="1.1"
   inkscape:version="0.91 r13725"
   sodipodi:docname="check.svg">
  <defs
     id="defs5786" />
  <sodipodi:namedview
     id="base"
     pagecolor="#ffffff"
     bordercolor="#666666"
     borderopacity="1.0"
     inkscape:pageopacity="0.0"
     inkscape:pageshadow="2"
     inkscape:zoom="1.979899"
     inkscape:cx="54.873527"
     inkscape:cy="37.825528"
     inkscape:document-units="px"
     inkscape:current-layer="layer1"
     showgrid="false"
     units="px"
     inkscape:window-width="1323"
     inkscape:window-height="744"
     inkscape:window-x="37"
     inkscape:window-y="24"
     inkscape:window-maximized="1" />
  <metadata
     id="metadata5789">
    <rdf:RDF>
      <cc:Work
         rdf:about="">
        <dc:format>image/svg+xml</dc:format>
        <dc:type
           rdf:resource="http://purl.org/dc/dcmitype/StillImage" />
        <dc:title></dc:title>
      </cc:Work>
    </rdf:RDF>
  </metadata>
  <g
     inkscape:label="Layer 1"
     inkscape:groupmode="layer"
     id="layer1"
     transform="translate(0,-1012.3622)">
    <g
       id="g1636"
       transform="matrix(1.0613211,0,0,-1.0613211,18.841104,1052.0518)">
      <path
         d="m 0,0 -17.46,17.459 c -0.39,0.391 -0.39,1.024 0,1.415 l 5.656,5.657 c 0.391,0.39 1.024,0.39 1.415,0 L 0,14.142 c 0.391,-0.391 1.024,-0.391 1.414,0 l 22.962,22.962 c 0.391,0.39 1.024,0.39 1.414,-10e-4 l 5.656,-5.657 c 0.391,-0.39 0.391,-1.023 0,-1.414 L 1.414,0 C 1.024,-0.39 0.391,-0.39 0,0"
         style="fill:#071428;fill-opacity:1;fill-rule:nonzero;stroke:none"
         id="path1638"
         inkscape:connector-curvature="0" />
    </g>
  </g>
</svg>
