<?xml version="1.0" encoding="UTF-8" standalone="no"?>
<!-- Created with Inkscape (http://www.inkscape.org/) -->

<svg
   xmlns:dc="http://purl.org/dc/elements/1.1/"
   xmlns:cc="http://creativecommons.org/ns#"
   xmlns:rdf="http://www.w3.org/1999/02/22-rdf-syntax-ns#"
   xmlns:svg="http://www.w3.org/2000/svg"
   xmlns="http://www.w3.org/2000/svg"
   xmlns:sodipodi="http://sodipodi.sourceforge.net/DTD/sodipodi-0.dtd"
   xmlns:inkscape="http://www.inkscape.org/namespaces/inkscape"
   width="40"
   height="40"
   viewBox="0 0 40 40.000001"
   id="svg5276"
   version="1.1"
   inkscape:version="0.91 r13725"
   sodipodi:docname="contact-password.svg">
  <defs
     id="defs5278">
    <clipPath
       clipPathUnits="userSpaceOnUse"
       id="clipPath464">
      <path
         d="m 0,2136.975 2560,0 L 2560,0 0,0 0,2136.975 Z"
         id="path466"
         inkscape:connector-curvature="0" />
    </clipPath>
  </defs>
  <sodipodi:namedview
     id="base"
     pagecolor="#ffffff"
     bordercolor="#666666"
     borderopacity="1.0"
     inkscape:pageopacity="0.0"
     inkscape:pageshadow="2"
     inkscape:zoom="0.35"
     inkscape:cx="-109.28571"
     inkscape:cy="497.42386"
     inkscape:document-units="px"
     inkscape:current-layer="layer1"
     showgrid="false"
     units="px"
     inkscape:window-width="1329"
     inkscape:window-height="744"
     inkscape:window-x="37"
     inkscape:window-y="24"
     inkscape:window-maximized="1" />
  <metadata
     id="metadata5281">
    <rdf:RDF>
      <cc:Work
         rdf:about="">
        <dc:format>image/svg+xml</dc:format>
        <dc:type
           rdf:resource="http://purl.org/dc/dcmitype/StillImage" />
        <dc:title></dc:title>
      </cc:Work>
    </rdf:RDF>
  </metadata>
  <g
     inkscape:label="Layer 1"
     inkscape:groupmode="layer"
     id="layer1"
     transform="translate(0,-1012.3622)">
    <g
       id="g468"
       transform="matrix(1.0756158,0,0,-1.0756158,20,1049.4322)">
      <path
         d="m 0,0 c -8.751,0 -15.87,7.119 -15.87,15.87 0,8.75 7.119,15.87 15.87,15.87 8.751,0 15.87,-7.12 15.87,-15.87 C 15.87,7.119 8.751,0 0,0 m 18.094,15.87 c 0,9.977 -8.117,18.094 -18.094,18.094 -9.977,0 -18.094,-8.117 -18.094,-18.094 0,-9.977 8.117,-18.094 18.094,-18.094 9.977,0 18.094,8.117 18.094,18.094"
         style="fill:#ffffff;fill-opacity:1;fill-rule:nonzero;stroke:none"
         id="path470"
         inkscape:connector-curvature="0" />
    </g>
    <g
       id="g472"
       transform="matrix(1.0756158,0,0,-1.0756158,20,1049.4322)">
      <path
         d="m 0,0 c -8.751,0 -15.87,7.119 -15.87,15.87 0,8.75 7.119,15.87 15.87,15.87 8.751,0 15.87,-7.12 15.87,-15.87 C 15.87,7.119 8.751,0 0,0 Z m 18.094,15.87 c 0,9.977 -8.117,18.094 -18.094,18.094 -9.977,0 -18.094,-8.117 -18.094,-18.094 0,-9.977 8.117,-18.094 18.094,-18.094 9.977,0 18.094,8.117 18.094,18.094 z"
         style="fill:none;stroke:#ffffff;stroke-width:1;stroke-linecap:butt;stroke-linejoin:miter;stroke-miterlimit:10;stroke-dasharray:none;stroke-opacity:1"
         id="path474"
         inkscape:connector-curvature="0" />
    </g>
    <g
       id="g476"
       transform="matrix(1.0756158,0,0,-1.0756158,19.79692,1020.2686)">
      <path
         d="m 0,0 c 2.177,0 3.941,-1.764 3.941,-3.941 0,-2.176 -1.764,-3.941 -3.941,-3.941 -2.176,0 -3.941,1.765 -3.941,3.941 C -3.941,-1.764 -2.176,0 0,0 m 0,-8.994 c 2.786,0 5.053,2.267 5.053,5.053 0,2.786 -2.267,5.053 -5.053,5.053 -2.786,0 -5.053,-2.267 -5.053,-5.053 0,-2.786 2.267,-5.053 5.053,-5.053"
         style="fill:#ffffff;fill-opacity:1;fill-rule:nonzero;stroke:none"
         id="path478"
         inkscape:connector-curvature="0" />
    </g>
    <g
       id="g480"
       transform="matrix(1.0756158,0,0,-1.0756158,19.79692,1020.2686)">
      <path
         d="m 0,0 c 2.177,0 3.941,-1.764 3.941,-3.941 0,-2.176 -1.764,-3.941 -3.941,-3.941 -2.176,0 -3.941,1.765 -3.941,3.941 C -3.941,-1.764 -2.176,0 0,0 Z m 0,-8.994 c 2.786,0 5.053,2.267 5.053,5.053 0,2.786 -2.267,5.053 -5.053,5.053 -2.786,0 -5.053,-2.267 -5.053,-5.053 0,-2.786 2.267,-5.053 5.053,-5.053 z"
         style="fill:none;stroke:#ffffff;stroke-width:1;stroke-linecap:butt;stroke-linejoin:miter;stroke-miterlimit:10;stroke-dasharray:none;stroke-opacity:1"
         id="path482"
         inkscape:connector-curvature="0" />
    </g>
    <g
       id="g484"
       transform="matrix(1.0756158,0,0,-1.0756158,11.31935,1035.6505)">
      <path
         d="m 0,0 c -2.177,0 -3.941,1.764 -3.941,3.941 0,2.176 1.764,3.941 3.941,3.941 2.176,0 3.941,-1.765 3.941,-3.941 C 3.941,1.764 2.176,0 0,0 m 5.053,3.941 c 0,2.786 -2.267,5.053 -5.053,5.053 -2.786,0 -5.053,-2.267 -5.053,-5.053 0,-2.786 2.267,-5.053 5.053,-5.053 2.786,0 5.053,2.267 5.053,5.053"
         style="fill:#ffffff;fill-opacity:1;fill-rule:nonzero;stroke:none"
         id="path486"
         inkscape:connector-curvature="0" />
    </g>
    <g
       id="g488"
       transform="matrix(1.0756158,0,0,-1.0756158,11.31935,1035.6505)">
      <path
         d="m 0,0 c -2.177,0 -3.941,1.764 -3.941,3.941 0,2.176 1.764,3.941 3.941,3.941 2.176,0 3.941,-1.765 3.941,-3.941 C 3.941,1.764 2.176,0 0,0 Z m 5.053,3.941 c 0,2.786 -2.267,5.053 -5.053,5.053 -2.786,0 -5.053,-2.267 -5.053,-5.053 0,-2.786 2.267,-5.053 5.053,-5.053 2.786,0 5.053,2.267 5.053,5.053 z"
         style="fill:none;stroke:#ffffff;stroke-width:1;stroke-linecap:butt;stroke-linejoin:miter;stroke-miterlimit:10;stroke-dasharray:none;stroke-opacity:1"
         id="path490"
         inkscape:connector-curvature="0" />
    </g>
    <g
       id="g492"
       transform="matrix(1.0756158,0,0,-1.0756158,28.68065,1037.5522)">
      <path
         d="m 0,0 c -2.176,0 -3.941,1.764 -3.941,3.941 0,2.176 1.765,3.941 3.941,3.941 2.177,0 3.941,-1.765 3.941,-3.941 C 3.941,1.764 2.177,0 0,0 m 0,8.994 c -2.786,0 -5.053,-2.267 -5.053,-5.053 0,-2.786 2.267,-5.053 5.053,-5.053 2.786,0 5.053,2.267 5.053,5.053 0,2.786 -2.267,5.053 -5.053,5.053"
         style="fill:#ffffff;fill-opacity:1;fill-rule:nonzero;stroke:none"
         id="path494"
         inkscape:connector-curvature="0" />
    </g>
    <g
       id="g496"
       transform="matrix(1.0756158,0,0,-1.0756158,28.68065,1037.5522)">
      <path
         d="m 0,0 c -2.176,0 -3.941,1.764 -3.941,3.941 0,2.176 1.765,3.941 3.941,3.941 2.177,0 3.941,-1.765 3.941,-3.941 C 3.941,1.764 2.177,0 0,0 Z m 0,8.994 c -2.786,0 -5.053,-2.267 -5.053,-5.053 0,-2.786 2.267,-5.053 5.053,-5.053 2.786,0 5.053,2.267 5.053,5.053 0,2.786 -2.267,5.053 -5.053,5.053 z"
         style="fill:none;stroke:#ffffff;stroke-width:1;stroke-linecap:butt;stroke-linejoin:miter;stroke-miterlimit:10;stroke-dasharray:none;stroke-opacity:1"
         id="path498"
         inkscape:connector-curvature="0" />
    </g>
    <g
       id="g500"
       transform="matrix(1.0756158,0,0,-1.0756158,20.20319,1044.4562)">
      <path
         d="m 0,0 c -2.177,0 -3.941,1.764 -3.941,3.941 0,2.176 1.764,3.941 3.941,3.941 2.176,0 3.941,-1.765 3.941,-3.941 C 3.941,1.764 2.176,0 0,0 m 0,8.994 c -2.786,0 -5.053,-2.267 -5.053,-5.053 0,-2.787 2.267,-5.053 5.053,-5.053 2.786,0 5.053,2.266 5.053,5.053 0,2.786 -2.267,5.053 -5.053,5.053"
         style="fill:#ffffff;fill-opacity:1;fill-rule:nonzero;stroke:none"
         id="path502"
         inkscape:connector-curvature="0" />
    </g>
    <g
       id="g504"
       transform="matrix(1.0756158,0,0,-1.0756158,20.20319,1044.4562)">
      <path
         d="m 0,0 c -2.177,0 -3.941,1.764 -3.941,3.941 0,2.176 1.764,3.941 3.941,3.941 2.176,0 3.941,-1.765 3.941,-3.941 C 3.941,1.764 2.176,0 0,0 Z m 0,8.994 c -2.786,0 -5.053,-2.267 -5.053,-5.053 0,-2.787 2.267,-5.053 5.053,-5.053 2.786,0 5.053,2.266 5.053,5.053 0,2.786 -2.267,5.053 -5.053,5.053 z"
         style="fill:none;stroke:#ffffff;stroke-width:1;stroke-linecap:butt;stroke-linejoin:miter;stroke-miterlimit:10;stroke-dasharray:none;stroke-opacity:1"
         id="path506"
         inkscape:connector-curvature="0" />
    </g>
  </g>
</svg>
