<?xml version="1.0" encoding="UTF-8" standalone="no"?>
<!-- Created with Inkscape (http://www.inkscape.org/) -->

<svg
   xmlns:dc="http://purl.org/dc/elements/1.1/"
   xmlns:cc="http://creativecommons.org/ns#"
   xmlns:rdf="http://www.w3.org/1999/02/22-rdf-syntax-ns#"
   xmlns:svg="http://www.w3.org/2000/svg"
   xmlns="http://www.w3.org/2000/svg"
   xmlns:sodipodi="http://sodipodi.sourceforge.net/DTD/sodipodi-0.dtd"
   xmlns:inkscape="http://www.inkscape.org/namespaces/inkscape"
   width="268.44101"
   height="75"
   viewBox="0 0 268.44102 75.000003"
   id="svg11609"
   version="1.1"
   inkscape:version="0.91 r13725"
   sodipodi:docname="gameclub-logo.svg">
  <defs
     id="defs11611">
    <clipPath
       clipPathUnits="userSpaceOnUse"
       id="clipPath774">
      <path
         d="m 5.88,392.523 2554.119,0 0,1024.889 -2554.119,0 0,-1024.889 z"
         id="path776"
         inkscape:connector-curvature="0" />
    </clipPath>
    <clipPath
       clipPathUnits="userSpaceOnUse"
       id="clipPath2892">
      <path
         d="m 0,7263 2560,0 L 2560,0 0,0 0,7263 Z"
         id="path2894"
         inkscape:connector-curvature="0" />
    </clipPath>
  </defs>
  <sodipodi:namedview
     id="base"
     pagecolor="#ffffff"
     bordercolor="#666666"
     borderopacity="1.0"
     inkscape:pageopacity="0.0"
     inkscape:pageshadow="2"
     inkscape:zoom="2.0647431"
     inkscape:cx="121.28777"
     inkscape:cy="2.1935663"
     inkscape:document-units="px"
     inkscape:current-layer="layer1"
     showgrid="false"
     units="px"
     inkscape:window-width="1329"
     inkscape:window-height="744"
     inkscape:window-x="37"
     inkscape:window-y="24"
     inkscape:window-maximized="1" />
  <metadata
     id="metadata11614">
    <rdf:RDF>
      <cc:Work
         rdf:about="">
        <dc:format>image/svg+xml</dc:format>
        <dc:type
           rdf:resource="http://purl.org/dc/dcmitype/StillImage" />
        <dc:title></dc:title>
      </cc:Work>
    </rdf:RDF>
  </metadata>
  <g
     inkscape:label="Layer 1"
     inkscape:groupmode="layer"
     id="layer1"
     transform="translate(0,-977.3621)">
    <g
       id="g2896"
       transform="matrix(0.69974896,0,0,-0.69974896,198.3591,1019.5845)">
      <path
         d="m 0,0 c -0.603,-1.025 -1.293,-1.92 -2.109,-2.736 -1.209,-1.209 -2.627,-2.167 -4.21,-2.846 -1.645,-0.68 -3.389,-1.025 -5.185,-1.025 -1.822,0 -3.518,0.336 -5.18,1.023 -1.551,0.665 -2.99,1.623 -4.275,2.848 -1.225,1.286 -2.184,2.724 -2.846,4.27 -0.69,1.667 -1.026,3.363 -1.026,5.185 0,1.796 0.346,3.541 1.024,5.18 0.68,1.588 1.638,3.006 2.848,4.216 1.277,1.277 2.711,2.234 4.261,2.843 l 0.021,0.008 c 1.619,0.726 3.311,1.079 5.173,1.079 1.835,0 3.575,-0.363 5.173,-1.079 l 0.02,-0.008 c 1.58,-0.622 2.992,-1.575 4.195,-2.836 l 0.019,-0.018 c 0.815,-0.761 1.499,-1.649 2.091,-2.715 l 0.247,-0.445 2.122,1.476 -0.214,0.367 c -2.822,4.828 -8.054,7.828 -13.653,7.828 -4.255,0 -8.249,-1.651 -11.247,-4.649 -2.998,-2.998 -4.649,-6.992 -4.649,-11.247 0,-4.255 1.651,-8.249 4.649,-11.247 2.998,-2.998 6.992,-4.649 11.247,-4.649 5.651,0 10.906,3.023 13.713,7.889 L 2.438,-0.891 0.232,0.395 0,0 Z"
         style="fill:#e43345;fill-opacity:1;fill-rule:nonzero;stroke:none"
         id="path2898"
         inkscape:connector-curvature="0" />
    </g>
    <g
       id="g2900"
       transform="matrix(0.69974896,0,0,-0.69974896,209.02867,1003.7185)">
      <path
         d="m 0,0 -2.57,0 0,-31.792 21.353,0 0,2.57 L 0,-29.222 0,0 Z"
         style="fill:#e43345;fill-opacity:1;fill-rule:nonzero;stroke:none"
         id="path2902"
         inkscape:connector-curvature="0" />
    </g>
    <g
       id="g2904"
       transform="matrix(0.69974896,0,0,-0.69974896,244.40658,1018.2635)">
      <path
         d="m 0,0 c 0,-2.271 -0.873,-4.394 -2.458,-5.979 -1.622,-1.622 -3.745,-2.516 -5.978,-2.516 -2.289,0 -4.41,0.892 -5.973,2.511 l -0.012,0.011 c -1.619,1.563 -2.51,3.684 -2.51,5.973 l 0,20.727 -2.57,0 0,-20.727 c 0,-6.101 4.964,-11.064 11.065,-11.064 6.068,0 11.006,4.963 11.006,11.064 l 0,20.727 -2.57,0 L 0,0 Z"
         style="fill:#e43345;fill-opacity:1;fill-rule:nonzero;stroke:none"
         id="path2906"
         inkscape:connector-curvature="0" />
    </g>
    <g
       id="g2908"
       transform="matrix(0.69974896,0,0,-0.69974896,254.14484,1013.2006)">
      <path
         d="m 0,0 0,10.922 7.54,0 c 2.995,0 5.432,-2.463 5.432,-5.49 C 12.972,2.437 10.535,0 7.54,0 L 0,0 Z m 17.862,-9.121 c 0,-1.716 -0.685,-3.379 -1.928,-4.682 -1.303,-1.243 -2.965,-1.927 -4.682,-1.927 l -11.252,0 0,13.161 11.252,0 c 1.777,0 3.44,-0.685 4.675,-1.92 1.248,-1.305 1.935,-2.949 1.935,-4.632 m -4.644,8.902 c 1.524,1.531 2.382,3.544 2.382,5.651 0,2.142 -0.829,4.156 -2.335,5.671 -1.503,1.51 -3.512,2.358 -5.666,2.389 l -10.169,0 0,-31.792 13.822,0 c 5.062,0 9.179,4.118 9.179,9.179 0,4.33 -3.038,7.999 -7.213,8.902"
         style="fill:#e43345;fill-opacity:1;fill-rule:nonzero;stroke:none"
         id="path2910"
         inkscape:connector-curvature="0" />
    </g>
    <g
       id="g2912"
       transform="matrix(0.69974896,0,0,-0.69974896,103.76102,1012.344)">
      <path
         d="m 0,0 9.123,0 0,-18.69 -6.058,0 0,3.028 c -3.547,-2.812 -7.268,-3.548 -9.561,-3.548 -8.696,0.087 -15.619,7.053 -15.532,15.749 0.086,8.609 7.095,15.532 15.705,15.532 l 0.13,0 C -2.516,12.028 0.816,10.73 3.455,8.61 L -0.915,4.327 C -2.473,5.408 -4.29,5.971 -6.237,6.014 l -0.086,0 c -2.553,0 -4.976,-0.995 -6.793,-2.812 -1.817,-1.774 -2.855,-4.197 -2.855,-6.749 -0.044,-2.554 0.951,-5.019 2.725,-6.837 1.817,-1.86 4.24,-2.898 6.793,-2.898 l 0.13,0 c 2.552,0 4.932,0.995 6.749,2.769 1.298,1.254 2.163,2.768 2.596,4.456 L 0,-6.057 0,0 Z"
         style="fill:#ffffff;fill-opacity:1;fill-rule:nonzero;stroke:none"
         id="path2914"
         inkscape:connector-curvature="0" />
    </g>
    <g
       id="g2916"
       transform="matrix(0.69974896,0,0,-0.69974896,127.85394,1021.1691)">
      <path
         d="M 0,0 -5.798,12.374 -12.114,0 0,0 Z m 8.826,-4.457 0,-1.6 -29.983,0 0,1.6 14.624,28.729 1.774,0 13.585,-28.729 z"
         style="fill:#ffffff;fill-opacity:1;fill-rule:nonzero;stroke:none"
         id="path2918"
         inkscape:connector-curvature="0" />
    </g>
    <path
       d="m 161.50738,1021.1694 15.47845,0 0,4.2384 -15.47845,0 0,-4.2384 z m 0,-8.8105 15.47845,0 0,4.2383 -15.47845,0 0,-4.2383 z m 15.57782,-3.9354 -15.57851,0 0,-4.2384 15.57851,0 0,4.2384 z"
       style="fill:#ffffff;fill-opacity:1;fill-rule:nonzero;stroke:none"
       id="path2920"
       inkscape:connector-curvature="0" />
    <g
       id="g2922"
       transform="matrix(0.69974896,0,0,-0.69974896,136.99749,1025.0899)">
      <path
         d="m 0,0 6.053,0 0,11.094 L 0,16.536 0,0 Z"
         style="fill:#ffffff;fill-opacity:1;fill-rule:nonzero;stroke:none"
         id="path2924"
         inkscape:connector-curvature="0" />
    </g>
    <g
       id="g2926"
       transform="matrix(0.69974896,0,0,-0.69974896,156.16144,1003.8671)">
      <path
         d="m 0,0 -12.633,-11.509 -8.701,7.9 -3.976,3.609 -2.077,0 0,-6.322 14.754,-13.364 8.696,7.918 0,-18.561 6.057,0 L 2.12,0 0,0 Z"
         style="fill:#ffffff;fill-opacity:1;fill-rule:nonzero;stroke:none"
         id="path2928"
         inkscape:connector-curvature="0" />
    </g>
    <g
       id="g2930"
       transform="matrix(0.69974896,0,0,-0.69974896,33.843009,978.87706)">
      <path
         d="m 0,0 -13.694,-13.694 c -2.03,3.64 -5.919,6.108 -10.374,6.108 -6.546,0 -11.871,-5.326 -11.871,-11.872 0,-4.038 2.028,-7.612 5.119,-9.757 l 0,-1.605 -15.38,-15.38 c -2.886,-2.886 -2.886,-7.566 0,-10.451 l 6.643,-6.643 6.76,-6.76 0,-15.058 c 0,-2.318 1.886,-4.204 4.203,-4.204 l 15.058,0 L 0,-102.852 c 1.386,-1.386 3.266,-2.164 5.226,-2.164 l 0,107.181 C 3.266,2.165 1.386,1.386 0,0"
         style="fill:#2cb4bf;fill-opacity:1;fill-rule:nonzero;stroke:none"
         id="path2932"
         inkscape:connector-curvature="0" />
    </g>
    <g
       id="g2934"
       transform="matrix(0.69974896,0,0,-0.69974896,27.776259,1024.0149)">
      <path
         d="m 0,0 -0.003,0.001 c -1.028,-1.283 -2.605,-2.107 -4.377,-2.107 -3.096,0 -5.607,2.51 -5.607,5.606 0,0.427 0.052,0.841 0.143,1.241 0,0 2.516,15.619 2.532,15.76 0.01,0.084 0.038,0.157 0.08,0.222 0.681,4.65 4.684,8.22 9.522,8.22 l 11.605,0 0.001,26.198 -41.723,-41.723 41.723,-41.723 0,37.171 -8.21,0 C 4.629,7.854 0,0 0,0"
         style="fill:#e43345;fill-opacity:1;fill-rule:nonzero;stroke:none"
         id="path2936"
         inkscape:connector-curvature="0" />
    </g>
    <g
       id="g2938"
       transform="matrix(0.69974896,0,0,-0.69974896,73.484839,1018.5187)">
      <path
         d="m 0,0 c 2.886,2.886 2.886,7.565 0,10.451 l -13.246,13.246 0,15.31 c 0,2.318 -1.886,4.204 -4.204,4.204 l -15.31,0 -13.44,13.44 c -1.386,1.386 -3.266,2.165 -5.226,2.165 l 0,-107.181 c 1.96,0 3.84,0.779 5.226,2.165 l 13.694,13.694 c 2.03,-3.64 5.919,-6.108 10.374,-6.108 6.546,0 11.871,5.325 11.871,11.871 0,4.039 -2.028,7.612 -5.119,9.758 l 0,1.605 L 0,0 Z"
         style="fill:#e43345;fill-opacity:1;fill-rule:nonzero;stroke:none"
         id="path2940"
         inkscape:connector-curvature="0" />
    </g>
    <g
       id="g2942"
       transform="matrix(0.69974896,0,0,-0.69974896,12.342389,1021.7968)">
      <path
         d="M 0,0 0,4.505 -5.743,10.249 0,15.992 0,20.497 -10.248,10.249 0,0 Z"
         style="fill:#1c3664;fill-opacity:1;fill-rule:nonzero;stroke:none"
         id="path2944"
         inkscape:connector-curvature="0" />
    </g>
    <g
       id="g2946"
       transform="matrix(0.69974896,0,0,-0.69974896,30.328529,1039.7829)">
      <path
         d="m 0,0 10.248,-10.248 0,4.505 L 4.505,0 0,0 Z"
         style="fill:#1c3664;fill-opacity:1;fill-rule:nonzero;stroke:none"
         id="path2948"
         inkscape:connector-curvature="0" />
    </g>
    <g
       id="g2950"
       transform="matrix(0.69974896,0,0,-0.69974896,57.998139,1034.5057)">
      <path
         d="m 0,0 c -1.965,0 -3.558,-1.593 -3.558,-3.558 0,-1.965 1.593,-3.558 3.558,-3.558 1.965,0 3.558,1.593 3.558,3.558 C 3.558,-1.593 1.965,0 0,0"
         style="fill:#1c3664;fill-opacity:1;fill-rule:nonzero;stroke:none"
         id="path2952"
         inkscape:connector-curvature="0" />
    </g>
    <g
       id="g2954"
       transform="matrix(0.69974896,0,0,-0.69974896,29.341249,1005.8102)">
      <path
         d="m 0,0 c 4.01,0 7.273,-3.263 7.273,-7.273 0,-4.011 -3.263,-7.274 -7.273,-7.274 -4.011,0 -7.273,3.263 -7.273,7.274 C -7.273,-3.263 -4.011,0 0,0 m 0,-15.566 c 4.573,0 8.293,3.72 8.293,8.293 0,4.572 -3.72,8.293 -8.293,8.293 -4.573,0 -8.293,-3.721 -8.293,-8.293 0,-4.573 3.72,-8.293 8.293,-8.293"
         style="fill:#1c3664;fill-opacity:1;fill-rule:nonzero;stroke:none"
         id="path2956"
         inkscape:connector-curvature="0" />
    </g>
    <g
       id="g2958"
       transform="matrix(0.69974896,0,0,-0.69974896,26.046839,1010.5738)">
      <path
         d="m 0,0 c 0,0.55 0.446,0.997 0.997,0.997 l 1.187,0 0.997,0 0,2.184 c 0,0.55 0.446,0.997 0.996,0.997 l 0.806,0 c 0.551,0 0.997,-0.447 0.997,-0.997 l 0,-1.188 0,-0.996 1.93,0 C 8.46,0.997 8.906,0.55 8.906,0 l 0,-0.806 c 0,-0.55 -0.446,-0.996 -0.996,-0.996 l -1.93,0 0,-0.997 0,-0.933 c 0,-0.551 -0.446,-0.997 -0.997,-0.997 l -0.806,0 c -0.55,0 -0.996,0.446 -0.996,0.997 l 0,1.93 -0.997,0 -1.187,0 C 0.446,-1.802 0,-1.356 0,-0.806 L 0,0 Z m 0.997,-2.503 1.187,0 c 0.164,0 0.296,-0.133 0.296,-0.296 l 0,-0.933 c 0,-0.936 0.762,-1.698 1.698,-1.698 l 0.805,0 c 0.936,0 1.697,0.762 1.697,1.698 l 0,0.933 c 0,0.163 0.133,0.296 0.296,0.296 l 0.934,0 c 0.936,0 1.697,0.761 1.697,1.697 l 0,0.806 c 0,0.936 -0.761,1.697 -1.697,1.697 l -0.934,0 C 6.813,1.697 6.68,1.83 6.68,1.993 l 0,1.188 c 0,0.936 -0.761,1.697 -1.697,1.697 l -0.805,0 C 3.242,4.878 2.48,4.117 2.48,3.181 l 0,-1.188 C 2.48,1.83 2.348,1.697 2.184,1.697 l -1.187,0 C 0.061,1.697 -0.701,0.936 -0.701,0 l 0,-0.806 c 0,-0.936 0.762,-1.697 1.698,-1.697"
         style="fill:#1c3664;fill-opacity:1;fill-rule:nonzero;stroke:none"
         id="path2960"
         inkscape:connector-curvature="0" />
    </g>
    <g
       id="g2962"
       transform="matrix(0.69974896,0,0,-0.69974896,24.585189,1019.5106)">
      <path
         d="m 0,0 c -2.094,0 -3.791,-1.697 -3.791,-3.791 0,-2.093 1.697,-3.79 3.791,-3.79 2.094,0 3.791,1.697 3.791,3.79 C 3.791,-1.697 2.094,0 0,0"
         style="fill:#1c3664;fill-opacity:1;fill-rule:nonzero;stroke:none"
         id="path2964"
         inkscape:connector-curvature="0" />
    </g>
    <g
       id="g2966"
       transform="matrix(0.69974896,0,0,-0.69974896,58.755269,1003.5527)">
      <path
         d="M 0,0 0,-4.505 0,-4.519 -19.071,14.552 0,14.552 0,0 Z m 0,-27.143 0,-4.505 0,-5.308 -2.654,2.654 -2.252,2.253 -0.007,0.007 4.913,4.913 0,-0.014 z m -29.37,26.844 10.613,0 c 4.848,0 8.857,-3.586 9.525,-8.249 0.033,-0.057 0.055,-0.121 0.063,-0.193 0.016,-0.141 2.533,-15.76 2.533,-15.76 0.09,-0.4 0.142,-0.814 0.142,-1.241 0,-3.096 -2.51,-5.607 -5.606,-5.607 -1.772,0 -3.35,0.825 -4.377,2.108 l -0.003,-0.001 c 0,0 -4.629,7.854 -5.686,8.866 l -6.69,0 -3.537,0 -6.193,0 c -1.057,-1.012 -5.686,-8.866 -5.686,-8.866 l -0.003,0.001 c -1.027,-1.283 -2.605,-2.108 -4.377,-2.108 -3.096,0 -5.606,2.511 -5.606,5.607 0,0.427 0.052,0.841 0.142,1.241 0,0 2.571,15.917 2.613,15.982 0.68,4.649 4.683,8.22 9.522,8.22 l 9.716,0 2.895,0 z m -12.328,-45.901 -1.065,1.064 -4.501,0 1.064,-1.064 -14.552,0 0,14.552 7.912,-7.912 -2.695,0 0,-3.186 5.88,0 4.501,0 10.085,0 0,3.186 -13.27,0 -12.413,12.416 0,22.64 1.643,1.642 -1.643,1.643 0,4.529 1.655,-1.655 -0.012,-0.012 2.252,-2.252 0.012,0.011 4.281,-4.281 c -0.458,-0.959 -0.789,-1.981 -0.972,-3.038 -0.063,-0.175 -1.971,-12 -2.646,-16.189 -0.118,-0.547 -0.179,-1.098 -0.179,-1.636 0,-4.251 3.459,-7.709 7.709,-7.709 1.848,0 3.632,0.662 5.032,1.871 0.021,0.018 0.502,0.456 1.121,1.215 0.32,0.392 1.28,1.976 2.392,3.811 0.986,1.627 2.002,3.304 2.531,4.075 l 7.2,0 0,-23.721 -11.322,0 z m 44.883,38.496 0,0.014 0,4.505 0,20.922 -20.922,0 -4.505,0 -0.014,0 -8.12,8.12 0,-8.12 -8.134,0 8.134,8.134 0,4.505 -12.639,-12.639 -11.4,0 c 0.152,-0.504 0.235,-1.038 0.235,-1.592 0,-0.554 -0.083,-1.089 -0.235,-1.593 l 8.215,0 4.505,0 11.319,0 0,-12.749 -11.605,0 c -2.833,0 -5.568,-1.024 -7.702,-2.884 -0.388,-0.338 -0.751,-0.701 -1.089,-1.084 l -3.82,3.82 10.506,10.507 -4.505,0 -8.254,-8.255 -7.092,7.093 0,-14.185 0,0 0,-4.505 0,0 0,-16.268 0,0 0,-4.505 0,0 0,-20.922 20.922,0 4.505,0 8.134,0 0,-8.12 8.12,8.12 15.919,0 c -0.152,0.504 -0.235,1.038 -0.235,1.593 0,0.553 0.083,1.088 0.235,1.592 l -12.734,0 11.905,11.906 0.007,-0.008 0,-10e-4 2.252,-2.252 0.001,10e-4 8.091,-8.092 0,16.183 0,4.505 0,0.015 8.12,8.119 -8.12,8.12 z"
         style="fill:#1c3664;fill-opacity:1;fill-rule:nonzero;stroke:none"
         id="path2968"
         inkscape:connector-curvature="0" />
    </g>
    <g
       id="g2970"
       transform="matrix(0.69974896,0,0,-0.69974896,50.312579,1019.5106)">
      <path
         d="m 0,0 c -2.094,0 -3.791,-1.697 -3.791,-3.791 0,-2.093 1.697,-3.79 3.791,-3.79 2.094,0 3.791,1.697 3.791,3.79 C 3.791,-1.697 2.094,0 0,0"
         style="fill:#1c3664;fill-opacity:1;fill-rule:nonzero;stroke:none"
         id="path2972"
         inkscape:connector-curvature="0" />
    </g>
    <g
       id="g2974"
       transform="matrix(0.69974896,0,0,-0.69974896,45.566819,1015.9894)">
      <path
         d="m 0,0 c -4.01,0 -7.273,3.263 -7.273,7.273 0,4.011 3.263,7.274 7.273,7.274 4.011,0 7.273,-3.263 7.273,-7.274 C 7.273,3.263 4.011,0 0,0 m 8.293,7.273 c 0,4.573 -3.72,8.293 -8.293,8.293 -4.573,0 -8.293,-3.72 -8.293,-8.293 0,-4.572 3.72,-8.292 8.293,-8.292 4.573,0 8.293,3.72 8.293,8.292"
         style="fill:#1c3664;fill-opacity:1;fill-rule:nonzero;stroke:none"
         id="path2976"
         inkscape:connector-curvature="0" />
    </g>
    <g
       id="g2978"
       transform="matrix(0.69974896,0,0,-0.69974896,45.506289,1007.2937)">
      <path
         d="m 0,0 c 0.997,0 1.806,-0.809 1.806,-1.806 0,-0.998 -0.809,-1.806 -1.806,-1.806 -0.997,0 -1.806,0.808 -1.806,1.806 C -1.806,-0.809 -0.997,0 0,0 m 0,-4.122 c 1.277,0 2.316,1.039 2.316,2.316 0,1.277 -1.039,2.316 -2.316,2.316 -1.277,0 -2.316,-1.039 -2.316,-2.316 0,-1.277 1.039,-2.316 2.316,-2.316"
         style="fill:#1c3664;fill-opacity:1;fill-rule:nonzero;stroke:none"
         id="path2980"
         inkscape:connector-curvature="0" />
    </g>
    <g
       id="g2982"
       transform="matrix(0.69974896,0,0,-0.69974896,42.978589,1011.88)">
      <path
         d="m 0,0 c -0.997,0 -1.806,0.809 -1.806,1.806 0,0.998 0.809,1.806 1.806,1.806 0.998,0 1.806,-0.808 1.806,-1.806 C 1.806,0.809 0.998,0 0,0 m 2.316,1.806 c 0,1.277 -1.039,2.316 -2.316,2.316 -1.277,0 -2.316,-1.039 -2.316,-2.316 0,-1.277 1.039,-2.316 2.316,-2.316 1.277,0 2.316,1.039 2.316,2.316"
         style="fill:#1c3664;fill-opacity:1;fill-rule:nonzero;stroke:none"
         id="path2984"
         inkscape:connector-curvature="0" />
    </g>
    <g
       id="g2986"
       transform="matrix(0.69974896,0,0,-0.69974896,48.155119,1012.4472)">
      <path
         d="m 0,0 c -0.997,0 -1.806,0.809 -1.806,1.806 0,0.998 0.809,1.806 1.806,1.806 0.997,0 1.806,-0.808 1.806,-1.806 C 1.806,0.809 0.997,0 0,0 m 0,4.122 c -1.277,0 -2.316,-1.039 -2.316,-2.316 0,-1.277 1.039,-2.315 2.316,-2.315 1.277,0 2.316,1.038 2.316,2.315 0,1.277 -1.039,2.316 -2.316,2.316"
         style="fill:#1c3664;fill-opacity:1;fill-rule:nonzero;stroke:none"
         id="path2988"
         inkscape:connector-curvature="0" />
    </g>
    <g
       id="g2990"
       transform="matrix(0.69974896,0,0,-0.69974896,45.627419,1014.5055)">
      <path
         d="m 0,0 c -0.998,0 -1.806,0.809 -1.806,1.806 0,0.997 0.808,1.806 1.806,1.806 0.997,0 1.806,-0.809 1.806,-1.806 C 1.806,0.809 0.997,0 0,0 m 0,4.122 c -1.277,0 -2.316,-1.039 -2.316,-2.316 0,-1.277 1.039,-2.316 2.316,-2.316 1.277,0 2.316,1.039 2.316,2.316 0,1.277 -1.039,2.316 -2.316,2.316"
         style="fill:#1c3664;fill-opacity:1;fill-rule:nonzero;stroke:none"
         id="path2992"
         inkscape:connector-curvature="0" />
    </g>
    <g
       id="g2994"
       transform="matrix(0.69974896,0,0,-0.69974896,17.001249,994.7454)">
      <path
         d="M 0,0 C 1.965,0 3.558,1.593 3.558,3.558 3.558,5.523 1.965,7.116 0,7.116 -1.965,7.116 -3.558,5.523 -3.558,3.558 -3.558,1.593 -1.965,0 0,0"
         style="fill:#1c3664;fill-opacity:1;fill-rule:nonzero;stroke:none"
         id="path2996"
         inkscape:connector-curvature="0" />
    </g>
    <g
       id="g2998"
       transform="matrix(0.69974896,0,0,-0.69974896,54.712399,998.04192)">
      <path
         d="m 0,0 0,3.186 -5.283,0 -1.116,1.115 -4.504,0 1.115,-1.115 -10.678,0 0,-3.186 13.863,0 12.381,-12.38 0,4.505 L -2.098,0 0,0 Z"
         style="fill:#2cb4bf;fill-opacity:1;fill-rule:nonzero;stroke:none"
         id="path3000"
         inkscape:connector-curvature="0" />
    </g>
    <g
       id="g3002"
       transform="matrix(0.69974896,0,0,-0.69974896,37.499689,1043.8017)">
      <path
         d="M 0,0 0,-4.505 10.248,5.743 5.743,5.743 0,0 Z"
         style="fill:#2cb4bf;fill-opacity:1;fill-rule:nonzero;stroke:none"
         id="path3004"
         inkscape:connector-curvature="0" />
    </g>
    <g
       id="g3006"
       transform="matrix(0.69974896,0,0,-0.69974896,56.898349,1027.5554)">
      <path
         d="m 0,0 2.654,2.654 0,4.505 L -2.252,2.252 0,0 Z"
         style="fill:#2cb4bf;fill-opacity:1;fill-rule:nonzero;stroke:none"
         id="path3008"
         inkscape:connector-curvature="0" />
    </g>
    <g
       id="g3010"
       transform="matrix(0.69974896,0,0,-0.69974896,62.657069,1007.4543)">
      <path
         d="M 0,0 0,-4.505 5.743,-10.248 0,-15.992 0,-20.497 10.248,-10.248 0,0 Z"
         style="fill:#2cb4bf;fill-opacity:1;fill-rule:nonzero;stroke:none"
         id="path3012"
         inkscape:connector-curvature="0" />
    </g>
    <g
       id="g3014"
       transform="matrix(0.69974896,0,0,-0.69974896,46.343679,991.14106)">
      <path
         d="m 0,0 -12.639,12.639 0,-4.505 L -4.505,0 0,0 Z"
         style="fill:#2cb4bf;fill-opacity:1;fill-rule:nonzero;stroke:none"
         id="path3016"
         inkscape:connector-curvature="0" />
    </g>
    <g
       id="g3018"
       transform="matrix(0.69974896,0,0,-0.69974896,45.420359,1035.8809)">
      <path
         d="M 0,0 4.505,0 11.897,7.392 9.645,9.645 0,0 Z"
         style="fill:#2cb4bf;fill-opacity:1;fill-rule:nonzero;stroke:none"
         id="path3020"
         inkscape:connector-curvature="0" />
    </g>
    <g
       id="g3022"
       transform="matrix(0.69974896,0,0,-0.69974896,55.557139,1020.4212)">
      <path
         d="m 0,0 c -0.838,5.203 -2.571,15.961 -2.62,16.114 -0.443,2.665 -1.81,5.115 -3.853,6.9 -2.135,1.867 -4.875,2.896 -7.714,2.896 l -11.619,0 0,-2.103 11.619,0 c 4.848,0 8.858,-3.585 9.526,-8.249 0.032,-0.057 2.595,-15.953 2.595,-15.953 0.091,-0.399 0.143,-0.813 0.143,-1.241 0,-3.096 -2.511,-5.606 -5.607,-5.606 -1.772,0 -3.349,0.824 -4.377,2.108 l -0.003,-0.002 c 0,0 -4.629,7.855 -5.686,8.866 l -8.21,0 0,-2.103 7.2,0 c 0.646,-0.936 2.047,-3.231 3.188,-5.1 0.953,-1.56 1.546,-2.528 1.721,-2.767 0.45,-0.615 1.094,-1.197 1.127,-1.227 1.395,-1.21 3.185,-1.877 5.04,-1.877 4.251,0 7.709,3.458 7.709,7.708 0,0.539 -0.06,1.09 -0.179,1.636"
         style="fill:#2cb4bf;fill-opacity:1;fill-rule:nonzero;stroke:none"
         id="path3024"
         inkscape:connector-curvature="0" />
    </g>
  </g>
</svg>
