<?xml version="1.0" encoding="UTF-8" standalone="no"?>
<svg
   xmlns:dc="http://purl.org/dc/elements/1.1/"
   xmlns:cc="http://creativecommons.org/ns#"
   xmlns:rdf="http://www.w3.org/1999/02/22-rdf-syntax-ns#"
   xmlns:svg="http://www.w3.org/2000/svg"
   xmlns="http://www.w3.org/2000/svg"
   xmlns:sodipodi="http://sodipodi.sourceforge.net/DTD/sodipodi-0.dtd"
   xmlns:inkscape="http://www.inkscape.org/namespaces/inkscape"
   height="512"
   viewBox="0 0 256 256"
   width="512"
   id="svg2"
   version="1.1"
   inkscape:version="0.91 r13725"
   sodipodi:docname="add-avatar.svg"
   style="fill:#000000">
  <metadata
     id="metadata12">
    <rdf:RDF>
      <cc:Work
         rdf:about="">
        <dc:format>image/svg+xml</dc:format>
        <dc:type
           rdf:resource="http://purl.org/dc/dcmitype/StillImage" />
        <dc:title></dc:title>
      </cc:Work>
    </rdf:RDF>
  </metadata>
  <defs
     id="defs10" />
  <sodipodi:namedview
     pagecolor="#ffffff"
     bordercolor="#666666"
     borderopacity="1"
     objecttolerance="10"
     gridtolerance="10"
     guidetolerance="10"
     inkscape:pageopacity="0"
     inkscape:pageshadow="2"
     inkscape:window-width="1329"
     inkscape:window-height="744"
     id="namedview8"
     showgrid="false"
     inkscape:zoom="0.86915209"
     inkscape:cx="133.20308"
     inkscape:cy="201.42402"
     inkscape:window-x="37"
     inkscape:window-y="24"
     inkscape:window-maximized="1"
     inkscape:current-layer="svg2" />
  <path
     d="m 0,232 24,0 0,24 -24,0 z"
     id="path4"
     inkscape:connector-curvature="0"
     style="fill:none" />
  <path
     d="m 140.8,64 -25.6,0 0,51.2 -51.2,0 0,25.6 51.2,0 0,51.2 25.6,0 0,-51.2 51.2,0 0,-25.6 -51.2,0 0,-51.2 z M 128,0 C 57.344,0 0,57.344 0,128 0,198.656 57.344,256 128,256 198.656,256 256,198.656 256,128 256,57.344 198.656,0 128,0 Z m 0,230.4 C 71.552,230.4 25.6,184.448 25.6,128 25.6,71.552 71.552,25.6 128,25.6 c 56.448,0 102.4,45.952 102.4,102.4 0,56.448 -45.952,102.4 -102.4,102.4 z"
     id="path6"
     style="fill:#cccccc;fill-opacity:1;stroke:none;stroke-opacity:1"
     inkscape:connector-curvature="0" />
</svg>
