<svg xmlns="http://www.w3.org/2000/svg" viewBox="0 0 114.49 114.49"><defs><style>.cls-1{fill:#071428;}</style></defs><title>compact-disc</title><g id="Layer_2" data-name="Layer 2"><g id="Layer_1-2" data-name="Layer 1"><path class="cls-1" d="M57.24,48.86a8.39,8.39,0,1,0,8.39,8.39,8.4,8.4,0,0,0-8.39-8.39Zm0,11.53a3.15,3.15,0,1,1,3.15-3.15,3.15,3.15,0,0,1-3.15,3.15Zm0,0"/><path class="cls-1" d="M97.72,16.77a57.24,57.24,0,1,0-81,81,57.24,57.24,0,1,0,81-81ZM54.57,74.08,43.64,107.44q-2.32-.63-4.55-1.46L50,72.68a16.92,16.92,0,0,0,4.55,1.4Zm2.68-5A11.8,11.8,0,1,1,69,57.24,11.82,11.82,0,0,1,57.24,69ZM65.05,42.1a16.88,16.88,0,0,0-4.48-1.57L71.48,7.22q2.3.65,4.5,1.52Zm-29.69-32L11.69,82.3A52,52,0,0,1,35.36,10.08ZM15.34,88,41.68,7.62A52.15,52.15,0,0,1,66.35,6L55.11,40.34A17,17,0,0,0,45.52,69.6L34.28,103.89A52.34,52.34,0,0,1,15.34,88Zm41.91,21.25a52.11,52.11,0,0,1-8.46-.69L60.1,74A17,17,0,0,0,69.49,45.4L80.8,10.89a52,52,0,0,1-23.55,98.36Zm0,0"/></g></g></svg>