<?xml version="1.0" encoding="utf-8"?>
<!-- Generator: Adobe Illustrator 16.0.0, SVG Export Plug-In . SVG Version: 6.00 Build 0)  -->
<!DOCTYPE svg PUBLIC "-//W3C//DTD SVG 1.1//EN" "http://www.w3.org/Graphics/SVG/1.1/DTD/svg11.dtd">
<svg version="1.1" id="Capa_1" xmlns="http://www.w3.org/2000/svg" xmlns:xlink="http://www.w3.org/1999/xlink" x="0px" y="0px"
	 width="512px" height="512px" viewBox="0 0 512 512" enable-background="new 0 0 512 512" xml:space="preserve">
<g>
	<path fill="#FFFFFF" d="M440.398,109.6c-0.038-2.939-1.173-5.845-3.364-8.024l-88.152-88.158c0,0-0.012,0-0.012-0.013
		c-2.088-2.069-4.95-3.364-8.134-3.364H95.821c-13.366,0-24.245,10.879-24.245,24.245v443.408c0,13.373,10.879,24.245,24.245,24.245
		h320.357c13.367,0,24.246-10.872,24.246-24.245V109.723C440.425,109.678,440.398,109.651,440.398,109.6 M353.458,98.212
		c-0.657,0-1.198-0.541-1.198-1.218V49.374l48.839,48.838H353.458z M416.179,478.906H95.821c-0.67,0-1.211-0.535-1.211-1.212V34.286
		c0-0.657,0.541-1.198,1.211-1.198h233.404v63.906c0,13.373,10.866,24.252,24.232,24.252h63.933v356.448
		C417.391,478.371,416.849,478.906,416.179,478.906"/>
	<path fill="#FFFFFF" d="M416.179,512H95.821c-18.909,0-34.299-15.391-34.299-34.306V34.299C61.522,15.39,76.912,0,95.821,0h244.915
		c5.749,0,11.175,2.23,15.249,6.29l88.164,88.184c3.531,3.512,5.684,8.063,6.188,12.986l0.115,0.335l0.025,1.92v367.979
		C450.478,496.609,435.101,512,416.179,512 M95.821,20.102c-7.824,0-14.191,6.374-14.191,14.197v443.396
		c0,7.824,6.367,14.198,14.191,14.198h320.357c7.838,0,14.191-6.374,14.191-14.198l-0.039-368.017c0-0.258-0.064-0.658-0.386-0.974
		l-88.178-88.184L95.821,20.102z M416.179,488.967H95.821c-6.213,0-11.266-5.06-11.266-11.272V34.299
		c0-6.212,5.053-11.271,11.266-11.271H339.28v73.967c0,7.83,6.354,14.191,14.178,14.191h73.986v366.509
		C427.444,483.907,422.392,488.967,416.179,488.967 M104.663,468.865h302.66V131.3h-53.865c-18.908,0-34.299-15.39-34.299-34.306
		V43.128H104.663V468.865z M425.356,108.253h-71.898c-6.213,0-11.252-5.04-11.252-11.259V25.103L425.356,108.253z M362.313,88.152
		h14.514l-14.514-14.52V88.152z"/>
	<path fill="#FFFFFF" d="M357.918,167.623H154.082c-6.367,0-11.522,5.163-11.522,11.523c0,6.349,5.155,11.511,11.522,11.511h203.836
		c6.368,0,11.523-5.162,11.523-11.511C369.441,172.785,364.286,167.623,357.918,167.623"/>
	<path fill="#FFFFFF" d="M357.918,200.71H154.082c-11.897,0-21.577-9.674-21.577-21.57c0-11.891,9.68-21.564,21.577-21.564h203.836
		c11.897,0,21.577,9.674,21.577,21.564C379.495,191.036,369.815,200.71,357.918,200.71 M154.082,177.677
		c-0.812,0-1.47,0.657-1.47,1.463s0.658,1.469,1.47,1.469h203.836c0.812,0,1.456-0.664,1.456-1.469s-0.645-1.463-1.456-1.463
		H154.082z"/>
	<path fill="#FFFFFF" d="M357.918,237.117H154.082c-6.367,0-11.522,5.163-11.522,11.523c0,6.348,5.155,11.51,11.522,11.51h203.836
		c6.368,0,11.523-5.162,11.523-11.51C369.441,242.279,364.286,237.117,357.918,237.117"/>
	<path fill="#FFFFFF" d="M357.918,270.204H154.082c-11.897,0-21.577-9.673-21.577-21.564s9.68-21.564,21.577-21.564h203.836
		c11.897,0,21.577,9.673,21.577,21.564S369.815,270.204,357.918,270.204 M154.082,247.171c-0.812,0-1.47,0.664-1.47,1.469
		c0,0.805,0.658,1.463,1.47,1.463h203.836c0.812,0,1.456-0.658,1.456-1.463c0-0.806-0.645-1.469-1.456-1.469H154.082z"/>
	<path fill="#FFFFFF" d="M357.918,306.617H154.082c-6.367,0-11.522,5.162-11.522,11.523c0,6.348,5.155,11.511,11.522,11.511h203.836
		c6.368,0,11.523-5.163,11.523-11.511C369.441,311.779,364.286,306.617,357.918,306.617"/>
	<path fill="#FFFFFF" d="M357.918,339.705H154.082c-11.897,0-21.577-9.68-21.577-21.57s9.68-21.571,21.577-21.571h203.836
		c11.897,0,21.577,9.681,21.577,21.571S369.815,339.705,357.918,339.705 M154.082,316.671c-0.812,0-1.47,0.657-1.47,1.464
		c0,0.805,0.658,1.463,1.47,1.463h203.836c0.812,0,1.456-0.658,1.456-1.463c0-0.807-0.645-1.464-1.456-1.464H154.082z"/>
	<path fill="#FFFFFF" d="M256,376.118H154.082c-6.367,0-11.522,5.162-11.522,11.523c0,6.348,5.155,11.51,11.522,11.51H256
		c6.354,0,11.523-5.162,11.523-11.51C267.523,381.28,262.354,376.118,256,376.118"/>
	<path fill="#FFFFFF" d="M256,409.199H154.082c-11.897,0-21.577-9.674-21.577-21.564s9.68-21.57,21.577-21.57H256
		c11.897,0,21.564,9.68,21.564,21.57S267.897,409.199,256,409.199 M154.082,386.166c-0.812,0-1.47,0.663-1.47,1.469
		s0.658,1.463,1.47,1.463H256c0.812,0,1.47-0.657,1.47-1.463s-0.658-1.469-1.47-1.469H154.082z"/>
</g>
<rect x="-1232.696" y="-1256.026" fill="none" width="2560" height="2976.954"/>
</svg>
