<?xml version="1.0" encoding="UTF-8" standalone="no"?>
<!-- Created with Inkscape (http://www.inkscape.org/) -->

<svg
   xmlns:dc="http://purl.org/dc/elements/1.1/"
   xmlns:cc="http://creativecommons.org/ns#"
   xmlns:rdf="http://www.w3.org/1999/02/22-rdf-syntax-ns#"
   xmlns:svg="http://www.w3.org/2000/svg"
   xmlns="http://www.w3.org/2000/svg"
   xmlns:sodipodi="http://sodipodi.sourceforge.net/DTD/sodipodi-0.dtd"
   xmlns:inkscape="http://www.inkscape.org/namespaces/inkscape"
   width="109.843"
   height="200"
   viewBox="0 0 109.84301 200.00001"
   id="svg11609"
   version="1.1"
   inkscape:version="0.91 r13725"
   sodipodi:docname="gameclub-footer-logo.svg"
   inkscape:export-filename="/home/lfgarcia/workspace/GameClub/source/gameclub-web/public/img/gameclub-footer-logo.png"
   inkscape:export-xdpi="90"
   inkscape:export-ydpi="90">
  <defs
     id="defs11611">
    <clipPath
       clipPathUnits="userSpaceOnUse"
       id="clipPath774">
      <path
         d="m 5.88,392.523 2554.119,0 0,1024.889 -2554.119,0 0,-1024.889 z"
         id="path776"
         inkscape:connector-curvature="0" />
    </clipPath>
    <clipPath
       clipPathUnits="userSpaceOnUse"
       id="clipPath2892">
      <path
         d="m 0,7263 2560,0 L 2560,0 0,0 0,7263 Z"
         id="path2894"
         inkscape:connector-curvature="0" />
    </clipPath>
    <clipPath
       clipPathUnits="userSpaceOnUse"
       id="clipPath854">
      <path
         d="m 0,7263 2560,0 L 2560,0 0,0 0,7263 Z"
         id="path856"
         inkscape:connector-curvature="0" />
    </clipPath>
  </defs>
  <sodipodi:namedview
     id="base"
     pagecolor="#ffffff"
     bordercolor="#666666"
     borderopacity="1.0"
     inkscape:pageopacity="0.0"
     inkscape:pageshadow="2"
     inkscape:zoom="1.4599939"
     inkscape:cx="-3.6673705"
     inkscape:cy="168.99785"
     inkscape:document-units="px"
     inkscape:current-layer="layer1"
     showgrid="false"
     units="px"
     inkscape:window-width="1323"
     inkscape:window-height="744"
     inkscape:window-x="1397"
     inkscape:window-y="24"
     inkscape:window-maximized="1" />
  <metadata
     id="metadata11614">
    <rdf:RDF>
      <cc:Work
         rdf:about="">
        <dc:format>image/svg+xml</dc:format>
        <dc:type
           rdf:resource="http://purl.org/dc/dcmitype/StillImage" />
        <dc:title />
      </cc:Work>
    </rdf:RDF>
  </metadata>
  <g
     inkscape:label="Layer 1"
     inkscape:groupmode="layer"
     id="layer1"
     transform="translate(0,-852.3621)">
    <g
       id="g880"
       transform="matrix(0.69581509,0,0,-0.69581292,23.51368,1021.205)">
      <path
         d="m 0,0 c -0.744,-1.264 -1.594,-2.368 -2.601,-3.374 -1.491,-1.492 -3.24,-2.674 -5.192,-3.51 -2.028,-0.839 -4.18,-1.265 -6.395,-1.265 -2.247,0 -4.339,0.414 -6.389,1.262 -1.913,0.82 -3.687,2.002 -5.272,3.513 -1.511,1.585 -2.693,3.359 -3.51,5.265 -0.851,2.057 -1.265,4.149 -1.265,6.395 0,2.216 0.426,4.367 1.262,6.389 0.84,1.958 2.022,3.708 3.513,5.199 1.575,1.575 3.344,2.755 5.256,3.506 l 0.025,0.011 c 1.997,0.895 4.084,1.33 6.38,1.33 2.263,0 4.41,-0.447 6.38,-1.33 l 0.024,-0.011 c 1.95,-0.766 3.691,-1.942 5.174,-3.497 l 0.024,-0.023 c 1.005,-0.938 1.849,-2.033 2.579,-3.348 l 0.305,-0.549 2.617,1.821 -0.265,0.452 c -3.48,5.955 -9.932,9.655 -16.838,9.655 -5.247,0 -10.173,-2.037 -13.871,-5.734 -3.697,-3.697 -5.734,-8.623 -5.734,-13.871 0,-5.247 2.037,-10.173 5.734,-13.87 3.698,-3.698 8.624,-5.734 13.871,-5.734 6.969,0 13.45,3.728 16.912,9.73 L 3.006,-1.099 0.287,0.487 0,0 Z"
         style="fill:#e43345;fill-opacity:1;fill-rule:nonzero;stroke:none"
         id="path882"
         inkscape:connector-curvature="0" />
    </g>
    <g
       id="g884"
       transform="matrix(0.69581509,0,0,-0.69581292,36.59848,1001.7478)">
      <path
         d="m 0,0 -3.169,0 0,-39.209 26.334,0 0,3.169 L 0,-36.04 0,0 Z"
         style="fill:#e43345;fill-opacity:1;fill-rule:nonzero;stroke:none"
         id="path886"
         inkscape:connector-curvature="0" />
    </g>
    <g
       id="g888"
       transform="matrix(0.69581509,0,0,-0.69581292,79.984846,1019.5852)">
      <path
         d="m 0,0 c 0,-2.8 -1.076,-5.419 -3.031,-7.373 -2.001,-2.002 -4.62,-3.104 -7.373,-3.104 -2.823,0 -5.439,1.1 -7.367,3.097 l -0.014,0.014 c -1.997,1.928 -3.096,4.544 -3.096,7.366 l 0,25.563 -3.17,0 0,-25.563 c 0,-7.525 6.122,-13.646 13.647,-13.646 7.484,0 13.573,6.121 13.573,13.646 l 0,25.563 L 0,25.563 0,0 Z"
         style="fill:#e43345;fill-opacity:1;fill-rule:nonzero;stroke:none"
         id="path890"
         inkscape:connector-curvature="0" />
    </g>
    <g
       id="g892"
       transform="matrix(0.69581509,0,0,-0.69581292,91.927533,1013.3761)">
      <path
         d="m 0,0 0,13.47 9.3,0 c 3.693,0 6.698,-3.038 6.698,-6.771 C 15.998,3.005 12.993,0 9.3,0 L 0,0 Z m 22.029,-11.249 c 0,-2.117 -0.844,-4.167 -2.377,-5.774 -1.607,-1.533 -3.657,-2.377 -5.775,-2.377 l -13.877,0 0,16.231 13.877,0 c 2.191,0 4.242,-0.844 5.766,-2.368 1.539,-1.609 2.386,-3.637 2.386,-5.712 M 16.301,-0.27 c 1.881,1.889 2.939,4.37 2.939,6.969 0,2.642 -1.023,5.126 -2.881,6.994 -1.852,1.862 -4.331,2.909 -6.987,2.946 l -12.541,0 0,-39.209 17.046,0 c 6.243,0 11.321,5.079 11.321,11.321 0,5.34 -3.748,9.866 -8.897,10.979"
         style="fill:#e43345;fill-opacity:1;fill-rule:nonzero;stroke:none"
         id="path894"
         inkscape:connector-curvature="0" />
    </g>
    <g
       id="g896"
       transform="matrix(0.69581509,0,0,-0.69581292,21.101002,1045.8325)">
      <path
         d="m 0,0 -2.51,0 c -0.084,0 -0.32,-0.034 -0.32,-0.354 0.016,-0.151 0.117,-0.303 0.64,-0.421 0.809,-0.185 2.005,-0.724 2.005,-2.055 0,-0.657 -0.203,-2.342 -2.174,-2.342 l -2.763,0 0.102,2.072 2.476,0 c 0.135,0 0.337,0.051 0.354,0.388 0,0.151 -0.152,0.252 -0.64,0.404 -1.062,0.303 -2.022,0.876 -2.022,2.14 0,0.876 0.64,2.274 2.089,2.274 l 2.864,0 L 0,0 Z"
         style="fill:#ffffff;fill-opacity:1;fill-rule:nonzero;stroke:none"
         id="path898"
         inkscape:connector-curvature="0" />
    </g>
    <g
       id="g900"
       transform="matrix(0.69581509,0,0,-0.69581292,24.242402,1045.2464)">
      <path
         d="m 0,0 c 0.455,1.297 1.617,1.634 2.123,1.634 2.021,0 3.639,-2.005 3.639,-4.009 l -0.202,-3.639 -2.056,0 c 0,0 0.186,2.847 0.186,3.807 0,0.758 -0.489,1.971 -2.005,1.971 -1.213,0 -1.736,-0.977 -1.786,-1.87 -0.084,-1.28 -0.135,-2.56 -0.219,-3.908 l -2.072,0 0.606,11.456 2.072,0 L 0,0 Z"
         style="fill:#ffffff;fill-opacity:1;fill-rule:nonzero;stroke:none"
         id="path902"
         inkscape:connector-curvature="0" />
    </g>
    <g
       id="g904"
       transform="matrix(0.69581509,0,0,-0.69581292,34.018532,1046.7821)">
      <path
         d="m 0,0 c 0,1.095 -0.724,1.938 -1.82,1.938 -1.078,0 -1.937,-0.843 -1.937,-1.938 0,-1.061 0.859,-1.921 1.937,-1.921 1.062,0 1.82,0.86 1.82,1.921 m 0.034,2.375 0,1.095 2.072,0 -0.388,-7.277 -2.072,0 0.051,1.297 c -0.489,-1.264 -1.5,-1.634 -2.123,-1.634 -2.038,0 -3.673,1.971 -3.673,4.009 0,1.971 1.719,3.959 3.892,3.959 0.623,0 1.904,-0.354 2.241,-1.449"
         style="fill:#ffffff;fill-opacity:1;fill-rule:nonzero;stroke:none"
         id="path906"
         inkscape:connector-curvature="0" />
    </g>
    <g
       id="g908"
       transform="matrix(0.69581509,0,0,-0.69581292,40.113731,1044.3673)">
      <path
         d="m 0,0 -0.101,-2.072 -1.5,0 c -0.303,0 -0.538,-0.253 -0.555,-0.522 l -0.236,-4.684 -2.072,0 0.252,4.903 C -4.144,-0.977 -3.032,0 -1.55,0 L 0,0 Z"
         style="fill:#ffffff;fill-opacity:1;fill-rule:nonzero;stroke:none"
         id="path910"
         inkscape:connector-curvature="0" />
    </g>
    <g
       id="g912"
       transform="matrix(0.69581509,0,0,-0.69581292,44.943036,1046.3248)">
      <path
         d="M 0,0 C -0.236,0.724 -0.826,1.196 -1.601,1.196 -2.342,1.196 -3.083,0.724 -3.218,0 L 0,0 Z m 2.207,-0.775 c 0,-0.202 -0.017,-0.421 -0.051,-0.623 l -5.475,0 c 0.219,-0.539 0.657,-1.146 1.365,-1.196 l 1.735,0 -0.101,-1.87 -1.449,0 c -1.954,0 -3.656,1.583 -3.656,3.672 0.017,2.258 1.786,3.959 3.74,3.959 2.561,0 3.892,-1.988 3.892,-3.942"
         style="fill:#ffffff;fill-opacity:1;fill-rule:nonzero;stroke:none"
         id="path914"
         inkscape:connector-curvature="0" />
    </g>
    <g
       id="g916"
       transform="matrix(0.69581509,0,0,-0.69581292,55.60974,1043.9686)">
      <path
         d="m 0,0 c 0,-0.573 0.37,-1.061 0.96,-1.061 0.59,0 0.96,0.488 0.96,1.061 0,0.59 -0.37,1.061 -0.96,1.061 C 0.37,1.061 0,0.59 0,0 m 2.173,-4.212 c 0,0.876 -0.606,1.584 -1.465,1.584 -0.877,0 -1.483,-0.708 -1.483,-1.584 0,-0.876 0.606,-1.583 1.483,-1.583 0.859,0 1.465,0.707 1.465,1.583 m 5.021,-3.639 -2.443,0 -0.977,1.584 C 3.1,-7.244 1.971,-7.901 0.708,-7.901 c -2.056,0 -3.707,1.668 -3.707,3.706 0,1.247 0.624,2.359 1.584,3.033 -0.186,0.353 -0.287,0.741 -0.287,1.162 0,1.466 1.18,2.645 2.645,2.645 1.449,0 2.628,-1.179 2.628,-2.645 0,-0.522 -0.151,-1.011 -0.421,-1.432 0.287,-0.253 0.522,-0.539 0.725,-0.859 l 1.213,1.853 1.229,-1.971 -1.263,-1.921 2.14,-3.521 z"
         style="fill:#ffffff;fill-opacity:1;fill-rule:nonzero;stroke:none"
         id="path918"
         inkscape:connector-curvature="0" />
    </g>
    <g
       id="g920"
       transform="matrix(0.69581509,0,0,-0.69581292,72.430452,1046.7821)">
      <path
         d="m 0,0 c 0,1.095 -0.724,1.938 -1.819,1.938 -1.079,0 -1.938,-0.843 -1.938,-1.938 0,-1.061 0.859,-1.921 1.938,-1.921 C -0.758,-1.921 0,-1.061 0,0 m 2.156,-0.034 c 0,-1.937 -1.718,-4.11 -3.891,-4.11 -0.623,0 -1.904,0.37 -2.207,1.465 l -0.253,-5.34 -2.072,0 0.606,11.489 2.073,0 -0.051,-1.263 c 0.489,1.263 1.483,1.617 2.106,1.617 2.038,0 3.689,-1.853 3.689,-3.858"
         style="fill:#ffffff;fill-opacity:1;fill-rule:nonzero;stroke:none"
         id="path922"
         inkscape:connector-curvature="0" />
    </g>
    <g
       id="g924"
       transform="matrix(0.69581509,0,0,-0.69581292,77.060547,1041.46)">
      <path
         d="m 0,0 -0.59,-11.456 -2.072,0 L -2.055,0 0,0 Z"
         style="fill:#ffffff;fill-opacity:1;fill-rule:nonzero;stroke:none"
         id="path926"
         inkscape:connector-curvature="0" />
    </g>
    <g
       id="g928"
       transform="matrix(0.69581509,0,0,-0.69581292,82.710485,1046.7821)">
      <path
         d="m 0,0 c 0,1.095 -0.724,1.938 -1.819,1.938 -1.079,0 -1.938,-0.843 -1.938,-1.938 0,-1.061 0.859,-1.921 1.938,-1.921 C -0.758,-1.921 0,-1.061 0,0 m 0.034,2.375 0,1.095 2.072,0 -0.388,-7.277 -2.072,0 0.051,1.297 c -0.489,-1.264 -1.5,-1.634 -2.123,-1.634 -2.038,0 -3.673,1.971 -3.673,4.009 0,1.971 1.719,3.959 3.892,3.959 0.623,0 1.904,-0.354 2.241,-1.449"
         style="fill:#ffffff;fill-opacity:1;fill-rule:nonzero;stroke:none"
         id="path930"
         inkscape:connector-curvature="0" />
    </g>
    <g
       id="g932"
       transform="matrix(0.69581509,0,0,-0.69581292,88.360372,1048.3528)">
      <path
         d="m 0,0 c 1.297,0 1.819,1.146 1.87,2.022 0.084,1.28 0.135,2.358 0.219,3.706 l 2.072,0 -0.472,-9.114 C 3.622,-4.768 2.51,-5.762 1.028,-5.762 l -1.55,0 0.101,2.073 1.499,0 c 0.303,0 0.539,0.252 0.556,0.522 l 0.118,2.847 c -0.455,-1.297 -1.617,-1.584 -2.123,-1.584 -2.122,0 -3.403,2.241 -3.453,4.195 l 0.202,3.437 2.055,0 L -1.769,1.87 C -1.769,1.028 -1.516,0 0,0"
         style="fill:#ffffff;fill-opacity:1;fill-rule:nonzero;stroke:none"
         id="path934"
         inkscape:connector-curvature="0" />
    </g>
    <path
       d="m 65.18785,1037.2448 -20.914806,0 0,-1.7186 20.914806,0 0,1.7186 z"
       style="fill:#2cb4bf;fill-opacity:1;fill-rule:nonzero;stroke:none"
       id="path936"
       inkscape:connector-curvature="0" />
    <g
       id="g938"
       transform="matrix(0.69581509,0,0,-0.69581292,19.221336,982.16643)">
      <path
         d="m 0,0 11.251,0 0,-23.051 -7.47,0 0,3.735 c -4.376,-3.468 -8.965,-4.375 -11.793,-4.375 -10.725,0.106 -19.262,8.697 -19.156,19.422 0.107,10.619 8.751,19.156 19.37,19.156 l 0.16,0 C -3.103,14.834 1.006,13.233 4.261,10.618 L -1.129,5.336 C -3.049,6.67 -5.29,7.364 -7.692,7.417 l -0.106,0 c -3.149,0 -6.137,-1.227 -8.378,-3.468 -2.241,-2.188 -3.521,-5.176 -3.521,-8.324 -0.054,-3.149 1.173,-6.19 3.361,-8.431 2.241,-2.294 5.229,-3.575 8.377,-3.575 l 0.161,0 c 3.148,0 6.083,1.227 8.324,3.415 1.6,1.547 2.668,3.415 3.201,5.496 L 0,-7.47 0,0 Z"
         style="fill:#2cb4bf;fill-opacity:1;fill-rule:nonzero;stroke:none"
         id="path940"
         inkscape:connector-curvature="0" />
    </g>
    <g
       id="g942"
       transform="matrix(0.69581509,0,0,-0.69581292,48.768148,992.98913)">
      <path
         d="M 0,0 -7.15,15.261 -14.941,0 0,0 Z m 10.885,-5.496 0,-1.974 -36.978,0 0,1.974 18.036,35.43 2.187,0 16.755,-35.43 z"
         style="fill:#2cb4bf;fill-opacity:1;fill-rule:nonzero;stroke:none"
         id="path944"
         inkscape:connector-curvature="0" />
    </g>
    <path
       d="m 90.039577,992.98913 18.981843,0 0,5.1977 -18.981843,0 0,-5.1977 z m 0,-10.804 18.981843,0 0,5.1978 -18.981843,0 0,-5.1978 z m 19.104303,-4.8268 -19.104993,0 0,-5.1977 19.104993,0 0,5.1977 z"
       style="fill:#2cb4bf;fill-opacity:1;fill-rule:nonzero;stroke:none"
       id="path946"
       inkscape:connector-curvature="0" />
    <g
       id="g948"
       transform="matrix(0.69581509,0,0,-0.69581292,59.981553,997.79733)">
      <path
         d="m 0,0 7.465,0 0,13.682 L 0,20.393 0,0 Z"
         style="fill:#2cb4bf;fill-opacity:1;fill-rule:nonzero;stroke:none"
         id="path950"
         inkscape:connector-curvature="0" />
    </g>
    <g
       id="g952"
       transform="matrix(0.69581509,0,0,-0.69581292,83.483617,971.77053)">
      <path
         d="m 0,0 -15.581,-14.194 -10.731,9.742 -4.903,4.452 -2.561,0 0,-7.798 18.195,-16.48 10.725,9.764 0,-22.891 7.471,0 L 2.615,0 0,0 Z"
         style="fill:#2cb4bf;fill-opacity:1;fill-rule:nonzero;stroke:none"
         id="path954"
         inkscape:connector-curvature="0" />
    </g>
    <g
       id="g956"
       transform="matrix(0.69581509,0,0,-0.69581292,49.679731,854.57623)">
      <path
         d="m 0,0 -20.131,-20.131 c -2.984,5.351 -8.702,8.978 -15.251,8.978 -9.623,0 -17.451,-7.828 -17.451,-17.451 0,-5.937 2.981,-11.191 7.525,-14.344 l 0,-2.36 -22.61,-22.61 c -4.243,-4.243 -4.243,-11.122 0,-15.364 l 9.766,-9.766 9.937,-9.937 0,-22.137 c 0,-3.408 2.773,-6.18 6.18,-6.18 l 22.137,0 L 0,-151.2 c 2.037,-2.038 4.801,-3.182 7.682,-3.182 l 0,157.564 C 4.801,3.182 2.037,2.037 0,0"
         style="fill:#2cb4bf;fill-opacity:1;fill-rule:nonzero;stroke:none"
         id="path958"
         inkscape:connector-curvature="0" />
    </g>
    <g
       id="g960"
       transform="matrix(0.69581509,0,0,-0.69581292,40.811224,920.55913)">
      <path
         d="m 0,0 -0.005,0.002 c -1.51,-1.887 -3.829,-3.099 -6.434,-3.099 -4.552,0 -8.242,3.69 -8.242,8.242 0,0.628 0.076,1.237 0.209,1.825 0,0 3.7,22.96 3.723,23.168 0.015,0.123 0.056,0.231 0.118,0.326 1,6.836 6.885,12.084 13.998,12.084 l 17.06,0 0.001,38.513 -61.336,-61.335 61.336,-61.336 0,54.643 -12.07,0 C 6.805,11.547 0,0 0,0"
         style="fill:#e43345;fill-opacity:1;fill-rule:nonzero;stroke:none"
         id="path962"
         inkscape:connector-curvature="0" />
    </g>
    <g
       id="g964"
       transform="matrix(0.69581509,0,0,-0.69581292,107.62874,912.52513)">
      <path
         d="m 0,0 c 4.243,4.243 4.243,11.122 0,15.364 l -19.473,19.473 0,22.507 c 0,3.407 -2.772,6.18 -6.18,6.18 l -22.506,0 -19.759,19.758 c -2.037,2.038 -4.801,3.182 -7.682,3.182 l 0,-157.564 c 2.881,0 5.645,1.145 7.682,3.182 l 20.131,20.131 c 2.984,-5.351 8.702,-8.978 15.252,-8.978 9.622,0 17.45,7.828 17.45,17.451 0,5.937 -2.981,11.19 -7.525,14.344 l 0,2.36 L 0,0 Z"
         style="fill:#e43345;fill-opacity:1;fill-rule:nonzero;stroke:none"
         id="path966"
         inkscape:connector-curvature="0" />
    </g>
    <g
       id="g968"
       transform="matrix(0.69581509,0,0,-0.69581292,18.249693,917.31663)">
      <path
         d="M 0,0 0,6.623 -8.443,15.066 0,23.509 0,30.131 -15.066,15.066 0,0 Z"
         style="fill:#1c3664;fill-opacity:1;fill-rule:nonzero;stroke:none"
         id="path970"
         inkscape:connector-curvature="0" />
    </g>
    <g
       id="g972"
       transform="matrix(0.69581509,0,0,-0.69581292,44.542185,943.60893)">
      <path
         d="m 0,0 15.066,-15.066 0,6.623 L 6.622,0 0,0 Z"
         style="fill:#1c3664;fill-opacity:1;fill-rule:nonzero;stroke:none"
         id="path974"
         inkscape:connector-curvature="0" />
    </g>
    <g
       id="g976"
       transform="matrix(0.69581509,0,0,-0.69581292,84.990052,935.89493)">
      <path
         d="m 0,0 c -2.889,0 -5.231,-2.342 -5.231,-5.231 0,-2.888 2.342,-5.23 5.231,-5.23 2.889,0 5.231,2.342 5.231,5.23 C 5.231,-2.342 2.889,0 0,0"
         style="fill:#1c3664;fill-opacity:1;fill-rule:nonzero;stroke:none"
         id="path978"
         inkscape:connector-curvature="0" />
    </g>
    <g
       id="g980"
       transform="matrix(0.69581509,0,0,-0.69581292,43.098921,893.94743)">
      <path
         d="m 0,0 c 5.896,0 10.692,-4.797 10.692,-10.692 0,-5.896 -4.796,-10.693 -10.692,-10.693 -5.896,0 -10.693,4.797 -10.693,10.693 C -10.693,-4.797 -5.896,0 0,0 m 0,-22.883 c 6.722,0 12.191,5.469 12.191,12.191 0,6.722 -5.469,12.191 -12.191,12.191 -6.722,0 -12.191,-5.469 -12.191,-12.191 0,-6.722 5.469,-12.191 12.191,-12.191"
         style="fill:#1c3664;fill-opacity:1;fill-rule:nonzero;stroke:none"
         id="path982"
         inkscape:connector-curvature="0" />
    </g>
    <g
       id="g984"
       transform="matrix(0.69581509,0,0,-0.69581292,38.283116,900.91083)">
      <path
         d="m 0,0 c 0,0.809 0.656,1.465 1.465,1.465 l 1.746,0 1.465,0 0,3.211 c 0,0.809 0.656,1.465 1.465,1.465 l 1.185,0 c 0.809,0 1.465,-0.656 1.465,-1.465 l 0,-1.746 0,-1.465 2.837,0 c 0.809,0 1.465,-0.656 1.465,-1.465 l 0,-1.184 c 0,-0.809 -0.656,-1.465 -1.465,-1.465 l -2.837,0 0,-1.465 0,-1.373 c 0,-0.809 -0.656,-1.465 -1.465,-1.465 l -1.185,0 c -0.809,0 -1.465,0.656 -1.465,1.465 l 0,2.838 -1.465,0 -1.746,0 C 0.656,-2.649 0,-1.993 0,-1.184 L 0,0 Z m 1.465,-3.68 1.746,0 c 0.24,0 0.435,-0.195 0.435,-0.434 l 0,-1.373 c 0,-1.376 1.119,-2.495 2.495,-2.495 l 1.185,0 c 1.376,0 2.495,1.119 2.495,2.495 l 0,1.373 c 0,0.239 0.195,0.434 0.435,0.434 l 1.372,0 c 1.376,0 2.495,1.12 2.495,2.495 l 0,1.185 c 0,1.376 -1.119,2.495 -2.495,2.495 l -1.372,0 c -0.24,0 -0.435,0.195 -0.435,0.435 l 0,1.746 c 0,1.376 -1.119,2.495 -2.495,2.495 l -1.185,0 C 4.765,7.171 3.646,6.052 3.646,4.676 l 0,-1.746 C 3.646,2.69 3.451,2.495 3.211,2.495 l -1.746,0 C 0.089,2.495 -1.03,1.376 -1.03,0 l 0,-1.185 c 0,-1.375 1.119,-2.495 2.495,-2.495"
         style="fill:#1c3664;fill-opacity:1;fill-rule:nonzero;stroke:none"
         id="path986"
         inkscape:connector-curvature="0" />
    </g>
    <g
       id="g988"
       transform="matrix(0.69581509,0,0,-0.69581292,36.146479,913.97473)">
      <path
         d="m 0,0 c -3.078,0 -5.573,-2.495 -5.573,-5.573 0,-3.077 2.495,-5.572 5.573,-5.572 3.078,0 5.573,2.495 5.573,5.572 C 5.573,-2.495 3.078,0 0,0"
         style="fill:#1c3664;fill-opacity:1;fill-rule:nonzero;stroke:none"
         id="path990"
         inkscape:connector-curvature="0" />
    </g>
    <g
       id="g992"
       transform="matrix(0.69581509,0,0,-0.69581292,86.096745,890.64713)">
      <path
         d="M 0,0 0,-6.623 0,-6.643 -28.036,21.392 0,21.392 0,0 Z m 0,-39.903 0,-6.623 0,-7.802 -3.901,3.901 -3.311,3.312 -0.011,0.01 7.223,7.223 0,-0.021 z m -43.177,39.463 15.602,0 c 7.128,0 13.022,-5.271 14.003,-12.127 0.049,-0.084 0.081,-0.178 0.093,-0.284 0.024,-0.207 3.723,-23.168 3.723,-23.168 0.133,-0.587 0.21,-1.196 0.21,-1.824 0,-4.552 -3.69,-8.242 -8.242,-8.242 -2.606,0 -4.924,1.212 -6.435,3.099 l -0.005,-0.002 c 0,0 -6.804,11.546 -8.358,13.033 l -9.834,0 -5.201,0 -9.103,0 c -1.554,-1.487 -8.359,-13.033 -8.359,-13.033 l -0.004,0.002 c -1.511,-1.887 -3.83,-3.099 -6.435,-3.099 -4.552,0 -8.242,3.69 -8.242,8.242 0,0.628 0.077,1.237 0.209,1.824 0,0 3.779,23.399 3.841,23.495 1,6.835 6.886,12.084 13.998,12.084 l 14.284,0 4.255,0 z m -18.123,-67.478 -1.565,1.564 -6.617,0 1.564,-1.564 -21.392,0 0,21.392 11.631,-11.631 -3.962,0 0,-4.683 8.645,0 6.616,0 14.826,0 0,4.683 -19.508,0 -18.248,18.253 0,33.282 2.415,2.414 -2.415,2.415 0,6.658 2.432,-2.433 -0.017,-0.017 3.311,-3.311 0.017,0.017 6.294,-6.294 c -0.674,-1.41 -1.16,-2.912 -1.429,-4.466 -0.092,-0.257 -2.897,-17.64 -3.89,-23.8 -0.174,-0.804 -0.263,-1.612 -0.263,-2.404 0,-6.249 5.084,-11.333 11.333,-11.333 2.716,0 5.339,0.974 7.398,2.751 0.029,0.027 0.737,0.67 1.647,1.786 0.47,0.576 1.882,2.905 3.516,5.602 1.45,2.392 2.944,4.858 3.721,5.991 l 10.585,0 0,-34.872 -16.645,0 z m 65.983,56.592 0,0.021 0,6.622 0,30.758 -30.758,0 -6.623,0 -0.021,0 -11.936,11.937 0,0 0,-11.937 -11.958,0 11.958,11.958 0,6.622 -18.58,-18.58 -16.76,0 c 0.225,-0.741 0.346,-1.527 0.346,-2.341 0,-0.815 -0.121,-1.601 -0.346,-2.342 l 12.077,0 6.623,0 16.64,0 0,-18.742 -17.061,0 c -4.165,0 -8.186,-1.505 -11.322,-4.239 -0.57,-0.498 -1.105,-1.031 -1.602,-1.594 l -5.615,5.615 15.445,15.446 -6.622,0 -12.135,-12.134 -10.426,10.426 0,-20.853 0,0 0,-6.622 0,0 0,-23.915 0,0 0,-6.623 0,0 0,-30.758 30.758,0 6.622,0 11.958,0 0,-11.936 11.936,11.936 23.404,0 c -0.225,0.742 -0.347,1.527 -0.347,2.342 0,0.814 0.122,1.6 0.347,2.341 l -18.721,0 17.502,17.502 0.01,-0.011 -0.001,-10e-4 3.311,-3.311 0.002,10e-4 11.895,-11.895 0,23.79 0,6.623 0,0.021 11.936,11.936 -11.936,11.937 z"
         style="fill:#1c3664;fill-opacity:1;fill-rule:nonzero;stroke:none"
         id="path994"
         inkscape:connector-curvature="0" />
    </g>
    <g
       id="g996"
       transform="matrix(0.69581509,0,0,-0.69581292,73.755147,913.97473)">
      <path
         d="m 0,0 c -3.078,0 -5.573,-2.495 -5.573,-5.573 0,-3.077 2.495,-5.572 5.573,-5.572 3.078,0 5.573,2.495 5.573,5.572 C 5.573,-2.495 3.078,0 0,0"
         style="fill:#1c3664;fill-opacity:1;fill-rule:nonzero;stroke:none"
         id="path998"
         inkscape:connector-curvature="0" />
    </g>
    <g
       id="g1000"
       transform="matrix(0.69581509,0,0,-0.69581292,66.817725,908.82723)">
      <path
         d="m 0,0 c -5.896,0 -10.692,4.797 -10.692,10.692 0,5.896 4.796,10.693 10.692,10.693 5.896,0 10.693,-4.797 10.693,-10.693 C 10.693,4.797 5.896,0 0,0 m 12.191,10.692 c 0,6.722 -5.469,12.191 -12.191,12.191 -6.722,0 -12.191,-5.469 -12.191,-12.191 0,-6.722 5.469,-12.19 12.191,-12.19 6.722,0 12.191,5.468 12.191,12.19"
         style="fill:#1c3664;fill-opacity:1;fill-rule:nonzero;stroke:none"
         id="path1002"
         inkscape:connector-curvature="0" />
    </g>
    <g
       id="g1004"
       transform="matrix(0.69581509,0,0,-0.69581292,66.729225,896.11613)">
      <path
         d="M 0,0 C 1.466,0 2.655,-1.189 2.655,-2.655 2.655,-4.122 1.466,-5.31 0,-5.31 c -1.466,0 -2.655,1.188 -2.655,2.655 C -2.655,-1.189 -1.466,0 0,0 m 0,-6.06 c 1.877,0 3.404,1.528 3.404,3.405 0,1.877 -1.527,3.404 -3.404,3.404 -1.877,0 -3.404,-1.527 -3.404,-3.404 0,-1.877 1.527,-3.405 3.404,-3.405"
         style="fill:#1c3664;fill-opacity:1;fill-rule:nonzero;stroke:none"
         id="path1006"
         inkscape:connector-curvature="0" />
    </g>
    <g
       id="g1008"
       transform="matrix(0.69581509,0,0,-0.69581292,63.034233,902.82033)">
      <path
         d="M 0,0 C -1.466,0 -2.655,1.189 -2.655,2.655 -2.655,4.122 -1.466,5.31 0,5.31 1.466,5.31 2.655,4.122 2.655,2.655 2.655,1.189 1.466,0 0,0 M 3.405,2.655 C 3.405,4.533 1.877,6.06 0,6.06 c -1.877,0 -3.404,-1.527 -3.404,-3.405 0,-1.877 1.527,-3.404 3.404,-3.404 1.877,0 3.405,1.527 3.405,3.404"
         style="fill:#1c3664;fill-opacity:1;fill-rule:nonzero;stroke:none"
         id="path1010"
         inkscape:connector-curvature="0" />
    </g>
    <g
       id="g1012"
       transform="matrix(0.69581509,0,0,-0.69581292,70.601287,903.64923)">
      <path
         d="M 0,0 C -1.466,0 -2.655,1.189 -2.655,2.655 -2.655,4.122 -1.466,5.31 0,5.31 1.466,5.31 2.655,4.122 2.655,2.655 2.655,1.189 1.466,0 0,0 m 0,6.06 c -1.877,0 -3.404,-1.528 -3.404,-3.405 0,-1.877 1.527,-3.404 3.404,-3.404 1.877,0 3.404,1.527 3.404,3.404 C 3.404,4.532 1.877,6.06 0,6.06"
         style="fill:#1c3664;fill-opacity:1;fill-rule:nonzero;stroke:none"
         id="path1014"
         inkscape:connector-curvature="0" />
    </g>
    <g
       id="g1016"
       transform="matrix(0.69581509,0,0,-0.69581292,66.906305,906.65833)">
      <path
         d="M 0,0 C -1.466,0 -2.655,1.189 -2.655,2.655 -2.655,4.122 -1.466,5.31 0,5.31 1.466,5.31 2.655,4.122 2.655,2.655 2.655,1.189 1.466,0 0,0 m 0,6.06 c -1.877,0 -3.404,-1.528 -3.404,-3.405 0,-1.877 1.527,-3.404 3.404,-3.404 1.877,0 3.404,1.527 3.404,3.404 C 3.404,4.532 1.877,6.06 0,6.06"
         style="fill:#1c3664;fill-opacity:1;fill-rule:nonzero;stroke:none"
         id="path1018"
         inkscape:connector-curvature="0" />
    </g>
    <g
       id="g1020"
       transform="matrix(0.69581509,0,0,-0.69581292,25.060124,877.77253)">
      <path
         d="m 0,0 c 2.889,0 5.231,2.342 5.231,5.231 0,2.888 -2.342,5.23 -5.231,5.23 -2.889,0 -5.231,-2.342 -5.231,-5.23 C -5.231,2.342 -2.889,0 0,0"
         style="fill:#1c3664;fill-opacity:1;fill-rule:nonzero;stroke:none"
         id="path1022"
         inkscape:connector-curvature="0" />
    </g>
    <g
       id="g1024"
       transform="matrix(0.69581509,0,0,-0.69581292,80.186907,882.59153)">
      <path
         d="m 0,0 0,4.683 -7.767,0 -1.639,1.64 -6.623,0 1.64,-1.64 -15.698,0 0,-4.683 20.381,0 18.199,-18.2 0,6.623 L -3.084,0 0,0 Z"
         style="fill:#2cb4bf;fill-opacity:1;fill-rule:nonzero;stroke:none"
         id="path1026"
         inkscape:connector-curvature="0" />
    </g>
    <g
       id="g1028"
       transform="matrix(0.69581509,0,0,-0.69581292,55.025058,949.48383)">
      <path
         d="M 0,0 0,-6.622 15.066,8.443 8.443,8.443 0,0 Z"
         style="fill:#2cb4bf;fill-opacity:1;fill-rule:nonzero;stroke:none"
         id="path1030"
         inkscape:connector-curvature="0" />
    </g>
    <g
       id="g1032"
       transform="matrix(0.69581509,0,0,-0.69581292,83.382377,925.73463)">
      <path
         d="m 0,0 3.901,3.901 0,6.623 L -3.311,3.311 0,0 Z"
         style="fill:#2cb4bf;fill-opacity:1;fill-rule:nonzero;stroke:none"
         id="path1034"
         inkscape:connector-curvature="0" />
    </g>
    <g
       id="g1036"
       transform="matrix(0.69581509,0,0,-0.69581292,91.800483,896.35083)">
      <path
         d="M 0,0 0,-6.623 8.443,-15.066 0,-23.509 0,-30.131 15.066,-15.066 0,0 Z"
         style="fill:#2cb4bf;fill-opacity:1;fill-rule:nonzero;stroke:none"
         id="path1038"
         inkscape:connector-curvature="0" />
    </g>
    <g
       id="g1040"
       transform="matrix(0.69581509,0,0,-0.69581292,67.953368,872.50373)">
      <path
         d="m 0,0 -18.58,18.58 0,-6.623 L -6.623,0 0,0 Z"
         style="fill:#2cb4bf;fill-opacity:1;fill-rule:nonzero;stroke:none"
         id="path1042"
         inkscape:connector-curvature="0" />
    </g>
    <g
       id="g1044"
       transform="matrix(0.69581509,0,0,-0.69581292,66.603624,937.90533)">
      <path
         d="M 0,0 6.622,0 17.49,10.867 14.179,14.179 0,0 Z"
         style="fill:#2cb4bf;fill-opacity:1;fill-rule:nonzero;stroke:none"
         id="path1046"
         inkscape:connector-curvature="0" />
    </g>
    <g
       id="g1048"
       transform="matrix(0.69581509,0,0,-0.69581292,81.421701,915.30563)">
      <path
         d="m 0,0 c -1.232,7.649 -3.779,23.463 -3.852,23.688 -0.651,3.918 -2.661,7.519 -5.663,10.144 -3.139,2.745 -7.167,4.257 -11.341,4.257 l -17.08,0 0,-3.091 17.08,0 c 7.127,0 13.021,-5.271 14.003,-12.127 0.048,-0.084 3.816,-23.451 3.816,-23.451 0.133,-0.588 0.209,-1.197 0.209,-1.825 0,-4.552 -3.69,-8.242 -8.242,-8.242 -2.605,0 -4.924,1.212 -6.434,3.099 l -0.005,-0.002 c 0,0 -6.804,11.547 -8.358,13.033 l -12.069,0 0,-3.091 10.584,0 c 0.949,-1.377 3.009,-4.75 4.687,-7.498 1.401,-2.293 2.272,-3.717 2.529,-4.068 l 0,0 c 0.662,-0.904 1.608,-1.759 1.657,-1.803 2.051,-1.78 4.682,-2.76 7.409,-2.76 6.249,0 11.333,5.083 11.333,11.332 C 0.263,-1.613 0.175,-0.804 0,0"
         style="fill:#2cb4bf;fill-opacity:1;fill-rule:nonzero;stroke:none"
         id="path1050"
         inkscape:connector-curvature="0" />
    </g>
  </g>
</svg>
