<?xml version="1.0" encoding="UTF-8"?>
<!DOCTYPE svg PUBLIC "-//W3C//DTD SVG 1.1//EN" "http://www.w3.org/Graphics/SVG/1.1/DTD/svg11.dtd">
<!-- Creator: CorelDRAW X6 -->
<svg xmlns="http://www.w3.org/2000/svg" xml:space="preserve" width="15.7083in" height="9.56944in" version="1.1" style="shape-rendering:geometricPrecision; text-rendering:geometricPrecision; image-rendering:optimizeQuality; fill-rule:evenodd; clip-rule:evenodd"
viewBox="0 0 15708 9569"
 xmlns:xlink="http://www.w3.org/1999/xlink">
 <defs>
  <style type="text/css">
   <![CDATA[
    .fil0 {fill:#071328;fill-rule:nonzero}
    .fil2 {fill:#E43344;fill-rule:nonzero}
    .fil1 {fill:white;fill-rule:nonzero}
   ]]>
  </style>
 </defs>
 <g id="Capa_x0020_1">
  <metadata id="CorelCorpID_0Corel-Layer"/>
  <polygon class="fil0" points="15708,9569 0,9569 0,0 15708,0 "/>
  <g id="_285130336">
   <polygon class="fil1" points="8313,1709 7235,1709 7235,1978 8313,1978 "/>
  </g>
  <g id="_285130456">
   <g>
    <path class="fil1" d="M11597 1978l-2880 0 0 -741 -741 0 0 -876 -404 0 0 876 -808 0 0 741 -2822 0c-1945,0 -3528,1599 -3528,3544 0,1945 1582,3520 3528,3520 1285,0 2452,-664 3077,-1809l1502 0c625,1145 1792,1817 3077,1817 1945,0 3528,-1591 3528,-3536 0,-1945 -1582,-3536 -3528,-3536zm-4362 -269l0 0 1078 0 0 269 -1078 0 0 -269zm4362 6907l0 0c-1162,0 -2213,-636 -2742,-1672l-63 -116 -2047 0 -63 116c-529,1035 -1580,1675 -2742,1675 -1697,0 -3077,-1388 -3077,-3085 0,-1697 1380,-3085 3077,-3085l2852 0 1951 0 2852 0c1697,0 3077,1386 3077,3083 0,1697 -1380,3083 -3077,3083z"/>
   </g>
  </g>
  <g id="_285130288">
   <g>
    <g>
     <path class="fil2" d="M11597 5614c-372,0 -676,303 -676,676 0,372 303,676 676,676 372,0 676,-303 676,-676 0,-372 -303,-676 -676,-676zm0 901l0 0c-124,0 -225,-101 -225,-225 0,-124 101,-225 225,-225 124,0 225,101 225,225 0,124 -101,225 -225,225z"/>
    </g>
   </g>
   <g>
    <g>
     <path class="fil2" d="M11597 5163c372,0 676,-303 676,-676 0,-372 -303,-676 -676,-676 -372,0 -676,303 -676,676 0,372 303,676 676,676zm0 -901l0 0c124,0 225,101 225,225 0,124 -101,225 -225,225 -124,0 -225,-101 -225,-225 0,-124 101,-225 225,-225z"/>
    </g>
   </g>
   <g>
    <g>
     <path class="fil2" d="M12798 4713c-372,0 -676,303 -676,676 0,372 303,676 676,676 372,0 676,-303 676,-676 0,-372 -303,-676 -676,-676zm0 901l0 0c-124,0 -225,-101 -225,-225 0,-124 101,-225 225,-225 124,0 225,101 225,225 0,124 -101,225 -225,225z"/>
    </g>
   </g>
   <g>
    <g>
     <path class="fil2" d="M10396 4713c-372,0 -676,303 -676,676 0,372 303,676 676,676 372,0 676,-303 676,-676 0,-372 -303,-676 -676,-676zm0 901l0 0c-124,0 -225,-101 -225,-225 0,-124 101,-225 225,-225 124,0 225,101 225,225 0,124 -101,225 -225,225z"/>
    </g>
   </g>
   <g>
    <g>
     <path class="fil2" d="M4617 3963l-1351 0 0 901 -901 0 0 1351 901 0 0 901 1351 0 0 -901 901 0 0 -1351 -901 0 0 -901zm450 1351l0 0 0 450 -901 0 0 901 -450 0 0 -901 -901 0 0 -450 901 0 0 -901 450 0 0 901 901 0z"/>
    </g>
   </g>
  </g>
  <g id="_285132232">
   <polygon class="fil2" points="8044,4403 8987,4403 8987,3932 8044,3932 "/>
  </g>
  <g id="_285132112">
   <polygon class="fil2" points="6561,4403 7437,4403 7437,3932 6561,3932 "/>
  </g>
 </g>
</svg>
