<?xml version="1.0" encoding="UTF-8"?>
<!DOCTYPE svg PUBLIC "-//W3C//DTD SVG 1.1//EN" "http://www.w3.org/Graphics/SVG/1.1/DTD/svg11.dtd">
<!-- Creator: CorelDRAW X6 -->
<svg xmlns="http://www.w3.org/2000/svg" xml:space="preserve" width="1.61111in" height="1.15278in" version="1.1" style="shape-rendering:geometricPrecision; text-rendering:geometricPrecision; image-rendering:optimizeQuality; fill-rule:evenodd; clip-rule:evenodd"
viewBox="0 0 1611 1153"
 xmlns:xlink="http://www.w3.org/1999/xlink">
 <defs>
  <style type="text/css">
   <![CDATA[
    .fil0 {fill:#2BB3BF;fill-rule:nonzero}
    .fil1 {fill:#E43344;fill-rule:nonzero}
   ]]>
  </style>
 </defs>
 <g id="Capa_x0020_1">
  <metadata id="CorelCorpID_0Corel-Layer"/>
  <g id="_334880424">
   <g>
    <g>
     <g>
      <path class="fil0" d="M568 555c-92,0 -166,75 -166,166 0,92 75,166 166,166 92,0 166,-75 166,-166 0,-92 -75,-166 -166,-166zm0 255l0 0c-49,0 -89,-40 -89,-89 0,-49 40,-89 89,-89 49,0 89,40 89,89 0,49 -40,89 -89,89z"/>
     </g>
    </g>
    <g>
     <g>
      <path class="fil0" d="M1201 721c0,-92 -75,-166 -166,-166 -92,0 -166,75 -166,166 0,92 75,166 166,166 92,0 166,-75 166,-166zm-166 89l0 0c-49,0 -89,-40 -89,-89 0,-49 40,-89 89,-89 49,0 89,40 89,89 0,49 -40,89 -89,89z"/>
     </g>
    </g>
    <path class="fil1" d="M1473 308c-27,-159 -158,-276 -319,-286l-7 -1c-2,0 -4,-1 -7,-1l-671 0c-169,0 -312,121 -340,287l-102 549c-3,15 -5,30 -5,45 0,120 97,217 217,217 72,0 140,-36 179,-95l49 -69c13,-17 9,-42 -9,-54 -17,-13 -42,-9 -54,9l-50 69c-26,39 -69,62 -116,62 -77,0 -140,-63 -140,-140 0,-10 1,-19 3,-30l102 -550c22,-129 133,-223 264,-223l668 0 5 1c2,0 3,0 4,1 124,7 228,100 249,222l103 550c2,10 3,19 3,29 0,77 -63,140 -140,140 -47,0 -90,-23 -117,-63l-53 -74c-13,-17 -37,-21 -54,-9 -17,13 -21,37 -9,54l52 73c41,60 108,96 180,96 120,0 217,-97 217,-217 0,-15 -2,-30 -4,-44l-101 -548z"/>
    <path class="fil1" d="M1055 334c0,29 -24,53 -53,53 -29,0 -53,-24 -53,-53 0,-29 24,-53 53,-53 29,0 53,24 53,53z"/>
    <path class="fil1" d="M1271 334c0,29 -24,53 -53,53 -29,0 -53,-24 -53,-53 0,-29 24,-53 53,-53 29,0 53,24 53,53z"/>
    <path class="fil1" d="M496 178c-22,0 -39,17 -39,39l0 70 -70 0c-22,0 -39,17 -39,39 0,22 17,39 39,39l70 0 0 70c0,22 17,39 39,39 22,0 39,-17 39,-39l0 -70 70 0c22,0 39,-17 39,-39 0,-22 -17,-39 -39,-39l-70 0 0 -70c0,-22 -17,-39 -39,-39z"/>
    <path class="fil1" d="M1163 442c0,29 -24,53 -53,53 -29,0 -53,-24 -53,-53 0,-29 24,-53 53,-53 29,0 53,24 53,53z"/>
    <path class="fil1" d="M1163 226c0,29 -24,53 -53,53 -29,0 -53,-24 -53,-53 0,-29 24,-53 53,-53 29,0 53,24 53,53z"/>
   </g>
  </g>
 </g>
</svg>
