<?xml version="1.0" encoding="UTF-8" standalone="no"?>
<!-- Created with Inkscape (http://www.inkscape.org/) -->

<svg
   xmlns:dc="http://purl.org/dc/elements/1.1/"
   xmlns:cc="http://creativecommons.org/ns#"
   xmlns:rdf="http://www.w3.org/1999/02/22-rdf-syntax-ns#"
   xmlns:svg="http://www.w3.org/2000/svg"
   xmlns="http://www.w3.org/2000/svg"
   xmlns:sodipodi="http://sodipodi.sourceforge.net/DTD/sodipodi-0.dtd"
   xmlns:inkscape="http://www.inkscape.org/namespaces/inkscape"
   width="33.254002"
   height="40"
   viewBox="0 0 33.254002 40.000001"
   id="svg7000"
   version="1.1"
   inkscape:version="0.91 r13725"
   sodipodi:docname="lock-icon.svg">
  <defs
     id="defs7002" />
  <sodipodi:namedview
     id="base"
     pagecolor="#ffffff"
     bordercolor="#666666"
     borderopacity="1.0"
     inkscape:pageopacity="0.0"
     inkscape:pageshadow="2"
     inkscape:zoom="0.35"
     inkscape:cx="-109.28571"
     inkscape:cy="520"
     inkscape:document-units="px"
     inkscape:current-layer="layer1"
     showgrid="false"
     units="px"
     inkscape:window-width="1323"
     inkscape:window-height="744"
     inkscape:window-x="37"
     inkscape:window-y="24"
     inkscape:window-maximized="1" />
  <metadata
     id="metadata7005">
    <rdf:RDF>
      <cc:Work
         rdf:about="">
        <dc:format>image/svg+xml</dc:format>
        <dc:type
           rdf:resource="http://purl.org/dc/dcmitype/StillImage" />
        <dc:title></dc:title>
      </cc:Work>
    </rdf:RDF>
  </metadata>
  <g
     inkscape:label="Layer 1"
     inkscape:groupmode="layer"
     id="layer1"
     transform="translate(0,-1012.3622)">
    <path
       d="m 29.47519,1044.9785 -25.69626,0 0,-16.6135 25.69626,0 0,16.6135 z m 0,4.3068 -25.69626,0 0,-2.4614 25.69626,0 0,2.4614 z m -18.91323,-26.6576 c 0,-2.9375 2.38951,-5.3278 5.32781,-5.3278 l 0.97454,0 c 2.93831,0 5.32781,2.3903 5.32781,5.3278 l 0,2.6597 -11.63016,0 0,-2.6597 z m 16.56785,2.6597 0,-2.6597 c 0,-5.6606 -4.60485,-10.2655 -10.2655,-10.2655 l -0.97454,0 c -5.66065,0 -10.2655,4.6049 -10.2655,10.2655 l 0,2.6597 -5.62427,0 0,24.9214 c 0,1.1874 1.18662,2.1534 2.64494,2.1534 l 27.96424,0 c 1.45832,0 2.64494,-0.966 2.64494,-2.1534 l 0,-24.9214 -6.12431,0 z"
       style="fill:#e43345;fill-opacity:1;fill-rule:nonzero;stroke:none"
       id="path984"
       inkscape:connector-curvature="0" />
  </g>
</svg>
