<?xml version="1.0" encoding="utf-8"?>
<!-- Generator: Adobe Illustrator 21.1.0, SVG Export Plug-In . SVG Version: 6.00 Build 0)  -->
<svg version="1.1" id="Capa_1" xmlns="http://www.w3.org/2000/svg" xmlns:xlink="http://www.w3.org/1999/xlink" x="0px" y="0px"
	 viewBox="0 0 257 418" style="enable-background:new 0 0 257 418;" xml:space="preserve">
<style type="text/css">
	.st0{fill:#E43345;}
	.st1{fill:#FFFFFF;}
	.st2{fill:#071428;}
</style>
<rect x="0" class="st0" width="257" height="418"/>
<g>
	<g>
		<g>
			<g>
				<g>
					<path class="st1" d="M129.9,51.6c6.2,0,11.3-5.1,11.3-11.3S136.1,29,129.9,29c-6.2,0-11.3,5.1-11.3,11.3S123.7,51.6,129.9,51.6
						L129.9,51.6z M129.9,35.5c2.7,0,4.8,2.2,4.8,4.8c0,2.7-2.2,4.8-4.8,4.8c-2.7,0-4.8-2.2-4.8-4.8
						C125.1,37.6,127.2,35.5,129.9,35.5L129.9,35.5z M129.9,35.5"/>
				</g>
			</g>
			<g>
				<g>
					<path class="st1" d="M62.3,51.6c6.2,0,11.3-5.1,11.3-11.3S68.5,29,62.3,29C56.1,29,51,34.1,51,40.3S56.1,51.6,62.3,51.6
						L62.3,51.6z M62.3,35.5c2.7,0,4.8,2.2,4.8,4.8c0,2.7-2.2,4.8-4.8,4.8c-2.7,0-4.8-2.2-4.8-4.8C57.5,37.6,59.6,35.5,62.3,35.5
						L62.3,35.5z M62.3,35.5"/>
				</g>
			</g>
			<g>
				<g>
					<path class="st1" d="M62.3,173.8c-6.2,0-11.3,5.1-11.3,11.3c0,6.2,5.1,11.3,11.3,11.3c6.2,0,11.3-5.1,11.3-11.3
						C73.6,178.9,68.5,173.8,62.3,173.8L62.3,173.8z M62.3,189.9c-2.7,0-4.8-2.2-4.8-4.8c0-2.7,2.2-4.8,4.8-4.8
						c2.7,0,4.8,2.2,4.8,4.8C67.1,187.7,65,189.9,62.3,189.9L62.3,189.9z M62.3,189.9"/>
				</g>
			</g>
			<g>
				<path class="st1" d="M207.6,112.7l-3.6-5.5l-8.1,2.8l-14.2,5.8h-11.6l-19.2-10.9v12.9l11.2,7.8l4.2,7.8l-1.3,10.2l-19.2,10.3
					l-24.1-0.7l-16.7-11.4c0,0,0.6,9.8,0.2,9.5c-0.3-0.2-2.1,37-2.1,37l3.5,6.7l4.1,3.1l11.5,6.2l18.7,2l15.7-5.1c0,0,0,0.2,3.6,2
					c3.6,1.8,5.3,2.8,5.3,2.8l8,1.1h10.7l14.9-7.1l7.2-9.7v-43.7v-35.8"/>
			</g>
			<path class="st2" d="M179.7,74.1V19.4H41.4V206h77.3c5.1,2,11.1,3.2,17.6,3.2c8,0,15.3-1.8,21-4.8c5.9,3.1,13.2,4.8,20.8,4.8
				c18.9,0,33.8-9.9,33.8-22.5V96.6C211.9,84.3,197.9,74.7,179.7,74.1L179.7,74.1z M205.5,96.6c0,8.7-12.5,16.1-27.4,16.1
				c-14.8,0-27.4-7.4-27.4-16.1c0-0.5,0-1.1,0.1-1.6c0-0.2,0.1-0.3,0.1-0.5c0.1-0.4,0.2-0.7,0.3-1.1c0-0.2,0.1-0.3,0.2-0.5
				c0.1-0.3,0.3-0.7,0.5-1c0.1-0.2,0.2-0.4,0.3-0.6c0.2-0.3,0.4-0.6,0.6-0.9c0.2-0.2,0.4-0.5,0.6-0.7c0.2-0.2,0.4-0.5,0.6-0.7
				c0.3-0.3,0.7-0.7,1-1c0.1-0.1,0.2-0.2,0.3-0.3c1-0.9,2.2-1.7,3.4-2.4c1.3-0.7,2.6-1.4,4-2c0.1,0,0.2-0.1,0.2-0.1
				c1.4-0.6,2.9-1.1,4.5-1.4c0,0,0.1,0,0.2,0c1.3-0.3,2.7-0.6,4.1-0.8c0,0,0.1,0,0.2,0c1.5-0.2,3-0.3,4.5-0.4l1.5-0.1
				C193,80.5,205.5,87.9,205.5,96.6L205.5,96.6z M205.3,175.7c0,0.3-0.1,0.5-0.2,0.8c-0.1,0.3-0.1,0.5-0.2,0.8
				c-0.1,0.2-0.2,0.5-0.4,0.8c-0.1,0.2-0.2,0.5-0.4,0.7c-0.1,0.2-0.3,0.5-0.5,0.7c-0.2,0.2-0.3,0.5-0.5,0.7
				c-0.2,0.3-0.4,0.5-0.6,0.7c-0.2,0.2-0.4,0.4-0.6,0.6c-0.2,0.2-0.5,0.5-0.7,0.7c-0.2,0.2-0.4,0.4-0.7,0.6
				c-0.2,0.2-0.6,0.4-0.8,0.7c-0.2,0.2-0.5,0.4-0.8,0.6c-0.3,0.2-0.6,0.4-0.9,0.6c-0.3,0.2-0.6,0.3-0.8,0.5c-0.3,0.2-0.7,0.4-1,0.6
				c-0.3,0.2-0.6,0.3-0.9,0.5c-0.4,0.2-0.7,0.3-1.1,0.5c-0.3,0.1-0.6,0.3-1,0.4c-0.4,0.2-0.8,0.3-1.2,0.4c-0.3,0.1-0.7,0.3-1,0.4
				c-0.4,0.1-0.9,0.2-1.3,0.4c-0.3,0.1-0.7,0.2-1.1,0.3c-0.5,0.1-0.9,0.2-1.4,0.3c-0.4,0.1-0.7,0.2-1.1,0.2c-0.5,0.1-1,0.2-1.6,0.2
				c-0.3,0.1-0.7,0.1-1,0.2c-0.6,0.1-1.2,0.1-1.8,0.2c-0.3,0-0.6,0.1-0.9,0.1c-0.9,0.1-1.8,0.1-2.7,0.1c-1.3,0-2.5-0.1-3.7-0.2
				c-0.3,0-0.7-0.1-1-0.1c-1-0.1-2.1-0.2-3.1-0.4c-0.1,0-0.3,0-0.4-0.1c0.1-0.8,0.2-1.6,0.2-2.4v-3.9c0.2,0,0.5,0,0.7,0.1
				c0.9,0.1,1.7,0.2,2.6,0.3c0.4,0,0.7,0.1,1.1,0.1c1.2,0.1,2.4,0.2,3.7,0.2c1.3,0,2.6-0.1,3.9-0.2c0.4,0,0.8-0.1,1.2-0.1
				c0.9-0.1,1.7-0.2,2.5-0.3c0.5-0.1,0.9-0.1,1.4-0.2c0.8-0.1,1.5-0.3,2.3-0.5c0.4-0.1,0.9-0.2,1.3-0.3c0.8-0.2,1.5-0.4,2.3-0.7
				c0.4-0.1,0.7-0.2,1.1-0.3c1-0.4,2-0.8,3-1.2c0,0,0.1,0,0.1,0c1-0.4,1.9-0.9,2.9-1.4c0.3-0.2,0.6-0.3,0.8-0.5
				c0.6-0.4,1.2-0.7,1.8-1.1c0.3-0.2,0.6-0.4,0.9-0.6c0.5-0.4,1-0.8,1.5-1.2c0.1-0.1,0.3-0.2,0.5-0.4c0,0.2,0,0.4,0,0.5
				C205.4,175.2,205.3,175.4,205.3,175.7L205.3,175.7z M163.4,175.7c0,0.3-0.1,0.5-0.2,0.8c-0.1,0.3-0.1,0.5-0.2,0.8
				c-0.1,0.2-0.2,0.5-0.3,0.8c-0.1,0.2-0.2,0.5-0.4,0.7c-0.1,0.2-0.3,0.5-0.5,0.7c-0.2,0.2-0.3,0.5-0.5,0.7
				c-0.2,0.3-0.4,0.5-0.6,0.7c-0.2,0.2-0.4,0.4-0.6,0.6c-0.2,0.2-0.5,0.5-0.7,0.7c-0.2,0.2-0.4,0.4-0.7,0.6
				c-0.3,0.2-0.6,0.4-0.8,0.7c-0.3,0.2-0.5,0.4-0.8,0.6c-0.3,0.2-0.6,0.4-0.9,0.6c-0.3,0.2-0.6,0.3-0.8,0.5c-0.3,0.2-0.7,0.4-1,0.6
				c-0.3,0.2-0.6,0.3-0.9,0.5c-0.4,0.2-0.8,0.3-1.1,0.5c-0.3,0.1-0.6,0.3-1,0.4c-0.4,0.2-0.8,0.3-1.2,0.4c-0.3,0.1-0.7,0.3-1,0.4
				c-0.4,0.1-0.9,0.2-1.3,0.4c-0.4,0.1-0.7,0.2-1.1,0.3c-0.5,0.1-0.9,0.2-1.4,0.3c-0.3,0.1-0.7,0.2-1.1,0.2c-0.5,0.1-1,0.2-1.6,0.2
				c-0.3,0.1-0.7,0.1-1,0.2c-0.6,0.1-1.2,0.1-1.8,0.2c-0.3,0-0.6,0.1-0.9,0.1c-0.9,0.1-1.8,0.1-2.7,0.1c-0.9,0-1.8,0-2.7-0.1
				c-0.3,0-0.6,0-0.9-0.1c-0.6,0-1.2-0.1-1.8-0.2c-0.3,0-0.7-0.1-1-0.2c-0.5-0.1-1.1-0.2-1.6-0.2c-0.4-0.1-0.7-0.2-1.1-0.2
				c-0.5-0.1-1-0.2-1.4-0.3c-0.4-0.1-0.7-0.2-1.1-0.3c-0.4-0.1-0.9-0.2-1.3-0.4c-0.3-0.1-0.7-0.2-1-0.4c-0.4-0.1-0.8-0.3-1.2-0.4
				c-0.3-0.1-0.7-0.3-1-0.4c-0.4-0.2-0.8-0.3-1.1-0.5c-0.3-0.2-0.6-0.3-0.9-0.5c-0.3-0.2-0.7-0.4-1-0.6c-0.3-0.2-0.5-0.3-0.8-0.5
				c-0.3-0.2-0.6-0.4-0.9-0.6c-0.3-0.2-0.5-0.4-0.8-0.6c-0.3-0.2-0.6-0.4-0.8-0.7c-0.2-0.2-0.5-0.4-0.7-0.6
				c-0.2-0.2-0.5-0.5-0.7-0.7c-0.2-0.2-0.4-0.4-0.6-0.6c-0.2-0.2-0.4-0.5-0.6-0.7c-0.2-0.2-0.3-0.5-0.5-0.7
				c-0.2-0.2-0.3-0.5-0.5-0.8c-0.1-0.2-0.2-0.5-0.4-0.7c-0.1-0.3-0.3-0.5-0.3-0.8c-0.1-0.3-0.2-0.5-0.2-0.8
				c-0.1-0.3-0.2-0.5-0.2-0.8c0-0.2-0.1-0.5-0.1-0.8c0-0.2,0-0.4,0-0.5c0.1,0.1,0.3,0.2,0.4,0.4c0.5,0.4,1,0.8,1.5,1.2
				c0.3,0.2,0.6,0.4,0.9,0.7c0.6,0.4,1.2,0.8,1.8,1.1c0.3,0.2,0.6,0.3,0.8,0.5c0.9,0.5,1.9,1,2.8,1.4c0,0,0.1,0,0.1,0
				c1,0.4,2,0.8,3,1.2c0.3,0.1,0.7,0.2,1.1,0.3c0.7,0.2,1.5,0.5,2.3,0.7c0.4,0.1,0.8,0.2,1.3,0.3c0.8,0.2,1.5,0.3,2.3,0.5
				c0.5,0.1,0.9,0.2,1.4,0.2c0.8,0.1,1.7,0.2,2.5,0.3c0.4,0,0.8,0.1,1.2,0.1c1.3,0.1,2.6,0.2,3.9,0.2c1.3,0,2.6-0.1,3.9-0.2
				c0.4,0,0.8-0.1,1.2-0.1c0.9-0.1,1.7-0.2,2.5-0.3c0.5-0.1,0.9-0.1,1.4-0.2c0.8-0.1,1.5-0.3,2.3-0.5c0.4-0.1,0.9-0.2,1.3-0.3
				c0.8-0.2,1.5-0.4,2.3-0.7c0.4-0.1,0.7-0.2,1.1-0.3c1-0.4,2-0.8,3-1.2c0,0,0.1,0,0.1,0c1-0.4,1.9-0.9,2.8-1.4
				c0.3-0.2,0.6-0.3,0.8-0.5c0.6-0.4,1.2-0.7,1.8-1.1c0.3-0.2,0.6-0.4,0.9-0.6c0.5-0.4,1-0.8,1.5-1.2c0.1-0.1,0.3-0.2,0.4-0.4
				c0,0.2,0,0.4,0,0.5C163.5,175.2,163.5,175.4,163.4,175.7L163.4,175.7z M63.9,81.2v-20c10.2-0.8,18.5-9,19.2-19.2H109
				c0.8,10.2,9,18.5,19.2,19.2v20c0,0-0.1-0.1-0.1-0.1c-0.5-0.6-1.1-1.1-1.7-1.6c-0.6-0.5-1.1-1-1.7-1.5c-0.2-0.2-0.4-0.3-0.6-0.5
				c-6.6-5.3-14.6-8.6-23.1-9.6c-0.1,0-0.2,0-0.3,0c-1.5-0.2-3-0.2-4.6-0.2c-1.6,0-3.1,0.1-4.6,0.2c-0.1,0-0.2,0-0.3,0
				c-8.5,0.9-16.5,4.3-23.1,9.6c-0.2,0.2-0.4,0.3-0.6,0.5c-0.6,0.5-1.1,1-1.6,1.5c-0.6,0.5-1.2,1-1.7,1.6C64,81.1,64,81.1,63.9,81.2
				L63.9,81.2z M141.5,119.4c0,0,0.1,0,0.1,0c1.7,0.2,3.4,0.5,5,0.9c1.4,0.4,2.7,0.8,4,1.3c0.6,0.2,1.2,0.5,1.8,0.7
				c0.3,0.1,0.7,0.3,1,0.4c0.9,0.4,1.7,0.9,2.5,1.4c0.2,0.1,0.3,0.2,0.5,0.3c1.7,1.1,3.2,2.4,4.4,3.8c0,0,0.1,0.1,0.1,0.1
				c0.4,0.5,0.7,1,1,1.5c0,0,0.1,0.1,0.1,0.2c0.3,0.5,0.5,0.9,0.7,1.4c0,0.1,0.1,0.2,0.1,0.3c0.2,0.4,0.3,0.9,0.4,1.3
				c0,0.1,0.1,0.2,0.1,0.3c0.1,0.6,0.2,1.1,0.2,1.7c0,8.7-12.5,16.1-27.3,16.1c-14.8,0-27.4-7.4-27.4-16.1c0-1.4,0.3-2.8,1-4.1
				c0.9-1.9,2.4-3.7,4.4-5.3c0.1-0.1,0.2-0.2,0.4-0.3c0.6-0.4,1.2-0.8,1.8-1.2c5-3.1,12.1-5.1,19.8-5.1
				C138.1,119.1,139.8,119.2,141.5,119.4L141.5,119.4z M152.8,111.6c0.3,0.2,0.6,0.4,0.9,0.7c0.6,0.4,1.2,0.8,1.8,1.1
				c0.3,0.2,0.6,0.3,0.8,0.5c0.9,0.5,1.9,1,2.9,1.4c0,0,0.1,0,0.1,0c1,0.4,2,0.8,3,1.2c0.3,0.1,0.7,0.2,1.1,0.3
				c0.8,0.2,1.5,0.5,2.3,0.7c0.4,0.1,0.9,0.2,1.3,0.3c0.8,0.2,1.5,0.3,2.3,0.5c0.4,0.1,0.9,0.2,1.4,0.2c0.8,0.1,1.7,0.2,2.5,0.3
				c0.4,0,0.8,0.1,1.2,0.1c1.3,0.1,2.6,0.2,3.9,0.2c1.3,0,2.6-0.1,3.9-0.2c0.4,0,0.8-0.1,1.2-0.1c0.9-0.1,1.7-0.2,2.5-0.3
				c0.5-0.1,0.9-0.1,1.4-0.2c0.8-0.1,1.5-0.3,2.3-0.5c0.4-0.1,0.9-0.2,1.3-0.3c0.8-0.2,1.5-0.4,2.3-0.7c0.4-0.1,0.7-0.2,1.1-0.3
				c1-0.4,2-0.8,3-1.2c0,0,0.1,0,0.1,0c1-0.4,1.9-0.9,2.9-1.4c0.3-0.2,0.6-0.3,0.8-0.5c0.6-0.4,1.2-0.7,1.8-1.1
				c0.3-0.2,0.6-0.4,0.9-0.6c0.5-0.4,1-0.8,1.5-1.2c0.1-0.1,0.3-0.2,0.5-0.4c0,0.2,0,0.4,0,0.5c0,0.2-0.1,0.5-0.1,0.8
				c0,0.3-0.1,0.5-0.2,0.8c-0.1,0.3-0.1,0.5-0.2,0.7c-0.1,0.3-0.2,0.5-0.4,0.8c-0.1,0.2-0.2,0.5-0.4,0.7c-0.1,0.2-0.3,0.5-0.5,0.8
				c-0.2,0.2-0.3,0.5-0.5,0.7c-0.2,0.3-0.4,0.5-0.6,0.7c-0.2,0.2-0.4,0.4-0.6,0.7c-0.2,0.2-0.5,0.5-0.7,0.7
				c-0.2,0.2-0.4,0.4-0.7,0.6c-0.2,0.2-0.6,0.4-0.8,0.6c-0.2,0.2-0.5,0.4-0.8,0.6c-0.3,0.2-0.6,0.4-0.9,0.6
				c-0.3,0.2-0.6,0.4-0.8,0.5c-0.3,0.2-0.7,0.4-1,0.6c-0.3,0.2-0.6,0.3-0.9,0.5c-0.4,0.2-0.7,0.3-1.1,0.5c-0.3,0.1-0.6,0.3-1,0.4
				c-0.4,0.2-0.8,0.3-1.2,0.5c-0.3,0.1-0.7,0.2-1,0.3c-0.4,0.1-0.9,0.3-1.3,0.4c-0.3,0.1-0.7,0.2-1.1,0.3c-0.5,0.1-0.9,0.2-1.4,0.3
				c-0.4,0.1-0.7,0.2-1.1,0.2c-0.5,0.1-1,0.2-1.6,0.2c-0.3,0-0.7,0.1-1,0.2c-0.6,0.1-1.2,0.1-1.8,0.2c-0.3,0-0.6,0.1-0.9,0.1
				c-0.9,0.1-1.8,0.1-2.7,0.1c-1.2,0-2.3,0-3.4-0.1c-0.4,0-0.7-0.1-1.1-0.1c-0.8-0.1-1.5-0.2-2.3-0.3c-0.4-0.1-0.8-0.2-1.2-0.2
				c-0.7-0.1-1.4-0.3-2-0.4c-0.4-0.1-0.8-0.2-1.3-0.3c-0.5-0.1-1-0.3-1.4-0.4c-3-3.4-7.3-6.2-12.5-8.1c-1.3-1.8-2-3.6-2.1-5.5
				c0.2,0.1,0.3,0.3,0.5,0.4C151.8,110.8,152.3,111.2,152.8,111.6L152.8,111.6z M202.6,125.1c0.3-0.2,0.6-0.4,0.9-0.6
				c0.5-0.4,1-0.8,1.5-1.2c0.1-0.1,0.3-0.2,0.5-0.4c0,0.2,0,0.4,0,0.5c0,0.3-0.1,0.5-0.1,0.8c0,0.3-0.1,0.5-0.2,0.8
				c-0.1,0.2-0.1,0.5-0.2,0.7c-0.1,0.3-0.2,0.5-0.4,0.8c-0.1,0.2-0.2,0.5-0.4,0.7c-0.1,0.3-0.3,0.5-0.5,0.8
				c-0.2,0.2-0.3,0.5-0.5,0.7c-0.2,0.2-0.4,0.5-0.6,0.7c-0.2,0.2-0.4,0.4-0.6,0.7c-0.2,0.2-0.5,0.5-0.7,0.7
				c-0.2,0.2-0.4,0.4-0.7,0.6c-0.2,0.2-0.6,0.4-0.8,0.6c-0.2,0.2-0.5,0.4-0.8,0.6c-0.3,0.2-0.6,0.4-0.9,0.6
				c-0.3,0.2-0.6,0.4-0.8,0.5c-0.3,0.2-0.7,0.4-1,0.6c-0.3,0.2-0.6,0.3-0.9,0.5c-0.4,0.2-0.7,0.3-1.1,0.5c-0.3,0.1-0.6,0.3-1,0.4
				c-0.4,0.2-0.8,0.3-1.2,0.5c-0.3,0.1-0.7,0.2-1,0.3c-0.4,0.1-0.9,0.3-1.3,0.4c-0.3,0.1-0.7,0.2-1.1,0.3c-0.5,0.1-0.9,0.2-1.4,0.3
				c-0.4,0.1-0.7,0.2-1.1,0.2c-0.5,0.1-1,0.2-1.6,0.2c-0.3,0-0.7,0.1-1,0.2c-0.6,0.1-1.2,0.1-1.8,0.2c-0.3,0-0.6,0.1-0.9,0.1
				c-0.9,0.1-1.8,0.1-2.7,0.1c-1.6,0-3.2-0.1-4.8-0.3c-0.5,0-0.9-0.1-1.4-0.2c-0.6-0.1-1.2-0.2-1.8-0.3v-2.4c0-0.7-0.1-1.4-0.2-2.1
				c-0.1-0.4-0.2-0.9-0.3-1.3c0-0.2-0.1-0.4-0.1-0.5c0.1,0,0.2,0,0.2,0c0.9,0.1,1.9,0.3,2.8,0.3c0.5,0.1,0.9,0.1,1.4,0.2
				c1.4,0.1,2.8,0.2,4.2,0.2c1.3,0,2.6-0.1,3.9-0.2c0.4,0,0.8-0.1,1.2-0.1c0.9-0.1,1.7-0.2,2.5-0.3c0.5-0.1,0.9-0.2,1.4-0.2
				c0.8-0.1,1.5-0.3,2.3-0.5c0.4-0.1,0.9-0.2,1.3-0.3c0.8-0.2,1.5-0.4,2.3-0.7c0.4-0.1,0.7-0.2,1.1-0.3c1-0.4,2-0.8,3-1.2
				c0,0,0.1,0,0.1,0c1-0.5,1.9-0.9,2.9-1.4c0.3-0.2,0.6-0.3,0.8-0.5C201.4,125.9,202,125.5,202.6,125.1L202.6,125.1z M202.6,138
				c0.3-0.2,0.6-0.4,0.9-0.6c0.5-0.4,1-0.8,1.5-1.2c0.1-0.1,0.3-0.2,0.5-0.4c0,0.2,0,0.4,0,0.5c0,0.3-0.1,0.5-0.1,0.8
				c0,0.3-0.1,0.5-0.2,0.8c-0.1,0.2-0.1,0.5-0.2,0.7c-0.1,0.3-0.2,0.5-0.4,0.8c-0.1,0.2-0.2,0.5-0.4,0.7c-0.1,0.3-0.3,0.5-0.5,0.8
				c-0.2,0.2-0.3,0.5-0.5,0.7c-0.2,0.2-0.4,0.5-0.6,0.7c-0.2,0.2-0.4,0.4-0.6,0.7c-0.2,0.2-0.5,0.5-0.7,0.7
				c-0.2,0.2-0.4,0.4-0.7,0.6c-0.2,0.2-0.6,0.4-0.8,0.6c-0.2,0.2-0.5,0.4-0.8,0.6c-0.3,0.2-0.6,0.4-0.9,0.6
				c-0.3,0.2-0.6,0.4-0.8,0.5c-0.3,0.2-0.7,0.4-1,0.5c-0.3,0.2-0.6,0.3-0.9,0.5c-0.4,0.2-0.7,0.3-1.1,0.5c-0.3,0.1-0.6,0.3-1,0.4
				c-0.4,0.2-0.8,0.3-1.2,0.4c-0.3,0.1-0.7,0.3-1,0.4c-0.4,0.1-0.9,0.3-1.3,0.4c-0.3,0.1-0.7,0.2-1.1,0.3c-0.5,0.1-0.9,0.2-1.4,0.3
				c-0.4,0.1-0.7,0.2-1.1,0.2c-0.5,0.1-1,0.2-1.6,0.2c-0.3,0-0.7,0.1-1,0.2c-0.6,0.1-1.2,0.1-1.8,0.2c-0.3,0-0.6,0.1-0.9,0.1
				c-0.9,0.1-1.8,0.1-2.7,0.1c-1.6,0-3.2-0.1-4.8-0.3c-0.5,0-0.9-0.1-1.4-0.2c-0.6-0.1-1.2-0.2-1.8-0.3v-6.3c0.2,0,0.5,0,0.7,0.1
				c0.9,0.1,1.7,0.2,2.6,0.3c0.4,0,0.7,0.1,1.1,0.1c1.2,0.1,2.4,0.1,3.7,0.1c1.3,0,2.6,0,3.9-0.1c0.4,0,0.8-0.1,1.2-0.1
				c0.9-0.1,1.7-0.2,2.5-0.3c0.5-0.1,0.9-0.2,1.4-0.2c0.8-0.1,1.5-0.3,2.3-0.5c0.4-0.1,0.9-0.2,1.3-0.3c0.8-0.2,1.5-0.4,2.3-0.7
				c0.4-0.1,0.7-0.2,1.1-0.3c1-0.4,2-0.7,3-1.2c0,0,0.1,0,0.1,0c1-0.5,1.9-0.9,2.9-1.4c0.3-0.2,0.6-0.3,0.8-0.5
				C201.4,138.7,202,138.4,202.6,138L202.6,138z M202.6,150.8c0.3-0.2,0.6-0.4,0.9-0.6c0.5-0.4,1-0.8,1.5-1.2
				c0.1-0.1,0.3-0.2,0.5-0.4c0,0.2,0,0.4,0,0.5c0,0.3-0.1,0.5-0.1,0.8c0,0.3-0.1,0.5-0.2,0.8c-0.1,0.3-0.1,0.5-0.2,0.7
				c-0.1,0.3-0.2,0.5-0.4,0.8c-0.1,0.2-0.2,0.5-0.4,0.7c-0.1,0.3-0.3,0.5-0.5,0.8c-0.2,0.2-0.3,0.5-0.5,0.7
				c-0.2,0.3-0.4,0.5-0.6,0.7c-0.2,0.2-0.4,0.4-0.6,0.7c-0.2,0.2-0.5,0.5-0.7,0.7c-0.2,0.2-0.4,0.4-0.7,0.6
				c-0.2,0.2-0.6,0.4-0.8,0.7c-0.2,0.2-0.5,0.4-0.8,0.6c-0.3,0.2-0.6,0.4-0.9,0.6c-0.3,0.2-0.6,0.4-0.8,0.5c-0.3,0.2-0.7,0.4-1,0.6
				c-0.3,0.2-0.6,0.3-0.9,0.5c-0.4,0.2-0.7,0.3-1.1,0.5c-0.3,0.1-0.6,0.3-1,0.4c-0.4,0.2-0.8,0.3-1.2,0.4c-0.3,0.1-0.7,0.2-1,0.4
				c-0.4,0.1-0.9,0.2-1.3,0.4c-0.3,0.1-0.7,0.2-1.1,0.3c-0.5,0.1-0.9,0.2-1.4,0.3c-0.4,0.1-0.7,0.2-1.1,0.2c-0.5,0.1-1,0.2-1.6,0.2
				c-0.3,0.1-0.7,0.1-1,0.2c-0.6,0.1-1.2,0.1-1.8,0.2c-0.3,0-0.6,0-0.9,0.1c-0.9,0-1.8,0.1-2.7,0.1c-1.6,0-3.2-0.1-4.8-0.3
				c-0.5-0.1-0.9-0.1-1.4-0.2c-0.6-0.1-1.2-0.2-1.8-0.3v-6.3c0.2,0,0.5,0.1,0.7,0.1c0.9,0.1,1.7,0.2,2.6,0.3c0.4,0,0.7,0.1,1.1,0.1
				c1.2,0.1,2.4,0.1,3.7,0.1c1.3,0,2.6,0,3.9-0.1c0.4,0,0.8-0.1,1.2-0.1c0.9-0.1,1.7-0.2,2.5-0.3c0.5-0.1,0.9-0.1,1.4-0.2
				c0.8-0.1,1.5-0.3,2.3-0.5c0.4-0.1,0.9-0.2,1.3-0.3c0.8-0.2,1.5-0.4,2.3-0.7c0.4-0.1,0.7-0.2,1.1-0.3c1-0.4,2-0.7,3-1.2
				c0,0,0.1,0,0.1,0c1-0.4,1.9-0.9,2.9-1.4c0.3-0.2,0.6-0.3,0.8-0.5C201.4,151.6,202,151.2,202.6,150.8L202.6,150.8z M202.6,163.7
				c0.3-0.2,0.6-0.4,0.9-0.7c0.5-0.4,1-0.8,1.5-1.2c0.1-0.1,0.3-0.2,0.5-0.4c0,0.2,0,0.3,0,0.5c0,0.2-0.1,0.5-0.1,0.8
				c0,0.3-0.1,0.5-0.2,0.8c-0.1,0.3-0.1,0.5-0.2,0.8c-0.1,0.2-0.2,0.5-0.4,0.8c-0.1,0.2-0.2,0.5-0.4,0.7c-0.1,0.2-0.3,0.5-0.5,0.7
				c-0.2,0.2-0.3,0.5-0.5,0.7c-0.2,0.3-0.4,0.5-0.6,0.7c-0.2,0.2-0.4,0.4-0.6,0.6c-0.2,0.2-0.5,0.5-0.7,0.7
				c-0.2,0.2-0.4,0.4-0.7,0.6c-0.2,0.2-0.6,0.4-0.8,0.7c-0.2,0.2-0.5,0.4-0.8,0.6c-0.3,0.2-0.6,0.4-0.9,0.6
				c-0.3,0.2-0.6,0.3-0.8,0.5c-0.3,0.2-0.7,0.4-1,0.6c-0.3,0.2-0.6,0.3-0.9,0.5c-0.4,0.2-0.7,0.3-1.1,0.5c-0.3,0.1-0.6,0.3-1,0.4
				c-0.4,0.2-0.8,0.3-1.2,0.4c-0.3,0.1-0.7,0.2-1,0.4c-0.4,0.1-0.9,0.2-1.3,0.4c-0.3,0.1-0.7,0.2-1.1,0.3c-0.5,0.1-0.9,0.2-1.4,0.3
				c-0.4,0.1-0.7,0.2-1.1,0.2c-0.5,0.1-1,0.2-1.6,0.2c-0.3,0.1-0.7,0.1-1,0.2c-0.6,0.1-1.2,0.1-1.8,0.2c-0.3,0-0.6,0.1-0.9,0.1
				c-0.9,0-1.8,0.1-2.7,0.1c-1.6,0-3.2-0.1-4.8-0.3c-0.5-0.1-0.9-0.1-1.4-0.2c-0.6-0.1-1.2-0.2-1.8-0.3V170c0.2,0,0.5,0,0.7,0.1
				c0.9,0.1,1.7,0.2,2.6,0.3c0.4,0,0.7,0.1,1.1,0.1c1.2,0.1,2.4,0.2,3.7,0.2c1.3,0,2.6-0.1,3.9-0.2c0.4,0,0.8-0.1,1.2-0.1
				c0.9-0.1,1.7-0.2,2.5-0.3c0.5-0.1,0.9-0.1,1.4-0.2c0.8-0.1,1.5-0.3,2.3-0.5c0.4-0.1,0.9-0.2,1.3-0.3c0.8-0.2,1.5-0.4,2.3-0.7
				c0.4-0.1,0.7-0.2,1.1-0.3c1-0.4,2-0.8,3-1.2c0,0,0.1,0,0.1,0c1-0.4,1.9-0.9,2.9-1.4c0.3-0.2,0.6-0.3,0.8-0.5
				C201.4,164.5,202,164.1,202.6,163.7L202.6,163.7z M163.4,162.8c0,0.3-0.1,0.5-0.2,0.8c-0.1,0.3-0.1,0.5-0.2,0.7
				c-0.1,0.3-0.2,0.5-0.3,0.8c-0.1,0.3-0.2,0.5-0.4,0.7c-0.1,0.3-0.3,0.5-0.5,0.8c-0.2,0.2-0.3,0.5-0.5,0.7
				c-0.2,0.3-0.4,0.5-0.6,0.7c-0.2,0.2-0.4,0.4-0.6,0.7c-0.2,0.2-0.5,0.5-0.7,0.7c-0.2,0.2-0.4,0.4-0.7,0.6
				c-0.3,0.2-0.6,0.4-0.8,0.7c-0.3,0.2-0.5,0.4-0.8,0.6c-0.3,0.2-0.6,0.4-0.9,0.6c-0.3,0.2-0.6,0.4-0.8,0.5c-0.3,0.2-0.7,0.4-1,0.6
				c-0.3,0.2-0.6,0.3-0.9,0.5c-0.4,0.2-0.8,0.3-1.1,0.5c-0.3,0.1-0.6,0.3-1,0.4c-0.4,0.2-0.8,0.3-1.2,0.4c-0.3,0.1-0.7,0.2-1,0.4
				c-0.4,0.1-0.9,0.2-1.3,0.4c-0.4,0.1-0.7,0.2-1.1,0.3c-0.5,0.1-0.9,0.2-1.4,0.3c-0.3,0.1-0.7,0.2-1.1,0.2c-0.5,0.1-1,0.2-1.6,0.2
				c-0.3,0.1-0.7,0.1-1,0.2c-0.6,0.1-1.2,0.1-1.8,0.2c-0.3,0-0.6,0-0.9,0.1c-0.9,0-1.8,0.1-2.7,0.1c-0.9,0-1.8,0-2.7-0.1
				c-0.3,0-0.6-0.1-0.9-0.1c-0.6,0-1.2-0.1-1.8-0.2c-0.3,0-0.7-0.1-1-0.2c-0.5-0.1-1.1-0.1-1.6-0.2c-0.4-0.1-0.7-0.2-1.1-0.2
				c-0.5-0.1-1-0.2-1.4-0.3c-0.4-0.1-0.7-0.2-1.1-0.3c-0.4-0.1-0.9-0.2-1.3-0.4c-0.3-0.1-0.7-0.2-1-0.4c-0.4-0.1-0.8-0.3-1.2-0.4
				c-0.3-0.1-0.7-0.3-1-0.4c-0.4-0.2-0.8-0.3-1.1-0.5c-0.3-0.1-0.6-0.3-0.9-0.5c-0.3-0.2-0.7-0.4-1-0.6c-0.3-0.2-0.5-0.3-0.8-0.5
				c-0.3-0.2-0.6-0.4-0.9-0.6c-0.3-0.2-0.5-0.4-0.8-0.6c-0.3-0.2-0.6-0.4-0.8-0.7c-0.2-0.2-0.5-0.4-0.7-0.6
				c-0.2-0.2-0.5-0.5-0.7-0.7c-0.2-0.2-0.4-0.4-0.6-0.6c-0.2-0.3-0.4-0.5-0.6-0.7c-0.2-0.2-0.3-0.5-0.5-0.7
				c-0.2-0.2-0.3-0.5-0.5-0.8c-0.1-0.2-0.2-0.5-0.4-0.7c-0.1-0.2-0.3-0.5-0.3-0.8c-0.1-0.2-0.2-0.5-0.2-0.7
				c-0.1-0.3-0.2-0.5-0.2-0.8c0-0.3-0.1-0.5-0.1-0.8c0-0.2,0-0.3,0-0.5c0.1,0.1,0.3,0.2,0.4,0.4c0.5,0.4,1,0.8,1.5,1.2
				c0.3,0.2,0.6,0.4,0.9,0.6c0.6,0.4,1.2,0.8,1.8,1.1c0.3,0.2,0.6,0.3,0.8,0.5c0.9,0.5,1.9,1,2.8,1.4c0,0,0.1,0,0.1,0
				c1,0.4,2,0.8,3,1.2c0.3,0.1,0.7,0.2,1.1,0.3c0.7,0.2,1.5,0.5,2.3,0.7c0.4,0.1,0.8,0.2,1.3,0.3c0.8,0.2,1.5,0.3,2.3,0.5
				c0.5,0.1,0.9,0.2,1.4,0.2c0.8,0.1,1.7,0.2,2.5,0.3c0.4,0,0.8,0.1,1.2,0.1c1.3,0.1,2.6,0.2,3.9,0.2c1.3,0,2.6-0.1,3.9-0.2
				c0.4,0,0.8-0.1,1.2-0.1c0.9-0.1,1.7-0.2,2.5-0.3c0.5-0.1,0.9-0.1,1.4-0.2c0.8-0.1,1.5-0.3,2.3-0.5c0.4-0.1,0.9-0.2,1.3-0.3
				c0.8-0.2,1.5-0.4,2.3-0.7c0.4-0.1,0.7-0.2,1.1-0.3c1-0.4,2-0.8,3-1.2c0,0,0.1,0,0.1,0c1-0.4,1.9-0.9,2.8-1.4
				c0.3-0.2,0.6-0.3,0.8-0.5c0.6-0.4,1.2-0.7,1.8-1.1c0.3-0.2,0.6-0.4,0.9-0.7c0.5-0.4,1-0.8,1.5-1.2c0.1-0.1,0.3-0.2,0.4-0.4
				c0,0.2,0,0.4,0,0.5C163.5,162.3,163.5,162.5,163.4,162.8L163.4,162.8z M99.9,151.1c-1.3,0.1-2.6,0.2-3.8,0.2
				c-1.5,0-3-0.1-4.5-0.3c-0.5-0.1-0.9-0.2-1.4-0.2c-1-0.2-2-0.3-3-0.6c-0.5-0.1-1.1-0.2-1.6-0.4c-0.9-0.3-1.9-0.6-2.7-0.9
				c-0.5-0.2-1-0.3-1.5-0.5c-1.3-0.5-2.5-1.1-3.8-1.8c-0.4-0.2-0.7-0.4-1.1-0.7c-0.9-0.5-1.8-1.1-2.6-1.7c-0.4-0.3-0.8-0.6-1.3-0.9
				c-0.8-0.6-1.6-1.3-2.4-2c-0.3-0.3-0.6-0.5-0.9-0.8c-0.6-0.6-1.3-1.3-1.9-2l9.9-10.9c1.4-1.5,3.2-2.2,4.8-1.9
				c0.2,0,0.3,0.1,0.4,0.1c0.5,0.4,1.5,1.4,2.2,2c1.8,1.6,2.9,2.6,3.8,3.3c1.8,3.5,4.3,4.9,6.2,5.4c2.3,0.7,4.8,0.5,7.6-0.6v14.8
				c-0.3,0.1-0.7,0.1-1,0.2C101,150.9,100.4,151,99.9,151.1L99.9,151.1z M57.7,109.1c0-0.3,0.1-0.6,0.1-0.9c0.1-1,0.3-2,0.5-3
				c0-0.2,0-0.3,0.1-0.5c0.2-1.1,0.5-2.3,0.9-3.4c0.1-0.2,0.2-0.5,0.2-0.7c0.3-0.8,0.6-1.7,0.9-2.5c0.1-0.3,0.3-0.6,0.4-0.9
				c0.4-0.9,0.8-1.7,1.2-2.6c0.2-0.4,0.5-0.8,0.7-1.3c0.3-0.5,0.6-0.9,0.8-1.4c0,0,0,0,0,0l9.3,10.2c2.4,2.6,5.5,4,8.7,4
				c1.2,0,2.3-0.2,3.4-0.6c1.3-0.5,2.2-1.5,3.2-2.6c1.6-1.9,2.9-3.2,4.8-3.2c3.2,0,6.3,1.2,8.7,3.4l3.4,3.6l1.6-4.6
				c0.8-1,4.4-2.2,6.6-2.5c1.3,3.4,3.5,11.5-0.5,19.3c-0.2,0.1-0.4,0.3-0.7,0.4c-0.4,0.3-0.8,0.6-1.1,0.8c-0.3,0.3-0.7,0.5-1,0.8
				c-0.3,0.3-0.7,0.6-1,0.9c-0.3,0.3-0.6,0.5-0.8,0.8c-0.3,0.3-0.6,0.7-0.9,1c-0.2,0.3-0.5,0.5-0.7,0.8c-0.3,0.3-0.5,0.7-0.8,1.1
				c-0.2,0.3-0.4,0.6-0.6,0.9c-0.2,0.4-0.4,0.8-0.6,1.2c0,0,0,0,0,0.1c-3.2,2.1-6,3-7.7,2.5c-0.4-0.1-1.6-0.4-2.6-2.9l-0.7-1.7
				l-1.3-0.1c-0.7-0.5-2-1.7-2.8-2.5c-2.2-2.1-3.2-2.9-4.3-3.3c-0.6-0.2-1.1-0.3-1.7-0.4c-3.8-0.7-7.8,0.8-10.6,3.9l-9.2,10.1
				c0,0,0,0,0,0c-0.3-0.4-0.5-0.8-0.8-1.3c-0.3-0.5-0.6-1-0.8-1.5c-0.4-0.8-0.8-1.6-1.2-2.5c-0.1-0.3-0.3-0.6-0.4-0.9
				c-0.3-0.8-0.6-1.7-0.9-2.5c-0.1-0.2-0.2-0.5-0.2-0.7c-0.3-1.1-0.6-2.2-0.9-3.4c0-0.2,0-0.3-0.1-0.5c-0.2-1-0.3-2-0.5-3
				c0-0.3-0.1-0.6-0.1-0.9c-0.1-1.2-0.2-2.3-0.2-3.5C57.5,111.5,57.6,110.3,57.7,109.1L57.7,109.1z M110.9,150.2
				c0.3,0.2,0.6,0.4,0.9,0.6c0.6,0.4,1.2,0.8,1.8,1.1c0.3,0.2,0.6,0.4,0.8,0.5c0.9,0.5,1.9,1,2.9,1.4c0,0,0.1,0,0.1,0
				c1,0.4,2,0.8,3,1.2c0.4,0.1,0.7,0.2,1.1,0.3c0.7,0.2,1.5,0.5,2.3,0.7c0.4,0.1,0.9,0.2,1.3,0.3c0.7,0.2,1.5,0.3,2.3,0.5
				c0.4,0.1,0.9,0.2,1.4,0.2c0.8,0.1,1.7,0.2,2.5,0.3c0.4,0,0.8,0.1,1.2,0.1c1.3,0.1,2.6,0.2,3.9,0.2c1.3,0,2.6,0,3.9-0.1
				c0.4,0,0.8-0.1,1.2-0.1c0.9-0.1,1.7-0.2,2.5-0.3c0.5-0.1,0.9-0.1,1.4-0.2c0.8-0.1,1.5-0.3,2.3-0.5c0.4-0.1,0.9-0.2,1.3-0.3
				c0.8-0.2,1.5-0.4,2.3-0.7c0.4-0.1,0.7-0.2,1.1-0.3c1-0.4,2-0.7,3-1.2c0,0,0.1,0,0.1,0c1-0.4,1.9-0.9,2.8-1.4
				c0.3-0.2,0.6-0.3,0.8-0.5c0.6-0.4,1.2-0.7,1.8-1.1c0.3-0.2,0.6-0.4,0.9-0.7c0.5-0.4,1-0.8,1.5-1.2c0.1-0.1,0.3-0.2,0.4-0.4
				c0,0.2,0,0.3,0,0.5c0,0.3,0,0.5-0.1,0.8c0,0.3-0.1,0.5-0.2,0.8c-0.1,0.3-0.1,0.5-0.2,0.8c-0.1,0.2-0.2,0.5-0.3,0.8
				c-0.1,0.2-0.2,0.5-0.4,0.7c-0.1,0.2-0.3,0.5-0.5,0.7c-0.2,0.2-0.3,0.5-0.5,0.7c-0.2,0.2-0.4,0.5-0.6,0.7
				c-0.2,0.2-0.4,0.4-0.6,0.6c-0.2,0.2-0.5,0.5-0.7,0.7c-0.2,0.2-0.4,0.4-0.7,0.6c-0.3,0.2-0.6,0.4-0.8,0.7
				c-0.3,0.2-0.5,0.4-0.8,0.6c-0.3,0.2-0.6,0.4-0.9,0.6c-0.3,0.2-0.6,0.3-0.8,0.5c-0.3,0.2-0.7,0.4-1,0.6c-0.3,0.2-0.6,0.3-0.9,0.5
				c-0.4,0.2-0.8,0.3-1.1,0.5c-0.3,0.1-0.6,0.3-1,0.4c-0.4,0.2-0.8,0.3-1.2,0.4c-0.3,0.1-0.7,0.2-1,0.4c-0.4,0.1-0.9,0.2-1.3,0.4
				c-0.4,0.1-0.7,0.2-1.1,0.3c-0.5,0.1-0.9,0.2-1.4,0.3c-0.3,0.1-0.7,0.2-1.1,0.2c-0.5,0.1-1,0.2-1.6,0.2c-0.3,0.1-0.7,0.1-1,0.2
				c-0.6,0.1-1.2,0.1-1.8,0.2c-0.3,0-0.6,0.1-0.9,0.1c-0.9,0-1.8,0.1-2.7,0.1c-0.9,0-1.8,0-2.7-0.1c-0.3,0-0.6-0.1-0.9-0.1
				c-0.6-0.1-1.2-0.1-1.8-0.2c-0.3,0-0.7-0.1-1-0.2c-0.5-0.1-1.1-0.1-1.6-0.2c-0.4-0.1-0.7-0.2-1.1-0.2c-0.5-0.1-1-0.2-1.4-0.3
				c-0.4-0.1-0.7-0.2-1.1-0.3c-0.4-0.1-0.9-0.2-1.3-0.4c-0.3-0.1-0.7-0.2-1-0.4c-0.4-0.1-0.8-0.3-1.2-0.4c-0.3-0.1-0.7-0.3-1-0.4
				c-0.4-0.2-0.8-0.3-1.1-0.5c-0.3-0.1-0.6-0.3-0.9-0.5c-0.3-0.2-0.7-0.4-1-0.6c-0.3-0.2-0.5-0.4-0.8-0.5c-0.3-0.2-0.6-0.4-0.9-0.6
				c-0.3-0.2-0.5-0.4-0.8-0.6c-0.3-0.2-0.6-0.4-0.8-0.6c-0.2-0.2-0.5-0.4-0.7-0.6c-0.2-0.2-0.5-0.5-0.7-0.7
				c-0.2-0.2-0.4-0.4-0.6-0.7c-0.2-0.2-0.4-0.5-0.6-0.7c-0.2-0.2-0.3-0.5-0.5-0.7c-0.2-0.2-0.3-0.5-0.5-0.8
				c-0.1-0.2-0.2-0.5-0.4-0.7c-0.1-0.3-0.3-0.5-0.3-0.8c-0.1-0.2-0.2-0.5-0.2-0.7c-0.1-0.3-0.2-0.5-0.2-0.8c0-0.3-0.1-0.5-0.1-0.8
				c0-0.2,0-0.3,0-0.5c0.1,0.1,0.3,0.2,0.4,0.4C109.9,149.4,110.4,149.8,110.9,150.2L110.9,150.2z M132.1,112.9
				c-0.6,0-1.2,0.1-1.8,0.2c-0.5,0.1-1,0.1-1.6,0.2c-0.6,0.1-1.1,0.2-1.7,0.3c-0.5,0.1-1,0.2-1.5,0.3c-0.6,0.1-1.1,0.3-1.6,0.4
				c-0.5,0.1-1,0.2-1.4,0.4c-0.5,0.2-1,0.3-1.5,0.5c-0.1,0-0.1,0-0.2,0.1c2.2-10.5-2.3-19.5-2.6-20l-0.6-1.2l-1.3-0.4
				c-2.8-0.8-9.1,0.4-12.9,3c-3.1-2-6.8-3.1-10.5-3.1c-5.1,0-8.1,3.6-9.7,5.5c-0.3,0.3-0.5,0.6-0.7,0.8c-0.3,0.1-0.7,0.1-1.1,0.1
				c-1.4,0-2.7-0.7-3.8-1.9l-10-11c0.6-0.7,1.2-1.4,1.9-2c0.3-0.3,0.6-0.5,0.9-0.8c0.8-0.7,1.6-1.4,2.4-2c0.4-0.3,0.8-0.6,1.3-0.9
				c0.8-0.6,1.7-1.2,2.6-1.7c0.4-0.2,0.7-0.5,1.1-0.7c1.2-0.7,2.5-1.3,3.8-1.8c0.5-0.2,1-0.4,1.5-0.5c0.9-0.3,1.8-0.6,2.7-0.9
				c0.5-0.1,1.1-0.3,1.6-0.4c1-0.2,2-0.4,3-0.6c0.5-0.1,0.9-0.2,1.4-0.2c1.5-0.2,3-0.3,4.5-0.3c1.5,0,3,0.1,4.5,0.3
				c0.5,0,0.9,0.1,1.4,0.2c1,0.1,2,0.3,3,0.6c0.5,0.1,1.1,0.3,1.6,0.4c0.9,0.3,1.9,0.6,2.8,0.9c0.5,0.2,1,0.3,1.4,0.5
				c1.3,0.5,2.5,1.1,3.8,1.8c0.4,0.2,0.7,0.4,1.1,0.7c0.9,0.5,1.8,1.1,2.6,1.7c0.4,0.3,0.8,0.6,1.3,0.9c0.8,0.6,1.6,1.3,2.4,2
				c0.3,0.3,0.6,0.5,0.9,0.8c2.2,2.1,4.2,4.5,5.9,7.2c3.8,6,6,13,6,20.6v0c-0.3,0-0.7,0-1,0.1C133.2,112.8,132.6,112.8,132.1,112.9
				L132.1,112.9z M63.9,144.2c0,0,0.1,0.1,0.1,0.1c1.1,1.1,2.3,2.2,3.6,3.2c0.4,0.4,0.9,0.7,1.4,1c0.8,0.6,1.6,1.2,2.5,1.8
				c0.6,0.4,1.2,0.8,1.8,1.1c0.8,0.5,1.6,0.9,2.4,1.3c0.7,0.3,1.3,0.6,2,0.9c0.8,0.4,1.7,0.7,2.5,1c0.7,0.3,1.3,0.5,2,0.7
				c1,0.3,1.9,0.5,2.9,0.8c0.6,0.2,1.2,0.3,1.8,0.5c1.6,0.3,3.1,0.6,4.7,0.7c0.5,0,1.1,0,1.6,0.1c1,0.1,2,0.1,3,0.1
				c0.1,0,0.3,0,0.5,0c0.9,0,1.8-0.1,2.7-0.2c0.8-0.1,1.7-0.1,2.5-0.2c0.2,0,0.5,0,0.8-0.1v26.2H83.2c-0.8-10.3-9-18.5-19.2-19.2
				V144.2z M173.3,25.8v48.5c-1.1,0.1-2.2,0.2-3.2,0.4V25.8H173.3z M163.6,25.8v50.4c-1.1,0.3-2.2,0.7-3.2,1.1V25.8H163.6z
				 M154,25.8v54.9c-1.2,0.8-2.2,1.7-3.2,2.6V25.8H154z M47.8,199.6V25.8h96.5v87.5h0c-1.1-0.2-2.1-0.3-3.2-0.4c0-0.1,0-0.2,0-0.3
				c0-8.4-2.4-16.3-6.4-23.1V54.4l-3.5,0.3c-0.4,0-0.9,0.1-1.3,0.1c-8,0-14.5-6.5-14.5-14.5c0-0.4,0-0.9,0.1-1.3l0.3-3.5H76.4
				l0.3,3.5c0,0.4,0.1,0.9,0.1,1.3c0,8-6.5,14.5-14.5,14.5c-0.4,0-0.9,0-1.3-0.1l-3.5-0.3v35.2c0,0.1-0.1,0.1-0.1,0.2
				c-0.4,0.7-0.8,1.4-1.2,2.2c-0.5,1-1,1.9-1.4,2.9c-0.2,0.4-0.3,0.7-0.4,1.1c-0.4,0.9-0.7,1.9-1,2.8c-0.1,0.4-0.2,0.8-0.4,1.2
				c-0.3,0.9-0.5,1.9-0.7,2.9c-0.1,0.4-0.2,0.8-0.3,1.3c-0.2,1-0.3,2-0.5,3c0,0.4-0.1,0.8-0.2,1.2c-0.1,1.4-0.2,2.8-0.2,4.3
				c0,1.4,0.1,2.9,0.2,4.3c0,0.4,0.1,0.8,0.2,1.2c0.1,1,0.3,2,0.5,3c0.1,0.4,0.2,0.9,0.3,1.3c0.2,1,0.5,1.9,0.7,2.9
				c0.1,0.4,0.2,0.8,0.4,1.2c0.3,1,0.7,1.9,1,2.8c0.2,0.4,0.3,0.7,0.4,1.1c0.4,1,0.9,1.9,1.4,2.9c0.4,0.8,0.8,1.5,1.2,2.2
				c0,0.1,0.1,0.1,0.1,0.2V171l3.5-0.3c0.4,0,0.9-0.1,1.3-0.1c8,0,14.5,6.5,14.5,14.5c0,0.5,0,0.9-0.1,1.3l-0.3,3.5h26.5
				c0.1,0.3,0.1,0.6,0.2,0.8c0.1,0.3,0.2,0.6,0.3,1c0.1,0.3,0.2,0.5,0.3,0.8c1,2.6,2.6,5,4.8,7.1H47.8z M119.8,199.4
				c-0.3-0.1-0.6-0.3-0.9-0.4c-0.4-0.2-0.9-0.5-1.3-0.7c-0.3-0.2-0.5-0.3-0.8-0.5c-0.8-0.5-1.5-0.9-2.1-1.4
				c-0.2-0.2-0.5-0.3-0.7-0.5c-0.3-0.3-0.6-0.5-0.8-0.8c-0.3-0.2-0.5-0.5-0.7-0.7c-0.2-0.3-0.4-0.5-0.7-0.7
				c-0.2-0.3-0.5-0.6-0.7-0.9c-0.2-0.2-0.3-0.4-0.5-0.7c-0.2-0.4-0.5-0.8-0.6-1.2c-0.1-0.2-0.2-0.3-0.2-0.4
				c-0.2-0.6-0.4-1.1-0.5-1.7c0-0.2,0-0.3-0.1-0.5c0-0.3-0.1-0.7-0.1-1c0.1,0.1,0.3,0.2,0.4,0.4c0.5,0.4,1,0.8,1.5,1.2
				c0.3,0.2,0.6,0.4,0.9,0.6c0.6,0.4,1.2,0.8,1.8,1.1c0.3,0.2,0.6,0.3,0.8,0.5c0.9,0.5,1.9,1,2.9,1.4c0,0,0.1,0,0.1,0
				c1,0.4,2,0.8,3,1.2c0.3,0.1,0.7,0.2,1.1,0.3c0.7,0.2,1.5,0.5,2.3,0.7c0.4,0.1,0.9,0.2,1.3,0.3c0.7,0.2,1.5,0.3,2.3,0.5
				c0.4,0.1,0.9,0.2,1.4,0.2c0.8,0.1,1.7,0.2,2.5,0.3c0.4,0,0.8,0.1,1.2,0.1c1.3,0.1,2.6,0.2,3.9,0.2c1.3,0,2.6-0.1,3.9-0.2
				c0.4,0,0.8-0.1,1.2-0.1c0.9-0.1,1.7-0.2,2.5-0.3c0.5-0.1,0.9-0.2,1.4-0.2c0.8-0.1,1.5-0.3,2.3-0.5c0.4-0.1,0.9-0.2,1.3-0.3
				c0.8-0.2,1.5-0.4,2.3-0.7c0.4-0.1,0.7-0.2,1.1-0.3c1-0.4,2-0.8,3-1.2c0,0,0.1,0,0.1,0c1-0.5,1.9-0.9,2.8-1.4
				c0.3-0.2,0.6-0.3,0.8-0.5c0.6-0.4,1.2-0.7,1.8-1.1c0.3-0.2,0.6-0.4,0.9-0.6c0.5-0.4,1-0.8,1.5-1.2c0.1-0.1,0.3-0.2,0.4-0.3
				c0,0.3,0,0.7-0.1,1c0,0.1,0,0.2,0,0.2c-0.1,0.6-0.3,1.2-0.6,1.8v0c-0.9,2.1-2.5,4.1-4.7,5.9l-0.2,0.1c-0.7,0.5-1.4,1-2.2,1.5
				c-0.2,0.1-0.3,0.2-0.5,0.3l-0.1,0c-5,2.8-11.7,4.6-18.9,4.6C130.2,202.8,124.4,201.5,119.8,199.4L119.8,199.4z M178.1,202.8
				c-5.2,0-10.3-0.9-14.7-2.6c1.7-1.5,3.1-3.2,4.2-4.9c0,0,0.1,0,0.2,0c1.5,0.3,3,0.6,4.5,0.7c0.3,0,0.7,0.1,1,0.1
				c1.6,0.2,3.2,0.3,4.8,0.3c1.3,0,2.6-0.1,3.9-0.2c0.4,0,0.8-0.1,1.2-0.1c0.9-0.1,1.7-0.2,2.5-0.3c0.5-0.1,0.9-0.2,1.4-0.2
				c0.8-0.1,1.5-0.3,2.3-0.5c0.4-0.1,0.9-0.2,1.3-0.3c0.8-0.2,1.5-0.4,2.3-0.7c0.4-0.1,0.7-0.2,1.1-0.3c1-0.4,2-0.8,3-1.2
				c0,0,0.1,0,0.1,0c1-0.5,1.9-0.9,2.9-1.4c0.3-0.2,0.6-0.3,0.8-0.5c0.6-0.4,1.2-0.7,1.8-1.1c0.3-0.2,0.6-0.4,0.9-0.6
				c0.5-0.4,1-0.8,1.5-1.2c0.2-0.1,0.3-0.2,0.5-0.4C205,195.7,192.7,202.8,178.1,202.8L178.1,202.8z M178.1,202.8"/>
		</g>
	</g>
	<g>
		<path class="st2" d="M187.8,298.3h-45.6v-12h-12v-24H72.1v-16.8h48V202h-7.2v36.4h-48v31.2h58.2v16.8h-12v12H65.5
			c-31.1,0-56.3,25.3-56.3,56.3S34.4,411,65.5,411c20.5,0,39.2-11,49.1-28.8h24c10,17.8,28.6,28.8,49.1,28.8
			c31.1,0,56.3-25.3,56.3-56.3S218.9,298.3,187.8,298.3z M118.3,293.5H135v4.8h-16.8V293.5z M187.8,403.8
			c-18.6,0-35.3-10.3-43.8-26.8l-1-2h-32.7l-1,2c-8.5,16.5-25.2,26.8-43.8,26.8c-27.1,0-49.2-22-49.2-49.2c0-27.1,22-49.2,49.2-49.2
			h45.6h31.2h45.6c27.1,0,49.2,22,49.2,49.2C236.9,381.8,214.9,403.8,187.8,403.8z"/>
		<path class="st1" d="M187.8,355.9c-5.9,0-10.8,4.8-10.8,10.8s4.8,10.8,10.8,10.8c5.9,0,10.8-4.8,10.8-10.8
			S193.7,355.9,187.8,355.9z M187.8,370.2c-2,0-3.6-1.6-3.6-3.6c0-2,1.6-3.6,3.6-3.6c2,0,3.6,1.6,3.6,3.6
			C191.4,368.6,189.8,370.2,187.8,370.2z"/>
		<path class="st1" d="M187.8,348.7c5.9,0,10.8-4.8,10.8-10.8c0-5.9-4.8-10.8-10.8-10.8c-5.9,0-10.8,4.8-10.8,10.8
			C177,343.8,181.8,348.7,187.8,348.7z M187.8,334.3c2,0,3.6,1.6,3.6,3.6c0,2-1.6,3.6-3.6,3.6c-2,0-3.6-1.6-3.6-3.6
			C184.2,335.9,185.8,334.3,187.8,334.3z"/>
		<path class="st1" d="M207,341.5c-5.9,0-10.8,4.8-10.8,10.8c0,5.9,4.8,10.8,10.8,10.8s10.8-4.8,10.8-10.8
			C217.8,346.3,212.9,341.5,207,341.5z M207,355.9c-2,0-3.6-1.6-3.6-3.6c0-2,1.6-3.6,3.6-3.6s3.6,1.6,3.6,3.6
			C210.6,354.2,209,355.9,207,355.9z"/>
		<path class="st1" d="M168.6,341.5c-5.9,0-10.8,4.8-10.8,10.8c0,5.9,4.8,10.8,10.8,10.8s10.8-4.8,10.8-10.8
			C179.4,346.3,174.6,341.5,168.6,341.5z M168.6,355.9c-2,0-3.6-1.6-3.6-3.6c0-2,1.6-3.6,3.6-3.6s3.6,1.6,3.6,3.6
			C172.2,354.2,170.6,355.9,168.6,355.9z"/>
		<path class="st1" d="M76.3,329.5H54.7v14.4H40.3v21.6h14.4v14.4h21.6v-14.4h14.4v-21.6H76.3V329.5z M83.5,351.1v7.2H69.1v14.4
			h-7.2v-14.4H47.5v-7.2h14.4v-14.4h7.2v14.4H83.5z"/>
		<rect x="131.4" y="329.5" class="st2" width="14.4" height="7.2"/>
		<rect x="107.5" y="329.5" class="st2" width="14.4" height="7.2"/>
	</g>
</g>
</svg>
