<?xml version="1.0" encoding="UTF-8" standalone="no"?>
<!-- Created with Inkscape (http://www.inkscape.org/) -->

<svg
   xmlns:dc="http://purl.org/dc/elements/1.1/"
   xmlns:cc="http://creativecommons.org/ns#"
   xmlns:rdf="http://www.w3.org/1999/02/22-rdf-syntax-ns#"
   xmlns:svg="http://www.w3.org/2000/svg"
   xmlns="http://www.w3.org/2000/svg"
   xmlns:sodipodi="http://sodipodi.sourceforge.net/DTD/sodipodi-0.dtd"
   xmlns:inkscape="http://www.inkscape.org/namespaces/inkscape"
   width="2944"
   height="938.50598"
   viewBox="0 0 2944 938.50594"
   id="svg6726"
   version="1.1"
   inkscape:version="0.91 r13725"
   inkscape:export-filename="/home/lfgarcia/workspace/GameClub/source/gameclub-web/public/img/review-gamespot.png"
   inkscape:export-xdpi="55"
   inkscape:export-ydpi="55"
   sodipodi:docname="review-gamespot.svg">
  <defs
     id="defs6728">
    <clipPath
       clipPathUnits="userSpaceOnUse"
       id="clipPath928">
      <path
         d="m 0,3141.631 2560,0 L 2560,0 0,0 0,3141.631 Z"
         id="path930"
         inkscape:connector-curvature="0" />
    </clipPath>
    <clipPath
       clipPathUnits="userSpaceOnUse"
       id="clipPath862">
      <path
         d="m 0,3141.631 2560,0 L 2560,0 0,0 0,3141.631 Z"
         id="path864"
         inkscape:connector-curvature="0" />
    </clipPath>
    <clipPath
       clipPathUnits="userSpaceOnUse"
       id="clipPath850">
      <path
         d="m 1904.615,2100.844 -6.562,9.526 1.991,-11.59 -10.154,7.199 7.077,-10.242 -4.31,0.589 c -2.319,3.274 -6.138,5.412 -10.456,5.412 l 0,0 c -5.935,0 -10.926,-4.04 -12.377,-9.519 l 0,0 c -1.451,5.479 -6.443,9.519 -12.379,9.519 l 0,0 c -5.855,0 -10.794,-3.933 -12.317,-9.301 l 0,0 c -1.524,5.368 -6.463,9.301 -12.319,9.301 l 0,0 c -5.935,0 -10.926,-4.04 -12.377,-9.519 l 0,0 c -1.451,5.479 -6.443,9.519 -12.379,9.519 l 0,0 c -5.844,0 -10.774,-3.916 -12.307,-9.268 l 0,0 c -1.535,5.352 -6.466,9.268 -12.31,9.268 l 0,0 c -5.935,0 -10.926,-4.04 -12.377,-9.519 l 0,0 c -1.451,5.479 -6.443,9.519 -12.378,9.519 l 0,0 c -7.07,0 -12.804,-5.733 -12.804,-12.804 l 0,0 c 0,-7.07 5.734,-12.803 12.804,-12.803 l 0,0 c 5.935,0 10.927,4.04 12.378,9.519 l 0,0 c 1.451,-5.479 6.442,-9.519 12.377,-9.519 l 0,0 c 5.844,0 10.775,3.917 12.31,9.269 l 0,0 c 1.533,-5.352 6.463,-9.269 12.307,-9.269 l 0,0 c 5.936,0 10.928,4.04 12.379,9.519 l 0,0 c 1.451,-5.479 6.442,-9.519 12.377,-9.519 l 0,0 c 5.856,0 10.795,3.934 12.319,9.302 l 0,0 c 1.523,-5.368 6.462,-9.302 12.317,-9.302 l 0,0 c 5.936,0 10.928,4.04 12.379,9.519 l 0,0 c 1.451,-5.479 6.442,-9.519 12.377,-9.519 l 0,0 c 4.285,0 8.079,2.107 10.404,5.339 l 0,0 4.362,0.596 -7.077,-10.241 10.154,7.198 -1.991,-11.589 6.562,9.526 2.166,-11.571 2.166,11.571 6.562,-9.526 -1.991,11.589 10.154,-7.198 -7.077,10.241 4.599,-0.628 c 2.327,-3.215 6.109,-5.307 10.38,-5.307 l 0,0 c 7.07,0 12.803,5.733 12.803,12.803 l 0,0 c 0,7.071 -5.733,12.804 -12.803,12.804 l 0,0 c -4.303,0 -8.111,-2.123 -10.433,-5.38 l 0,0 -4.546,-0.621 7.077,10.242 -10.154,-7.199 1.991,11.59 -6.562,-9.526 -2.166,11.57 -2.166,-11.57 z"
         id="path852"
         inkscape:connector-curvature="0" />
    </clipPath>
    <clipPath
       clipPathUnits="userSpaceOnUse"
       id="clipPath834">
      <path
         d="m 0,3141.631 2560,0 L 2560,0 0,0 0,3141.631 Z"
         id="path836"
         inkscape:connector-curvature="0" />
    </clipPath>
  </defs>
  <sodipodi:namedview
     id="base"
     pagecolor="#ffffff"
     bordercolor="#666666"
     borderopacity="1.0"
     inkscape:pageopacity="0.0"
     inkscape:pageshadow="2"
     inkscape:zoom="0.04375"
     inkscape:cx="-1736.7629"
     inkscape:cy="-738.33535"
     inkscape:document-units="px"
     inkscape:current-layer="layer1"
     showgrid="false"
     units="px"
     inkscape:window-width="1323"
     inkscape:window-height="744"
     inkscape:window-x="37"
     inkscape:window-y="24"
     inkscape:window-maximized="1" />
  <metadata
     id="metadata6731">
    <rdf:RDF>
      <cc:Work
         rdf:about="">
        <dc:format>image/svg+xml</dc:format>
        <dc:type
           rdf:resource="http://purl.org/dc/dcmitype/StillImage" />
        <dc:title></dc:title>
      </cc:Work>
    </rdf:RDF>
  </metadata>
  <g
     inkscape:label="Layer 1"
     inkscape:groupmode="layer"
     id="layer1"
     transform="translate(0,-113.85654)">
    <g
       id="g7368"
       transform="matrix(11.58542,0,0,11.58542,-1507.108,-5114.0461)">
      <g
         id="g830"
         transform="matrix(1.25,0,0,-1.25,-2049.2664,3102.8794)">
        <g
           clip-path="url(#clipPath834)"
           id="g832">
          <g
             transform="translate(1931.5734,2104.1338)"
             id="g838">
            <path
               inkscape:connector-curvature="0"
               id="path840"
               style="fill:#fedc00;fill-opacity:1;fill-rule:evenodd;stroke:none"
               d="m 0,0 c 8.393,0 15.199,-6.806 15.199,-15.199 0,-8.393 -6.806,-15.199 -15.199,-15.199 -3.495,0 -6.714,1.181 -9.281,3.164 l 8.074,-11.532 -14.178,9.921 2.779,-15.972 -9.162,13.129 -3.024,-15.947 -3.025,15.947 -9.162,-13.129 2.78,15.972 -14.179,-9.921 7.842,11.2 c -2.491,-1.783 -5.541,-2.832 -8.836,-2.832 -5.105,0 -9.621,2.517 -12.378,6.377 -2.756,-3.86 -7.273,-6.377 -12.378,-6.377 -5.068,0 -9.556,2.483 -12.318,6.297 -2.761,-3.814 -7.25,-6.297 -12.319,-6.297 -5.104,0 -9.62,2.517 -12.377,6.377 -2.757,-3.86 -7.274,-6.377 -12.378,-6.377 -5.062,0 -9.546,2.477 -12.308,6.283 -2.763,-3.806 -7.247,-6.283 -12.309,-6.283 -5.104,0 -9.621,2.517 -12.378,6.377 -2.756,-3.86 -7.273,-6.377 -12.377,-6.377 -8.394,0 -15.199,6.806 -15.199,15.199 0,8.393 6.805,15.199 15.199,15.199 5.104,0 9.621,-2.517 12.377,-6.377 2.757,3.86 7.274,6.377 12.378,6.377 5.062,0 9.546,-2.477 12.309,-6.283 2.762,3.806 7.246,6.283 12.308,6.283 5.104,0 9.621,-2.517 12.378,-6.377 2.757,3.86 7.273,6.377 12.377,6.377 5.069,0 9.558,-2.482 12.319,-6.297 2.762,3.815 7.25,6.297 12.318,6.297 5.105,0 9.622,-2.517 12.378,-6.377 2.757,3.86 7.273,6.377 12.378,6.377 3.255,0 6.271,-1.024 8.745,-2.768 l -7.751,11.07 14.179,-9.921 -2.78,15.972 9.162,-13.128 3.025,15.946 3.024,-15.946 9.162,13.128 -2.779,-15.972 14.178,9.921 -7.975,-11.39 C -6.631,-1.151 -3.45,0 0,0" />
          </g>
          <g
             transform="translate(1931.5734,2101.738)"
             id="g842">
            <path
               inkscape:connector-curvature="0"
               id="path844"
               style="fill:#aa1b44;fill-opacity:1;fill-rule:evenodd;stroke:none"
               d="m 0,0 c 7.071,0 12.804,-5.733 12.804,-12.804 0,-7.07 -5.733,-12.803 -12.804,-12.803 -4.27,0 -8.053,2.093 -10.379,5.307 l -4.6,0.628 7.078,-10.241 -10.154,7.199 1.99,-11.59 -6.561,9.526 -2.166,-11.571 -2.166,11.571 -6.562,-9.526 1.99,11.59 -10.153,-7.199 7.077,10.241 -4.363,-0.595 c -2.324,-3.234 -6.118,-5.34 -10.403,-5.34 -5.935,0 -10.927,4.04 -12.378,9.519 -1.45,-5.479 -6.443,-9.519 -12.378,-9.519 -5.855,0 -10.794,3.933 -12.318,9.302 -1.523,-5.369 -6.463,-9.302 -12.319,-9.302 -5.934,0 -10.926,4.04 -12.377,9.519 -1.451,-5.479 -6.443,-9.519 -12.378,-9.519 -5.844,0 -10.774,3.917 -12.308,9.269 -1.535,-5.352 -6.465,-9.269 -12.309,-9.269 -5.935,0 -10.927,4.04 -12.377,9.519 -1.451,-5.479 -6.444,-9.519 -12.378,-9.519 -7.071,0 -12.804,5.733 -12.804,12.803 0,7.071 5.733,12.804 12.804,12.804 5.934,0 10.927,-4.04 12.378,-9.519 1.45,5.479 6.442,9.519 12.377,9.519 5.844,0 10.774,-3.917 12.309,-9.268 1.534,5.351 6.464,9.268 12.308,9.268 5.935,0 10.927,-4.04 12.378,-9.519 1.451,5.479 6.443,9.519 12.377,9.519 5.856,0 10.796,-3.933 12.319,-9.301 1.524,5.368 6.463,9.301 12.318,9.301 5.935,0 10.928,-4.04 12.378,-9.519 1.451,5.479 6.443,9.519 12.378,9.519 4.317,0 8.136,-2.137 10.456,-5.412 l 4.31,-0.588 -7.077,10.241 10.153,-7.199 -1.99,11.59 6.562,-9.526 2.166,11.571 2.166,-11.571 6.561,9.526 -1.99,-11.59 10.154,7.199 -7.078,-10.241 4.547,0.62 C -8.111,-2.124 -4.303,0 0,0" />
          </g>
        </g>
      </g>
      <g
         id="g846"
         transform="matrix(1.25,0,0,-1.25,-2049.2664,3102.8794)">
        <g
           clip-path="url(#clipPath850)"
           id="g848">
          <path
             inkscape:connector-curvature="0"
             id="path854"
             style="fill:#aa1b44;fill-opacity:1;fill-rule:nonzero;stroke:none"
             d="m 1745.877,2112.415 198.5,0 0,-47.026 -198.5,0 0,47.026 z" />
          <path
             inkscape:connector-curvature="0"
             id="path856"
             style="fill:#000000;fill-opacity:1;fill-rule:nonzero;stroke:none"
             d="m 1950.08,2059.363 -207.521,0 0,57.261 207.521,0 0,-57.261 z" />
        </g>
      </g>
      <g
         id="g858"
         transform="matrix(1.25,0,0,-1.25,-2049.2664,3102.8794)">
        <g
           clip-path="url(#clipPath862)"
           id="g860">
          <g
             transform="translate(1925.76,2095.0034)"
             id="g866">
            <path
               inkscape:connector-curvature="0"
               id="path868"
               style="fill:#fedd03;fill-opacity:1;fill-rule:evenodd;stroke:none"
               d="m 0,0 11.423,0 0,-2.024 -3.975,0 0,-9.404 -3.511,0 0,9.404 L 0,-2.024 0,0 Z" />
          </g>
          <g
             transform="translate(1881.2441,2092.9795)"
             id="g870">
            <path
               inkscape:connector-curvature="0"
               id="path872"
               style="fill:#fedd03;fill-opacity:1;fill-rule:evenodd;stroke:none"
               d="m 0,0 0,-3.821 1.779,0 c 1.255,0 2.282,0.86 2.282,1.911 C 4.061,-0.859 3.034,0 1.779,0 L 0,0 Z m -3.511,2.024 6.425,0 c 3.147,0 4.721,-1.929 4.721,-3.857 0,-1.928 -1.691,-3.856 -4.837,-3.856 l -2.798,0 0,-3.715 -3.511,0 0,11.428 z" />
          </g>
          <g
             transform="translate(1828.061,2095.0034)"
             id="g874">
            <path
               inkscape:connector-curvature="0"
               id="path876"
               style="fill:#fedd03;fill-opacity:1;fill-rule:evenodd;stroke:none"
               d="m 0,0 9.496,0 0,-2.024 -5.985,0 0,-2.115 4.01,0 0,-2.024 -3.591,0 0,-3.241 5.566,0 0,-2.024 -9.496,0 L 0,0 Z" />
          </g>
          <g
             transform="translate(1801.2109,2095.0034)"
             id="g878">
            <path
               inkscape:connector-curvature="0"
               id="path880"
               style="fill:#fedd03;fill-opacity:1;fill-rule:evenodd;stroke:none"
               d="m 0,0 3.273,0 3.484,-5 3.816,5 2.874,0 0,-11.428 -3.511,0 0,6.798 -3.163,-4.145 -1.976,0 -2.741,3.934 0,-6.587 -2.056,0 L 0,0 Z" />
          </g>
          <g
             transform="translate(1785.0612,2085.3928)"
             id="g882">
            <path
               inkscape:connector-curvature="0"
               id="path884"
               style="fill:#fedd03;fill-opacity:1;fill-rule:evenodd;stroke:none"
               d="m 0,0 -5.285,0 -0.832,-1.817 -2.223,0 5.236,11.428 2.677,0 5.441,-11.428 -4.091,0 L 0,0 Z m -4.462,1.797 3.55,0 -1.866,3.674 -1.684,-3.674 z" />
          </g>
          <g
             transform="translate(1906.8484,2093.0969)"
             id="g886">
            <path
               inkscape:connector-curvature="0"
               id="path888"
               style="fill:#fedd03;fill-opacity:1;fill-rule:evenodd;stroke:none"
               d="m 0,0 c 1.373,0 2.486,-1.755 2.486,-3.919 0,-2.164 -1.113,-3.92 -2.486,-3.92 -1.373,0 -2.487,1.756 -2.487,3.92 C -2.487,-1.755 -1.373,0 0,0 m 0,2.249 c 3.494,0 6.327,-2.763 6.327,-6.168 0,-3.406 -2.833,-6.168 -6.327,-6.168 -3.494,0 -6.327,2.762 -6.327,6.168 0,3.405 2.833,6.168 6.327,6.168" />
          </g>
          <g
             transform="translate(1763.6946,2094.3049)"
             id="g890">
            <path
               inkscape:connector-curvature="0"
               id="path892"
               style="fill:#fedd03;fill-opacity:1;fill-rule:evenodd;stroke:none"
               d="m 0,0 -0.218,-1.717 c -1.179,0.65 -2.758,0.938 -4.073,0.692 -2.134,-0.398 -3.488,-2.079 -3.488,-4.217 0,-2.223 1.646,-3.891 3.676,-3.725 0.445,0.037 0.791,0.159 1.185,0.349 l 0,3.153 3.712,0 0,-5.264 c -3.029,0.335 -2.779,-0.399 -6.099,-0.425 -3.65,-0.029 -6.487,2.568 -6.487,5.974 0,4.245 3.645,6.324 7.26,6.328 C -2.949,1.15 -1.356,0.826 0,0" />
          </g>
          <g
             transform="translate(1852.3599,2091.8372)"
             id="g894">
            <path
               inkscape:connector-curvature="0"
               id="path896"
               style="fill:#fedd03;fill-opacity:1;fill-rule:evenodd;stroke:none"
               d="m 0,0 c 0,2.712 3.222,3.474 5.251,3.474 1.592,0 3.887,-1.032 4.688,-1.811 L 8.861,0.474 C 7.063,1.626 4.083,2.109 4.083,0.53 c 0,-1.787 6.231,-1.81 6.28,-5.623 0,-2.067 -2.379,-3.564 -5.288,-3.564 -1.944,0 -4.02,0.976 -5.481,2.343 l 1.025,1.23 C 2.769,-6.634 6.244,-7.409 6.244,-5.67 6.244,-3.531 0,-3.81 0,0" />
          </g>
        </g>
      </g>
    </g>
  </g>
</svg>
