<?xml version="1.0" encoding="UTF-8" standalone="no"?>
<!-- Created with Inkscape (http://www.inkscape.org/) -->

<svg
   xmlns:dc="http://purl.org/dc/elements/1.1/"
   xmlns:cc="http://creativecommons.org/ns#"
   xmlns:rdf="http://www.w3.org/1999/02/22-rdf-syntax-ns#"
   xmlns:svg="http://www.w3.org/2000/svg"
   xmlns="http://www.w3.org/2000/svg"
   xmlns:sodipodi="http://sodipodi.sourceforge.net/DTD/sodipodi-0.dtd"
   xmlns:inkscape="http://www.inkscape.org/namespaces/inkscape"
   width="33.334"
   height="40"
   viewBox="0 0 33.334001 40.000001"
   id="svg5276"
   version="1.1"
   inkscape:version="0.91 r13725"
   sodipodi:docname="how-it-works-limit.svg">
  <defs
     id="defs5278">
    <clipPath
       clipPathUnits="userSpaceOnUse"
       id="clipPath464">
      <path
         d="m 0,2136.975 2560,0 L 2560,0 0,0 0,2136.975 Z"
         id="path466"
         inkscape:connector-curvature="0" />
    </clipPath>
  </defs>
  <sodipodi:namedview
     id="base"
     pagecolor="#ffffff"
     bordercolor="#666666"
     borderopacity="1.0"
     inkscape:pageopacity="0.0"
     inkscape:pageshadow="2"
     inkscape:zoom="2.8"
     inkscape:cx="16.625077"
     inkscape:cy="15.744181"
     inkscape:document-units="px"
     inkscape:current-layer="layer1"
     showgrid="false"
     units="px"
     inkscape:window-width="1329"
     inkscape:window-height="744"
     inkscape:window-x="37"
     inkscape:window-y="24"
     inkscape:window-maximized="1" />
  <metadata
     id="metadata5281">
    <rdf:RDF>
      <cc:Work
         rdf:about="">
        <dc:format>image/svg+xml</dc:format>
        <dc:type
           rdf:resource="http://purl.org/dc/dcmitype/StillImage" />
        <dc:title></dc:title>
      </cc:Work>
    </rdf:RDF>
  </metadata>
  <g
     inkscape:label="Layer 1"
     inkscape:groupmode="layer"
     id="layer1"
     transform="translate(0,-1012.3622)">
    <g
       id="g2450"
       transform="matrix(0.51439006,0,0,-0.51439006,16.666752,1050.5654)">
      <path
         d="m 0,0 c -19.542,11.395 -28.9,21.212 -29.155,57.34 5.337,0.538 9.384,3.658 13.31,6.685 4.466,3.443 9.084,7.004 15.845,7.004 6.761,0 11.379,-3.561 15.845,-7.004 3.926,-3.027 7.973,-6.147 13.31,-6.685 C 28.9,21.212 19.542,11.395 0,0 m 30.781,60.499 c -5.057,0 -8.894,2.959 -12.957,6.091 -4.668,3.599 -9.959,7.679 -17.824,7.679 -7.865,0 -13.156,-4.08 -17.824,-7.679 -4.063,-3.132 -7.9,-6.091 -12.957,-6.091 -0.894,0 -1.62,-0.726 -1.62,-1.62 0,-18.916 2.356,-31.511 7.639,-40.84 5.245,-9.263 13.054,-15.023 23.952,-21.315 0.251,-0.145 0.53,-0.217 0.81,-0.217 0.28,0 0.559,0.072 0.81,0.217 10.898,6.292 18.707,12.052 23.953,21.315 5.282,9.329 7.638,21.924 7.638,40.84 0,0.894 -0.726,1.62 -1.62,1.62"
         style="fill:#e43345;fill-opacity:1;fill-rule:nonzero;stroke:none"
         id="path2452"
         inkscape:connector-curvature="0" />
    </g>
    <g
       id="g2454"
       transform="matrix(0.51439006,0,0,-0.51439006,6.8206269,1021.8796)">
      <path
         d="m 0,0 c -0.417,0.792 -1.397,1.095 -2.188,0.679 -0.202,-0.106 -0.406,-0.21 -0.61,-0.311 -0.803,-0.396 -1.134,-1.367 -0.738,-2.17 0.281,-0.572 0.856,-0.904 1.454,-0.904 0.24,0 0.485,0.053 0.715,0.167 0.231,0.113 0.461,0.231 0.688,0.351 C 0.113,-1.771 0.417,-0.792 0,0"
         style="fill:#e43345;fill-opacity:1;fill-rule:nonzero;stroke:none"
         id="path2456"
         inkscape:connector-curvature="0" />
    </g>
    <g
       id="g2458"
       transform="matrix(0.51439006,0,0,-0.51439006,28.821748,1028.4144)">
      <path
         d="m 0,0 c 0.05,-0.004 0.099,-0.007 0.148,-0.007 0.829,0 1.536,0.632 1.612,1.474 C 1.779,1.674 1.797,1.882 1.814,2.088 1.89,2.98 1.228,3.764 0.337,3.84 -0.554,3.916 -1.339,3.254 -1.414,2.362 -1.431,2.162 -1.449,1.961 -1.467,1.76 -1.548,0.869 -0.891,0.081 0,0"
         style="fill:#e43345;fill-opacity:1;fill-rule:nonzero;stroke:none"
         id="path2460"
         inkscape:connector-curvature="0" />
    </g>
    <g
       id="g2462"
       transform="matrix(0.51439006,0,0,-0.51439006,8.4677451,1021.591)">
      <path
         d="M 0,0 C 0.328,0 0.66,0.1 0.947,0.307 1.885,0.985 2.8,1.68 3.683,2.354 c 4.135,3.148 7.707,5.867 12.256,5.867 0.895,0 1.62,0.726 1.62,1.62 0,0.895 -0.725,1.62 -1.62,1.62 C 10.296,11.461 6.131,8.29 1.72,4.931 0.853,4.271 -0.045,3.587 -0.95,2.934 -1.675,2.41 -1.839,1.397 -1.315,0.672 -0.998,0.233 -0.503,0 0,0"
         style="fill:#e43345;fill-opacity:1;fill-rule:nonzero;stroke:none"
         id="path2464"
         inkscape:connector-curvature="0" />
    </g>
    <g
       id="g2466"
       transform="matrix(0.51439006,0,0,-0.51439006,16.666752,1046.6817)">
      <path
         d="m 0,0 c -4.146,2.556 -9.154,5.989 -12.908,10.416 -0.579,0.682 -1.601,0.766 -2.284,0.188 -0.682,-0.579 -0.766,-1.602 -0.188,-2.284 4.314,-5.087 10.036,-8.873 14.54,-11.604 0.008,-0.005 0.017,-0.009 0.025,-0.013 0.039,-0.023 0.079,-0.043 0.119,-0.062 0.026,-0.012 0.052,-0.026 0.078,-0.037 0.037,-0.014 0.074,-0.026 0.111,-0.039 0.032,-0.01 0.062,-0.022 0.094,-0.03 0.034,-0.009 0.068,-0.014 0.102,-0.021 0.035,-0.007 0.069,-0.015 0.104,-0.02 0.049,-0.006 0.099,-0.008 0.148,-0.01 0.019,0 0.038,-0.003 0.057,-0.003 l 0.002,0 0.001,0 c 0.02,0 0.039,0.003 0.058,0.003 0.049,0.002 0.099,0.004 0.148,0.01 0.035,0.005 0.068,0.013 0.103,0.02 0.034,0.007 0.069,0.012 0.103,0.021 0.032,0.008 0.062,0.02 0.093,0.03 0.038,0.012 0.075,0.024 0.112,0.039 0.026,0.011 0.052,0.025 0.078,0.037 0.04,0.019 0.08,0.039 0.119,0.062 0.008,0.004 0.017,0.008 0.025,0.013 4.503,2.731 10.226,6.517 14.54,11.604 4.918,5.802 8.019,13.653 9.478,24.003 0.125,0.886 -0.492,1.705 -1.378,1.83 -0.887,0.125 -1.705,-0.492 -1.83,-1.378 C 20.279,23.05 17.419,15.736 12.908,10.415 9.154,5.989 4.147,2.556 0,0"
         style="fill:#e43345;fill-opacity:1;fill-rule:nonzero;stroke:none"
         id="path2468"
         inkscape:connector-curvature="0" />
    </g>
    <g
       id="g2470"
       transform="matrix(0.51439006,0,0,-0.51439006,24.697369,1025.4396)">
      <path
         d="m 0,0 -20.624,-20.624 c -0.004,-0.003 -0.008,-0.007 -0.011,-0.011 l -0.151,-0.134 c -10e-4,-0.001 -0.003,-0.002 -0.005,-0.004 l -0.193,-0.136 -0.273,-0.143 c 0,0 -0.002,0 -0.003,0 l -0.181,-0.067 c -0.002,0 -0.003,-0.001 -0.005,-0.002 l -0.28,-0.065 c -0.003,-0.001 -0.007,-0.001 -0.01,-0.002 l -0.141,-0.017 c -0.003,-0.001 -0.007,-0.001 -0.01,-0.001 l -0.079,-0.005 c -0.004,0 -0.007,0 -0.01,0 l -0.081,-0.002 -0.051,0.001 -0.028,0.001 c -0.004,0 -0.007,0 -0.011,0 l -0.081,0.005 c -0.003,0 -0.006,0 -0.009,0.001 l -0.139,0.017 c -0.005,10e-4 -0.008,10e-4 -0.013,0.002 l -0.278,0.065 -0.002,10e-4 -0.159,0.057 -0.304,0.155 -0.28,0.211 -7.811,7.807 c -0.79,0.79 -0.79,2.075 0,2.865 0.379,0.38 0.888,0.589 1.432,0.589 0.544,0 1.053,-0.209 1.433,-0.589 l 5.156,-5.156 c 0.303,-0.304 0.715,-0.475 1.145,-0.475 0.43,0 0.842,0.171 1.146,0.475 L -2.865,2.865 c 0.38,0.379 0.888,0.588 1.432,0.588 C -0.889,3.453 -0.38,3.244 0,2.864 0.789,2.075 0.789,0.79 0,0 m -5.156,5.156 -16.901,-16.901 -4.01,4.011 c -0.992,0.992 -2.314,1.538 -3.724,1.538 -1.409,0 -2.731,-0.546 -3.724,-1.538 -2.052,-2.054 -2.052,-5.394 10e-4,-7.447 l 7.745,-7.745 0.067,-0.066 c 0.01,-0.009 0.02,-0.019 0.03,-0.029 l 0.068,-0.063 c 0.012,-0.011 0.024,-0.022 0.037,-0.033 l 0.069,-0.061 c 0.011,-0.009 0.022,-0.018 0.033,-0.028 l 0.07,-0.058 c 0.008,-0.007 0.017,-0.013 0.025,-0.02 l 0.072,-0.058 c 0.013,-0.01 0.026,-0.021 0.04,-0.031 l 0.073,-0.055 c 0.011,-0.008 0.021,-0.015 0.031,-0.022 l 0.074,-0.053 c 0.011,-0.008 0.023,-0.016 0.034,-0.023 l 0.075,-0.051 c 0.012,-0.008 0.024,-0.016 0.036,-0.024 l 0.076,-0.049 c 0.011,-0.006 0.021,-0.013 0.031,-0.019 l 0.078,-0.046 c 0.01,-0.007 0.02,-0.013 0.031,-0.019 l 0.077,-0.045 c 0.016,-0.009 0.031,-0.017 0.046,-0.025 l 0.079,-0.042 c 0.008,-0.005 0.017,-0.009 0.025,-0.013 l 0.08,-0.041 c 0.014,-0.007 0.028,-0.014 0.042,-0.021 l 0.081,-0.038 c 0.011,-0.006 0.023,-0.011 0.034,-0.016 l 0.041,-0.019 c 0.029,-0.014 0.058,-0.027 0.089,-0.039 l 0.082,-0.033 c 0.008,-0.004 0.015,-0.007 0.022,-0.009 l 0.083,-0.033 c 0.012,-0.005 0.025,-0.009 0.038,-0.014 l 0.084,-0.031 c 0.013,-0.004 0.026,-0.009 0.04,-0.014 l 0.041,-0.013 c 0.027,-0.01 0.055,-0.019 0.084,-0.028 l 0.084,-0.026 c 0.012,-0.003 0.024,-0.007 0.036,-0.01 l 0.085,-0.024 c 0.012,-0.003 0.023,-0.006 0.035,-0.009 l 0.086,-0.022 c 0.011,-0.003 0.023,-0.006 0.035,-0.009 l 0.086,-0.019 c 0.012,-0.003 0.024,-0.006 0.036,-0.009 l 0.086,-0.018 c 0.017,-0.003 0.033,-0.006 0.05,-0.009 l 0.042,-0.007 c 0.025,-0.005 0.051,-0.01 0.077,-0.014 l 0.086,-0.013 c 0.013,-0.002 0.026,-0.004 0.039,-0.006 l 0.087,-0.011 c 0.013,-0.002 0.025,-0.003 0.037,-0.004 l 0.042,-0.005 c 0.027,-0.003 0.054,-0.006 0.082,-0.008 l 0.087,-0.008 c 0.017,-0.001 0.033,-0.002 0.05,-0.003 l 0.041,-0.002 c 0.027,-0.003 0.054,-0.004 0.081,-0.005 l 0.088,-0.003 c 0.009,0 0.017,0 0.026,0 l 0.087,-0.002 0.023,0 0.024,0 0.088,0.002 c 0.008,0 0.017,0 0.026,0 l 0.088,0.003 c 0.027,0.001 0.054,0.002 0.081,0.005 l 0.041,0.002 c 0.017,0.001 0.034,0.002 0.051,0.003 l 0.087,0.008 c 0.027,0.002 0.054,0.005 0.081,0.008 l 0.041,0.005 c 0.012,10e-4 0.024,0.002 0.036,0.004 l 0.087,0.011 c 0.014,0.002 0.027,0.004 0.041,0.006 l 0.086,0.013 c 0.027,0.004 0.053,0.009 0.079,0.014 l 0.042,0.007 c 0.016,0.003 0.032,0.006 0.048,0.01 l 0.085,0.017 c 0.011,0.003 0.022,0.005 0.033,0.007 l 0.087,0.02 c 0.013,0.004 0.027,0.007 0.04,0.01 l 0.086,0.022 c 0.011,0.003 0.022,0.006 0.033,0.009 l 0.085,0.024 c 0.012,0.003 0.024,0.007 0.035,0.01 l 0.084,0.026 c 0.027,0.008 0.054,0.017 0.079,0.026 l 0.042,0.014 c 0.015,0.005 0.03,0.01 0.045,0.015 l 0.084,0.031 c 0.012,0.004 0.025,0.009 0.037,0.014 l 0.083,0.032 c 0.009,0.004 0.018,0.008 0.027,0.012 l 0.082,0.033 c 0.026,0.011 0.052,0.022 0.078,0.034 l 0.042,0.019 c 0.013,0.006 0.027,0.012 0.041,0.019 l 0.08,0.038 c 0.011,0.005 0.022,0.011 0.032,0.016 l 0.08,0.04 c 0.026,0.013 0.051,0.027 0.076,0.041 l 0.041,0.022 c 0.012,0.006 0.024,0.013 0.035,0.02 l 0.079,0.044 c 0.012,0.008 0.025,0.015 0.037,0.022 l 0.077,0.047 c 0.012,0.008 0.024,0.015 0.036,0.023 l 0.076,0.049 c 0.009,0.005 0.017,0.011 0.026,0.016 l 0.076,0.051 c 0.013,0.009 0.025,0.018 0.038,0.027 l 0.074,0.053 c 0.013,0.009 0.025,0.018 0.038,0.027 l 0.073,0.056 c 0.009,0.007 0.017,0.013 0.026,0.02 l 0.072,0.057 c 0.019,0.015 0.038,0.031 0.056,0.047 l 0.041,0.033 c 0.014,0.012 0.028,0.024 0.042,0.036 l 0.069,0.061 c 0.01,0.009 0.018,0.016 0.027,0.025 l 0.069,0.063 c 0.01,0.009 0.02,0.018 0.029,0.028 l 0.068,0.065 c 0.015,0.015 0.029,0.029 0.043,0.044 L 2.292,-2.291 c 2.052,2.054 2.052,5.395 -0.002,7.447 -0.991,0.991 -2.314,1.538 -3.723,1.538 -1.409,0 -2.731,-0.547 -3.723,-1.538"
         style="fill:#e43345;fill-opacity:1;fill-rule:nonzero;stroke:none"
         id="path2472"
         inkscape:connector-curvature="0" />
    </g>
  </g>
</svg>
