<?xml version="1.0" encoding="UTF-8" standalone="no"?>
<!-- Created with Inkscape (http://www.inkscape.org/) -->

<svg
   xmlns:dc="http://purl.org/dc/elements/1.1/"
   xmlns:cc="http://creativecommons.org/ns#"
   xmlns:rdf="http://www.w3.org/1999/02/22-rdf-syntax-ns#"
   xmlns:svg="http://www.w3.org/2000/svg"
   xmlns="http://www.w3.org/2000/svg"
   xmlns:sodipodi="http://sodipodi.sourceforge.net/DTD/sodipodi-0.dtd"
   xmlns:inkscape="http://www.inkscape.org/namespaces/inkscape"
   width="31.545"
   height="40"
   viewBox="0 0 31.545001 40.000001"
   id="svg5276"
   version="1.1"
   inkscape:version="0.91 r13725"
   sodipodi:docname="how-it-works-smart-courier.svg">
  <defs
     id="defs5278">
    <clipPath
       clipPathUnits="userSpaceOnUse"
       id="clipPath464">
      <path
         d="m 0,2136.975 2560,0 L 2560,0 0,0 0,2136.975 Z"
         id="path466"
         inkscape:connector-curvature="0" />
    </clipPath>
  </defs>
  <sodipodi:namedview
     id="base"
     pagecolor="#ffffff"
     bordercolor="#666666"
     borderopacity="1.0"
     inkscape:pageopacity="0.0"
     inkscape:pageshadow="2"
     inkscape:zoom="2.8"
     inkscape:cx="16.625077"
     inkscape:cy="15.744181"
     inkscape:document-units="px"
     inkscape:current-layer="layer1"
     showgrid="false"
     units="px"
     inkscape:window-width="1329"
     inkscape:window-height="744"
     inkscape:window-x="37"
     inkscape:window-y="24"
     inkscape:window-maximized="1" />
  <metadata
     id="metadata5281">
    <rdf:RDF>
      <cc:Work
         rdf:about="">
        <dc:format>image/svg+xml</dc:format>
        <dc:type
           rdf:resource="http://purl.org/dc/dcmitype/StillImage" />
        <dc:title></dc:title>
      </cc:Work>
    </rdf:RDF>
  </metadata>
  <g
     inkscape:label="Layer 1"
     inkscape:groupmode="layer"
     id="layer1"
     transform="translate(0,-1012.3622)">
    <g
       id="g2422"
       transform="matrix(0.62821963,0,0,-0.62821963,20.613771,1040.1326)">
      <path
         d="m 0,0 c -0.474,-0.191 -0.868,-0.538 -1.12,-0.981 l -6.586,-11.643 -6.587,11.643 c -0.251,0.443 -0.646,0.79 -1.119,0.981 -7.827,3.161 -12.885,10.658 -12.885,19.099 0,11.354 9.236,20.591 20.591,20.591 11.354,0 20.59,-9.237 20.59,-20.591 C 12.884,10.658 7.827,3.161 0,0 m -7.706,44.205 c -13.844,0 -25.107,-11.262 -25.107,-25.106 0,-5.102 1.523,-10.014 4.403,-14.203 2.658,-3.868 6.299,-6.886 10.566,-8.771 l 8.173,-14.446 c 0.4,-0.708 1.151,-1.146 1.965,-1.146 0.813,0 1.564,0.438 1.964,1.146 l 8.174,14.446 c 4.266,1.885 7.907,4.903 10.565,8.771 2.881,4.189 4.403,9.101 4.403,14.203 0,13.844 -11.263,25.106 -25.106,25.106"
         style="fill:#e43345;fill-opacity:1;fill-rule:nonzero;stroke:none"
         id="path2424"
         inkscape:connector-curvature="0" />
    </g>
    <g
       id="g2426"
       transform="matrix(0.62821963,0,0,-0.62821963,15.772459,1031.1703)">
      <path
         d="m 0,0 c -2.739,0 -4.967,2.228 -4.967,4.967 0,2.739 2.228,4.967 4.967,4.967 2.739,0 4.967,-2.228 4.967,-4.967 C 4.967,2.228 2.739,0 0,0 m 0,14.45 c -5.229,0 -9.483,-4.255 -9.483,-9.483 0,-5.229 4.254,-9.483 9.483,-9.483 5.229,0 9.483,4.254 9.483,9.483 0,5.228 -4.254,9.483 -9.483,9.483"
         style="fill:#e43345;fill-opacity:1;fill-rule:nonzero;stroke:none"
         id="path2428"
         inkscape:connector-curvature="0" />
    </g>
  </g>
</svg>
