<svg xmlns="http://www.w3.org/2000/svg" viewBox="0 0 36.2 50.52"><defs><style>.cls-1{fill:#2cb4bf;}</style></defs><title>document-icon</title><g id="Layer_2" data-name="Layer 2"><g id="Layer_1-2" data-name="Layer 1"><path class="cls-1" d="M26.94,50.52a3.37,3.37,0,0,0,3.37-3.37V43.78h2.53a3.37,3.37,0,0,0,3.37-3.37V6.74a.84.84,0,0,0-.24-.6L30.07.24a.84.84,0,0,0-.6-.24H9.26A3.37,3.37,0,0,0,5.89,3.37V6.74H3.37A3.37,3.37,0,0,0,0,10.1v37a3.37,3.37,0,0,0,3.37,3.37ZM34.18,6.74H29.47V2ZM7.58,3.37A1.68,1.68,0,0,1,9.26,1.68H27.78V7.58a.84.84,0,0,0,.84.84h5.89v32a1.68,1.68,0,0,1-1.68,1.68H9.26a1.68,1.68,0,0,1-1.68-1.68ZM1.68,47.15v-37A1.68,1.68,0,0,1,3.37,8.42H5.89v32a3.37,3.37,0,0,0,3.37,3.37H28.63v3.37a1.68,1.68,0,0,1-1.68,1.68H3.37A1.68,1.68,0,0,1,1.68,47.15Z"/><path class="cls-1" d="M11.79,17.68H30.31a.84.84,0,1,0,0-1.68H11.79a.84.84,0,0,0,0,1.68Z"/><path class="cls-1" d="M11.79,27.78H30.31a.84.84,0,1,0,0-1.68H11.79a.84.84,0,1,0,0,1.68Z"/><path class="cls-1" d="M11.79,21H21a.84.84,0,0,0,0-1.68H11.79a.84.84,0,1,0,0,1.68Z"/><path class="cls-1" d="M30.31,19.36H25.26a.84.84,0,0,0,0,1.68h5.05a.84.84,0,1,0,0-1.68Z"/><path class="cls-1" d="M30.31,22.73H21a.84.84,0,0,0,0,1.68h9.26a.84.84,0,0,0,0-1.68Z"/><path class="cls-1" d="M11.79,24.42h5.05a.84.84,0,0,0,0-1.68H11.79a.84.84,0,0,0,0,1.68Z"/></g></g></svg>