<svg xmlns="http://www.w3.org/2000/svg" viewBox="0 0 77.73 69.53"><defs><style>.cls-1{fill:#e43345;stroke:#e43345;stroke-miterlimit:10;stroke-width:2px;}</style></defs><title>package-icon</title><g id="Layer_2" data-name="Layer 2"><g id="Layer_1-2" data-name="Layer 1"><path class="cls-1" d="M76.73,19a1.51,1.51,0,0,0-.88-1.37L39.49,1.13a1.51,1.51,0,0,0-1.25,0h0L1.89,17.62A1.51,1.51,0,0,0,1,19H1V50.61A1.51,1.51,0,0,0,1.89,52L38.25,68.4a1.51,1.51,0,0,0,1.24,0h0L75.85,52a1.51,1.51,0,0,0,.89-1.37V19ZM9.22,20.27H37.36v12.2l-1.8-.78Zm31.15,12.2V20.27H54a1.51,1.51,0,0,0,0-3H40.38V4.85L71.51,19,42.17,31.69Zm-3-15.22H10L37.36,4.85ZM4,21.3l2.25,1,31.1,13.48V64.68L4,49.64Zm69.7,28.34-33.34,15V35.75l31.1-13.48,2.25-1Z"/><path class="cls-1" d="M60.29,17.25H59.23a1.51,1.51,0,1,0,0,3h1.06a1.51,1.51,0,0,0,0-3Z"/><path class="cls-1" d="M64.56,33.9a1.51,1.51,0,0,0-1.43-.12l-11.51,5a1.51,1.51,0,0,0-.91,1.38V50.37a1.51,1.51,0,0,0,2.13,1.37l11.51-5.2a1.51,1.51,0,0,0,.89-1.37v-10A1.51,1.51,0,0,0,64.56,33.9ZM62.22,44.2,53.73,48V41.15l8.49-3.68Z"/></g></g></svg>