<?xml version="1.0" encoding="UTF-8" standalone="no"?>
<!-- Created with Inkscape (http://www.inkscape.org/) -->

<svg
   xmlns:dc="http://purl.org/dc/elements/1.1/"
   xmlns:cc="http://creativecommons.org/ns#"
   xmlns:rdf="http://www.w3.org/1999/02/22-rdf-syntax-ns#"
   xmlns:svg="http://www.w3.org/2000/svg"
   xmlns="http://www.w3.org/2000/svg"
   xmlns:sodipodi="http://sodipodi.sourceforge.net/DTD/sodipodi-0.dtd"
   xmlns:inkscape="http://www.inkscape.org/namespaces/inkscape"
   width="140.80701"
   height="40"
   viewBox="0 0 140.80701 40.000001"
   id="svg5455"
   version="1.1"
   inkscape:version="0.91 r13725"
   sodipodi:docname="nintendo-switch.svg">
  <defs
     id="defs5457" />
  <sodipodi:namedview
     id="base"
     pagecolor="#ffffff"
     bordercolor="#666666"
     borderopacity="1.0"
     inkscape:pageopacity="0.0"
     inkscape:pageshadow="2"
     inkscape:zoom="0.98994949"
     inkscape:cx="192.94797"
     inkscape:cy="-63.821104"
     inkscape:document-units="px"
     inkscape:current-layer="layer1"
     showgrid="false"
     units="px"
     inkscape:window-width="1323"
     inkscape:window-height="744"
     inkscape:window-x="37"
     inkscape:window-y="24"
     inkscape:window-maximized="1" />
  <metadata
     id="metadata5460">
    <rdf:RDF>
      <cc:Work
         rdf:about="">
        <dc:format>image/svg+xml</dc:format>
        <dc:type
           rdf:resource="http://purl.org/dc/dcmitype/StillImage" />
        <dc:title></dc:title>
      </cc:Work>
    </rdf:RDF>
  </metadata>
  <g
     inkscape:label="Layer 1"
     inkscape:groupmode="layer"
     id="layer1"
     transform="translate(0,-1012.3622)">
    <g
       id="g6430"
       transform="matrix(0.6599049,0,0,0.6599049,-570.64683,405.77916)">
      <g
         transform="matrix(1.25,0,0,-1.25,912.11434,946.4449)"
         id="g848">
        <path
           inkscape:connector-curvature="0"
           id="path850"
           style="fill:#ffffff;fill-opacity:1;fill-rule:evenodd;stroke:none"
           d="m 0,0 c -2.723,0.062 -4.893,-2.222 -4.929,-4.792 -0.037,-2.668 2.14,-4.81 4.579,-4.946 2.928,-0.164 5.17,2.23 5.171,4.8 C 4.822,-2.215 2.742,-0.05 0,0 m -9.641,-2.404 c 0,7.836 0,15.672 0,23.508 0,0.672 0.009,0.681 0.7,0.681 2.435,0 4.869,0.033 7.303,-0.007 5.939,-0.096 10.905,-4.326 11.991,-10.012 0.172,-0.902 0.257,-1.834 0.259,-2.753 0.02,-7.714 0.013,-15.428 0.011,-23.142 -0.002,-5.305 -3.223,-9.963 -8.164,-11.793 -1.373,-0.509 -2.804,-0.753 -4.266,-0.763 -2.343,-0.017 -4.686,-0.005 -7.03,-0.004 -0.804,0 -0.804,0 -0.804,0.823 l 0,23.462 z" />
      </g>
      <g
         transform="matrix(1.25,0,0,-1.25,889.06584,974.8636)"
         id="g852">
        <path
           inkscape:connector-curvature="0"
           id="path854"
           style="fill:#ffffff;fill-opacity:1;fill-rule:evenodd;stroke:none"
           d="m 0,0 0,40.597 -0.528,0 c -2.039,0 -4.078,0.015 -6.117,-0.008 -0.678,-0.008 -1.365,-0.062 -2.032,-0.183 -3.824,-0.691 -6.813,-4.283 -6.815,-8.172 -0.005,-7.988 -0.025,-15.976 0.013,-23.964 0.011,-2.385 0.995,-4.407 2.744,-6.035 1.679,-1.562 3.702,-2.251 5.972,-2.26 2.115,-0.008 4.23,-0.002 6.345,-10e-4 0.133,0 0.266,0.016 0.418,0.026 m 3.958,20.279 c 0,-7.854 0,-15.707 0,-23.561 0,-0.613 -0.065,-0.676 -0.678,-0.676 -3.333,0.001 -6.666,0.003 -9.999,0.003 -3.41,10e-4 -6.396,1.119 -8.874,3.469 -1.841,1.746 -3.029,3.891 -3.545,6.382 -0.149,0.724 -0.268,1.47 -0.27,2.206 -0.018,8.112 -0.123,16.226 0.03,24.336 0.097,5.083 2.704,8.76 7.291,10.974 1.691,0.815 3.508,1.115 5.381,1.11 3.318,-0.008 6.636,-10e-4 9.954,0 0.687,0 0.71,-0.023 0.71,-0.728 l 0,-23.515 z" />
      </g>
      <g
         transform="matrix(1.25,0,0,-1.25,959.45344,947.4669)"
         id="g856">
        <path
           inkscape:connector-curvature="0"
           id="path858"
           style="fill:#ffffff;fill-opacity:1;fill-rule:evenodd;stroke:none"
           d="m 0,0 c 1.181,0 2.291,0.019 3.399,-0.023 0.147,-0.005 0.36,-0.295 0.412,-0.488 1.03,-3.83 2.042,-7.664 3.109,-11.692 0.188,0.564 0.336,0.963 0.455,1.369 0.999,3.415 2.005,6.828 2.973,10.252 0.131,0.464 0.308,0.629 0.78,0.595 0.565,-0.041 1.139,-0.049 1.702,0 0.547,0.047 0.796,-0.149 0.947,-0.679 1.029,-3.597 2.087,-7.187 3.137,-10.778 0.062,-0.212 0.132,-0.421 0.252,-0.8 0.261,0.926 0.488,1.693 0.694,2.467 0.827,3.114 1.642,6.232 2.484,9.342 0.048,0.174 0.302,0.408 0.466,0.414 1.086,0.037 2.174,0.019 3.366,0.019 -0.217,-0.811 -0.408,-1.561 -0.62,-2.305 -1.35,-4.745 -2.71,-9.486 -4.047,-14.235 -0.127,-0.451 -0.327,-0.609 -0.793,-0.592 -0.953,0.035 -1.908,0.034 -2.861,0.002 -0.489,-0.017 -0.715,0.143 -0.849,0.631 -0.927,3.37 -1.885,6.731 -2.833,10.095 -0.023,0.084 -0.049,0.166 -0.124,0.417 -0.313,-1.075 -0.588,-1.998 -0.85,-2.924 -0.719,-2.538 -1.442,-5.074 -2.137,-7.617 -0.123,-0.449 -0.308,-0.624 -0.791,-0.605 -0.997,0.041 -1.998,0.017 -2.997,0.01 C 4.957,-17.127 4.75,-17.097 4.64,-16.701 3.118,-11.279 1.572,-5.864 0.036,-0.447 0.006,-0.342 0.017,-0.226 0,0" />
      </g>
      <g
         transform="matrix(1.25,0,0,-1.25,1056.3648,947.4655)"
         id="g860">
        <path
           inkscape:connector-curvature="0"
           id="path862"
           style="fill:#ffffff;fill-opacity:1;fill-rule:evenodd;stroke:none"
           d="m 0,0 c 0,-2.054 0.018,-4.003 -0.011,-5.951 -0.009,-0.59 0.11,-0.836 0.778,-0.821 2.113,0.045 4.227,0.043 6.339,0.002 0.679,-0.013 0.845,0.224 0.83,0.862 -0.042,1.726 -0.025,3.452 -0.027,5.179 -10e-4,0.222 0.024,0.444 0.039,0.697 l 3.484,0 0,-17.041 -3.511,0 0,6.695 -7.877,0 0,-6.725 c -1.175,0 -2.274,-0.018 -3.371,0.029 -0.101,0.004 -0.265,0.411 -0.267,0.632 -0.018,2.545 -0.011,5.089 -0.01,7.634 0,2.726 0.009,5.453 -0.01,8.179 -0.003,0.46 0.111,0.653 0.603,0.638 C -2.04,-0.021 -1.068,0 0,0" />
      </g>
      <g
         transform="matrix(1.25,0,0,-1.25,937.31284,967.0737)"
         id="g864">
        <path
           inkscape:connector-curvature="0"
           id="path866"
           style="fill:#ffffff;fill-opacity:1;fill-rule:evenodd;stroke:none"
           d="M 0,0 C 0.513,0.923 1.035,1.862 1.531,2.755 2.685,2.358 3.75,1.917 4.855,1.628 6.722,1.142 8.614,1.102 10.483,1.664 c 0.34,0.102 0.689,0.254 0.965,0.471 1.166,0.92 1.011,2.252 -0.388,2.732 C 9.872,5.274 8.619,5.505 7.381,5.746 5.499,6.112 3.59,6.387 1.937,7.452 c -2.184,1.406 -2.447,4.405 -0.563,6.196 1.826,1.735 4.085,2.218 6.503,2.233 2.127,0.014 4.162,-0.476 6.161,-1.153 0.101,-0.034 0.186,-0.117 0.313,-0.2 C 13.952,13.558 13.56,12.605 13.188,11.7 11.924,12.027 10.726,12.448 9.492,12.627 7.972,12.848 6.419,12.918 4.935,12.324 4.339,12.085 3.847,11.736 3.823,11.018 3.799,10.274 4.312,9.879 4.913,9.716 6.276,9.345 7.676,9.107 9.041,8.742 10.41,8.376 11.79,8.007 13.102,7.482 14.77,6.814 15.76,5.564 15.753,3.674 15.746,1.758 15.001,0.266 13.291,-0.698 11.895,-1.484 10.356,-1.726 8.804,-1.844 5.885,-2.065 3.09,-1.519 0.427,-0.301 0.325,-0.254 0.227,-0.198 0.131,-0.14 0.094,-0.117 0.069,-0.075 0,0" />
      </g>
      <g
         transform="matrix(1.25,0,0,-1.25,1047.0424,951.8887)"
         id="g868">
        <path
           inkscape:connector-curvature="0"
           id="path870"
           style="fill:#ffffff;fill-opacity:1;fill-rule:evenodd;stroke:none"
           d="m 0,0 c -0.922,-0.802 -1.81,-1.574 -2.753,-2.393 -1.128,1.711 -2.705,2.634 -4.712,2.64 -1.449,0.005 -2.74,-0.52 -3.787,-1.575 -2.112,-2.126 -2.137,-5.259 -10e-4,-7.407 1.236,-1.243 2.761,-1.781 4.515,-1.54 1.703,0.235 3.009,1.13 3.981,2.588 0.943,-0.816 1.831,-1.585 2.715,-2.35 -1.297,-2.571 -5.046,-4.465 -8.372,-4.08 -4.764,0.55 -7.789,4.149 -8.178,8.045 -0.447,4.482 2.17,8.434 6.303,9.725 C -6.427,4.859 -1.925,3.282 0,0" />
      </g>
      <g
         transform="matrix(1.25,0,0,-1.25,1016.3464,968.8274)"
         id="g872">
        <path
           inkscape:connector-curvature="0"
           id="path874"
           style="fill:#ffffff;fill-opacity:1;fill-rule:evenodd;stroke:none"
           d="m 0,0 -3.728,0 0,13.419 -5.44,0 0,3.629 14.398,0 0,-3.605 -5.23,0 L 0,0 Z" />
      </g>
      <g
         transform="matrix(1.25,0,0,-1.25,999.62055,968.8701)"
         id="g876">
        <path
           inkscape:connector-curvature="0"
           id="path878"
           style="fill:#ffffff;fill-opacity:1;fill-rule:evenodd;stroke:none"
           d="m 0,0 c -1.028,0 -2.044,-0.002 -3.059,0.001 -0.2,0.001 -0.4,0.02 -0.65,0.033 l 0,17.044 3.709,0 L 0,0 Z" />
      </g>
      <g
         transform="matrix(1.25,0,0,-1.25,1065.4538,932.6149)"
         id="g880">
        <path
           inkscape:connector-curvature="0"
           id="path882"
           style="fill:#ffffff;fill-opacity:1;fill-rule:evenodd;stroke:none"
           d="m 0,0 c -1.539,-0.017 -2.735,-1.276 -2.722,-2.865 0.012,-1.508 1.281,-2.742 2.802,-2.724 1.488,0.017 2.781,1.328 2.764,2.801 C 2.826,-1.263 1.521,0.017 0,0 M -4.761,-2.786 C -4.896,-0.385 -2.799,2.061 0.04,2.039 2.717,2.018 4.869,-0.004 4.866,-2.798 4.862,-5.742 2.527,-7.625 0.028,-7.63 c -2.682,-0.005 -4.789,2.139 -4.789,4.844" />
      </g>
      <g
         transform="matrix(1.25,0,0,-1.25,1029.855,937.7527)"
         id="g884">
        <path
           inkscape:connector-curvature="0"
           id="path886"
           style="fill:#ffffff;fill-opacity:1;fill-rule:evenodd;stroke:none"
           d="m 0,0 0,5.863 c 0.544,0 1.062,0.043 1.562,-0.029 C 1.698,5.814 1.876,5.447 1.878,5.237 1.901,2.922 1.893,0.607 1.893,-1.708 l 0,-1.531 c -0.579,0 -1.115,-0.034 -1.643,0.02 -0.176,0.018 -0.361,0.236 -0.487,0.404 -1.342,1.788 -2.672,3.585 -4.13,5.547 l 0,-5.935 -1.866,0 0,9.067 c 0.546,0 1.084,0.027 1.616,-0.016 0.159,-0.014 0.334,-0.2 0.447,-0.349 C -2.952,3.897 -1.746,2.286 -0.535,0.678 -0.401,0.5 -0.26,0.328 0,0" />
      </g>
      <g
         transform="matrix(1.25,0,0,-1.25,967.86505,930.4289)"
         id="g888">
        <path
           inkscape:connector-curvature="0"
           id="path890"
           style="fill:#ffffff;fill-opacity:1;fill-rule:evenodd;stroke:none"
           d="m 0,0 c 0.598,0 1.12,0.047 1.626,-0.022 0.222,-0.03 0.458,-0.263 0.61,-0.462 1.234,-1.622 2.45,-3.258 3.672,-4.889 0.075,-0.099 0.156,-0.193 0.363,-0.449 l 0,4.575 c 0,1.262 0,1.262 1.249,1.258 0.178,0 0.356,0 0.58,0 l 0,-9.066 C 7.228,-9.087 6.391,-9.33 5.726,-8.289 4.729,-6.729 3.54,-5.293 2.432,-3.805 2.298,-3.626 2.155,-3.453 1.906,-3.138 l 0,-5.831 C 1.789,-9.042 1.753,-9.082 1.715,-9.084 0,-9.176 0,-9.176 0,-7.47 L 0,0 Z" />
      </g>
      <g
         transform="matrix(1.25,0,0,-1.25,946.01254,930.4557)"
         id="g892">
        <path
           inkscape:connector-curvature="0"
           id="path894"
           style="fill:#ffffff;fill-opacity:1;fill-rule:evenodd;stroke:none"
           d="m 0,0 1.854,0 0,-9.075 c -0.415,0 -0.826,-0.053 -1.216,0.017 -0.293,0.054 -0.65,0.196 -0.821,0.419 -1.242,1.615 -2.442,3.262 -3.659,4.897 -0.13,0.175 -0.277,0.338 -0.517,0.626 l 0,-5.847 C -4.463,-9.019 -4.5,-9.056 -4.54,-9.058 c -1.712,-0.091 -1.712,-0.09 -1.712,1.604 0,2.269 0.015,4.539 -0.011,6.808 -0.006,0.538 0.168,0.656 0.695,0.699 0.862,0.071 1.406,-0.209 1.903,-0.93 1.065,-1.545 2.231,-3.022 3.357,-4.526 0.062,-0.083 0.139,-0.154 0.308,-0.34 L 0,0 Z" />
      </g>
      <g
         transform="matrix(1.25,0,0,-1.25,1044.0229,936.0167)"
         id="g896">
        <path
           inkscape:connector-curvature="0"
           id="path898"
           style="fill:#ffffff;fill-opacity:1;fill-rule:evenodd;stroke:none"
           d="m 0,0 c 0,-0.704 0.008,-1.409 -0.003,-2.112 -0.006,-0.36 0.106,-0.559 0.504,-0.542 0.612,0.026 1.229,-0.013 1.836,0.047 1.241,0.123 2.232,1.239 2.265,2.491 C 4.634,1.094 3.644,2.299 2.434,2.454 1.807,2.535 1.167,2.506 0.533,2.548 0.1,2.577 -0.016,2.368 -0.005,1.976 0.013,1.318 0,0.659 0,0 m -1.862,-4.512 0,8.992 c 1.02,0 2.009,0.03 2.995,-0.011 C 1.85,4.44 2.59,4.411 3.273,4.219 5.445,3.608 6.686,1.725 6.52,-0.576 6.382,-2.497 4.773,-4.253 2.689,-4.481 1.216,-4.641 -0.289,-4.512 -1.862,-4.512" />
      </g>
      <g
         transform="matrix(1.25,0,0,-1.25,1006.3802,932.5902)"
         id="g900">
        <path
           inkscape:connector-curvature="0"
           id="path902"
           style="fill:#ffffff;fill-opacity:1;fill-rule:evenodd;stroke:none"
           d="m 0,0 c -0.082,-0.116 -0.104,-0.133 -0.106,-0.153 -0.198,-1.766 -0.198,-1.766 1.583,-1.766 l 3.176,0 0,-1.628 -4.747,0 0,-2.049 5.096,0 0,-1.739 -6.928,0 0,9.027 6.992,0 C 5.066,1.229 5.097,0.739 5.042,0.258 5.03,0.155 4.712,0.016 4.532,0.013 3.261,-0.009 1.99,0 0.719,0 L 0,0 Z" />
      </g>
      <g
         transform="matrix(1.25,0,0,-1.25,989.67455,932.9045)"
         id="g904">
        <path
           inkscape:connector-curvature="0"
           id="path906"
           style="fill:#ffffff;fill-opacity:1;fill-rule:evenodd;stroke:none"
           d="m 0,0 -2.849,0 0,1.934 7.57,0 0,-1.924 -2.713,0 0,-7.089 L 0,-7.079 0,0 Z" />
      </g>
      <path
         inkscape:connector-curvature="0"
         id="path908"
         style="fill:#ffffff;fill-opacity:1;fill-rule:evenodd;stroke:none"
         d="m 956.97819,930.4599 2.415,0 0,11.285 -2.415,0 0,-11.285 z" />
      <g
         transform="matrix(1.25,0,0,-1.25,1077.4072,967.27)"
         id="g910">
        <path
           inkscape:connector-curvature="0"
           id="path912"
           style="fill:#ffffff;fill-opacity:1;fill-rule:evenodd;stroke:none"
           d="m 0,0 c -0.096,-0.268 -0.166,-0.548 -0.296,-0.798 -0.081,-0.156 -0.251,-0.266 -0.381,-0.397 -0.102,0.127 -0.23,0.241 -0.3,0.383 -0.116,0.239 -0.194,0.496 -0.322,0.832 -0.077,-0.475 -0.14,-0.867 -0.204,-1.258 -0.08,0.014 -0.161,0.028 -0.242,0.042 l 0,2.122 c 0.328,0.044 0.328,0.044 1.112,-1.284 0.418,0.384 0.064,1.423 1.101,1.342 C 0.66,-0.388 0.582,-1.01 0.155,-1.201 l 0,1.156 C 0.103,-0.03 0.052,-0.015 0,0" />
      </g>
      <g
         transform="matrix(1.25,0,0,-1.25,1073.3077,966.7141)"
         id="g914">
        <path
           inkscape:connector-curvature="0"
           id="path916"
           style="fill:#ffffff;fill-opacity:1;fill-rule:evenodd;stroke:none"
           d="m 0,0 c -0.169,0.017 -0.296,-0.002 -0.385,0.047 -0.112,0.062 -0.194,0.179 -0.289,0.272 0.115,0.075 0.225,0.205 0.345,0.215 C 0.03,0.565 0.394,0.571 0.752,0.54 0.899,0.528 1.036,0.398 1.177,0.322 1.056,0.228 0.944,0.117 0.81,0.046 0.72,-0.003 0.599,0.004 0.486,-0.015 0.486,-0.426 0.515,-0.807 0.473,-1.18 0.453,-1.363 0.302,-1.531 0.21,-1.705 0.14,-1.543 0.023,-1.384 0.01,-1.216 -0.021,-0.837 0,-0.454 0,0" />
      </g>
      <g
         transform="matrix(1.25,0,0,-1.25,874.24754,937.3545)"
         id="g918">
        <path
           inkscape:connector-curvature="0"
           id="path920"
           style="fill:#ffffff;fill-opacity:1;fill-rule:evenodd;stroke:none"
           d="M 0,0 C -0.073,2.359 1.912,4.543 4.526,4.535 7.075,4.526 9.122,2.609 9.106,-0.103 9.09,-2.798 6.824,-4.645 4.475,-4.588 1.943,-4.525 -0.016,-2.554 0,0" />
      </g>
    </g>
  </g>
</svg>
