<svg xmlns="http://www.w3.org/2000/svg" viewBox="0 0 28.25 28.26"><defs><style>.cls-1{fill:#e43345;}</style></defs><title>Asset 2</title><g id="Layer_2" data-name="Layer 2"><g id="Layer_1-2" data-name="Layer 1"><path class="cls-1" d="M4.22,4.06h0A14.12,14.12,0,0,0,2.89,22.68a.06.06,0,0,0,.08,0,.06.06,0,0,0,0-.07C1.9,19.31,7.41,11.23,10.25,7.85a.07.07,0,0,0,0,0,.06.06,0,0,0,0,0C5.46,3,4.18,4.09,4.2,4.07"/><path class="cls-1" d="M24,4.06h0a14.12,14.12,0,0,1,1.31,18.61.06.06,0,0,1-.08,0,.06.06,0,0,1,0-.07C26.35,19.31,20.85,11.23,18,7.84a.08.08,0,0,1,0,0,.06.06,0,0,1,0,0c4.79-4.76,6.05-3.67,6-3.68"/><path class="cls-1" d="M14.13,0a13.92,13.92,0,0,1,7.36,2.07.05.05,0,0,1,0,.07s0,0-.07,0c-2.73-.59-6.89,1.77-7.28,2H14.1c-1-.6-4.89-2.61-7.31-2a.05.05,0,0,1,0-.1A13.91,13.91,0,0,1,14.13,0"/><path class="cls-1" d="M14.13,11.33l0,0c4.23,3.21,11.46,11.16,9.25,13.41h0a14.12,14.12,0,0,1-18.6,0h0c-2.2-2.25,5-10.19,9.25-13.41l0,0"/></g></g></svg>