<?xml version="1.0" encoding="UTF-8" standalone="no"?>
<!-- Created with Inkscape (http://www.inkscape.org/) -->

<svg
   xmlns:dc="http://purl.org/dc/elements/1.1/"
   xmlns:cc="http://creativecommons.org/ns#"
   xmlns:rdf="http://www.w3.org/1999/02/22-rdf-syntax-ns#"
   xmlns:svg="http://www.w3.org/2000/svg"
   xmlns="http://www.w3.org/2000/svg"
   xmlns:sodipodi="http://sodipodi.sourceforge.net/DTD/sodipodi-0.dtd"
   xmlns:inkscape="http://www.inkscape.org/namespaces/inkscape"
   width="512"
   height="512"
   viewBox="0 0 511.99999 512.00001"
   id="svg4940"
   version="1.1"
   inkscape:version="0.91 r13725"
   sodipodi:docname="adventure-white.svg">
  <defs
     id="defs4942">
    <clipPath
       clipPathUnits="userSpaceOnUse"
       id="clipPath366">
      <path
         d="m 0,1080 2529,0 L 2529,0 0,0 0,1080 Z"
         id="path368"
         inkscape:connector-curvature="0" />
    </clipPath>
    <clipPath
       clipPathUnits="userSpaceOnUse"
       id="clipPath282">
      <path
         d="m 0,1080 2529,0 L 2529,0 0,0 0,1080 Z"
         id="path284"
         inkscape:connector-curvature="0" />
    </clipPath>
    <clipPath
       clipPathUnits="userSpaceOnUse"
       id="clipPath242">
      <path
         d="m 0,1080 2529,0 L 2529,0 0,0 0,1080 Z"
         id="path244"
         inkscape:connector-curvature="0" />
    </clipPath>
    <clipPath
       clipPathUnits="userSpaceOnUse"
       id="clipPath210">
      <path
         d="m 0,1080 2529,0 L 2529,0 0,0 0,1080 Z"
         id="path212"
         inkscape:connector-curvature="0" />
    </clipPath>
    <clipPath
       clipPathUnits="userSpaceOnUse"
       id="clipPath186">
      <path
         d="m 0,1080 2529,0 L 2529,0 0,0 0,1080 Z"
         id="path188"
         inkscape:connector-curvature="0" />
    </clipPath>
  </defs>
  <sodipodi:namedview
     id="base"
     pagecolor="#ffffff"
     bordercolor="#666666"
     borderopacity="1.0"
     inkscape:pageopacity="0.0"
     inkscape:pageshadow="2"
     inkscape:zoom="0.70710678"
     inkscape:cx="183.64891"
     inkscape:cy="229.48611"
     inkscape:document-units="px"
     inkscape:current-layer="layer1"
     showgrid="false"
     inkscape:window-width="1360"
     inkscape:window-height="744"
     inkscape:window-x="1360"
     inkscape:window-y="24"
     inkscape:window-maximized="1"
     units="px" />
  <metadata
     id="metadata4945">
    <rdf:RDF>
      <cc:Work
         rdf:about="">
        <dc:format>image/svg+xml</dc:format>
        <dc:type
           rdf:resource="http://purl.org/dc/dcmitype/StillImage" />
        <dc:title />
      </cc:Work>
    </rdf:RDF>
  </metadata>
  <g
     inkscape:label="Layer 1"
     inkscape:groupmode="layer"
     id="layer1"
     transform="translate(0,-540.3622)">
    <g
       transform="matrix(4.8094536,0,0,-4.8094536,-5759.5232,4386.1749)"
       id="g182">
      <g
         id="g6129">
        <g
           id="g194"
           transform="translate(1299.9003,705.1878)">
          <path
             d="m 0,0 -4.013,0 0,1.186 c 0,0.925 -0.75,1.675 -1.675,1.675 -0.925,0 -1.674,-0.75 -1.674,-1.675 l 0,-1.186 -4.014,0 0,1.186 c 0,0.925 -0.749,1.675 -1.675,1.675 -0.925,0 -1.675,-0.75 -1.675,-1.675 l 0,-1.186 -4.013,0 0,1.186 c 0,0.925 -0.75,1.675 -1.674,1.675 -0.926,0 -1.675,-0.75 -1.675,-1.675 l 0,-1.186 -4.014,0 0,1.186 c 0,0.925 -0.749,1.675 -1.675,1.675 -0.924,0 -1.675,-0.75 -1.675,-1.675 l 0,-1.186 -4.012,0 0,1.186 c 0,0.925 -0.75,1.675 -1.675,1.675 -0.926,0 -1.675,-0.75 -1.675,-1.675 l 0,-1.186 -4.014,0 0,0.558 c 0,0.807 -0.574,1.498 -1.367,1.647 l -27.98,5.216 c -0.489,0.091 -0.994,-0.039 -1.377,-0.357 -0.384,-0.319 -0.605,-0.791 -0.605,-1.289 l 0,-5.775 -4.013,0 0,1.186 c 0,0.925 -0.75,1.675 -1.675,1.675 -0.926,0 -1.674,-0.75 -1.674,-1.675 l 0,-1.186 -4.013,0 0,1.186 c 0,0.925 -0.75,1.675 -1.675,1.675 -0.926,0 -1.675,-0.75 -1.675,-1.675 l 0,-1.186 -4.014,0 0,1.186 c 0,0.925 -0.749,1.675 -1.674,1.675 -0.925,0 -1.675,-0.75 -1.675,-1.675 l 0,-1.186 -4.013,0 0,11.68 27.622,0 27.827,-5.188 c 0.101,-0.018 0.204,-0.028 0.307,-0.028 L 0,6.464 0,0 Z m -53.651,75.741 0.577,-5.583 -29.488,0 c -0.924,0 -1.675,-0.75 -1.675,-1.674 0,-0.925 0.751,-1.675 1.675,-1.675 l 23.099,0 0.578,-5.583 -0.376,0 c -0.925,0 -1.675,-0.75 -1.675,-1.675 0,-0.925 0.75,-1.675 1.675,-1.675 l 0.723,0 0.577,-5.583 -0.376,0 c -0.925,0 -1.675,-0.75 -1.675,-1.675 0,-0.924 0.75,-1.674 1.675,-1.674 l 0.723,0 0.232,-2.242 c 1.047,-10.118 8.964,-19.978 18.651,-23.457 l 0,-3.907 -6.992,0 c -4.387,0 -8.063,-3.101 -8.954,-7.226 l -15.498,2.89 c -0.101,0.018 -0.204,0.028 -0.307,0.028 l -26.706,0 0,8.199 c 0,2.057 0.452,5.318 1.044,7.75 6.861,-0.497 12.918,-4.993 15.318,-11.503 0.25,-0.677 0.89,-1.096 1.571,-1.096 0.194,0 0.389,0.034 0.579,0.103 0.869,0.321 1.313,1.284 0.993,2.152 -2.784,7.554 -9.708,12.826 -17.619,13.631 0.591,2.887 1.016,6.851 1.016,9.871 l 0,22.672 5.025,0 c 0.926,0 1.675,0.75 1.675,1.675 0,0.924 -0.749,1.674 -1.675,1.674 l -5.025,0 0,5.583 40.635,0 z m 1.848,-17.865 0.577,-5.583 -3.367,0 -0.578,5.583 3.368,0 z m -0.346,3.35 -3.369,0 -0.576,5.583 3.367,0 0.578,-5.583 z m 13.418,-30.685 0,-3.697 c -7.916,3.39 -14.454,11.84 -15.32,20.203 l -0.196,1.897 3.368,0 0.16,-1.552 c 0.697,-6.732 5.768,-13.611 11.988,-16.851 M -13.839,23.4 C -8.035,21.839 -3.057,15.852 -2.256,9.814 l -40.091,0 -9.035,1.684 c 0.6,2.57 2.91,4.49 5.659,4.49 l 8.668,0 c 0.925,0 1.675,0.751 1.675,1.675 l 0,11.537 c 0.07,-0.02 0.139,-0.043 0.209,-0.062 L -13.839,23.4 Z M 1.675,9.814 l -0.557,0 C 0.323,17.348 -5.69,24.677 -12.969,26.635 l -21.332,5.738 c -6.41,1.724 -12.403,8.76 -13.086,15.362 l -3.087,29.853 c -0.089,0.854 -0.809,1.503 -1.667,1.503 l -42.144,0 0,5.024 c 0,0.925 -0.75,1.675 -1.674,1.675 -0.926,0 -1.675,-0.75 -1.675,-1.675 l 0,-39.978 c 0,-3.489 -0.63,-8.49 -1.375,-10.932 -0.001,-0.004 -0.002,-0.01 -0.005,-0.015 -0.84,-2.744 -1.524,-7.212 -1.524,-9.961 l 0,-8.313 c -0.215,-0.083 -0.412,-0.21 -0.579,-0.376 -0.314,-0.315 -0.491,-0.74 -0.491,-1.185 l 0,-15.03 c 0,-0.924 0.751,-1.675 1.675,-1.675 l 29.451,0 c 0.925,0 1.675,0.751 1.675,1.675 l 0,5.434 24.631,-4.592 0,-0.842 c 0,-0.924 0.749,-1.675 1.674,-1.675 l 44.177,0 c 0.924,0 1.675,0.751 1.675,1.675 l 0,9.814 c 0,0.924 -0.751,1.675 -1.675,1.675"
             style="fill:#ffffff;fill-opacity:1;fill-rule:nonzero;stroke:none"
             id="path196"
             inkscape:connector-curvature="0" />
        </g>
        <g
           id="g198"
           transform="translate(1245.0591,767.1636)">
          <path
             d="m 0,0 1.86,0 -0.423,4.083 -1.859,0 z m 3.524,-1.5 -4.878,0 -0.73,7.083 4.875,0 z m -2.599,-7.433 1.859,0 -0.422,4.083 -1.86,0 z m 3.521,-1.5 -4.875,0 -0.733,7.083 4.878,0 z m -3.02,-3.349 0.11,-1.069 c 0.793,-7.656 6.53,-15.514 13.824,-19.109 l 0,2.076 C 8.971,-28.376 4.069,-21.358 3.376,-14.661 l -0.091,0.879 z m 15.434,-22.486 -1.045,0.447 C 7.56,-32.287 0.927,-23.532 0.044,-15.005 l -0.282,2.723 4.877,0 0.229,-2.225 c 0.659,-6.365 5.425,-13.052 11.589,-16.263 l 0.403,-0.21 z m -58.457,-9.928 25.956,0 c 0.15,0 0.298,-0.014 0.443,-0.04 l 14.809,-2.762 c 1.23,4.161 5.118,7.11 9.507,7.11 l 6.242,0 0,2.636 c -9.79,3.75 -17.593,13.715 -18.647,23.901 l -0.209,1.569 c -1.337,0 -2.425,1.088 -2.425,2.425 0,1.183 0.852,2.17 1.974,2.382 L -4.42,-4.85 c -1.337,0 -2.425,1.088 -2.425,2.425 0,1.183 0.852,2.171 1.974,2.383 l -0.427,4.125 -22.423,0 c -1.337,0 -2.425,1.088 -2.425,2.425 0,1.337 1.088,2.425 2.425,2.425 l 28.658,0 -0.423,4.083 -39.208,0 0,-4.083 4.274,0 c 1.337,0 2.425,-1.088 2.425,-2.425 0,-1.337 -1.088,-2.425 -2.425,-2.425 l -4.274,0 0,-21.922 c 0,-2.726 -0.347,-6.325 -0.877,-9.223 7.887,-1.108 14.675,-6.537 17.433,-14.02 0.224,-0.607 0.199,-1.266 -0.073,-1.854 -0.271,-0.588 -0.756,-1.036 -1.363,-1.26 -1.256,-0.456 -2.666,0.222 -3.113,1.436 -2.217,6.012 -7.682,10.255 -14.033,10.958 -0.516,-2.335 -0.877,-5.157 -0.877,-6.945 z m 42.34,-4.539 -16.215,3.024 c -0.054,0.01 -0.111,0.015 -0.169,0.015 l -27.456,0 0,8.949 c 0,2.056 0.449,5.391 1.066,7.928 l 0.149,0.617 0.634,-0.046 c 7.206,-0.523 13.475,-5.23 15.968,-11.993 0.17,-0.463 0.7,-0.725 1.189,-0.547 0.476,0.176 0.722,0.709 0.545,1.187 -2.655,7.206 -9.325,12.365 -16.991,13.145 l -0.825,0.084 0.167,0.812 c 0.598,2.923 1.001,6.829 1.001,9.721 l 0,23.422 5.774,0 c 0.51,0 0.925,0.415 0.925,0.925 0,0.51 -0.415,0.925 -0.925,0.925 l -5.774,0 0,7.083 42.061,0 0.732,-7.083 -30.32,0 c -0.509,0 -0.925,-0.415 -0.925,-0.925 0,-0.51 0.416,-0.925 0.925,-0.925 l 23.777,0 0.731,-7.083 -1.207,0 c -0.51,0 -0.925,-0.415 -0.925,-0.925 0,-0.51 0.415,-0.925 0.925,-0.925 l 1.4,0 0.731,-7.083 -1.207,0 c -0.51,0 -0.925,-0.415 -0.925,-0.924 0,-0.51 0.415,-0.925 0.925,-0.925 l 1.398,0 0.303,-2.915 C -1.1365135,-21.556969 2.3027384,-27.827466 7.2298653,-32.382645 9.9049607,-34.855798 13.018645,-36.823318 16.364,-38.025 l 0.496,-0.179 0,-5.184 -7.742,0 c -3.933,0 -7.39,-2.79 -8.221,-6.634 z m 11.82,-0.677 39.137,0 c -1.103,5.507 -5.74,10.726 -10.892,12.112 l -20.597,5.54 0,-10.553 c 0,-1.336 -1.088,-2.424 -2.425,-2.424 l -8.668,0 c -2.097,0 -3.928,-1.265 -4.69,-3.158 z m 40.878,-1.5 -41.085,0.013 -9.804,1.828 0.177,0.764 c 0.697,2.985 3.324,5.07 6.389,5.07 l 8.668,0 c 0.51,0 0.925,0.415 0.925,0.924 l 0,12.53 1.161,-0.332 21.324,-5.737 c 6.059,-1.628 11.274,-7.738 12.132,-14.211 z m -1.863,-8.314 2.513,0 0,4.964 -41.751,0 c -0.149,0 -0.296,0.014 -0.443,0.041 l -27.761,5.176 -26.803,0 0,-10.181 2.513,0 0,0.436 c 0,1.337 1.088,2.425 2.425,2.425 1.336,0 2.424,-1.088 2.424,-2.425 l 0,-0.436 2.514,0 0,0.436 c 0,1.337 1.088,2.425 2.426,2.425 1.337,0 2.425,-1.088 2.425,-2.425 l 0,-0.436 2.512,0 0,0.436 c 0,1.337 1.088,2.425 2.425,2.425 1.337,0 2.425,-1.088 2.425,-2.425 l 0,-0.436 2.513,0 0,5.025 c 0,0.724 0.319,1.405 0.876,1.866 0.553,0.462 1.286,0.65 1.992,0.518 l 27.981,-5.217 c 1.084,-0.203 1.887,-1.109 1.972,-2.192 l 2.521,0 0,0.436 c 0,1.337 1.088,2.425 2.425,2.425 1.337,0 2.425,-1.088 2.425,-2.425 l 0,-0.436 2.513,0 0,0.436 c 0,1.337 1.088,2.425 2.424,2.425 1.337,0 2.425,-1.088 2.425,-2.425 l 0,-0.436 2.514,0 0,0.436 c 0,1.337 1.088,2.425 2.425,2.425 1.337,0 2.425,-1.088 2.425,-2.425 l 0,-0.436 2.512,0 0,0.436 c 0,1.337 1.088,2.425 2.425,2.425 1.337,0 2.425,-1.088 2.425,-2.425 l 0,-0.436 2.514,0 0,0.436 c 0,1.337 1.087,2.425 2.424,2.425 1.337,0 2.425,-1.088 2.425,-2.425 z m 4.013,-1.5 -5.513,0 0,1.936 c 0,0.51 -0.415,0.925 -0.925,0.925 -0.509,0 -0.924,-0.415 -0.924,-0.925 l 0,-1.936 -5.514,0 0,1.936 c 0,0.51 -0.415,0.925 -0.925,0.925 -0.51,0 -0.925,-0.415 -0.925,-0.925 l 0,-1.936 -5.512,0 0,1.936 c 0,0.51 -0.415,0.925 -0.925,0.925 -0.51,0 -0.925,-0.415 -0.925,-0.925 l 0,-1.936 -5.514,0 0,1.936 c 0,0.51 -0.415,0.925 -0.925,0.925 -0.509,0 -0.924,-0.415 -0.924,-0.925 l 0,-1.936 -5.513,0 0,1.936 c 0,0.51 -0.415,0.925 -0.925,0.925 -0.51,0 -0.925,-0.415 -0.925,-0.925 l 0,-1.936 -5.513,0 0,1.309 c 0,0.444 -0.318,0.827 -0.755,0.909 l -27.981,5.216 c -0.269,0.051 -0.549,-0.021 -0.759,-0.197 -0.213,-0.176 -0.334,-0.435 -0.334,-0.712 l 0,-6.525 -5.513,0 0,1.936 c 0,0.51 -0.415,0.925 -0.925,0.925 -0.51,0 -0.925,-0.415 -0.925,-0.925 l 0,-1.936 -5.512,0 0,1.936 c 0,0.51 -0.415,0.925 -0.925,0.925 -0.511,0 -0.926,-0.415 -0.926,-0.925 l 0,-1.936 -5.514,0 0,1.936 c 0,0.51 -0.415,0.925 -0.924,0.925 -0.51,0 -0.925,-0.415 -0.925,-0.925 l 0,-1.936 -5.513,0 0,13.181 28.51,-0.013 27.827,-5.188 c 0.054,-0.01 0.111,-0.016 0.17,-0.016 l 43.251,0 z m -70.307,5.412 26.131,-4.872 0,-1.464 c 0,-0.511 0.415,-0.926 0.925,-0.926 l 44.176,0 c 0.509,0 0.924,0.415 0.924,0.926 l 0,9.813 c 0,0.51 -0.415,0.925 -0.924,0.925 l -1.232,0 -0.071,0.671 c -0.775,7.354 -6.595,14.308 -13.536,16.176 l -21.33,5.738 C 13.666,-28.531 7.421,-21.2 6.709,-14.317 L 3.621,15.535 c -0.049,0.473 -0.445,0.83 -0.921,0.83 l -42.893,0 0,5.775 c 0,0.509 -0.415,0.924 -0.925,0.924 -0.51,0 -0.925,-0.415 -0.925,-0.924 l 0,-39.979 c 0,-3.547 -0.645,-8.653 -1.408,-11.151 l -0.035,-0.1 c -0.791,-2.599 -1.46,-6.97 -1.46,-9.657 l 0,-8.828 -0.481,-0.185 c -0.121,-0.047 -0.228,-0.116 -0.319,-0.206 -0.174,-0.175 -0.271,-0.408 -0.271,-0.655 l 0,-15.029 c 0,-0.511 0.415,-0.926 0.925,-0.926 l 29.451,0 c 0.51,0 0.925,0.415 0.925,0.926 z m 71.232,-8.762 -44.176,0 c -1.337,0 -2.425,1.088 -2.425,2.426 l 0,0.218 -23.131,4.312 0,-4.53 c 0,-1.338 -1.088,-2.426 -2.425,-2.426 l -29.451,0 c -1.337,0 -2.425,1.088 -2.425,2.426 l 0,15.029 c 0,0.647 0.252,1.256 0.71,1.715 0.112,0.112 0.232,0.211 0.361,0.297 l 0,7.862 c 0,2.811 0.698,7.378 1.557,10.182 0.732,2.395 1.346,7.301 1.346,10.726 l 0,39.979 c 0,1.337 1.088,2.424 2.425,2.424 1.337,0 2.425,-1.087 2.425,-2.424 l 0,-4.275 41.393,0 c 1.246,0 2.284,-0.935 2.413,-2.175 l 3.088,-29.853 c 0.654,-6.326 6.395,-13.065 12.534,-14.716 l 21.331,-5.738 c 7.297,-1.963 13.447,-9.11 14.555,-16.798 1.288,-0.055 2.319,-1.12 2.319,-2.422 l 0,-9.813 c 0,-1.338 -1.087,-2.426 -2.424,-2.426"
             style="fill:#ffffff;fill-opacity:1;fill-rule:nonzero;stroke:none"
             id="path200"
             inkscape:connector-curvature="0"
             sodipodi:nodetypes="cccccccccccccccccccccccccccccscccccccsccsccccsccsccsssccccssscsccccccscccscscccccccccscsssccccsssccsssccsssccscccsccccccsssccccccsssccccccccscccccsssccsssccsssccscccccsssccsssccsssccsssccssscccsssccsssccsssccsssccsssccscccsccsssccsssccssscccccsccccssssssccccscscssssccscccsssssccssccsssssccscsssscscccccssc" />
        </g>
      </g>
    </g>
  </g>
</svg>
