<?xml version="1.0" encoding="UTF-8" standalone="no"?>
<!-- Created with Inkscape (http://www.inkscape.org/) -->

<svg
   xmlns:dc="http://purl.org/dc/elements/1.1/"
   xmlns:cc="http://creativecommons.org/ns#"
   xmlns:rdf="http://www.w3.org/1999/02/22-rdf-syntax-ns#"
   xmlns:svg="http://www.w3.org/2000/svg"
   xmlns="http://www.w3.org/2000/svg"
   xmlns:sodipodi="http://sodipodi.sourceforge.net/DTD/sodipodi-0.dtd"
   xmlns:inkscape="http://www.inkscape.org/namespaces/inkscape"
   width="512"
   height="512"
   viewBox="0 0 511.99999 512.00001"
   id="svg4940"
   version="1.1"
   inkscape:version="0.91 r13725"
   sodipodi:docname="rpg-black.svg">
  <defs
     id="defs4942">
    <clipPath
       clipPathUnits="userSpaceOnUse"
       id="clipPath366">
      <path
         d="m 0,1080 2529,0 L 2529,0 0,0 0,1080 Z"
         id="path368"
         inkscape:connector-curvature="0" />
    </clipPath>
    <clipPath
       clipPathUnits="userSpaceOnUse"
       id="clipPath282">
      <path
         d="m 0,1080 2529,0 L 2529,0 0,0 0,1080 Z"
         id="path284"
         inkscape:connector-curvature="0" />
    </clipPath>
    <clipPath
       clipPathUnits="userSpaceOnUse"
       id="clipPath242">
      <path
         d="m 0,1080 2529,0 L 2529,0 0,0 0,1080 Z"
         id="path244"
         inkscape:connector-curvature="0" />
    </clipPath>
    <clipPath
       clipPathUnits="userSpaceOnUse"
       id="clipPath210">
      <path
         d="m 0,1080 2529,0 L 2529,0 0,0 0,1080 Z"
         id="path212"
         inkscape:connector-curvature="0" />
    </clipPath>
  </defs>
  <sodipodi:namedview
     id="base"
     pagecolor="#ffffff"
     bordercolor="#666666"
     borderopacity="1.0"
     inkscape:pageopacity="0.0"
     inkscape:pageshadow="2"
     inkscape:zoom="0.35355339"
     inkscape:cx="-443.02447"
     inkscape:cy="149.06111"
     inkscape:document-units="px"
     inkscape:current-layer="layer1"
     showgrid="false"
     inkscape:window-width="1360"
     inkscape:window-height="744"
     inkscape:window-x="1360"
     inkscape:window-y="24"
     inkscape:window-maximized="1"
     units="px" />
  <metadata
     id="metadata4945">
    <rdf:RDF>
      <cc:Work
         rdf:about="">
        <dc:format>image/svg+xml</dc:format>
        <dc:type
           rdf:resource="http://purl.org/dc/dcmitype/StillImage" />
        <dc:title></dc:title>
      </cc:Work>
    </rdf:RDF>
  </metadata>
  <g
     inkscape:label="Layer 1"
     inkscape:groupmode="layer"
     id="layer1"
     transform="translate(0,-540.3622)">
    <g
       id="g6052"
       transform="matrix(3.4961036,0,0,3.4961036,2211.1727,-1220.5217)">
      <g
         transform="matrix(1.25,0,0,-1.25,-499.8286,605.96028)"
         id="g218">
        <path
           inkscape:connector-curvature="0"
           id="path220"
           style="fill:#061529;fill-opacity:1;fill-rule:nonzero;stroke:none"
           d="m 0,0 c 0,-3.755 -3.047,-6.802 -6.802,-6.802 -3.756,0 -6.803,3.047 -6.803,6.802 0,3.755 3.047,6.802 6.803,6.802 C -3.047,6.802 0,3.755 0,0 m -39.089,-16.344 c -2.031,2.385 -5.053,3.921 -8.431,3.921 -3.378,0 -6.401,-1.512 -8.432,-3.921 l -21.871,12.612 c 0.426,1.158 0.662,2.434 0.662,3.732 0,5.456 -3.944,9.991 -9.14,10.912 l -0.025,24.682 c 5.197,0.897 9.165,5.454 9.165,10.911 0,1.252 -0.213,2.456 -0.59,3.567 l 21.894,12.683 c 2.031,-2.339 5.03,-3.804 8.361,-3.804 3.329,0 6.306,1.465 8.337,3.804 l 21.894,-12.683 c -0.378,-1.111 -0.59,-2.315 -0.59,-3.567 0,-5.362 3.849,-9.872 8.927,-10.865 l 0,-24.752 c -5.078,-0.992 -8.927,-5.479 -8.927,-10.864 0,-1.322 0.236,-2.575 0.66,-3.731 l -21.894,-12.637 z m -8.431,-13.958 c -3.755,0 -6.802,3.046 -6.802,6.803 0,3.754 3.047,6.801 6.802,6.801 3.755,0 6.802,-3.047 6.802,-6.801 0,-3.757 -3.047,-6.803 -6.802,-6.803 m -40.718,23.5 c -3.756,0 -6.803,3.047 -6.803,6.802 0,3.755 3.047,6.802 6.803,6.802 3.755,0 6.802,-3.047 6.802,-6.802 -0.024,-3.755 -3.071,-6.802 -6.802,-6.802 m -6.803,53.284 c 0,3.755 3.047,6.801 6.803,6.801 3.755,0 6.802,-3.046 6.802,-6.801 0,-3.757 -3.047,-6.802 -6.802,-6.802 -3.756,0 -6.803,3.045 -6.803,6.802 m 47.521,30.302 c 3.755,0 6.802,-3.047 6.802,-6.803 0,-1.157 -0.283,-2.243 -0.803,-3.212 -0.047,-0.047 -0.07,-0.094 -0.118,-0.165 l -0.071,-0.142 c -1.181,-1.96 -3.354,-3.283 -5.81,-3.283 -3.755,0 -6.802,3.047 -6.802,6.802 0,3.756 3.047,6.803 6.802,6.803 M -6.802,53.283 C -3.047,53.283 0,50.237 0,46.482 0,42.725 -3.047,39.68 -6.802,39.68 c -3.756,0 -6.803,3.045 -6.803,6.802 0,3.755 3.071,6.801 6.803,6.801 M 4.275,46.482 c 0,6.116 -4.96,11.076 -11.077,11.076 -3.33,0 -6.307,-1.464 -8.338,-3.802 l -21.894,12.682 c 0.378,1.111 0.591,2.315 0.591,3.567 0,6.117 -4.961,11.077 -11.077,11.077 -6.117,0 -11.077,-4.96 -11.077,-11.077 0,-1.252 0.212,-2.433 0.59,-3.543 L -79.901,53.779 c -2.031,2.315 -5.007,3.802 -8.337,3.802 -6.118,0 -11.078,-4.958 -11.078,-11.076 0,-5.29 3.732,-9.73 8.692,-10.818 l 0.025,-24.846 c -4.985,-1.087 -8.74,-5.527 -8.74,-10.817 0,-6.118 4.96,-11.076 11.077,-11.076 3.259,0 6.188,1.416 8.219,3.66 l 21.966,-12.684 c -0.355,-1.086 -0.543,-2.219 -0.543,-3.423 0,-6.118 4.959,-11.079 11.077,-11.079 6.116,0 11.077,4.961 11.077,11.079 0,1.204 -0.19,2.337 -0.544,3.423 l 21.965,12.684 c 2.031,-2.244 4.96,-3.66 8.219,-3.66 6.117,0 11.077,4.958 11.077,11.076 0,5.362 -3.85,9.872 -8.927,10.864 l 0,24.752 c 5.102,0.968 8.951,5.456 8.951,10.842" />
      </g>
      <g
         transform="matrix(1.25,0,0,-1.25,-559.22897,510.9179)"
         id="g222">
        <path
           inkscape:connector-curvature="0"
           id="path224"
           style="fill:#061529;fill-opacity:1;fill-rule:nonzero;stroke:none"
           d="m 0,0 c -3.337,0 -6.052,-2.715 -6.052,-6.053 0,-3.337 2.715,-6.052 6.052,-6.052 2.103,0 4.083,1.119 5.167,2.92 l 0.119,0.215 c 0.021,0.034 0.05,0.079 0.089,0.13 0.45,0.863 0.677,1.801 0.677,2.787 C 6.052,-2.715 3.337,0 0,0 m 0,-13.605 c -4.164,0 -7.552,3.388 -7.552,7.552 0,4.165 3.388,7.553 7.552,7.553 4.165,0 7.552,-3.388 7.552,-7.553 0,-1.263 -0.3,-2.463 -0.891,-3.566 L 6.48,-9.909 C 5.098,-12.208 2.625,-13.605 0,-13.605 M -40.717,-23.5 c -3.338,0 -6.054,-2.715 -6.054,-6.052 0,-3.337 2.716,-6.052 6.054,-6.052 3.337,0 6.051,2.715 6.051,6.052 0,3.337 -2.714,6.052 -6.051,6.052 m 0,-13.604 c -4.165,0 -7.554,3.388 -7.554,7.552 0,4.164 3.389,7.552 7.554,7.552 4.164,0 7.551,-3.388 7.551,-7.552 0,-4.164 -3.387,-7.552 -7.551,-7.552 M 40.718,-23.5 c -3.338,0 -6.052,-2.715 -6.052,-6.052 0,-3.337 2.714,-6.052 6.052,-6.052 3.337,0 6.052,2.715 6.052,6.052 0,3.337 -2.715,6.052 -6.052,6.052 m 0,-13.604 c -4.165,0 -7.552,3.388 -7.552,7.552 0,4.164 3.387,7.552 7.552,7.552 4.164,0 7.552,-3.388 7.552,-7.552 0,-4.164 -3.388,-7.552 -7.552,-7.552 m -81.435,-32.878 c -3.338,0 -6.054,-2.715 -6.054,-6.052 0,-3.337 2.716,-6.051 6.054,-6.051 3.315,0 6.03,2.716 6.051,6.056 0,3.332 -2.714,6.047 -6.051,6.047 m 0,-13.603 c -4.165,0 -7.554,3.387 -7.554,7.551 0,4.164 3.389,7.552 7.554,7.552 4.164,0 7.551,-3.388 7.551,-7.552 -0.026,-4.166 -3.414,-7.551 -7.551,-7.551 m 81.435,13.603 c -3.338,0 -6.052,-2.715 -6.052,-6.052 0,-3.337 2.714,-6.051 6.052,-6.051 3.337,0 6.052,2.714 6.052,6.051 0,3.337 -2.715,6.052 -6.052,6.052 m 0,-13.603 c -4.165,0 -7.552,3.387 -7.552,7.551 0,4.164 3.387,7.552 7.552,7.552 4.164,0 7.552,-3.388 7.552,-7.552 0,-4.164 -3.388,-7.551 -7.552,-7.551 M 0,-87.707 c 3.249,0 6.343,-1.347 8.583,-3.717 l 20.836,12.026 c -0.335,1.095 -0.504,2.231 -0.504,3.388 0,5.434 3.718,10.159 8.927,11.465 l 0,23.55 c -5.209,1.306 -8.927,6.032 -8.927,11.466 0,1.091 0.15,2.17 0.447,3.218 L 8.506,-14.23 c -2.215,-2.297 -5.273,-3.603 -8.482,-3.603 -3.223,0 -6.289,1.306 -8.506,3.603 l -20.855,-12.082 c 0.296,-1.048 0.446,-2.128 0.446,-3.217 0,-5.558 -3.817,-10.307 -9.164,-11.525 l 0.023,-23.456 c 5.334,-1.238 9.141,-5.988 9.141,-11.524 0,-1.138 -0.173,-2.298 -0.505,-3.388 l 20.811,-12.001 c 2.222,2.37 5.316,3.716 8.585,3.716 m -8.262,-5.634 -22.963,13.241 0.218,0.593 c 0.403,1.096 0.616,2.297 0.616,3.473 0,5.019 -3.584,9.298 -8.521,10.174 l -0.619,0.109 -0.025,25.942 0.623,0.108 c 4.95,0.854 8.542,5.132 8.542,10.172 0,1.13 -0.185,2.249 -0.55,3.325 l -0.198,0.582 22.962,13.303 0.406,-0.468 c 1.957,-2.253 4.798,-3.546 7.795,-3.546 2.982,0 5.814,1.292 7.77,3.546 l 0.407,0.468 22.963,-13.303 -0.199,-0.582 c -0.365,-1.074 -0.55,-2.193 -0.55,-3.325 0,-4.927 3.5,-9.186 8.321,-10.129 l 0.606,-0.118 0,-25.988 -0.606,-0.118 c -4.821,-0.942 -8.321,-5.201 -8.321,-10.128 0,-1.193 0.207,-2.361 0.615,-3.473 l 0.218,-0.592 -22.983,-13.264 -0.405,0.475 c -1.979,2.324 -4.843,3.657 -7.86,3.657 -3.036,0 -5.9,-1.332 -7.858,-3.654 l -0.404,-0.48 z M 0,-93.481 c -3.337,0 -6.052,-2.715 -6.052,-6.052 0,-3.338 2.715,-6.053 6.052,-6.053 3.337,0 6.052,2.715 6.052,6.053 0,3.337 -2.715,6.052 -6.052,6.052 m 0,-13.605 c -4.164,0 -7.552,3.388 -7.552,7.553 0,4.164 3.388,7.552 7.552,7.552 4.165,0 7.552,-3.388 7.552,-7.552 0,-4.165 -3.387,-7.553 -7.552,-7.553 m -32.672,24.612 23.017,-13.29 -0.189,-0.578 c -0.341,-1.043 -0.506,-2.087 -0.506,-3.191 0,-5.695 4.633,-10.328 10.327,-10.328 5.694,0 10.327,4.633 10.327,10.328 0,1.102 -0.166,2.145 -0.507,3.191 l -0.188,0.578 23.016,13.29 0.406,-0.449 c 1.964,-2.169 4.757,-3.413 7.663,-3.413 5.694,0 10.327,4.632 10.327,10.326 0,4.927 -3.499,9.186 -8.32,10.128 l -0.607,0.118 0,25.991 0.611,0.116 c 4.833,0.918 8.34,5.167 8.34,10.105 0,5.694 -4.632,10.326 -10.327,10.326 -2.981,0 -5.814,-1.292 -7.771,-3.544 l -0.406,-0.467 -22.962,13.3 0.198,0.583 c 0.365,1.072 0.55,2.191 0.55,3.325 0,5.695 -4.633,10.327 -10.327,10.327 -5.694,0 -10.327,-4.632 -10.327,-10.327 0,-1.119 0.185,-2.23 0.551,-3.3 l 0.198,-0.583 -22.96,-13.3 -0.406,0.463 c -1.978,2.254 -4.811,3.546 -7.773,3.546 -5.695,0 -10.328,-4.632 -10.328,-10.326 0,-4.815 3.407,-9.056 8.102,-10.085 l 0.589,-0.129 0.025,-26.054 -0.59,-0.129 c -4.722,-1.03 -8.149,-5.27 -8.149,-10.084 0,-5.694 4.632,-10.326 10.326,-10.326 2.907,0 5.7,1.244 7.663,3.413 l 0.407,0.449 z m 32.649,-28.887 c -6.521,0 -11.827,5.306 -11.827,11.828 0,1.058 0.133,2.069 0.405,3.071 l -20.942,12.091 c -2.217,-2.21 -5.228,-3.465 -8.355,-3.465 -6.521,0 -11.826,5.305 -11.826,11.826 0,5.311 3.64,10.013 8.738,11.405 l -0.023,23.671 c -5.072,1.393 -8.692,6.095 -8.692,11.405 0,6.521 5.306,11.826 11.828,11.826 3.188,0 6.245,-1.305 8.479,-3.602 l 20.857,12.082 c -0.296,1.043 -0.446,2.115 -0.446,3.194 0,6.522 5.306,11.827 11.827,11.827 6.521,0 11.827,-5.305 11.827,-11.827 0,-1.092 -0.15,-2.172 -0.447,-3.218 l 20.855,-12.08 c 2.218,2.296 5.275,3.601 8.483,3.601 6.522,0 11.827,-5.305 11.827,-11.826 0,-5.448 -3.728,-10.164 -8.951,-11.446 l 0,-23.547 c 5.208,-1.306 8.927,-6.031 8.927,-11.465 0,-6.521 -5.306,-11.826 -11.827,-11.826 -3.126,0 -6.138,1.255 -8.355,3.465 L 11.398,-96.462 c 0.273,-1.004 0.406,-2.015 0.406,-3.071 0,-6.522 -5.305,-11.828 -11.827,-11.828" />
      </g>
      <g
         transform="matrix(1.25,0,0,-1.25,-546.32722,587.59628)"
         id="g226">
        <path
           inkscape:connector-curvature="0"
           id="path228"
           style="fill:#061529;fill-opacity:1;fill-rule:nonzero;stroke:none"
           d="m 0,0 0,7.723 c 1.299,1.252 2.031,2.976 2.031,4.819 l 0,10.132 c 0,6.211 -5.055,11.265 -11.266,11.265 l -2.173,0 c -6.211,0 -11.266,-5.054 -11.266,-11.265 l 0,-10.132 c 0,-1.843 0.756,-3.567 2.031,-4.819 l 0,-7.723 c -2.456,-1.275 -8.361,-4.511 -13.887,-9.046 -0.922,-0.755 -1.039,-2.102 -0.284,-3.024 0.757,-0.92 2.103,-1.039 3.024,-0.282 6.117,5.03 12.731,8.361 14.005,8.974 0.898,0.449 1.441,1.323 1.441,2.339 l 0,9.777 c 0,0.709 -0.354,1.394 -0.944,1.772 -0.685,0.448 -1.088,1.205 -1.088,2.032 l 0,10.132 c 0,3.849 3.142,6.991 6.993,6.991 l 2.172,0 c 3.85,0 6.991,-3.142 6.991,-6.991 l 0,-10.132 c 0,-0.804 -0.401,-1.56 -1.086,-2.032 -0.591,-0.402 -0.946,-1.063 -0.946,-1.772 l 0,-9.777 c 0,-0.993 0.568,-1.89 1.465,-2.339 1.275,-0.613 7.889,-3.968 14.006,-8.974 0.401,-0.331 0.874,-0.496 1.346,-0.496 0.614,0 1.228,0.259 1.654,0.778 0.755,0.922 0.613,2.269 -0.284,3.024 C 8.361,-4.511 2.457,-1.252 0,0" />
      </g>
      <g
         transform="matrix(1.25,0,0,-1.25,-560.58697,546.11015)"
         id="g230">
        <path
           inkscape:connector-curvature="0"
           id="path232"
           style="fill:#061529;fill-opacity:1;fill-rule:nonzero;stroke:none"
           d="m 0,0 c -5.798,0 -10.516,-4.717 -10.516,-10.515 l 0,-10.132 c 0,-1.62 0.642,-3.141 1.807,-4.283 l 0.224,-0.221 0,-8.494 -0.404,-0.209 c -2.886,-1.499 -8.511,-4.655 -13.757,-8.96 -0.289,-0.237 -0.466,-0.57 -0.5,-0.939 -0.034,-0.371 0.08,-0.737 0.32,-1.03 0.493,-0.6 1.359,-0.678 1.968,-0.178 6.428,5.286 13.383,8.698 14.155,9.07 0.633,0.316 1.017,0.94 1.017,1.663 l 0,9.777 c 0,0.46 -0.235,0.908 -0.598,1.14 -0.901,0.589 -1.434,1.583 -1.434,2.664 l 0,10.132 c 0,4.268 3.473,7.741 7.742,7.741 l 2.173,0 c 4.268,0 7.741,-3.473 7.741,-7.741 l 0,-10.132 c 0,-1.05 -0.528,-2.041 -1.411,-2.65 -0.39,-0.265 -0.621,-0.695 -0.621,-1.154 l 0,-9.777 c 0,-0.705 0.403,-1.344 1.049,-1.668 0.295,-0.141 7.526,-3.647 14.147,-9.064 0.611,-0.505 1.487,-0.381 1.944,0.177 0.486,0.593 0.403,1.478 -0.187,1.974 -5.862,4.77 -12.039,8.058 -13.792,8.952 l -0.409,0.209 0,8.501 0.23,0.221 c 1.161,1.12 1.8,2.639 1.8,4.279 l 0,10.132 C 12.688,-4.717 7.972,0 2.173,0 L 0,0 Z m 23.973,-46.787 c -0.663,0 -1.294,0.231 -1.824,0.667 -6.48,5.304 -13.556,8.734 -13.854,8.878 -1.169,0.584 -1.889,1.737 -1.889,3.014 l 0,9.777 c 0,0.956 0.477,1.85 1.274,2.392 0.472,0.326 0.758,0.855 0.758,1.412 l 0,10.132 c 0,3.441 -2.8,6.241 -6.241,6.241 l -2.173,0 c -3.441,0 -6.242,-2.8 -6.242,-6.241 l 0,-10.132 c 0,-0.573 0.28,-1.098 0.748,-1.405 0.789,-0.504 1.284,-1.425 1.284,-2.399 l 0,-9.777 c 0,-1.304 -0.694,-2.43 -1.856,-3.009 -0.765,-0.369 -7.571,-3.708 -13.864,-8.883 -1.239,-1.017 -3.068,-0.845 -4.079,0.385 -0.493,0.601 -0.725,1.353 -0.655,2.119 0.071,0.772 0.441,1.469 1.042,1.961 5.116,4.198 10.576,7.321 13.613,8.92 l 0,6.964 c -1.294,1.385 -2.031,3.234 -2.031,5.124 l 0,10.132 C -12.016,-3.89 -6.625,1.5 0,1.5 l 2.173,0 c 6.625,0 12.015,-5.39 12.015,-12.015 l 0,-10.132 c 0,-1.94 -0.718,-3.749 -2.03,-5.128 l 0,-6.957 c 2.203,-1.147 8.065,-4.371 13.658,-8.921 1.224,-1.03 1.394,-2.857 0.39,-4.081 -0.549,-0.669 -1.363,-1.053 -2.233,-1.053" />
      </g>
    </g>
  </g>
</svg>
