<?xml version="1.0" encoding="UTF-8" standalone="no"?>
<!-- Created with Inkscape (http://www.inkscape.org/) -->

<svg
   xmlns:dc="http://purl.org/dc/elements/1.1/"
   xmlns:cc="http://creativecommons.org/ns#"
   xmlns:rdf="http://www.w3.org/1999/02/22-rdf-syntax-ns#"
   xmlns:svg="http://www.w3.org/2000/svg"
   xmlns="http://www.w3.org/2000/svg"
   xmlns:sodipodi="http://sodipodi.sourceforge.net/DTD/sodipodi-0.dtd"
   xmlns:inkscape="http://www.inkscape.org/namespaces/inkscape"
   width="512"
   height="512"
   viewBox="0 0 511.99999 512.00001"
   id="svg4940"
   version="1.1"
   inkscape:version="0.91 r13725"
   sodipodi:docname="shooter-white.svg">
  <defs
     id="defs4942">
    <clipPath
       clipPathUnits="userSpaceOnUse"
       id="clipPath366">
      <path
         d="m 0,1080 2529,0 L 2529,0 0,0 0,1080 Z"
         id="path368"
         inkscape:connector-curvature="0" />
    </clipPath>
    <clipPath
       clipPathUnits="userSpaceOnUse"
       id="clipPath282">
      <path
         d="m 0,1080 2529,0 L 2529,0 0,0 0,1080 Z"
         id="path284"
         inkscape:connector-curvature="0" />
    </clipPath>
    <clipPath
       clipPathUnits="userSpaceOnUse"
       id="clipPath242">
      <path
         d="m 0,1080 2529,0 L 2529,0 0,0 0,1080 Z"
         id="path244"
         inkscape:connector-curvature="0" />
    </clipPath>
    <clipPath
       clipPathUnits="userSpaceOnUse"
       id="clipPath210">
      <path
         d="m 0,1080 2529,0 L 2529,0 0,0 0,1080 Z"
         id="path212"
         inkscape:connector-curvature="0" />
    </clipPath>
    <clipPath
       clipPathUnits="userSpaceOnUse"
       id="clipPath186">
      <path
         d="m 0,1080 2529,0 L 2529,0 0,0 0,1080 Z"
         id="path188"
         inkscape:connector-curvature="0" />
    </clipPath>
    <clipPath
       clipPathUnits="userSpaceOnUse"
       id="clipPath94">
      <path
         d="m 0,1080 2529,0 L 2529,0 0,0 0,1080 Z"
         id="path96"
         inkscape:connector-curvature="0" />
    </clipPath>
  </defs>
  <sodipodi:namedview
     id="base"
     pagecolor="#ffffff"
     bordercolor="#666666"
     borderopacity="1.0"
     inkscape:pageopacity="0.0"
     inkscape:pageshadow="2"
     inkscape:zoom="0.5"
     inkscape:cx="455.65048"
     inkscape:cy="308.41085"
     inkscape:document-units="px"
     inkscape:current-layer="layer1"
     showgrid="false"
     inkscape:window-width="1360"
     inkscape:window-height="744"
     inkscape:window-x="1360"
     inkscape:window-y="24"
     inkscape:window-maximized="1"
     units="px" />
  <metadata
     id="metadata4945">
    <rdf:RDF>
      <cc:Work
         rdf:about="">
        <dc:format>image/svg+xml</dc:format>
        <dc:type
           rdf:resource="http://purl.org/dc/dcmitype/StillImage" />
        <dc:title />
      </cc:Work>
    </rdf:RDF>
  </metadata>
  <g
     inkscape:label="Layer 1"
     inkscape:groupmode="layer"
     id="layer1"
     transform="translate(0,-540.3622)">
    <g
       id="g102"
       transform="matrix(1.25,0,0,-1.25,407.29288,1102.6328)" />
    <g
       id="g6393"
       transform="matrix(2.764797,0,0,2.764797,-857.12264,-2611.273)">
      <g
         transform="matrix(1.25,0,0,-1.25,331.63,1208.8933)"
         id="g98">
        <path
           inkscape:connector-curvature="0"
           id="path100"
           style="fill:#ffffff;fill-opacity:1;fill-rule:nonzero;stroke:none"
           d="m 0,0 c -3.817,-1.688 -6.954,-4.588 -8.978,-8.348 -2.083,-3.868 -2.776,-8.24 -2.017,-12.51 l 5.685,1.667 c -0.705,5.55 2.113,10.959 6.983,13.486 L 0,0 Z m -12.68,-26.562 -0.663,0.168 c -1.362,0.347 -1.842,1.642 -1.957,2.03 -1.815,6.19 -1.133,12.718 1.92,18.386 3.065,5.694 8.153,9.827 14.326,11.636 L 3.345,6.362 7.81,-8.864 5.411,-9.567 c -4.321,-1.267 -6.78,-5.9 -5.482,-10.327 l 0.065,-0.196 -2.313,-0.8 0.662,-2.441 -11.023,-3.231 z" />
      </g>
      <g
         transform="matrix(1.25,0,0,-1.25,423.6345,1210.0347)"
         id="g106">
        <path
           inkscape:connector-curvature="0"
           id="path108"
           style="fill:#ffffff;fill-opacity:1;fill-rule:nonzero;stroke:none"
           d="M 0,0 4.896,-16.699 51.046,-3.167 46.15,13.531 0,0 Z M 1.504,-22.904 -6.205,3.392 49.542,19.736 57.251,-6.559 1.504,-22.904 Z" />
      </g>
      <g
         transform="matrix(1.25,0,0,-1.25,391.251,1210.4137)"
         id="g110">
        <path
           inkscape:connector-curvature="0"
           id="path112"
           style="fill:#ffffff;fill-opacity:1;fill-rule:nonzero;stroke:none"
           d="M 0,0 9.378,-31.986 28.462,-26.39 19.084,5.596 0,0 Z M 5.987,-38.191 -6.205,3.392 22.476,11.801 34.667,-29.782 5.987,-38.191 Z" />
      </g>
      <g
         transform="matrix(1.25,0,0,-1.25,361.05513,1219.2669)"
         id="g114">
        <path
           inkscape:connector-curvature="0"
           id="path116"
           style="fill:#ffffff;fill-opacity:1;fill-rule:nonzero;stroke:none"
           d="M 0,0 12.685,-43.262 31.769,-37.667 19.084,5.596 0,0 Z M 9.293,-49.467 -6.205,3.392 22.476,11.801 37.974,-41.059 9.293,-49.467 Z" />
      </g>
      <g
         transform="matrix(1.25,0,0,-1.25,423.76263,1224.6349)"
         id="g118">
        <path
           inkscape:connector-curvature="0"
           id="path120"
           style="fill:#ffffff;fill-opacity:1;fill-rule:nonzero;stroke:none"
           d="m 0,0 c -1.082,0 -2.079,0.707 -2.398,1.797 -0.389,1.325 0.371,2.714 1.695,3.102 l 50.859,14.912 c 1.327,0.388 2.714,-0.371 3.103,-1.695 0.388,-1.325 -0.371,-2.715 -1.696,-3.103 L 0.705,0.102 C 0.47,0.033 0.233,0 0,0" />
      </g>
      <g
         transform="matrix(1.25,0,0,-1.25,361.4885,1207.7227)"
         id="g122">
        <path
           inkscape:connector-curvature="0"
           id="path124"
           style="fill:#ffffff;fill-opacity:1;fill-rule:nonzero;stroke:none"
           d="m 0,0 c -1.082,0 -2.079,0.707 -2.398,1.797 -0.389,1.325 0.371,2.714 1.695,3.102 l 36.465,10.692 c 1.325,0.389 2.714,-0.371 3.103,-1.695 L 41.116,6.219 C 41.504,4.894 40.745,3.504 39.42,3.116 38.096,2.729 36.707,3.487 36.318,4.812 L 34.77,10.089 0.705,0.102 C 0.47,0.033 0.233,0 0,0" />
      </g>
      <g
         transform="matrix(1.25,0,0,-1.25,333.44763,1249.8119)"
         id="g126">
        <path
           inkscape:connector-curvature="0"
           id="path128"
           style="fill:#ffffff;fill-opacity:1;fill-rule:nonzero;stroke:none"
           d="m 0,0 c -1.082,0 -2.079,0.707 -2.398,1.797 -0.389,1.325 0.371,2.714 1.695,3.102 l 23.031,6.753 C 23.655,12.04 25.042,11.281 25.431,9.957 25.819,8.631 25.06,7.242 23.735,6.854 L 0.705,0.102 C 0.47,0.033 0.233,0 0,0" />
      </g>
      <g
         transform="matrix(1.25,0,0,-1.25,313.13763,1242.7404)"
         id="g130">
        <path
           inkscape:connector-curvature="0"
           id="path132"
           style="fill:#ffffff;fill-opacity:1;fill-rule:nonzero;stroke:none"
           d="m 0,0 c -1.082,0 -2.079,0.707 -2.398,1.797 -0.389,1.325 0.371,2.714 1.695,3.102 l 36.466,10.692 c 1.326,0.389 2.715,-0.371 3.102,-1.695 0.389,-1.326 -0.37,-2.715 -1.695,-3.103 L 0.705,0.102 C 0.47,0.033 0.233,0 0,0" />
      </g>
      <g
         transform="matrix(1.25,0,0,-1.25,447.34237,1241.9512)"
         id="g134">
        <path
           inkscape:connector-curvature="0"
           id="path136"
           style="fill:#ffffff;fill-opacity:1;fill-rule:nonzero;stroke:none"
           d="M 0,0 -10.973,37.424 -6.175,38.832 4.798,1.407 0,0 Z" />
      </g>
      <g
         transform="matrix(1.25,0,0,-1.25,462.93625,1237.3797)"
         id="g138">
        <path
           inkscape:connector-curvature="0"
           id="path140"
           style="fill:#ffffff;fill-opacity:1;fill-rule:nonzero;stroke:none"
           d="M 0,0 -10.973,37.425 -6.175,38.832 4.798,1.407 0,0 Z" />
      </g>
      <g
         transform="matrix(1.25,0,0,-1.25,479.72938,1232.4559)"
         id="g142">
        <path
           inkscape:connector-curvature="0"
           id="path144"
           style="fill:#ffffff;fill-opacity:1;fill-rule:nonzero;stroke:none"
           d="M 0,0 -10.973,37.425 -6.175,38.832 4.798,1.407 0,0 Z" />
      </g>
      <g
         transform="matrix(1.25,0,0,-1.25,421.03013,1240.0743)"
         id="g146">
        <path
           inkscape:connector-curvature="0"
           id="path148"
           style="fill:#ffffff;fill-opacity:1;fill-rule:nonzero;stroke:none"
           d="m 0,0 c 0,-1.127 -0.914,-2.041 -2.041,-2.041 -1.128,0 -2.042,0.914 -2.042,2.041 0,1.127 0.914,2.041 2.042,2.041 C -0.914,2.041 0,1.127 0,0" />
      </g>
      <g
         transform="matrix(1.25,0,0,-1.25,415.1065,1237.1125)"
         id="g150">
        <path
           inkscape:connector-curvature="0"
           id="path152"
           style="fill:#ffffff;fill-opacity:1;fill-rule:nonzero;stroke:none"
           d="m 0,0 c 0,-1.127 -0.914,-2.041 -2.041,-2.041 -1.128,0 -2.042,0.914 -2.042,2.041 0,1.127 0.914,2.041 2.042,2.041 C -0.914,2.041 0,1.127 0,0" />
      </g>
      <g
         transform="matrix(1.25,0,0,-1.25,394.52613,1274.9754)"
         id="g154">
        <path
           inkscape:connector-curvature="0"
           id="path156"
           style="fill:#ffffff;fill-opacity:1;fill-rule:nonzero;stroke:none"
           d="M 0,0 -18.403,4.532 -17.447,8.416 0.956,3.884 0,0 Z" />
      </g>
      <g
         transform="matrix(1.25,0,0,-1.25,403.47875,1266.9298)"
         id="g158">
        <path
           inkscape:connector-curvature="0"
           id="path160"
           style="fill:#ffffff;fill-opacity:1;fill-rule:nonzero;stroke:none"
           d="m 0,0 -28.512,7.021 0.956,3.884 L 0.956,3.884 0,0 Z" />
      </g>
      <g
         transform="matrix(1.25,0,0,-1.25,399.95713,1255.8123)"
         id="g162">
        <path
           inkscape:connector-curvature="0"
           id="path164"
           style="fill:#ffffff;fill-opacity:1;fill-rule:nonzero;stroke:none"
           d="m 0,0 -28.512,7.021 0.956,3.884 L 0.956,3.884 0,0 Z" />
      </g>
      <g
         transform="matrix(1.25,0,0,-1.25,397.02987,1244.8412)"
         id="g166">
        <path
           inkscape:connector-curvature="0"
           id="path168"
           style="fill:#ffffff;fill-opacity:1;fill-rule:nonzero;stroke:none"
           d="m 0,0 -29.462,7.255 0.956,3.884 L 0.956,3.884 0,0 Z" />
      </g>
      <g
         transform="matrix(1.25,0,0,-1.25,393.50875,1233.7237)"
         id="g170">
        <path
           inkscape:connector-curvature="0"
           id="path172"
           style="fill:#ffffff;fill-opacity:1;fill-rule:nonzero;stroke:none"
           d="m 0,0 -28.037,6.904 0.956,3.884 L 0.956,3.884 0,0 Z" />
      </g>
      <g
         transform="matrix(1.25,0,0,-1.25,392.36375,1223.1914)"
         id="g174">
        <path
           inkscape:connector-curvature="0"
           id="path176"
           style="fill:#ffffff;fill-opacity:1;fill-rule:nonzero;stroke:none"
           d="M 0,0 -19.483,4.798 -18.527,8.682 0.956,3.884 0,0 Z" />
      </g>
    </g>
  </g>
</svg>
