<?xml version="1.0" encoding="UTF-8" standalone="no"?>
<!-- Created with Inkscape (http://www.inkscape.org/) -->

<svg
   xmlns:dc="http://purl.org/dc/elements/1.1/"
   xmlns:cc="http://creativecommons.org/ns#"
   xmlns:rdf="http://www.w3.org/1999/02/22-rdf-syntax-ns#"
   xmlns:svg="http://www.w3.org/2000/svg"
   xmlns="http://www.w3.org/2000/svg"
   xmlns:sodipodi="http://sodipodi.sourceforge.net/DTD/sodipodi-0.dtd"
   xmlns:inkscape="http://www.inkscape.org/namespaces/inkscape"
   width="512"
   height="512"
   viewBox="0 0 512 512.00001"
   id="svg4940"
   version="1.1"
   inkscape:version="0.91 r13725"
   sodipodi:docname="simulation-black.svg">
  <defs
     id="defs4942">
    <clipPath
       clipPathUnits="userSpaceOnUse"
       id="clipPath366">
      <path
         d="m 0,1080 2529,0 L 2529,0 0,0 0,1080 Z"
         id="path368"
         inkscape:connector-curvature="0" />
    </clipPath>
    <clipPath
       clipPathUnits="userSpaceOnUse"
       id="clipPath282">
      <path
         d="m 0,1080 2529,0 L 2529,0 0,0 0,1080 Z"
         id="path284"
         inkscape:connector-curvature="0" />
    </clipPath>
    <clipPath
       clipPathUnits="userSpaceOnUse"
       id="clipPath242">
      <path
         d="m 0,1080 2529,0 L 2529,0 0,0 0,1080 Z"
         id="path244"
         inkscape:connector-curvature="0" />
    </clipPath>
  </defs>
  <sodipodi:namedview
     id="base"
     pagecolor="#ffffff"
     bordercolor="#666666"
     borderopacity="1.0"
     inkscape:pageopacity="0.0"
     inkscape:pageshadow="2"
     inkscape:zoom="0.35355339"
     inkscape:cx="-21.588824"
     inkscape:cy="149.06111"
     inkscape:document-units="px"
     inkscape:current-layer="layer1"
     showgrid="false"
     inkscape:window-width="1360"
     inkscape:window-height="744"
     inkscape:window-x="1360"
     inkscape:window-y="24"
     inkscape:window-maximized="1"
     units="px" />
  <metadata
     id="metadata4945">
    <rdf:RDF>
      <cc:Work
         rdf:about="">
        <dc:format>image/svg+xml</dc:format>
        <dc:type
           rdf:resource="http://purl.org/dc/dcmitype/StillImage" />
        <dc:title></dc:title>
      </cc:Work>
    </rdf:RDF>
  </metadata>
  <g
     inkscape:label="Layer 1"
     inkscape:groupmode="layer"
     id="layer1"
     transform="translate(0,-540.3622)">
    <g
       id="g5944"
       transform="matrix(3.4861948,0,0,3.4861948,547.56607,-3075.899)">
      <g
         transform="matrix(1.25,0,0,-1.25,-83.633225,1176.646)"
         id="g250">
        <path
           inkscape:connector-curvature="0"
           id="path252"
           style="fill:#061529;fill-opacity:1;fill-rule:nonzero;stroke:none"
           d="m 0,0 c -29.073,0 -52.725,23.652 -52.725,52.724 0,29.072 23.652,52.723 52.725,52.723 29.071,0 52.723,-23.651 52.723,-52.723 C 52.723,23.652 29.071,0 0,0 M 41.008,93.733 C 30.055,104.687 15.49,110.719 0,110.719 c -15.492,0 -30.056,-6.032 -41.009,-16.986 -10.955,-10.954 -16.987,-25.519 -16.987,-41.009 0,-15.491 6.032,-30.056 16.987,-41.009 10.953,-10.955 25.517,-16.987 41.008,-16.987 15.491,0 30.056,6.032 41.009,16.987 10.954,10.953 16.987,25.518 16.987,41.009 0,15.49 -6.033,30.055 -16.987,41.009" />
      </g>
      <g
         transform="matrix(1.25,0,0,-1.25,-83.633225,1045.774)"
         id="g254">
        <path
           inkscape:connector-curvature="0"
           id="path256"
           style="fill:#061529;fill-opacity:1;fill-rule:nonzero;stroke:none"
           d="m 0,0 c -28.659,0 -51.975,-23.315 -51.975,-51.974 0,-28.658 23.316,-51.974 51.975,-51.974 28.658,0 51.973,23.316 51.973,51.974 C 51.973,-23.315 28.658,0 0,0 m 0,-105.448 c -29.486,0 -53.475,23.989 -53.475,53.474 0,29.486 23.989,53.474 53.475,53.474 29.485,0 53.473,-23.988 53.473,-53.474 0,-29.485 -23.988,-53.474 -53.473,-53.474 M 0,5.272 c -15.292,0 -29.667,-5.955 -40.479,-16.767 -10.813,-10.812 -16.768,-25.188 -16.768,-40.479 0,-15.291 5.955,-29.667 16.768,-40.478 10.812,-10.813 25.187,-16.768 40.478,-16.768 15.292,0 29.667,5.955 40.479,16.768 10.812,10.811 16.767,25.186 16.767,40.478 0,15.292 -5.955,29.667 -16.767,40.479 C 29.666,-0.683 15.291,5.272 0,5.272 M -0.001,-110.72 c -15.692,0 -30.444,6.111 -41.539,17.207 -11.096,11.095 -17.207,25.847 -17.207,41.539 0,15.692 6.111,30.444 17.207,41.539 C -30.445,0.661 -15.692,6.772 0,6.772 c 15.691,0 30.443,-6.111 41.538,-17.207 11.096,-11.094 17.207,-25.847 17.207,-41.539 0,-15.692 -6.111,-30.444 -17.207,-41.539 -11.095,-11.096 -25.847,-17.207 -41.539,-17.207" />
      </g>
      <g
         transform="matrix(1.25,0,0,-1.25,-83.633225,1115.7972)"
         id="g258">
        <path
           inkscape:connector-curvature="0"
           id="path260"
           style="fill:#061529;fill-opacity:1;fill-rule:nonzero;stroke:none"
           d="m 0,0 c -2.231,0 -4.044,1.815 -4.044,4.045 0,2.23 1.813,4.044 4.044,4.044 2.229,0 4.044,-1.814 4.044,-4.044 C 4.044,1.815 2.229,0 0,0 m 0,13.361 c -5.137,0 -9.316,-4.179 -9.316,-9.316 0,-5.138 4.179,-9.317 9.316,-9.317 5.137,0 9.316,4.179 9.316,9.317 0,5.137 -4.179,9.316 -9.316,9.316" />
      </g>
      <g
         transform="matrix(1.25,0,0,-1.25,-83.633225,1106.623)"
         id="g262">
        <path
           inkscape:connector-curvature="0"
           id="path264"
           style="fill:#061529;fill-opacity:1;fill-rule:nonzero;stroke:none"
           d="m 0,0 c -1.816,0 -3.294,-1.478 -3.294,-3.294 0,-1.817 1.478,-3.295 3.294,-3.295 1.816,0 3.294,1.478 3.294,3.295 C 3.294,-1.478 1.816,0 0,0 m 0,-8.089 c -2.644,0 -4.794,2.151 -4.794,4.795 0,2.643 2.15,4.794 4.794,4.794 2.644,0 4.794,-2.151 4.794,-4.794 0,-2.644 -2.15,-4.795 -4.794,-4.795 M 0,5.272 c -4.723,0 -8.566,-3.843 -8.566,-8.566 0,-4.724 3.843,-8.567 8.566,-8.567 4.723,0 8.566,3.843 8.566,8.567 0,4.723 -3.843,8.566 -8.566,8.566 m 0,-18.633 c -5.55,0 -10.066,4.516 -10.066,10.067 0,5.55 4.516,10.066 10.066,10.066 5.55,0 10.066,-4.516 10.066,-10.066 C 10.066,-8.845 5.55,-13.361 0,-13.361" />
      </g>
      <g
         transform="matrix(1.25,0,0,-1.25,-73.992975,1159.3988)"
         id="g266">
        <path
           inkscape:connector-curvature="0"
           id="path268"
           style="fill:#061529;fill-opacity:1;fill-rule:nonzero;stroke:none"
           d="m 0,0 1.981,24.292 c 1.982,1.317 3.681,3.026 4.988,5.015 L 31.46,32.592 C 28.824,16.238 16.161,3.197 0,0 m -10.079,-0.682 -1.84,22.558 c 1.348,-0.331 2.756,-0.512 4.205,-0.512 1.451,0 2.86,0.181 4.208,0.514 l -1.839,-22.56 c -0.784,-0.047 -1.573,-0.072 -2.367,-0.072 -0.796,0 -1.583,0.025 -2.367,0.072 m -36.806,33.274 24.491,-3.286 c 1.308,-1.989 3.006,-3.698 4.989,-5.015 L -15.425,0 c -16.16,3.196 -28.825,16.237 -31.46,32.592 m -0.508,6.335 c 0,1.534 0.09,3.047 0.261,4.538 l 22.456,0 c -0.389,-1.449 -0.599,-2.969 -0.599,-4.538 0,-1.368 0.162,-2.698 0.46,-3.977 l -22.567,3.027 c -0.006,0.315 -0.011,0.632 -0.011,0.95 M -7.712,26.636 c -6.777,0 -12.291,5.514 -12.291,12.291 0,6.776 5.514,12.289 12.291,12.289 6.776,0 12.289,-5.513 12.289,-12.289 0,-6.777 -5.513,-12.291 -12.289,-12.291 m 0,51.97 c 18.494,0 34.074,-12.718 38.452,-29.869 l -23.894,0 c -3.159,4.672 -8.506,7.751 -14.558,7.751 -6.053,0 -11.401,-3.079 -14.56,-7.751 l -23.894,0 c 4.379,17.151 19.958,29.869 38.454,29.869 m 16.964,-35.141 22.455,0 c 0.17,-1.491 0.26,-3.004 0.26,-4.538 0,-0.318 -0.003,-0.635 -0.011,-0.95 L 9.389,34.951 c 0.297,1.278 0.46,2.608 0.46,3.976 0,1.569 -0.21,3.089 -0.597,4.538 M -7.712,83.878 c -24.787,0 -44.953,-20.166 -44.953,-44.951 0,-24.787 20.166,-44.953 44.953,-44.953 24.786,0 44.951,20.166 44.951,44.953 0,24.785 -20.165,44.951 -44.951,44.951" />
      </g>
      <g
         transform="matrix(1.25,0,0,-1.25,-64.944225,1097.5403)"
         id="g270">
        <path
           inkscape:connector-curvature="0"
           id="path272"
           style="fill:#061529;fill-opacity:1;fill-rule:nonzero;stroke:none"
           d="M 0,0 22.523,0 C 17.805,16.752 2.533,28.37 -14.951,28.37 -32.435,28.37 -47.708,16.752 -52.427,0 l 22.523,0 c 3.441,4.861 9.001,7.751 14.953,7.751 C -9,7.751 -3.441,4.861 0,0 m 24.466,-1.5 -25.258,0 -0.222,0.33 c -3.142,4.647 -8.352,7.421 -13.937,7.421 -5.587,0 -10.798,-2.774 -13.938,-7.421 l -0.223,-0.33 -25.259,0 0.24,0.936 c 4.575,17.918 20.687,30.434 39.18,30.434 18.494,0 34.605,-12.516 39.178,-30.434 L 24.466,-1.5 Z M 2.963,-6.772 c 0.263,-1.246 0.396,-2.516 0.396,-3.789 0,-1.03 -0.089,-2.065 -0.265,-3.092 l 20.884,2.801 c 0,0.097 10e-4,0.194 10e-4,0.291 0,1.25 -0.062,2.521 -0.186,3.789 l -20.83,0 z m -1.789,-8.652 0.246,1.057 c 0.291,1.256 0.439,2.537 0.439,3.806 0,1.465 -0.192,2.927 -0.571,4.346 l -0.252,0.943 24.102,0 0.075,-0.665 c 0.176,-1.543 0.266,-3.099 0.266,-4.624 0,-0.323 -0.004,-0.646 -0.012,-0.967 l -0.016,-0.64 -24.277,-3.256 z m -55.055,4.572 20.883,-2.802 c -0.176,1.027 -0.266,2.063 -0.266,3.093 0,1.273 0.134,2.543 0.398,3.789 l -20.831,0 c -0.123,-1.262 -0.185,-2.534 -0.185,-3.789 0,-0.097 0,-0.194 10e-4,-0.291 m 22.803,-4.573 -24.279,3.258 -0.014,0.642 c -0.006,0.32 -0.011,0.642 -0.011,0.964 0,1.533 0.089,3.089 0.266,4.624 l 0.076,0.665 24.103,0 -0.253,-0.944 c -0.381,-1.418 -0.574,-2.88 -0.574,-4.345 0,-1.27 0.148,-2.55 0.44,-3.806 l 0.246,-1.058 z m 16.127,16.404 c -6.363,0 -11.541,-5.177 -11.541,-11.54 0,-6.363 5.178,-11.54 11.541,-11.54 6.363,0 11.539,5.177 11.539,11.54 0,6.363 -5.176,11.54 -11.539,11.54 m 0,-24.58 c -7.191,0 -13.041,5.85 -13.041,13.04 0,7.19 5.85,13.04 13.041,13.04 7.19,0 13.039,-5.85 13.039,-13.04 0,-7.19 -5.849,-13.04 -13.039,-13.04 m -38.258,5.827 c 2.86,-15.192 14.629,-27.38 29.716,-30.771 l -1.869,22.931 c -1.851,1.281 -3.431,2.872 -4.706,4.735 l -23.141,3.105 z m 31.374,-32.641 -0.974,0.192 c -16.499,3.263 -29.381,16.609 -32.055,33.209 l -0.161,0.996 25.83,-3.465 0.188,-0.286 c 1.263,-1.919 2.87,-3.535 4.778,-4.801 l 0.303,-0.202 2.091,-25.643 z m 17.295,24.802 -1.87,-22.932 c 15.087,3.392 26.855,15.579 29.716,30.771 L 0.165,-20.878 c -1.273,-1.862 -2.854,-3.453 -4.705,-4.735 m -3.527,-24.802 2.091,25.644 0.303,0.201 c 1.908,1.269 3.516,2.884 4.777,4.802 l 0.188,0.286 25.83,3.464 -0.161,-0.996 C 22.286,-33.614 9.404,-46.959 -7.093,-50.223 l -0.974,-0.192 z m -8.557,0.961 c 1.133,-0.05 2.195,-0.05 3.345,0 l 1.704,20.897 c -2.226,-0.42 -4.52,-0.419 -6.753,-0.001 l 1.704,-20.896 z m 1.673,-1.537 c -0.786,0 -1.575,0.024 -2.412,0.074 l -0.65,0.038 -1.977,24.246 1.011,-0.249 c 2.646,-0.652 5.42,-0.65 8.054,0.001 l 1.012,0.251 -1.977,-24.249 -0.65,-0.038 c -0.825,-0.049 -1.636,-0.074 -2.411,-0.074 m 0,84.633 c -24.374,0 -44.203,-19.829 -44.203,-44.203 0,-24.373 19.829,-44.202 44.203,-44.202 24.373,0 44.201,19.829 44.201,44.202 0,24.374 -19.828,44.203 -44.201,44.203 m 0,-89.905 c -25.201,0 -45.703,20.502 -45.703,45.702 0,25.201 20.502,45.703 45.703,45.703 25.2,0 45.701,-20.502 45.701,-45.703 0,-25.2 -20.501,-45.702 -45.701,-45.702" />
      </g>
    </g>
  </g>
</svg>
