<?xml version="1.0" encoding="UTF-8" standalone="no"?>
<!-- Created with Inkscape (http://www.inkscape.org/) -->

<svg
   xmlns:dc="http://purl.org/dc/elements/1.1/"
   xmlns:cc="http://creativecommons.org/ns#"
   xmlns:rdf="http://www.w3.org/1999/02/22-rdf-syntax-ns#"
   xmlns:svg="http://www.w3.org/2000/svg"
   xmlns="http://www.w3.org/2000/svg"
   xmlns:sodipodi="http://sodipodi.sourceforge.net/DTD/sodipodi-0.dtd"
   xmlns:inkscape="http://www.inkscape.org/namespaces/inkscape"
   width="512"
   height="512"
   viewBox="0 0 511.99999 512.00001"
   id="svg4940"
   version="1.1"
   inkscape:version="0.91 r13725"
   sodipodi:docname="sports-black.svg">
  <defs
     id="defs4942">
    <clipPath
       clipPathUnits="userSpaceOnUse"
       id="clipPath366">
      <path
         d="m 0,1080 2529,0 L 2529,0 0,0 0,1080 Z"
         id="path368"
         inkscape:connector-curvature="0" />
    </clipPath>
    <clipPath
       clipPathUnits="userSpaceOnUse"
       id="clipPath282">
      <path
         d="m 0,1080 2529,0 L 2529,0 0,0 0,1080 Z"
         id="path284"
         inkscape:connector-curvature="0" />
    </clipPath>
    <clipPath
       clipPathUnits="userSpaceOnUse"
       id="clipPath242">
      <path
         d="m 0,1080 2529,0 L 2529,0 0,0 0,1080 Z"
         id="path244"
         inkscape:connector-curvature="0" />
    </clipPath>
    <clipPath
       clipPathUnits="userSpaceOnUse"
       id="clipPath210">
      <path
         d="m 0,1080 2529,0 L 2529,0 0,0 0,1080 Z"
         id="path212"
         inkscape:connector-curvature="0" />
    </clipPath>
    <clipPath
       clipPathUnits="userSpaceOnUse"
       id="clipPath186">
      <path
         d="m 0,1080 2529,0 L 2529,0 0,0 0,1080 Z"
         id="path188"
         inkscape:connector-curvature="0" />
    </clipPath>
    <clipPath
       clipPathUnits="userSpaceOnUse"
       id="clipPath94">
      <path
         d="m 0,1080 2529,0 L 2529,0 0,0 0,1080 Z"
         id="path96"
         inkscape:connector-curvature="0" />
    </clipPath>
    <clipPath
       clipPathUnits="userSpaceOnUse"
       id="clipPath66">
      <path
         d="m 0,1080 2529,0 L 2529,0 0,0 0,1080 Z"
         id="path68"
         inkscape:connector-curvature="0" />
    </clipPath>
    <clipPath
       clipPathUnits="userSpaceOnUse"
       id="clipPath18">
      <path
         d="m 0,1080 2529,0 L 2529,0 0,0 0,1080 Z"
         id="path20"
         inkscape:connector-curvature="0" />
    </clipPath>
  </defs>
  <sodipodi:namedview
     id="base"
     pagecolor="#ffffff"
     bordercolor="#666666"
     borderopacity="1.0"
     inkscape:pageopacity="0.0"
     inkscape:pageshadow="2"
     inkscape:zoom="0.35355339"
     inkscape:cx="88.719834"
     inkscape:cy="149.06111"
     inkscape:document-units="px"
     inkscape:current-layer="g6498"
     showgrid="false"
     inkscape:window-width="1360"
     inkscape:window-height="744"
     inkscape:window-x="1360"
     inkscape:window-y="24"
     inkscape:window-maximized="1"
     units="px" />
  <metadata
     id="metadata4945">
    <rdf:RDF>
      <cc:Work
         rdf:about="">
        <dc:format>image/svg+xml</dc:format>
        <dc:type
           rdf:resource="http://purl.org/dc/dcmitype/StillImage" />
        <dc:title></dc:title>
      </cc:Work>
    </rdf:RDF>
  </metadata>
  <g
     inkscape:label="Layer 1"
     inkscape:groupmode="layer"
     id="layer1"
     transform="translate(0,-540.3622)">
    <g
       id="g6498"
       transform="matrix(3.9679926,0,0,3.9679926,-1183.225,-2281.8308)">
      <g
         id="g6621"
         transform="matrix(4.521121,0,0,4.521121,-1829.8018,-2952.3166)">
        <g
           transform="matrix(0.31502075,0,0,-0.31502075,482.61642,837.44569)"
           id="g26">
          <path
             inkscape:connector-curvature="0"
             id="path28"
             style="fill:#061529;fill-opacity:1;fill-rule:nonzero;stroke:none"
             d="m 0,0 -7.363,12.527 2.302,3.917 c 0.395,0.673 0.171,1.54 -0.502,1.935 -0.673,0.396 -1.54,0.171 -1.936,-0.503 l -2.157,-3.669 -14.73,0 c -3.179,3.793 -5.693,8.161 -7.362,12.923 l 7.365,12.53 14.416,0 7.636,-12.992 -2.302,-3.917 c -0.396,-0.672 -0.171,-1.539 0.502,-1.934 0.226,-0.133 0.472,-0.195 0.715,-0.195 0.485,0 0.957,0.249 1.221,0.697 l 2.312,3.935 14.572,0 7.48,-12.727 L 14.807,0 C 12.404,-0.435 9.929,-0.663 7.402,-0.663 4.876,-0.663 2.402,-0.435 0,0 M -9.967,11.379 -3.793,0.874 c -6.886,1.934 -13.052,5.603 -17.994,10.505 l 11.82,0 z M 14.806,81.617 22.169,69.09 14.689,56.363 0.117,56.363 -7.363,69.09 0,81.617 c 2.402,0.435 4.876,0.663 7.402,0.663 2.527,0 5.001,-0.229 7.404,-0.663 m 26.832,-40.543 5.928,10.087 c 0.853,-3.31 1.308,-6.779 1.308,-10.353 0,-3.439 -0.423,-6.78 -1.216,-9.977 l -6.02,10.243 z M 24.462,70.769 18.6,80.743 c 6.634,-1.863 12.601,-5.337 17.448,-9.974 l -11.586,0 z m -34.118,0 -11.587,0 c 4.848,4.637 10.815,8.111 17.45,9.974 L -9.656,70.769 Z M -34.068,40.808 c 0,3.574 0.455,7.043 1.308,10.353 l 5.928,-10.087 -6.02,-10.243 c -0.793,3.197 -1.216,6.538 -1.216,9.977 m 24.412,1.679 -14.727,0 -7.247,12.331 c 1.748,4.857 4.376,9.296 7.694,13.123 l 13.969,0 7.636,-12.992 -7.325,-12.462 z m 9.773,-14.405 -7.48,12.727 7.48,12.726 14.572,0 7.48,-12.726 -7.48,-12.727 -14.572,0 z m 24.657,-16.703 11.818,0 C 31.65,6.477 25.485,2.808 18.6,0.874 l 6.174,10.505 z m 14.417,2.828 -14.729,0 -7.325,12.461 7.637,12.992 4.302,0 c 0.781,0 1.414,0.633 1.414,1.414 0,0.781 -0.633,1.413 -1.414,1.413 l -4.614,0 -7.325,12.462 7.637,12.992 13.968,0 c 3.317,-3.827 5.946,-8.266 7.694,-13.123 l -7.247,-12.331 -4.458,0 c -0.781,0 -1.414,-0.632 -1.414,-1.413 0,-0.781 0.633,-1.414 1.414,-1.414 l 4.458,0 7.365,-12.53 C 44.885,22.368 42.37,18 39.191,14.207 M 38.727,72.133 C 30.36,80.5 19.234,85.107 7.402,85.107 -4.43,85.107 -15.554,80.5 -23.921,72.133 -32.288,63.765 -36.896,52.641 -36.896,40.808 c 0,-11.833 4.608,-22.957 12.975,-31.324 C -15.554,1.118 -4.43,-3.49 7.402,-3.49 c 11.832,0 22.958,4.608 31.325,12.974 8.367,8.367 12.975,19.491 12.975,31.324 0,11.833 -4.608,22.957 -12.975,31.325" />
        </g>
        <g
           transform="matrix(0.31502075,0,0,-0.31502075,476.74715,814.83706)"
           id="g30">
          <path
             inkscape:connector-curvature="0"
             id="path32"
             style="fill:#061529;fill-opacity:1;fill-rule:nonzero;stroke:none"
             d="m 0,0 8.403,0 4.253,7.237 C 8.056,5.618 3.751,3.156 0,0 m 9.548,-2 -14.652,0 1.801,1.723 C 1.729,4.535 7.907,8.067 14.567,9.938 L 16.958,10.609 9.548,-2 Z m 34.117,2 8.403,0 C 48.318,3.155 44.014,5.617 39.412,7.236 L 43.665,0 Z M 57.17,-2 42.521,-2 35.111,10.608 37.502,9.937 C 44.162,8.066 50.341,4.534 55.37,-0.277 L 57.17,-2 Z m -37.85,-12.406 13.428,0 6.892,11.727 -6.83,11.622 c -4.463,0.754 -9.106,0.753 -13.551,0 l -6.83,-11.622 6.891,-11.727 z m 14.573,-2 -15.717,0 -8.068,13.727 7.893,13.429 0.451,0.082 c 4.963,0.899 10.177,0.901 15.163,0 L 34.067,10.75 41.96,-2.679 33.893,-16.406 Z m -39.073,-11.875 13.583,0 6.737,11.462 -7.048,11.991 -12.937,0 c -3.045,-3.59 -5.415,-7.631 -7.051,-12.023 l 6.716,-11.43 z m 14.728,-2 -15.872,0 -7.774,13.228 0.159,0.441 c 1.776,4.937 4.426,9.458 7.878,13.44 l 0.3,0.344 14.997,0 8.224,-13.991 -7.912,-13.462 z m -23.257,6.985 c -0.483,-2.516 -0.728,-5.084 -0.728,-7.665 0,-2.437 0.22,-4.869 0.655,-7.258 l 4.422,7.524 -4.349,7.399 z m -0.892,-20.263 -0.59,2.38 c -0.827,3.332 -1.246,6.77 -1.246,10.218 0,3.589 0.451,7.156 1.339,10.603 l 0.605,2.343 7.453,-12.68 -7.561,-12.864 z m 76.031,12.864 4.422,-7.523 c 0.434,2.39 0.654,4.822 0.654,7.257 0,2.579 -0.244,5.148 -0.729,7.665 l -4.347,-7.399 z m 5.241,-12.865 -7.562,12.865 7.453,12.68 0.604,-2.343 c 0.889,-3.449 1.34,-7.017 1.34,-10.603 0,-3.444 -0.419,-6.882 -1.245,-10.217 l -0.59,-2.382 z m -47.351,0.873 13.428,0 6.892,11.727 -6.892,11.727 -13.428,0 -6.891,-11.727 6.891,-11.727 z m 14.573,-2 -15.717,0 -8.068,13.727 8.068,13.727 15.717,0 8.067,-13.727 -8.067,-13.727 z m 9.772,-11.875 13.688,0 c 2.912,3.555 5.174,7.527 6.733,11.819 l -6.838,11.634 -3.886,0 c -1.331,0 -2.414,1.083 -2.414,2.414 0,1.331 1.083,2.414 2.414,2.414 l 3.886,0 6.718,11.43 c -1.638,4.391 -4.008,8.432 -7.053,12.023 l -12.935,0 -7.049,-11.991 6.736,-11.462 4.042,0 c 1.331,0 2.414,-1.083 2.414,-2.414 0,-1.331 -1.083,-2.414 -2.414,-2.414 l -3.729,0 -7.049,-11.992 6.736,-11.461 z m 14.624,-2 -15.768,0 -7.913,13.461 8.225,13.992 4.874,0 c 0.229,0 0.414,0.186 0.414,0.414 0,0.228 -0.185,0.414 -0.414,0.414 l -5.186,0 -7.913,13.462 8.225,13.991 14.997,0 0.299,-0.345 c 3.452,-3.982 6.102,-8.504 7.879,-13.438 l 0.159,-0.442 -7.774,-13.228 -5.031,0 c -0.228,0 -0.414,-0.186 -0.414,-0.414 0,-0.228 0.186,-0.414 0.414,-0.414 l 5.031,0 7.888,-13.423 -0.153,-0.437 c -1.692,-4.833 -4.229,-9.286 -7.539,-13.236 l -0.3,-0.357 z m -58.906,-2.827 c 3.895,-3.415 8.414,-6.059 13.274,-7.768 l -4.565,7.768 -8.709,0 z m 17.575,-11.139 -2.391,0.671 c -6.919,1.942 -13.291,5.662 -18.426,10.758 l -1.724,1.71 14.819,0 7.722,-13.139 z m 27.02,11.139 -4.566,-7.768 c 4.859,1.709 9.377,4.353 13.274,7.768 l -8.708,0 z m -8.867,-11.139 7.722,13.139 14.818,0 -1.723,-1.71 C 50.79,-66.195 44.419,-69.915 37.502,-71.857 l -2.391,-0.671 z m -15.852,1.665 c 4.448,-0.754 9.103,-0.754 13.552,0 l 6.829,11.622 -6.892,11.726 -13.428,0 -2.021,-3.441 c -0.654,-1.106 -2.2,-1.506 -3.305,-0.859 -0.556,0.328 -0.952,0.852 -1.114,1.475 -0.162,0.625 -0.071,1.275 0.257,1.83 l 2.003,3.409 -7.048,11.992 -13.272,0 -6.838,-11.634 c 1.56,-4.293 3.823,-8.265 6.733,-11.819 l 13.688,0 1.868,3.176 c 0.327,0.556 0.85,0.952 1.475,1.114 0.623,0.163 1.275,0.071 1.83,-0.257 0.555,-0.325 0.95,-0.849 1.112,-1.473 0.162,-0.624 0.071,-1.274 -0.255,-1.83 l -2.004,-3.409 6.83,-11.622 z m 6.774,-2.568 c -2.547,0 -5.096,0.228 -7.581,0.679 l -0.451,0.081 -7.893,13.43 2.6,4.423 c 0.076,0.128 0.061,0.252 0.044,0.314 -0.016,0.062 -0.063,0.176 -0.189,0.252 -0.131,0.076 -0.254,0.061 -0.315,0.044 -0.061,-0.016 -0.178,-0.063 -0.253,-0.191 l -2.447,-4.163 -15.77,0 -0.299,0.358 c -3.309,3.948 -5.845,8.401 -7.539,13.235 l -0.153,0.437 7.889,13.423 15.56,0 8.224,-13.992 -2.6,-4.423 c -0.076,-0.129 -0.06,-0.251 -0.045,-0.313 0.017,-0.062 0.063,-0.178 0.192,-0.253 0.193,-0.112 0.454,-0.043 0.568,0.149 l 2.601,4.426 15.717,0 8.067,-13.726 -7.892,-13.43 -0.451,-0.081 c -2.485,-0.451 -5.037,-0.679 -7.584,-0.679 m 0,85.769 c -11.565,0 -22.438,-4.503 -30.616,-12.681 -8.178,-8.179 -12.682,-19.053 -12.682,-30.618 0,-11.565 4.504,-22.438 12.682,-30.617 8.178,-8.177 19.051,-12.681 30.616,-12.681 11.567,0 22.441,4.504 30.617,12.681 8.179,8.178 12.683,19.051 12.683,30.617 0,11.566 -4.504,22.44 -12.683,30.618 C 48.474,7.835 37.6,12.338 26.033,12.338 m 0,-88.597 c -12.099,0 -23.474,4.712 -32.03,13.267 -8.556,8.556 -13.268,19.932 -13.268,32.031 0,12.099 4.712,23.475 13.268,32.032 8.556,8.556 19.931,13.267 32.03,13.267 12.101,0 23.477,-4.711 32.031,-13.267 8.557,-8.555 13.269,-19.931 13.269,-32.032 0,-12.101 -4.712,-23.476 -13.269,-32.031 -8.554,-8.555 -19.93,-13.267 -32.031,-13.267" />
        </g>
        <g
           transform="matrix(0.31502075,0,0,-0.31502075,492.20273,828.08094)"
           id="g34">
          <path
             inkscape:connector-curvature="0"
             id="path36"
             style="fill:#061529;fill-opacity:1;fill-rule:nonzero;stroke:none"
             d="m 0,0 c 0,-0.781 -0.632,-1.414 -1.414,-1.414 -0.78,0 -1.414,0.633 -1.414,1.414 0,0.78 0.634,1.414 1.414,1.414 C -0.632,1.414 0,0.78 0,0" />
        </g>
        <g
           transform="matrix(0.31502075,0,0,-0.31502075,491.75741,827.95055)"
           id="g38">
          <path
             inkscape:connector-curvature="0"
             id="path40"
             style="fill:#061529;fill-opacity:1;fill-rule:nonzero;stroke:none"
             d="m 0,0 c -0.229,0 -0.414,-0.186 -0.414,-0.414 0,-0.228 0.185,-0.414 0.414,-0.414 0.228,0 0.413,0.186 0.413,0.414 C 0.413,-0.186 0.228,0 0,0 m 0,-2.828 c -1.331,0 -2.414,1.083 -2.414,2.414 C -2.414,0.917 -1.331,2 0,2 1.331,2 2.413,0.917 2.413,-0.414 2.413,-1.745 1.331,-2.828 0,-2.828" />
        </g>
        <g
           transform="matrix(0.31502075,0,0,-0.31502075,493.9842,829.86241)"
           id="g42">
          <path
             inkscape:connector-curvature="0"
             id="path44"
             style="fill:#061529;fill-opacity:1;fill-rule:nonzero;stroke:none"
             d="m 0,0 c 0,-0.781 -0.632,-1.414 -1.414,-1.414 -0.78,0 -1.414,0.633 -1.414,1.414 0,0.78 0.634,1.414 1.414,1.414 C -0.632,1.414 0,0.78 0,0" />
        </g>
        <g
           transform="matrix(0.31502075,0,0,-0.31502075,493.53895,829.73209)"
           id="g46">
          <path
             inkscape:connector-curvature="0"
             id="path48"
             style="fill:#061529;fill-opacity:1;fill-rule:nonzero;stroke:none"
             d="m 0,0 c -0.229,0 -0.414,-0.186 -0.414,-0.414 0,-0.228 0.185,-0.414 0.414,-0.414 0.228,0 0.413,0.186 0.413,0.414 C 0.413,-0.186 0.228,0 0,0 m 0,-2.828 c -1.331,0 -2.414,1.083 -2.414,2.414 C -2.414,0.917 -1.331,2 0,2 1.331,2 2.413,0.917 2.413,-0.414 2.413,-1.745 1.331,-2.828 0,-2.828" />
        </g>
        <g
           transform="matrix(0.31502075,0,0,-0.31502075,476.80366,819.31791)"
           id="g50">
          <path
             inkscape:connector-curvature="0"
             id="path52"
             style="fill:#061529;fill-opacity:1;fill-rule:nonzero;stroke:none"
             d="m 0,0 c 0,-0.78 -0.633,-1.414 -1.414,-1.414 -0.781,0 -1.414,0.634 -1.414,1.414 0,0.781 0.633,1.414 1.414,1.414 C -0.633,1.414 0,0.781 0,0" />
        </g>
        <g
           transform="matrix(0.31502075,0,0,-0.31502075,476.35832,819.18749)"
           id="g54">
          <path
             inkscape:connector-curvature="0"
             id="path56"
             style="fill:#061529;fill-opacity:1;fill-rule:nonzero;stroke:none"
             d="m 0,0 c -0.229,0 -0.414,-0.186 -0.414,-0.414 0,-0.228 0.185,-0.414 0.414,-0.414 0.229,0 0.414,0.186 0.414,0.414 C 0.414,-0.186 0.229,0 0,0 m 0,-2.828 c -1.331,0 -2.414,1.083 -2.414,2.414 C -2.414,0.917 -1.331,2 0,2 1.331,2 2.414,0.917 2.414,-0.414 2.414,-1.745 1.331,-2.828 0,-2.828" />
        </g>
      </g>
    </g>
  </g>
</svg>
