<svg xmlns="http://www.w3.org/2000/svg" viewBox="0 0 152.23 120.58"><defs><style>.cls-1{fill:#2cb4bf;}.cls-2{fill:#e43345;}.cls-3{fill:#071428;}</style></defs><title>question-gamepad</title><g id="Layer_2" data-name="Layer 2"><g id="Layer_1-2" data-name="Layer 1"><path class="cls-1" d="M39.25,80.05a12,12,0,1,0,12,12,12,12,0,0,0-12-12Zm0,18.36A6.39,6.39,0,1,1,45.64,92a6.4,6.4,0,0,1-6.39,6.39Zm0,0"/><path class="cls-1" d="M84.84,92a12,12,0,1,0-12,12,12,12,0,0,0,12-12Zm-12,6.39A6.39,6.39,0,1,1,79.25,92a6.4,6.4,0,0,1-6.39,6.39Zm0,0"/><path class="cls-2" d="M104.41,62.27a24.64,24.64,0,0,0-23-20.57L81,41.6a3.32,3.32,0,0,0-.48,0H32.19A24.73,24.73,0,0,0,7.72,62.2L.34,101.72A15.4,15.4,0,0,0,0,104.94a15.64,15.64,0,0,0,28.56,8.81l3.56-4.93a2.8,2.8,0,0,0-4.54-3.27l-3.61,5A10,10,0,0,1,5.59,105a10.29,10.29,0,0,1,.23-2.15L13.2,63.2a19.16,19.16,0,0,1,19-16H80.25l.39.07.32,0a19.35,19.35,0,0,1,17.92,16l7.4,39.61a10.65,10.65,0,0,1,.21,2.08A10.05,10.05,0,0,1,88,110.46l-3.84-5.3a2.8,2.8,0,0,0-4.54,3.27l3.77,5.23A15.64,15.64,0,0,0,112,104.92a16.1,16.1,0,0,0-.32-3.17Zm0,0"/><path class="cls-2" d="M74.34,64.14a3.79,3.79,0,1,1-3.79-3.79,3.79,3.79,0,0,1,3.79,3.79Zm0,0"/><path class="cls-2" d="M89.84,64.14a3.79,3.79,0,1,1-3.79-3.79,3.79,3.79,0,0,1,3.79,3.79Zm0,0"/><path class="cls-2" d="M34.06,52.91a2.81,2.81,0,0,0-2.81,2.81v5h-5a2.81,2.81,0,0,0,0,5.62h5v5a2.81,2.81,0,0,0,5.62,0v-5h5a2.81,2.81,0,1,0,0-5.62h-5v-5a2.81,2.81,0,0,0-2.81-2.81Zm0,0"/><path class="cls-2" d="M82.08,71.88a3.79,3.79,0,1,1-3.79-3.79,3.79,3.79,0,0,1,3.79,3.79Zm0,0"/><path class="cls-2" d="M82.08,56.38a3.79,3.79,0,1,1-3.79-3.79,3.79,3.79,0,0,1,3.79,3.79Zm0,0"/><path class="cls-1" d="M145.18,0H102.9a7.05,7.05,0,0,0-7,7V38.76a7.05,7.05,0,0,0,7,7h19.38v8.81a1.76,1.76,0,0,0,3,1.25l10.05-10.05h9.84a7.05,7.05,0,0,0,7-7V7A7.05,7.05,0,0,0,145.18,0Zm3.52,38.76a3.53,3.53,0,0,1-3.52,3.52H134.61a1.75,1.75,0,0,0-1.25.52l-7.56,7.56V44A1.76,1.76,0,0,0,124,42.28H102.9a3.53,3.53,0,0,1-3.52-3.52V7a3.53,3.53,0,0,1,3.52-3.52h42.28A3.53,3.53,0,0,1,148.7,7Z"/><path class="cls-3" d="M121,17.5l-1.54-.57-1.54-.57a16,16,0,0,1,.62-1.67,6.51,6.51,0,0,1,1.21-1.84,6.66,6.66,0,0,1,2.08-1.48,7.65,7.65,0,0,1,3.26-.61,6.72,6.72,0,0,1,2.72.56A6.93,6.93,0,0,1,130,12.82,7.09,7.09,0,0,1,131.49,15a6.61,6.61,0,0,1,.54,2.64,6.48,6.48,0,0,1-.92,3.47,10.06,10.06,0,0,1-2.52,2.71l-1,.69a7.6,7.6,0,0,0-1.06.89,4.9,4.9,0,0,0-.85,1.15,3.13,3.13,0,0,0-.35,1.51v2.78h-3.61V27.4a4.37,4.37,0,0,1,.35-1.87,4.19,4.19,0,0,1,.92-1.27,9.08,9.08,0,0,1,1.3-1q.73-.47,1.53-1.06a5.63,5.63,0,0,0,2.57-4.55,3.48,3.48,0,0,0-.89-2.43,3.06,3.06,0,0,0-2.38-1,5.48,5.48,0,0,0-1.63.21,3.21,3.21,0,0,0-1.13.61,3.27,3.27,0,0,0-.78,1A8.15,8.15,0,0,0,121,17.5Zm2.46,19.3a2.24,2.24,0,0,1-1.48-.57,1.92,1.92,0,0,1-.68-1.54,2,2,0,0,1,.68-1.53,2.14,2.14,0,0,1,1.48-.63,2.2,2.2,0,0,1,2.08,2.15,1.94,1.94,0,0,1-.66,1.54A2.14,2.14,0,0,1,123.49,36.8Z"/></g></g></svg>