<?xml version="1.0" encoding="UTF-8" standalone="no"?>
<!-- Created with Inkscape (http://www.inkscape.org/) -->

<svg
   xmlns:dc="http://purl.org/dc/elements/1.1/"
   xmlns:cc="http://creativecommons.org/ns#"
   xmlns:rdf="http://www.w3.org/1999/02/22-rdf-syntax-ns#"
   xmlns:svg="http://www.w3.org/2000/svg"
   xmlns="http://www.w3.org/2000/svg"
   xmlns:sodipodi="http://sodipodi.sourceforge.net/DTD/sodipodi-0.dtd"
   xmlns:inkscape="http://www.inkscape.org/namespaces/inkscape"
   width="40"
   height="40"
   viewBox="0 0 40 40.000001"
   id="svg5211"
   version="1.1"
   inkscape:version="0.91 r13725"
   sodipodi:docname="loading.svg">
  <defs
     id="defs5213" />
  <sodipodi:namedview
     id="base"
     pagecolor="#ffffff"
     bordercolor="#666666"
     borderopacity="1.0"
     inkscape:pageopacity="0.0"
     inkscape:pageshadow="2"
     inkscape:zoom="11.2"
     inkscape:cx="26.377628"
     inkscape:cy="18.519541"
     inkscape:document-units="px"
     inkscape:current-layer="layer1"
     showgrid="false"
     units="px"
     inkscape:window-width="1323"
     inkscape:window-height="744"
     inkscape:window-x="1397"
     inkscape:window-y="24"
     inkscape:window-maximized="1" />
  <metadata
     id="metadata5216">
    <rdf:RDF>
      <cc:Work
         rdf:about="">
        <dc:format>image/svg+xml</dc:format>
        <dc:type
           rdf:resource="http://purl.org/dc/dcmitype/StillImage" />
        <dc:title></dc:title>
      </cc:Work>
    </rdf:RDF>
  </metadata>
  <g
     inkscape:label="Layer 1"
     inkscape:groupmode="layer"
     id="layer1"
     transform="translate(0,-1012.3621)">
    <path
       d="m 27.78652,1046.9327 c -1.31763,-1.5702 -1.11293,-3.9114 0.45764,-5.2287 1.57024,-1.3176 3.91103,-1.1129 5.229,0.4573 1.3173,1.5703 1.1126,3.9111 -0.45764,5.229 -1.57024,1.3173 -3.91136,1.1126 -5.229,-0.4576"
       style="fill:#5af5f9;fill-opacity:1;fill-rule:nonzero;stroke:none"
       id="path590"
       inkscape:connector-curvature="0" />
    <path
       d="m 33.44534,1037.1101 c -1.31764,-1.5699 -1.11294,-3.9114 0.45764,-5.2287 1.5699,-1.3176 3.91103,-1.1129 5.22866,0.4577 1.31764,1.5699 1.1126,3.911 -0.45764,5.2286 -1.57024,1.3173 -3.91103,1.1126 -5.22866,-0.4576"
       style="opacity:0.89999402;fill:#5af5f9;fill-opacity:1;fill-rule:nonzero;stroke:none"
       id="path606"
       inkscape:connector-curvature="0" />
    <path
       d="m 31.65362,1026.2355 c -1.39536,-1.5016 -1.30926,-3.8498 0.19264,-5.2451 1.50123,-1.3957 3.84972,-1.3093 5.24541,0.1923 1.39503,1.5019 1.30893,3.85 -0.19263,5.2454 -1.50156,1.3954 -3.85006,1.3089 -5.24542,-0.1926"
       style="opacity:0.80000299;fill:#5af5f9;fill-opacity:1;fill-rule:nonzero;stroke:none"
       id="path622"
       inkscape:connector-curvature="0" />
    <path
       d="m 22.73294,1018.708 c -1.3173,-1.5699 -1.1126,-3.9114 0.45764,-5.2287 1.57024,-1.3176 3.91103,-1.1129 5.229,0.4573 1.3173,1.5703 1.1126,3.9114 -0.45764,5.229 -1.57024,1.3173 -3.91136,1.1126 -5.229,-0.4576"
       style="opacity:0.69999701;fill:#5af5f9;fill-opacity:1;fill-rule:nonzero;stroke:none"
       id="path638"
       inkscape:connector-curvature="0" />
    <path
       d="m 11.62123,1018.6958 c -1.31764,-1.5703 -1.11261,-3.9114 0.45763,-5.2287 1.57024,-1.3179 3.91137,-1.1129 5.229,0.4573 1.3173,1.5703 1.11261,3.9111 -0.45764,5.229 -1.57024,1.3173 -3.91136,1.1126 -5.22899,-0.4576"
       style="opacity:0.60000598;fill:#5af5f9;fill-opacity:1;fill-rule:nonzero;stroke:none"
       id="path654"
       inkscape:connector-curvature="0" />
    <path
       d="m 2.7856701,1026.1097 c -1.31764,-1.5699 -1.11294,-3.9114 0.45763,-5.2287 1.56991,-1.3176 3.91103,-1.1129 5.229,0.4573 1.3173,1.5703 1.11261,3.9114 -0.45764,5.229 -1.57024,1.3173 -3.91136,1.1126 -5.22899,-0.4576"
       style="opacity:0.5;fill:#5af5f9;fill-opacity:1;fill-rule:nonzero;stroke:none"
       id="path670"
       inkscape:connector-curvature="0" />
    <path
       d="m 0.86822002,1037.0547 c -1.3173,-1.5702 -1.1126,-3.9113 0.45764008,-5.2286 1.56991,-1.318 3.91103,-1.113 5.22867,0.4573 1.31763,1.5702 1.1126,3.9113 -0.45731,5.229 -1.57024,1.3176 -3.91136,1.1126 -5.22900008,-0.4577"
       style="opacity:0.39999402;fill:#5af5f9;fill-opacity:1;fill-rule:nonzero;stroke:none"
       id="path686"
       inkscape:connector-curvature="0" />
    <path
       d="m 6.6152701,1047.0002 c -1.31763,-1.5702 -1.11294,-3.9113 0.45764,-5.229 1.57024,-1.3173 3.9110299,-1.1126 5.2286599,0.4577 1.31764,1.5702 1.1126,3.911 -0.4573,5.2286 -1.57024,1.3177 -3.9113599,1.113 -5.2289999,-0.4573"
       style="opacity:0.30000299;fill:#5af5f9;fill-opacity:1;fill-rule:nonzero;stroke:none"
       id="path702"
       inkscape:connector-curvature="0" />
    <path
       d="m 17.13062,1050.7999 c -1.31763,-1.5703 -1.1126,-3.9114 0.45764,-5.229 1.56991,-1.3177 3.91103,-1.1126 5.22866,0.4576 1.31764,1.5702 1.11261,3.911 -0.45763,5.229 -1.56991,1.3173 -3.91103,1.1126 -5.22867,-0.4576"
       style="opacity:0.19999701;fill:#5af5f9;fill-opacity:1;fill-rule:nonzero;stroke:none"
       id="path718"
       inkscape:connector-curvature="0" />
  </g>
</svg>
