<?xml version="1.0" encoding="UTF-8" standalone="no"?>
<!-- Created with Inkscape (http://www.inkscape.org/) -->

<svg
   xmlns:dc="http://purl.org/dc/elements/1.1/"
   xmlns:cc="http://creativecommons.org/ns#"
   xmlns:rdf="http://www.w3.org/1999/02/22-rdf-syntax-ns#"
   xmlns:svg="http://www.w3.org/2000/svg"
   xmlns="http://www.w3.org/2000/svg"
   xmlns:sodipodi="http://sodipodi.sourceforge.net/DTD/sodipodi-0.dtd"
   xmlns:inkscape="http://www.inkscape.org/namespaces/inkscape"
   width="40"
   height="40"
   viewBox="0 0 39.999999 39.999999"
   id="svg7279"
   version="1.1"
   inkscape:version="0.91 r13725"
   sodipodi:docname="diamond.svg">
  <defs
     id="defs7281">
    <clipPath
       clipPathUnits="userSpaceOnUse"
       id="clipPath236">
      <path
         d="m 0,7263 2560,0 L 2560,0 0,0 0,7263 Z"
         id="path238"
         inkscape:connector-curvature="0" />
    </clipPath>
    <linearGradient
       x1="0"
       y1="0"
       x2="1"
       y2="0"
       gradientUnits="userSpaceOnUse"
       gradientTransform="matrix(40.033406,0,0,-39.998482,-0.00468238,96.517649)"
       spreadMethod="pad"
       id="linearGradient242">
      <stop
         style="stop-opacity:1;stop-color:#e43345"
         offset="0"
         id="stop244" />
      <stop
         style="stop-opacity:1;stop-color:#e43345"
         offset="0.308693"
         id="stop246" />
      <stop
         style="stop-opacity:1;stop-color:#2cb4bf"
         offset="0.623585"
         id="stop248" />
      <stop
         style="stop-opacity:1;stop-color:#2cb4bf"
         offset="1"
         id="stop250" />
    </linearGradient>
  </defs>
  <sodipodi:namedview
     id="base"
     pagecolor="#ffffff"
     bordercolor="#666666"
     borderopacity="1.0"
     inkscape:pageopacity="0.0"
     inkscape:pageshadow="2"
     inkscape:zoom="5.6"
     inkscape:cx="-23.555228"
     inkscape:cy="12.747127"
     inkscape:document-units="px"
     inkscape:current-layer="layer1"
     showgrid="false"
     units="px"
     inkscape:window-width="1323"
     inkscape:window-height="744"
     inkscape:window-x="1397"
     inkscape:window-y="24"
     inkscape:window-maximized="1" />
  <metadata
     id="metadata7284">
    <rdf:RDF>
      <cc:Work
         rdf:about="">
        <dc:format>image/svg+xml</dc:format>
        <dc:type
           rdf:resource="http://purl.org/dc/dcmitype/StillImage" />
        <dc:title></dc:title>
      </cc:Work>
    </rdf:RDF>
  </metadata>
  <g
     inkscape:label="Layer 1"
     inkscape:groupmode="layer"
     id="layer1"
     transform="translate(0,-1012.3622)">
    <path
       style="color:#000000;font-style:normal;font-variant:normal;font-weight:normal;font-stretch:normal;font-size:medium;line-height:normal;font-family:sans-serif;text-indent:0;text-align:start;text-decoration:none;text-decoration-line:none;text-decoration-style:solid;text-decoration-color:#000000;letter-spacing:normal;word-spacing:normal;text-transform:none;direction:ltr;block-progression:tb;writing-mode:lr-tb;baseline-shift:baseline;text-anchor:start;white-space:normal;clip-rule:nonzero;display:inline;overflow:visible;visibility:visible;opacity:1;isolation:auto;mix-blend-mode:normal;color-interpolation:sRGB;color-interpolation-filters:linearRGB;solid-color:#000000;solid-opacity:1;fill:#000000;fill-opacity:1;fill-rule:nonzero;stroke:none;stroke-width:1.340132;stroke-linecap:butt;stroke-linejoin:miter;stroke-miterlimit:10;stroke-dasharray:none;stroke-dashoffset:0;stroke-opacity:1;color-rendering:auto;image-rendering:auto;shape-rendering:auto;text-rendering:auto;enable-background:accumulate"
       d="m 19.97046,1012.3622 c -0.892312,0 -1.736986,0.3685 -2.359375,0.9903 l -16.63867169,16.6796 c -1.29362673,1.2939 -1.32279033,3.4167 -0.0214844,4.7168 l 16.66015609,16.6348 c 0.625517,0.6249 1.473312,0.9785 2.359375,0.9785 0.774284,0 1.48495,-0.3172 2.072266,-0.7949 l 0.0918,0 0.195313,-0.1934 0,0 0.002,0 16.710938,-16.6211 c 1.299418,-1.2987 1.287119,-3.423 -0.0098,-4.7188 l -16.701189,-16.7167 c -0.633289,-0.6328 -1.490847,-0.9551 -2.361328,-0.9551 z m 0,1.3418 c 0.545059,0 1.046372,0.1932 1.414062,0.5606 l 16.701172,16.7148 c 0.787395,0.7867 0.793928,2.0386 0.0098,2.8223 l -16.513672,16.4258 -0.002,0 -0.195313,0.1953 c -0.379538,0.3792 -0.892671,0.5996 -1.414062,0.5996 -0.529457,0 -1.036667,-0.2109 -1.41211,-0.586 L 1.8981945,1033.8017 c -0.7825718,-0.7819 -0.7679972,-2.0334 0.021484,-2.8223 l 0.00195,0 16.6367185,-16.6797 c 0.378572,-0.3782 0.888901,-0.5957 1.41211,-0.5957 z"
       id="path252"
       inkscape:connector-curvature="0" />
  </g>
</svg>
