<?xml version="1.0" encoding="UTF-8" standalone="no"?>
<!-- Created with Inkscape (http://www.inkscape.org/) -->

<svg
   xmlns:dc="http://purl.org/dc/elements/1.1/"
   xmlns:cc="http://creativecommons.org/ns#"
   xmlns:rdf="http://www.w3.org/1999/02/22-rdf-syntax-ns#"
   xmlns:svg="http://www.w3.org/2000/svg"
   xmlns="http://www.w3.org/2000/svg"
   xmlns:sodipodi="http://sodipodi.sourceforge.net/DTD/sodipodi-0.dtd"
   xmlns:inkscape="http://www.inkscape.org/namespaces/inkscape"
   width="40"
   height="40"
   viewBox="0 0 40 40.000001"
   id="svg5420"
   version="1.1"
   inkscape:version="0.91 r13725"
   sodipodi:docname="help.svg">
  <defs
     id="defs5422">
    <clipPath
       clipPathUnits="userSpaceOnUse"
       id="clipPath538">
      <path
         d="m 0,2245.587 2560,0 L 2560,0 0,0 0,2245.587 Z"
         id="path540"
         inkscape:connector-curvature="0" />
    </clipPath>
  </defs>
  <sodipodi:namedview
     id="base"
     pagecolor="#ffffff"
     bordercolor="#666666"
     borderopacity="1.0"
     inkscape:pageopacity="0.0"
     inkscape:pageshadow="2"
     inkscape:zoom="7.9195959"
     inkscape:cx="23.992526"
     inkscape:cy="19.295526"
     inkscape:document-units="px"
     inkscape:current-layer="layer1"
     showgrid="false"
     units="px"
     inkscape:window-width="1323"
     inkscape:window-height="744"
     inkscape:window-x="1397"
     inkscape:window-y="24"
     inkscape:window-maximized="1" />
  <metadata
     id="metadata5425">
    <rdf:RDF>
      <cc:Work
         rdf:about="">
        <dc:format>image/svg+xml</dc:format>
        <dc:type
           rdf:resource="http://purl.org/dc/dcmitype/StillImage" />
        <dc:title></dc:title>
      </cc:Work>
    </rdf:RDF>
  </metadata>
  <g
     inkscape:label="Layer 1"
     inkscape:groupmode="layer"
     id="layer1"
     transform="translate(0,-1012.3622)">
    <path
       d="m 14.186912,1047.4704 c 0,-2.8185 2.243764,-4.8323 4.891601,-4.8323 2.588703,0 4.835753,2.0138 4.835753,4.8323 0,2.8779 -2.24705,4.8918 -4.835753,4.8918 -2.647837,0 -4.891601,-2.0139 -4.891601,-4.8918 m 1.323919,-17.9006 2.644553,0 c 4.72077,0 6.448764,-2.5886 6.448764,-5.4665 0,-2.4179 -1.842973,-4.8358 -4.835753,-4.8358 -3.163606,0 -4.720772,1.4389 -6.100537,3.7417 l -6.215518,-3.6269 c 2.069648,-4.5466 6.27465,-7.0201 12.316055,-7.0201 8.232606,0 12.779265,5.6964 12.779265,11.7411 0,6.1564 -3.452702,10.3023 -9.786485,11.222 l 0,3.397 -7.250344,0 0,-9.1525 z"
       style="fill:#000000;fill-opacity:1;fill-rule:nonzero;stroke:none"
       id="path548"
       inkscape:connector-curvature="0" />
  </g>
</svg>
