<?xml version="1.0" encoding="UTF-8" standalone="no"?>
<!-- Created with Inkscape (http://www.inkscape.org/) -->

<svg
   xmlns:dc="http://purl.org/dc/elements/1.1/"
   xmlns:cc="http://creativecommons.org/ns#"
   xmlns:rdf="http://www.w3.org/1999/02/22-rdf-syntax-ns#"
   xmlns:svg="http://www.w3.org/2000/svg"
   xmlns="http://www.w3.org/2000/svg"
   xmlns:sodipodi="http://sodipodi.sourceforge.net/DTD/sodipodi-0.dtd"
   xmlns:inkscape="http://www.inkscape.org/namespaces/inkscape"
   width="40"
   height="40"
   viewBox="0 0 40.000002 40.000001"
   id="svg7270"
   version="1.1"
   inkscape:version="0.91 r13725"
   sodipodi:docname="icon-instagram.svg">
  <defs
     id="defs7272" />
  <sodipodi:namedview
     id="base"
     pagecolor="#ffffff"
     bordercolor="#666666"
     borderopacity="1.0"
     inkscape:pageopacity="0.0"
     inkscape:pageshadow="2"
     inkscape:zoom="7.9195959"
     inkscape:cx="10.186182"
     inkscape:cy="22.813854"
     inkscape:document-units="px"
     inkscape:current-layer="layer1"
     showgrid="false"
     units="px"
     inkscape:window-width="1329"
     inkscape:window-height="744"
     inkscape:window-x="37"
     inkscape:window-y="24"
     inkscape:window-maximized="1" />
  <metadata
     id="metadata7275">
    <rdf:RDF>
      <cc:Work
         rdf:about="">
        <dc:format>image/svg+xml</dc:format>
        <dc:type
           rdf:resource="http://purl.org/dc/dcmitype/StillImage" />
        <dc:title></dc:title>
      </cc:Work>
    </rdf:RDF>
  </metadata>
  <g
     inkscape:label="Layer 1"
     inkscape:groupmode="layer"
     id="layer1"
     transform="translate(0,-1012.3622)">
    <path
       d="m 35.976575,1040.4471 c 0,4.3583 -3.533453,7.8918 -7.891769,7.8918 l -16.168178,0 c -4.3597777,0 -7.8932304,-3.5335 -7.8932304,-7.8918 l 0,-16.1682 c 0,-4.3599 3.5334527,-7.8933 7.8932304,-7.8933 l 16.168178,0 c 4.358316,0 7.891769,3.5334 7.891769,7.8933 l 0,16.1682 z m -7.893231,-28.0849 -16.166716,0 C 5.3455173,1012.3622 0,1017.7077 0,1024.2789 l 0,16.1682 c 0,6.5696 5.3455173,11.9151 11.916628,11.9151 l 16.168178,0 c 6.569649,0 11.915166,-5.3455 11.915166,-11.9151 l 0,-16.1682 c 0,-6.5712 -5.345517,-11.9167 -11.916628,-11.9167"
       style="fill:#000000;fill-opacity:1;fill-rule:nonzero;stroke:none"
       id="path174"
       inkscape:connector-curvature="0" />
    <path
       d="m 20.000278,1038.6839 c -3.491039,0 -6.322481,-2.8301 -6.322481,-6.321 0,-3.4911 2.831442,-6.3226 6.322481,-6.3226 3.49104,0 6.321019,2.8315 6.321019,6.3226 0,3.4909 -2.829979,6.321 -6.321019,6.321 m 0,-16.667 c -5.705297,0 -10.3458789,4.6406 -10.3458789,10.346 0,5.7038 4.6405819,10.3443 10.3458789,10.3443 5.703835,0 10.34588,-4.6405 10.34588,-10.3443 0,-5.7054 -4.642045,-10.346 -10.34588,-10.346"
       style="fill:#000000;fill-opacity:1;fill-rule:nonzero;stroke:none"
       id="path178"
       inkscape:connector-curvature="0" />
    <path
       d="m 32.844298,1022.0947 c 0,1.3689 -1.110054,2.479 -2.478975,2.479 -1.368921,0 -2.478975,-1.1101 -2.478975,-2.479 0,-1.3704 1.110054,-2.4789 2.478975,-2.4789 1.368921,0 2.478975,1.1085 2.478975,2.4789"
       style="fill:#000000;fill-opacity:1;fill-rule:nonzero;stroke:none"
       id="path182"
       inkscape:connector-curvature="0" />
  </g>
</svg>
