<?xml version="1.0" encoding="UTF-8" standalone="no"?>
<!-- Created with Inkscape (http://www.inkscape.org/) -->

<svg
   xmlns:dc="http://purl.org/dc/elements/1.1/"
   xmlns:cc="http://creativecommons.org/ns#"
   xmlns:rdf="http://www.w3.org/1999/02/22-rdf-syntax-ns#"
   xmlns:svg="http://www.w3.org/2000/svg"
   xmlns="http://www.w3.org/2000/svg"
   xmlns:sodipodi="http://sodipodi.sourceforge.net/DTD/sodipodi-0.dtd"
   xmlns:inkscape="http://www.inkscape.org/namespaces/inkscape"
   width="40"
   height="40"
   viewBox="0 0 40.000002 40.000001"
   id="svg7270"
   version="1.1"
   inkscape:version="0.91 r13725"
   sodipodi:docname="twitter.svg">
  <defs
     id="defs7272" />
  <sodipodi:namedview
     id="base"
     pagecolor="#ffffff"
     bordercolor="#666666"
     borderopacity="1.0"
     inkscape:pageopacity="0.0"
     inkscape:pageshadow="2"
     inkscape:zoom="7.9195959"
     inkscape:cx="16.625905"
     inkscape:cy="22.813854"
     inkscape:document-units="px"
     inkscape:current-layer="layer1"
     showgrid="false"
     units="px"
     inkscape:window-width="1323"
     inkscape:window-height="744"
     inkscape:window-x="1397"
     inkscape:window-y="24"
     inkscape:window-maximized="1" />
  <metadata
     id="metadata7275">
    <rdf:RDF>
      <cc:Work
         rdf:about="">
        <dc:format>image/svg+xml</dc:format>
        <dc:type
           rdf:resource="http://purl.org/dc/dcmitype/StillImage" />
        <dc:title></dc:title>
      </cc:Work>
    </rdf:RDF>
  </metadata>
  <g
     inkscape:label="Layer 1"
     inkscape:groupmode="layer"
     id="layer1"
     transform="translate(0,-1012.3622)">
    <path
       d="m 4.1856748,1044.9485 c 2.6757752,1.1892 5.5842798,1.8106 8.5281202,1.8106 3.254551,0 6.293432,-0.6433 9.032569,-1.9117 2.50397,-1.16 4.717943,-2.8195 6.580994,-4.9337 1.741204,-1.9751 3.103461,-4.2561 4.048998,-6.7832 0.900455,-2.4041 1.375661,-4.9665 1.375661,-7.4108 l 0,-0.123 c 0,-0.7835 0.352139,-1.5194 0.966253,-2.019 0.45571,-0.3693 0.88705,-0.7652 1.294022,-1.1843 -0.04509,0.011 -0.09139,0.023 -0.13647,0.033 l -4.402356,1.0491 3.280139,-3.1181 c 0.281468,-0.2668 0.539785,-0.5568 0.770077,-0.8662 -0.675036,0.2729 -1.370786,0.4995 -2.078721,0.6786 -0.684784,0.1791 -1.485323,-0.01 -2.043386,-0.4983 -1.805782,-1.5938 -4.353617,-2.1238 -6.758891,-1.3781 -2.21641,0.6872 -3.925933,2.5149 -4.4645,4.7715 -0.204704,0.8615 -0.260754,1.7242 -0.165713,2.5612 0.04874,0.4362 -0.0926,0.8676 -0.386257,1.1881 -0.275376,0.3107 -0.68844,0.4959 -1.120999,0.4959 l -0.180334,-0.01 c -5.628144,-0.5227 -10.7701176,-3.101 -14.577858,-7.2963 -0.2875605,0.769 -0.4362147,1.5865 -0.4362147,2.415 0,1.8607 0.7274307,3.6019 2.0506966,4.9045 l 3.1095531,3.0608 -4.2463919,-1.0065 c -0.2960901,-0.07 -0.5885245,-0.1572 -0.876085,-0.2583 0.3838202,2.2115 1.8325893,4.1306 3.9174033,5.0835 l 4.8531946,2.2163 -5.5318863,0.1122 c -0.062143,0 -0.1230661,0 -0.1852084,0 1.0064619,1.8423 2.8402694,3.1741 4.9433607,3.5153 l 3.047411,0.4934 -2.563675,1.7205 c -2.2895187,1.5377 -4.9080256,2.4553 -7.6435062,2.6892 m 8.5281202,4.2477 c -4.1367298,0 -8.2100978,-1.0991 -11.78023518,-3.1778 -0.72621225,-0.4204 -1.0844444,-1.2734 -0.87364796,-2.0727 0.21201496,-0.8078 0.94553824,-1.3744 1.78506874,-1.3744 l 0.9370087,0 c 1.854522,0 3.6663971,-0.3655 5.3478952,-1.0723 -2.1298976,-1.1246 -3.8016479,-3.0584 -4.5510113,-5.399 -0.1498726,-0.4679 -0.085293,-0.9602 0.1669314,-1.366 -1.8691436,-1.7582 -2.96577288,-4.2512 -2.93409252,-6.9075 0.006094,-0.5824 0.31193022,-1.1063 0.81759812,-1.4 0.037773,-0.023 0.074327,-0.042 0.1133183,-0.06 -0.5690287,-1.2184 -0.86877409,-2.56 -0.86877409,-3.9478 0,-1.6462 0.43621479,-3.2668 1.26112359,-4.6839 0.2729389,-0.4666 0.7554558,-0.77 1.292804,-0.8114 0.5434407,-0.048 1.062512,0.1839 1.4012486,0.6018 3.2265268,3.9589 7.7056484,6.4994 12.7026214,7.2257 0.0049,-0.7458 0.09748,-1.5001 0.276594,-2.2518 0.735961,-3.0889 3.079091,-5.5928 6.113099,-6.5335 3.171696,-0.987 6.59196,-0.2839 9.022822,1.8167 1.242846,-0.3241 2.433298,-0.8212 3.539675,-1.4768 0.590961,-0.3521 1.31961,-0.3022 1.859396,0.1267 0.538566,0.4278 0.7518,1.1272 0.543441,1.7828 -0.0987,0.3081 -0.213234,0.6103 -0.343611,0.9052 0.405752,0.047 0.788354,0.2437 1.067386,0.5764 0.475206,0.5653 0.520289,1.3561 0.109663,1.9702 -0.96016,1.4354 -2.126242,2.7148 -3.465349,3.8029 -0.02924,0.024 -0.0658,0.066 -0.0658,0.1268 l 0,0.123 c 0,2.7331 -0.528819,5.5917 -1.530407,8.265 -1.050327,2.8061 -2.564894,5.3429 -4.50349,7.5399 -2.087251,2.3699 -4.571725,4.2317 -7.38519,5.533 -3.060813,1.4196 -6.444523,2.1385 -10.056089,2.1385"
       style="fill:#000000;fill-opacity:1;fill-rule:nonzero;stroke:none"
       id="path2816"
       inkscape:connector-curvature="0" />
  </g>
</svg>
