<?xml version="1.0" encoding="UTF-8" standalone="no"?>
<!-- Created with Inkscape (http://www.inkscape.org/) -->

<svg
   xmlns:dc="http://purl.org/dc/elements/1.1/"
   xmlns:cc="http://creativecommons.org/ns#"
   xmlns:rdf="http://www.w3.org/1999/02/22-rdf-syntax-ns#"
   xmlns:svg="http://www.w3.org/2000/svg"
   xmlns="http://www.w3.org/2000/svg"
   xmlns:sodipodi="http://sodipodi.sourceforge.net/DTD/sodipodi-0.dtd"
   xmlns:inkscape="http://www.inkscape.org/namespaces/inkscape"
   width="40"
   height="40"
   viewBox="0 0 40.000002 40.000001"
   id="svg7270"
   version="1.1"
   inkscape:version="0.91 r13725"
   sodipodi:docname="youtube.svg">
  <defs
     id="defs7272" />
  <sodipodi:namedview
     id="base"
     pagecolor="#ffffff"
     bordercolor="#666666"
     borderopacity="1.0"
     inkscape:pageopacity="0.0"
     inkscape:pageshadow="2"
     inkscape:zoom="7.9195959"
     inkscape:cx="33.293422"
     inkscape:cy="22.813854"
     inkscape:document-units="px"
     inkscape:current-layer="layer1"
     showgrid="false"
     units="px"
     inkscape:window-width="1323"
     inkscape:window-height="744"
     inkscape:window-x="1397"
     inkscape:window-y="24"
     inkscape:window-maximized="1" />
  <metadata
     id="metadata7275">
    <rdf:RDF>
      <cc:Work
         rdf:about="">
        <dc:format>image/svg+xml</dc:format>
        <dc:type
           rdf:resource="http://purl.org/dc/dcmitype/StillImage" />
        <dc:title></dc:title>
      </cc:Work>
    </rdf:RDF>
  </metadata>
  <g
     inkscape:label="Layer 1"
     inkscape:groupmode="layer"
     id="layer1"
     transform="translate(0,-1012.3622)">
    <path
       d="m 16.010376,1028.5543 0,7.6645 7.791825,-3.7156 -7.791825,-3.9489 z m -0.766216,10.4713 c -0.294699,0 -0.588218,-0.082 -0.848732,-0.2465 -0.464444,-0.2923 -0.74264,-0.7956 -0.74264,-1.3462 l 0,-10.1258 c 0,-0.5576 0.284089,-1.0645 0.759144,-1.3556 0.475054,-0.2923 1.05502,-0.3159 1.552471,-0.063 l 10.293225,5.2161 c 0.544602,0.2748 0.87938,0.8264 0.872307,1.4395 -0.0071,0.6118 -0.354817,1.1552 -0.907671,1.4181 l -10.290868,4.9072 c -0.219255,0.105 -0.453835,0.1569 -0.687236,0.1569 m -6.2476066,-18.803 c -3.6601544,0 -6.6389657,2.9776 -6.6389657,6.6377 l 0,11.0017 c 0,3.6602 2.9788113,6.639 6.6389657,6.639 l 22.0068976,0 c 3.660154,0 6.638967,-2.9788 6.638967,-6.639 l 0,-11.0017 c 0,-3.6601 -2.978813,-6.6377 -6.638967,-6.6377 l -22.0068976,0 z m 22.0068976,26.636 -22.0068976,0 C 4.0361901,1046.8587 -1.1581393e-7,1042.8226 -1.1581393e-7,1037.8622 l 0,-11.0017 c 0,-4.9604 4.03619021581393,-8.9954 8.99655351581393,-8.9954 l 22.0068976,0 c 4.960364,0 8.996554,4.035 8.996554,8.9954 l 0,11.0017 c 0,4.9604 -4.03619,8.9965 -8.996554,8.9965"
       style="fill:#000000;fill-opacity:1;fill-rule:nonzero;stroke:none"
       id="path186"
       inkscape:connector-curvature="0" />
  </g>
</svg>
