<?xml version="1.0" encoding="UTF-8" standalone="no"?>
<!-- Created with Inkscape (http://www.inkscape.org/) -->

<svg
   xmlns:dc="http://purl.org/dc/elements/1.1/"
   xmlns:cc="http://creativecommons.org/ns#"
   xmlns:rdf="http://www.w3.org/1999/02/22-rdf-syntax-ns#"
   xmlns:svg="http://www.w3.org/2000/svg"
   xmlns="http://www.w3.org/2000/svg"
   xmlns:sodipodi="http://sodipodi.sourceforge.net/DTD/sodipodi-0.dtd"
   xmlns:inkscape="http://www.inkscape.org/namespaces/inkscape"
   width="40"
   height="40"
   viewBox="0 0 40 40.000001"
   id="svg5420"
   version="1.1"
   inkscape:version="0.91 r13725"
   sodipodi:docname="card-number.svg">
  <defs
     id="defs5422">
    <clipPath
       clipPathUnits="userSpaceOnUse"
       id="clipPath538">
      <path
         d="m 0,2245.587 2560,0 L 2560,0 0,0 0,2245.587 Z"
         id="path540"
         inkscape:connector-curvature="0" />
    </clipPath>
  </defs>
  <sodipodi:namedview
     id="base"
     pagecolor="#ffffff"
     bordercolor="#666666"
     borderopacity="1.0"
     inkscape:pageopacity="0.0"
     inkscape:pageshadow="2"
     inkscape:zoom="7.9195959"
     inkscape:cx="24.168016"
     inkscape:cy="17.474496"
     inkscape:document-units="px"
     inkscape:current-layer="layer1"
     showgrid="false"
     units="px"
     inkscape:window-width="1323"
     inkscape:window-height="744"
     inkscape:window-x="1397"
     inkscape:window-y="24"
     inkscape:window-maximized="1" />
  <metadata
     id="metadata5425">
    <rdf:RDF>
      <cc:Work
         rdf:about="">
        <dc:format>image/svg+xml</dc:format>
        <dc:type
           rdf:resource="http://purl.org/dc/dcmitype/StillImage" />
        <dc:title></dc:title>
      </cc:Work>
    </rdf:RDF>
  </metadata>
  <g
     inkscape:label="Layer 1"
     inkscape:groupmode="layer"
     id="layer1"
     transform="translate(0,-1012.3622)">
    <path
       d="m 36.2076,1043.7413 -32.4152,0 c -0.1899,0 -0.3451,-0.1554 -0.3451,-0.3451 l 0,-15.5166 33.1054,0 0,15.5166 c 0,0.1897 -0.1552,0.3451 -0.3451,0.3451 m -32.4152,-22.76 32.4152,0 c 0.1899,0 0.3451,0.1553 0.3451,0.3451 l 0,3.1041 -33.1054,0 0,-3.1041 c 0,-0.1898 0.1552,-0.3451 0.3451,-0.3451 m 32.4152,-3.4473 -32.4152,0 c -2.0899,0 -3.7924,1.7026 -3.7924,3.7924 l 0,22.0698 c 0,2.0917 1.7025,3.7942 3.7924,3.7942 l 32.4152,0 c 2.0919,0 3.7924,-1.7025 3.7924,-3.7942 l 0,-22.0698 c 0,-2.0898 -1.7005,-3.7924 -3.7924,-3.7924"
       style="fill:#000000;fill-opacity:1;fill-rule:nonzero;stroke:none"
       id="path568"
       inkscape:connector-curvature="0" />
    <path
       d="m 5.5179,1041.7159 14.4831,0 0,-2.0688 -14.4831,0 0,2.0688 z"
       style="fill:#000000;fill-opacity:1;fill-rule:nonzero;stroke:none"
       id="path570"
       inkscape:connector-curvature="0" />
    <path
       d="m 22.0486,1041.7159 3.4491,0 0,-2.0688 -3.4491,0 0,2.0688 z"
       style="fill:#000000;fill-opacity:1;fill-rule:nonzero;stroke:none"
       id="path572"
       inkscape:connector-curvature="0" />
  </g>
</svg>
