<?xml version="1.0" encoding="UTF-8" standalone="no"?>
<!-- Created with Inkscape (http://www.inkscape.org/) -->

<svg
   xmlns:dc="http://purl.org/dc/elements/1.1/"
   xmlns:cc="http://creativecommons.org/ns#"
   xmlns:rdf="http://www.w3.org/1999/02/22-rdf-syntax-ns#"
   xmlns:svg="http://www.w3.org/2000/svg"
   xmlns="http://www.w3.org/2000/svg"
   xmlns:sodipodi="http://sodipodi.sourceforge.net/DTD/sodipodi-0.dtd"
   xmlns:inkscape="http://www.inkscape.org/namespaces/inkscape"
   width="40"
   height="40"
   viewBox="0 0 40 40.000001"
   id="svg7270"
   version="1.1"
   inkscape:version="0.91 r13725"
   sodipodi:docname="icon-cd.svg">
  <defs
     id="defs7272">
    <linearGradient
       x1="0"
       y1="0"
       x2="1"
       y2="0"
       gradientUnits="userSpaceOnUse"
       gradientTransform="matrix(52.27025,0,0,-52.27025,-1483.1365,-7838.0029)"
       spreadMethod="pad"
       id="linearGradient448">
      <stop
         style="stop-opacity:1;stop-color:#e43345"
         offset="0"
         id="stop450" />
      <stop
         style="stop-opacity:1;stop-color:#e43345"
         offset="0.308693"
         id="stop452" />
      <stop
         style="stop-opacity:1;stop-color:#2cb4bf"
         offset="0.623585"
         id="stop454" />
      <stop
         style="stop-opacity:1;stop-color:#2cb4bf"
         offset="1"
         id="stop456" />
    </linearGradient>
    <linearGradient
       x1="0"
       y1="0"
       x2="1"
       y2="0"
       gradientUnits="userSpaceOnUse"
       gradientTransform="matrix(0,48.20225,48.20225,0,10.185922,-8098.5803)"
       spreadMethod="pad"
       id="linearGradient2598">
      <stop
         style="stop-opacity:1;stop-color:#e43345"
         offset="0"
         id="stop2600" />
      <stop
         style="stop-opacity:1;stop-color:#e43345"
         offset="0.308693"
         id="stop2602" />
      <stop
         style="stop-opacity:1;stop-color:#2cb4bf"
         offset="0.623585"
         id="stop2604" />
      <stop
         style="stop-opacity:1;stop-color:#2cb4bf"
         offset="1"
         id="stop2606" />
    </linearGradient>
    <linearGradient
       x1="0"
       y1="0"
       x2="1"
       y2="0"
       gradientUnits="userSpaceOnUse"
       gradientTransform="matrix(0,23.75,23.75,0,21.676422,-8078.3988)"
       spreadMethod="pad"
       id="linearGradient2584">
      <stop
         style="stop-opacity:1;stop-color:#e43345"
         offset="0"
         id="stop2586" />
      <stop
         style="stop-opacity:1;stop-color:#e43345"
         offset="0.308693"
         id="stop2588" />
      <stop
         style="stop-opacity:1;stop-color:#2cb4bf"
         offset="0.623585"
         id="stop2590" />
      <stop
         style="stop-opacity:1;stop-color:#2cb4bf"
         offset="1"
         id="stop2592" />
    </linearGradient>
    <linearGradient
       x1="0"
       y1="0"
       x2="1"
       y2="0"
       gradientUnits="userSpaceOnUse"
       gradientTransform="matrix(0,40.012684,40.012684,0,19.999828,-6490.1954)"
       spreadMethod="pad"
       id="linearGradient2716">
      <stop
         style="stop-opacity:1;stop-color:#e43345"
         offset="0"
         id="stop2718" />
      <stop
         style="stop-opacity:1;stop-color:#e43345"
         offset="0.308693"
         id="stop2720" />
      <stop
         style="stop-opacity:1;stop-color:#2cb4bf"
         offset="0.623585"
         id="stop2722" />
      <stop
         style="stop-opacity:1;stop-color:#2cb4bf"
         offset="1"
         id="stop2724" />
    </linearGradient>
    <linearGradient
       x1="0"
       y1="0"
       x2="1"
       y2="0"
       gradientUnits="userSpaceOnUse"
       gradientTransform="matrix(0,19.712369,19.712369,0,3.9586329,-6504.7298)"
       spreadMethod="pad"
       id="linearGradient2744">
      <stop
         style="stop-opacity:1;stop-color:#e43345"
         offset="0"
         id="stop2746" />
      <stop
         style="stop-opacity:1;stop-color:#e43345"
         offset="0.308693"
         id="stop2748" />
      <stop
         style="stop-opacity:1;stop-color:#2cb4bf"
         offset="0.623585"
         id="stop2750" />
      <stop
         style="stop-opacity:1;stop-color:#2cb4bf"
         offset="1"
         id="stop2752" />
    </linearGradient>
    <linearGradient
       x1="0"
       y1="0"
       x2="1"
       y2="0"
       gradientUnits="userSpaceOnUse"
       gradientTransform="matrix(0,19.712369,19.712369,0,22.633508,-6504.7298)"
       spreadMethod="pad"
       id="linearGradient2730">
      <stop
         style="stop-opacity:1;stop-color:#e43345"
         offset="0"
         id="stop2732" />
      <stop
         style="stop-opacity:1;stop-color:#e43345"
         offset="0.308693"
         id="stop2734" />
      <stop
         style="stop-opacity:1;stop-color:#2cb4bf"
         offset="0.623585"
         id="stop2736" />
      <stop
         style="stop-opacity:1;stop-color:#2cb4bf"
         offset="1"
         id="stop2738" />
    </linearGradient>
    <clipPath
       clipPathUnits="userSpaceOnUse"
       id="clipPath1632">
      <path
         d="m 0,7263 2560,0 L 2560,0 0,0 0,7263 Z"
         id="path1634"
         inkscape:connector-curvature="0" />
    </clipPath>
    <clipPath
       clipPathUnits="userSpaceOnUse"
       id="clipPath1306">
      <path
         d="m 0,7263 2560,0 L 2560,0 0,0 0,7263 Z"
         id="path1308"
         inkscape:connector-curvature="0" />
    </clipPath>
    <clipPath
       clipPathUnits="userSpaceOnUse"
       id="clipPath1318">
      <path
         d="m 950.637,1106.79 107.143,0 0,-29.49 -107.143,0 0,29.49 z"
         id="path1320"
         inkscape:connector-curvature="0" />
    </clipPath>
    <clipPath
       clipPathUnits="userSpaceOnUse"
       id="clipPath1346">
      <path
         d="m 950.637,1031.63 90.143,0 0,-29.49 -90.143,0 0,29.49 z"
         id="path1348"
         inkscape:connector-curvature="0" />
    </clipPath>
    <clipPath
       clipPathUnits="userSpaceOnUse"
       id="clipPath1370">
      <path
         d="m 950.637,958.005 90.143,0 0,-29.484 -90.143,0 0,29.484 z"
         id="path1372"
         inkscape:connector-curvature="0" />
    </clipPath>
  </defs>
  <sodipodi:namedview
     id="base"
     pagecolor="#ffffff"
     bordercolor="#666666"
     borderopacity="1.0"
     inkscape:pageopacity="0.0"
     inkscape:pageshadow="2"
     inkscape:zoom="5.6"
     inkscape:cx="-7.4658368"
     inkscape:cy="26.652378"
     inkscape:document-units="px"
     inkscape:current-layer="layer1"
     showgrid="false"
     units="px"
     inkscape:window-width="1329"
     inkscape:window-height="744"
     inkscape:window-x="37"
     inkscape:window-y="24"
     inkscape:window-maximized="1" />
  <metadata
     id="metadata7275">
    <rdf:RDF>
      <cc:Work
         rdf:about="">
        <dc:format>image/svg+xml</dc:format>
        <dc:type
           rdf:resource="http://purl.org/dc/dcmitype/StillImage" />
        <dc:title></dc:title>
      </cc:Work>
    </rdf:RDF>
  </metadata>
  <g
     inkscape:label="Layer 1"
     inkscape:groupmode="layer"
     id="layer1"
     transform="translate(0,-1012.3622)">
    <path
       d="m 18.04599,1040.1221 c 0.64381,0.166 1.297921,0.251 1.945594,0.251 4.412673,0 8.002556,-3.5899 8.002556,-8.0038 0,-0.6476 -0.0837,-1.3018 -0.249798,-1.9443 l 8.75839,-3.7522 c 0.634797,1.8272 0.956702,3.7444 0.956702,5.7042 0.0077,4.6483 -1.803956,9.0262 -5.10155,12.329 -3.304032,3.3092 -7.693528,5.1311 -12.358575,5.1311 -1.937867,0 -3.856421,-0.3219 -5.705443,-0.9566 l 3.752124,-8.7584 z m -4.802821,-3.4882 c 0.633509,0.9954 1.488488,1.8516 2.485106,2.4851 l -3.752124,8.7597 c -3.184283,-1.6584 -5.834205,-4.3084 -7.492659,-7.4927 l 8.759677,-3.7521 z m 6.75614,1.2065 c -3.020755,0 -5.477534,-2.4581 -5.477534,-5.4775 0,-3.0221 2.456779,-5.4789 5.477534,-5.4789 3.020756,0 5.478822,2.4568 5.478822,5.4789 0,3.0194 -2.458066,5.4775 -5.478822,5.4775 m 6.757429,-9.7498 c -0.634797,-0.9954 -1.489776,-1.8504 -2.486394,-2.4851 l 3.752124,-8.7598 c 3.184284,1.6572 5.834206,4.3084 7.49266,7.4927 l -8.75839,3.7522 z m -4.804109,-3.4882 c -0.651536,-0.1674 -1.304359,-0.2511 -1.945594,-0.2511 -4.412673,0 -8.002556,3.5899 -8.002556,8.0025 0,0.649 0.08498,1.3031 0.249798,1.9469 l -8.773841,3.7663 c -0.634796,-1.8271 -0.956701,-3.7444 -0.956701,-5.7041 0,-9.6366 7.840316,-17.477 17.475574,-17.477 1.937868,0 3.856422,0.3219 5.705444,0.958 l -3.752124,8.7585 z m -1.95332,-12.2402 C 8.972134,1012.3622 0,1021.3343 0,1032.3629 c 0,11.0272 8.972134,19.9993 19.999309,19.9993 11.028464,0 20.000598,-8.9721 20.000598,-19.9993 0,-11.0286 -8.972134,-20.0007 -20.000598,-20.0007"
       style="fill:#000000;fill-opacity:1;fill-rule:nonzero;stroke:none"
       id="path1698"
       inkscape:connector-curvature="0" />
    <path
       d="m 21.463127,1032.3624 c 0,0.8073 -0.656686,1.4639 -1.464024,1.4639 -0.807337,0 -1.462736,-0.6566 -1.462736,-1.4639 0,-0.8074 0.655399,-1.4641 1.462736,-1.4641 0.807338,0 1.464024,0.6567 1.464024,1.4641 m -1.464024,-3.9891 c -2.199254,0 -3.987758,1.7898 -3.987758,3.9891 0,2.1992 1.788504,3.9877 3.987758,3.9877 2.199255,0 3.987759,-1.7885 3.987759,-3.9877 0,-2.1993 -1.788504,-3.9891 -3.987759,-3.9891"
       style="fill:#000000;fill-opacity:1;fill-rule:nonzero;stroke:none"
       id="path1702"
       inkscape:connector-curvature="0" />
  </g>
</svg>
