<?xml version="1.0" encoding="UTF-8" standalone="no"?>
<!-- Created with Inkscape (http://www.inkscape.org/) -->

<svg
   xmlns:dc="http://purl.org/dc/elements/1.1/"
   xmlns:cc="http://creativecommons.org/ns#"
   xmlns:rdf="http://www.w3.org/1999/02/22-rdf-syntax-ns#"
   xmlns:svg="http://www.w3.org/2000/svg"
   xmlns="http://www.w3.org/2000/svg"
   xmlns:sodipodi="http://sodipodi.sourceforge.net/DTD/sodipodi-0.dtd"
   xmlns:inkscape="http://www.inkscape.org/namespaces/inkscape"
   width="36.129002"
   height="40"
   viewBox="0 0 36.129003 40.000001"
   id="svg7270"
   version="1.1"
   inkscape:version="0.91 r13725"
   sodipodi:docname="icon-turn-on.svg">
  <defs
     id="defs7272" />
  <sodipodi:namedview
     id="base"
     pagecolor="#ffffff"
     bordercolor="#666666"
     borderopacity="1.0"
     inkscape:pageopacity="0.0"
     inkscape:pageshadow="2"
     inkscape:zoom="3.959798"
     inkscape:cx="-3.444916"
     inkscape:cy="8.5703873"
     inkscape:document-units="px"
     inkscape:current-layer="layer1"
     showgrid="false"
     units="px"
     inkscape:window-width="1329"
     inkscape:window-height="744"
     inkscape:window-x="37"
     inkscape:window-y="24"
     inkscape:window-maximized="1" />
  <metadata
     id="metadata7275">
    <rdf:RDF>
      <cc:Work
         rdf:about="">
        <dc:format>image/svg+xml</dc:format>
        <dc:type
           rdf:resource="http://purl.org/dc/dcmitype/StillImage" />
        <dc:title></dc:title>
      </cc:Work>
    </rdf:RDF>
  </metadata>
  <g
     inkscape:label="Layer 1"
     inkscape:groupmode="layer"
     id="layer1"
     transform="translate(0,-1012.3622)">
    <path
       d="M 18.0643,1052.3622 C 8.1032449,1052.3622 0,1044.2581 0,1034.2979 c 0,-6.601 3.5989956,-12.6744 9.3918049,-15.8501 0.9378751,-0.5138 2.1138901,-0.1704 2.6276831,0.7666 0.513792,0.9371 0.170448,2.1139 -0.766612,2.6277 -4.5539971,2.4964 -7.3823042,7.2689 -7.3823042,12.4558 0,7.826 6.3677682,14.1929 14.1937282,14.1929 7.82596,0 14.193728,-6.3669 14.193728,-14.1929 0,-5.2097 -2.847064,-9.992 -7.429606,-12.4819 -0.939507,-0.5105 -1.286929,-1.6849 -0.777214,-2.6244 0.510531,-0.9395 1.68573,-1.287 2.625237,-0.7772 5.830324,3.1676 9.452155,9.2539 9.452155,15.8835 0,9.9602 -8.103246,18.0643 -18.0643,18.0643"
       style="fill:#000000;fill-opacity:1;fill-rule:nonzero;stroke:none"
       id="path566"
       inkscape:connector-curvature="0" />
    <path
       d="m 18.0643,1029.1363 c -1.069178,0 -1.935286,-0.8661 -1.935286,-1.9353 l 0,-12.9035 c 0,-1.0683 0.866108,-1.9353 1.935286,-1.9353 1.069178,0 1.935286,0.867 1.935286,1.9353 l 0,12.9035 c 0,1.0692 -0.866108,1.9353 -1.935286,1.9353"
       style="fill:#000000;fill-opacity:1;fill-rule:nonzero;stroke:none"
       id="path570"
       inkscape:connector-curvature="0" />
  </g>
</svg>
