<?xml version="1.0" encoding="UTF-8" standalone="no"?>
<!-- Created with Inkscape (http://www.inkscape.org/) -->

<svg
   xmlns:dc="http://purl.org/dc/elements/1.1/"
   xmlns:cc="http://creativecommons.org/ns#"
   xmlns:rdf="http://www.w3.org/1999/02/22-rdf-syntax-ns#"
   xmlns:svg="http://www.w3.org/2000/svg"
   xmlns="http://www.w3.org/2000/svg"
   xmlns:sodipodi="http://sodipodi.sourceforge.net/DTD/sodipodi-0.dtd"
   xmlns:inkscape="http://www.inkscape.org/namespaces/inkscape"
   width="46.858002"
   height="40"
   viewBox="0 0 46.858004 40.000001"
   id="svg7270"
   version="1.1"
   inkscape:version="0.91 r13725"
   sodipodi:docname="icon-send-mail.svg">
  <defs
     id="defs7272" />
  <sodipodi:namedview
     id="base"
     pagecolor="#ffffff"
     bordercolor="#666666"
     borderopacity="1.0"
     inkscape:pageopacity="0.0"
     inkscape:pageshadow="2"
     inkscape:zoom="7.9195959"
     inkscape:cx="10.186182"
     inkscape:cy="22.813854"
     inkscape:document-units="px"
     inkscape:current-layer="layer1"
     showgrid="false"
     units="px"
     inkscape:window-width="1329"
     inkscape:window-height="744"
     inkscape:window-x="37"
     inkscape:window-y="24"
     inkscape:window-maximized="1" />
  <metadata
     id="metadata7275">
    <rdf:RDF>
      <cc:Work
         rdf:about="">
        <dc:format>image/svg+xml</dc:format>
        <dc:type
           rdf:resource="http://purl.org/dc/dcmitype/StillImage" />
        <dc:title></dc:title>
      </cc:Work>
    </rdf:RDF>
  </metadata>
  <g
     inkscape:label="Layer 1"
     inkscape:groupmode="layer"
     id="layer1"
     transform="translate(0,-1012.3622)">
    <path
       d="m 16.292899,1035.3169 0.645174,2.8247 c 0.0936,-0.6768 0.401145,-1.2451 0.87249,-1.6647 l 7.962722,-7.0401 -9.480386,5.8801 z m 8.253552,5.2216 11.429281,8.389 c 0.180515,0.1323 0.354345,0.094 0.444602,0.059 0.08859,-0.033 0.24403,-0.123 0.289159,-0.3392 l 6.797731,-32.4878 c 0.03844,-0.1821 -0.0468,-0.2991 -0.125358,-0.3644 -0.07856,-0.066 -0.20893,-0.1297 -0.379416,-0.063 l -0.0016,0 -39.1985231,15.2736 9.3516861,2.7612 c 0.218959,-0.4095 0.544889,-0.7738 0.967762,-1.0363 l 21.828958,-13.5369 c 0.95439,-0.5968 2.186238,-0.3644 2.864841,0.5449 0.671918,0.9059 0.541545,2.1494 -0.304201,2.8965 l -18.275484,16.1628 -0.431231,6.4885 4.741864,-4.7469 z m 11.701725,11.8237 c -0.797275,0 -1.586193,-0.2523 -2.249753,-0.7421 l -9.092614,-6.6724 -4.21369,4.304 c -0.847418,0.8641 -2.05921,1.2117 -3.227543,0.9309 -1.17502,-0.2808 -2.09431,-1.1365 -2.458683,-2.2898 l -3.505003,-11.13 -9.2614279,-2.7345 c -1.30204883,-0.3844 -2.17955287,-1.5077 -2.2363817,-2.8615 -0.05850026,-1.3539 0.72038902,-2.5473 1.9823234,-3.042 l 39.8002402,-15.5076 c 1.275306,-0.4965 2.712741,-0.2574 3.755717,0.6251 1.042977,0.8825 1.517664,2.2631 1.236863,3.6003 l -6.796059,32.486 c -0.264087,1.2736 -1.149948,2.3133 -2.365082,2.7795 -0.446274,0.1705 -0.909262,0.2541 -1.368907,0.2541"
       style="fill:#000000;fill-opacity:1;fill-rule:nonzero;stroke:none"
       id="path198"
       inkscape:connector-curvature="0" />
    <path
       d="m 14.082993,1034.3547 -12.1296139,-3.4314 5.0226659,-2.8181 34.79596,-13.7208 2.574012,0.244 1.121534,2.1495 -12.368629,10.6236 -4.529592,-0.6285 -14.486337,7.5817 z"
       style="fill:#000000;fill-opacity:1;fill-rule:nonzero;stroke:none"
       id="path202"
       inkscape:connector-curvature="0" />
  </g>
</svg>
