<?xml version="1.0" encoding="UTF-8" standalone="no"?>
<!-- Created with Inkscape (http://www.inkscape.org/) -->

<svg
   xmlns:dc="http://purl.org/dc/elements/1.1/"
   xmlns:cc="http://creativecommons.org/ns#"
   xmlns:rdf="http://www.w3.org/1999/02/22-rdf-syntax-ns#"
   xmlns:svg="http://www.w3.org/2000/svg"
   xmlns="http://www.w3.org/2000/svg"
   xmlns:sodipodi="http://sodipodi.sourceforge.net/DTD/sodipodi-0.dtd"
   xmlns:inkscape="http://www.inkscape.org/namespaces/inkscape"
   width="41.688999"
   height="40"
   viewBox="0 0 41.689001 40.000001"
   id="svg7270"
   version="1.1"
   inkscape:version="0.91 r13725"
   sodipodi:docname="icon-rating.svg">
  <defs
     id="defs7272">
    <linearGradient
       x1="0"
       y1="0"
       x2="1"
       y2="0"
       gradientUnits="userSpaceOnUse"
       gradientTransform="matrix(52.27025,0,0,-52.27025,-1483.1365,-7838.0029)"
       spreadMethod="pad"
       id="linearGradient448">
      <stop
         style="stop-opacity:1;stop-color:#e43345"
         offset="0"
         id="stop450" />
      <stop
         style="stop-opacity:1;stop-color:#e43345"
         offset="0.308693"
         id="stop452" />
      <stop
         style="stop-opacity:1;stop-color:#2cb4bf"
         offset="0.623585"
         id="stop454" />
      <stop
         style="stop-opacity:1;stop-color:#2cb4bf"
         offset="1"
         id="stop456" />
    </linearGradient>
  </defs>
  <sodipodi:namedview
     id="base"
     pagecolor="#ffffff"
     bordercolor="#666666"
     borderopacity="1.0"
     inkscape:pageopacity="0.0"
     inkscape:pageshadow="2"
     inkscape:zoom="3.959798"
     inkscape:cx="-3.444916"
     inkscape:cy="48.976489"
     inkscape:document-units="px"
     inkscape:current-layer="layer1"
     showgrid="false"
     units="px"
     inkscape:window-width="1329"
     inkscape:window-height="744"
     inkscape:window-x="37"
     inkscape:window-y="24"
     inkscape:window-maximized="1" />
  <metadata
     id="metadata7275">
    <rdf:RDF>
      <cc:Work
         rdf:about="">
        <dc:format>image/svg+xml</dc:format>
        <dc:type
           rdf:resource="http://purl.org/dc/dcmitype/StillImage" />
        <dc:title></dc:title>
      </cc:Work>
    </rdf:RDF>
  </metadata>
  <g
     inkscape:label="Layer 1"
     inkscape:groupmode="layer"
     id="layer1"
     transform="translate(0,-1012.3622)">
    <path
       d="m 31.918127,1038.3142 c -0.134298,-0.4189 0.01463,-0.8763 0.368321,-1.137 l 7.938197,-5.8226 c 1.264527,-0.9281 1.767146,-2.4891 1.283142,-3.981 -0.484004,-1.4893 -1.809696,-2.4573 -3.37739,-2.4653 l -9.843629,-0.046 c -0.440125,0 -0.829721,-0.2846 -0.966679,-0.7021 l -3.08619,-9.349 c -0.490652,-1.4879 -1.820333,-2.4493 -3.388027,-2.4493 -1.567694,0 -2.897375,0.9614 -3.388028,2.4493 l -1.390846,4.2124 c -0.220727,0.6675 0.140946,1.3882 0.808446,1.6076 0.6675,0.2208 1.388187,-0.1423 1.607584,-0.8098 l 1.390847,-4.2124 c 0.215408,-0.6516 0.797809,-0.7034 0.971997,-0.7034 0.172858,0 0.756588,0.052 0.971997,0.7034 l 3.08486,9.3503 c 0.481345,1.4573 1.83629,2.4413 3.372071,2.448 l 9.84363,0.047 c 0.687445,0 0.914821,0.5412 0.968008,0.7074 0.05452,0.1636 0.186155,0.734 -0.366992,1.1396 l -7.938197,5.824 c -1.237933,0.9081 -1.755179,2.5011 -1.287131,3.9637 l 2.998431,9.3796 c 0.21009,0.6542 -0.231365,1.0371 -0.372311,1.1396 -0.139616,0.1021 -0.640906,0.4028 -1.198042,0 l -7.992714,-5.751 c -1.245911,-0.8974 -2.921309,-0.8974 -4.16855,0 l -7.991384,5.7522 c -0.557136,0.4003 -1.0597558,0.098 -1.1993723,0 -0.1409462,-0.1021 -0.5824004,-0.4852 -0.3736404,-1.1382 l 2.9984307,-9.3822 c 0.468048,-1.4626 -0.0492,-3.0556 -1.287131,-3.9637 l -7.9368668,-5.824 c -0.5531474,-0.4056 -0.421509,-0.976 -0.3683217,-1.1396 0.054517,-0.1662 0.2818924,-0.7047 0.9680079,-0.7074 l 9.8449596,-0.047 c 0.702071,0 1.269845,-0.5758 1.267186,-1.2779 -0.004,-0.7007 -0.573093,-1.2658 -1.272505,-1.2658 l -0.0066,0 -9.8449596,0.046 c -1.5663644,0.011 -2.89205647,0.9747 -3.37739008,2.464 -0.48400394,1.4919 0.0199452,3.0542 1.28314228,3.981 l 7.9368668,5.824 c 0.3550248,0.2606 0.5039491,0.7167 0.3696513,1.1356 l -2.998431,9.3808 c -0.4773555,1.4933 0.034572,3.053 1.3017579,3.9731 0.6355876,0.4627 1.3655825,0.6941 2.0955774,0.6941 0.726006,0 1.452012,-0.2273 2.08494,-0.6835 l 7.994043,-5.7522 c 0.356355,-0.2565 0.837699,-0.2565 1.194054,0 l 7.991384,5.751 c 1.273834,0.9148 2.913331,0.9121 4.181847,-0.011 1.268516,-0.9201 1.779113,-2.4812 1.303087,-3.9744 l -3.00109,-9.3796 z"
       style="fill:#000000;fill-opacity:1;fill-rule:nonzero;stroke:none"
       id="path276"
       inkscape:connector-curvature="0" />
  </g>
</svg>
