<?xml version="1.0" encoding="UTF-8" standalone="no"?>
<!-- Created with Inkscape (http://www.inkscape.org/) -->

<svg
   xmlns:dc="http://purl.org/dc/elements/1.1/"
   xmlns:cc="http://creativecommons.org/ns#"
   xmlns:rdf="http://www.w3.org/1999/02/22-rdf-syntax-ns#"
   xmlns:svg="http://www.w3.org/2000/svg"
   xmlns="http://www.w3.org/2000/svg"
   xmlns:sodipodi="http://sodipodi.sourceforge.net/DTD/sodipodi-0.dtd"
   xmlns:inkscape="http://www.inkscape.org/namespaces/inkscape"
   width="40.008999"
   height="40"
   viewBox="0 0 40.009 40.000001"
   id="svg7270"
   version="1.1"
   inkscape:version="0.91 r13725"
   sodipodi:docname="icon-pencil.svg">
  <defs
     id="defs7272">
    <linearGradient
       x1="0"
       y1="0"
       x2="1"
       y2="0"
       gradientUnits="userSpaceOnUse"
       gradientTransform="matrix(52.27025,0,0,-52.27025,-1483.1365,-7838.0029)"
       spreadMethod="pad"
       id="linearGradient448">
      <stop
         style="stop-opacity:1;stop-color:#e43345"
         offset="0"
         id="stop450" />
      <stop
         style="stop-opacity:1;stop-color:#e43345"
         offset="0.308693"
         id="stop452" />
      <stop
         style="stop-opacity:1;stop-color:#2cb4bf"
         offset="0.623585"
         id="stop454" />
      <stop
         style="stop-opacity:1;stop-color:#2cb4bf"
         offset="1"
         id="stop456" />
    </linearGradient>
    <linearGradient
       x1="0"
       y1="0"
       x2="1"
       y2="0"
       gradientUnits="userSpaceOnUse"
       gradientTransform="matrix(0,48.20225,48.20225,0,10.185922,-8098.5803)"
       spreadMethod="pad"
       id="linearGradient2598">
      <stop
         style="stop-opacity:1;stop-color:#e43345"
         offset="0"
         id="stop2600" />
      <stop
         style="stop-opacity:1;stop-color:#e43345"
         offset="0.308693"
         id="stop2602" />
      <stop
         style="stop-opacity:1;stop-color:#2cb4bf"
         offset="0.623585"
         id="stop2604" />
      <stop
         style="stop-opacity:1;stop-color:#2cb4bf"
         offset="1"
         id="stop2606" />
    </linearGradient>
    <linearGradient
       x1="0"
       y1="0"
       x2="1"
       y2="0"
       gradientUnits="userSpaceOnUse"
       gradientTransform="matrix(0,23.75,23.75,0,21.676422,-8078.3988)"
       spreadMethod="pad"
       id="linearGradient2584">
      <stop
         style="stop-opacity:1;stop-color:#e43345"
         offset="0"
         id="stop2586" />
      <stop
         style="stop-opacity:1;stop-color:#e43345"
         offset="0.308693"
         id="stop2588" />
      <stop
         style="stop-opacity:1;stop-color:#2cb4bf"
         offset="0.623585"
         id="stop2590" />
      <stop
         style="stop-opacity:1;stop-color:#2cb4bf"
         offset="1"
         id="stop2592" />
    </linearGradient>
    <linearGradient
       x1="0"
       y1="0"
       x2="1"
       y2="0"
       gradientUnits="userSpaceOnUse"
       gradientTransform="matrix(0,40.012684,40.012684,0,19.999828,-6490.1954)"
       spreadMethod="pad"
       id="linearGradient2716">
      <stop
         style="stop-opacity:1;stop-color:#e43345"
         offset="0"
         id="stop2718" />
      <stop
         style="stop-opacity:1;stop-color:#e43345"
         offset="0.308693"
         id="stop2720" />
      <stop
         style="stop-opacity:1;stop-color:#2cb4bf"
         offset="0.623585"
         id="stop2722" />
      <stop
         style="stop-opacity:1;stop-color:#2cb4bf"
         offset="1"
         id="stop2724" />
    </linearGradient>
    <linearGradient
       x1="0"
       y1="0"
       x2="1"
       y2="0"
       gradientUnits="userSpaceOnUse"
       gradientTransform="matrix(0,19.712369,19.712369,0,3.9586329,-6504.7298)"
       spreadMethod="pad"
       id="linearGradient2744">
      <stop
         style="stop-opacity:1;stop-color:#e43345"
         offset="0"
         id="stop2746" />
      <stop
         style="stop-opacity:1;stop-color:#e43345"
         offset="0.308693"
         id="stop2748" />
      <stop
         style="stop-opacity:1;stop-color:#2cb4bf"
         offset="0.623585"
         id="stop2750" />
      <stop
         style="stop-opacity:1;stop-color:#2cb4bf"
         offset="1"
         id="stop2752" />
    </linearGradient>
    <linearGradient
       x1="0"
       y1="0"
       x2="1"
       y2="0"
       gradientUnits="userSpaceOnUse"
       gradientTransform="matrix(0,19.712369,19.712369,0,22.633508,-6504.7298)"
       spreadMethod="pad"
       id="linearGradient2730">
      <stop
         style="stop-opacity:1;stop-color:#e43345"
         offset="0"
         id="stop2732" />
      <stop
         style="stop-opacity:1;stop-color:#e43345"
         offset="0.308693"
         id="stop2734" />
      <stop
         style="stop-opacity:1;stop-color:#2cb4bf"
         offset="0.623585"
         id="stop2736" />
      <stop
         style="stop-opacity:1;stop-color:#2cb4bf"
         offset="1"
         id="stop2738" />
    </linearGradient>
    <clipPath
       clipPathUnits="userSpaceOnUse"
       id="clipPath1632">
      <path
         d="m 0,7263 2560,0 L 2560,0 0,0 0,7263 Z"
         id="path1634"
         inkscape:connector-curvature="0" />
    </clipPath>
    <clipPath
       clipPathUnits="userSpaceOnUse"
       id="clipPath1306">
      <path
         d="m 0,7263 2560,0 L 2560,0 0,0 0,7263 Z"
         id="path1308"
         inkscape:connector-curvature="0" />
    </clipPath>
    <clipPath
       clipPathUnits="userSpaceOnUse"
       id="clipPath1318">
      <path
         d="m 950.637,1106.79 107.143,0 0,-29.49 -107.143,0 0,29.49 z"
         id="path1320"
         inkscape:connector-curvature="0" />
    </clipPath>
    <clipPath
       clipPathUnits="userSpaceOnUse"
       id="clipPath1346">
      <path
         d="m 950.637,1031.63 90.143,0 0,-29.49 -90.143,0 0,29.49 z"
         id="path1348"
         inkscape:connector-curvature="0" />
    </clipPath>
    <clipPath
       clipPathUnits="userSpaceOnUse"
       id="clipPath1370">
      <path
         d="m 950.637,958.005 90.143,0 0,-29.484 -90.143,0 0,29.484 z"
         id="path1372"
         inkscape:connector-curvature="0" />
    </clipPath>
  </defs>
  <sodipodi:namedview
     id="base"
     pagecolor="#ffffff"
     bordercolor="#666666"
     borderopacity="1.0"
     inkscape:pageopacity="0.0"
     inkscape:pageshadow="2"
     inkscape:zoom="5.6"
     inkscape:cx="-7.4658368"
     inkscape:cy="26.652378"
     inkscape:document-units="px"
     inkscape:current-layer="layer1"
     showgrid="false"
     units="px"
     inkscape:window-width="1329"
     inkscape:window-height="744"
     inkscape:window-x="37"
     inkscape:window-y="24"
     inkscape:window-maximized="1" />
  <metadata
     id="metadata7275">
    <rdf:RDF>
      <cc:Work
         rdf:about="">
        <dc:format>image/svg+xml</dc:format>
        <dc:type
           rdf:resource="http://purl.org/dc/dcmitype/StillImage" />
        <dc:title></dc:title>
      </cc:Work>
    </rdf:RDF>
  </metadata>
  <g
     inkscape:label="Layer 1"
     inkscape:groupmode="layer"
     id="layer1"
     transform="translate(0,-1012.3622)">
    <path
       inkscape:connector-curvature="0"
       id="path1392"
       style="fill:#000000;fill-opacity:1;fill-rule:nonzero;stroke:none"
       d="m 35.737159,1025.5544 -8.926825,-8.9268 c 1.134146,-0.9347 2.547993,-1.4481 4.03737,-1.4481 1.695908,0 3.28442,0.6621 4.484656,1.8541 1.199055,1.1907 1.852871,2.7875 1.852871,4.4834 0,1.4977 -0.513375,2.9044 -1.448072,4.0374 m -21.832011,21.8745 -3.649093,-3.6491 20.277723,-20.2765 3.647914,3.6479 -20.276544,20.2777 z m 11.308413,-29.2376 3.731705,3.7317 -20.2777236,20.2766 -3.7317055,-3.7306 20.2777241,-20.2777 z m 11.690789,-2.7297 c -3.343429,-3.3505 -8.778123,-3.3505 -12.120372,0 L 2.56251,1037.6748 c -0.1746655,0.1735 -0.2820612,0.3977 -0.315106,0.6373 l -1.64634067,12.1947 c -0.0495672,0.347 0.0743509,0.6939 0.31510606,0.9347 0.20653021,0.2065 0.49567241,0.3304 0.78599491,0.3304 0.049567,0 0.099135,0 0.1487017,-0.01 l 7.3465738,-0.9926 c 0.6125095,-0.083 1.0420922,-0.6455 0.9594802,-1.258 -0.08261,-0.6113 -0.6455543,-1.0421 -1.2580638,-0.9595 l -5.890241,0.7943 1.1506682,-8.5044 8.9516086,8.9516 c 0.20653,0.2066 0.495672,0.3305 0.784815,0.3305 0.290322,0 0.579464,-0.1157 0.787175,-0.3305 l 22.221468,-22.2132 c 1.620376,-1.6215 2.514947,-3.773 2.514947,-6.0649 0,-2.2919 -0.894571,-4.4421 -2.514947,-6.0554" />
    <path
       inkscape:connector-curvature="0"
       id="path1396"
       style="fill:none;stroke:#000000;stroke-width:1.18017244;stroke-linecap:butt;stroke-linejoin:miter;stroke-miterlimit:10;stroke-dasharray:none;stroke-opacity:1"
       d="m 35.737155,1025.5544 -8.926825,-8.9268 c 1.134146,-0.9347 2.547993,-1.4481 4.03737,-1.4481 1.695908,0 3.28442,0.6621 4.484656,1.8541 1.199055,1.1907 1.852871,2.7875 1.852871,4.4834 0,1.4977 -0.513375,2.9044 -1.448072,4.0374 z m -21.832011,21.8745 -3.649093,-3.6491 20.277723,-20.2765 3.647914,3.6479 -20.276544,20.2777 z m 11.308413,-29.2376 3.731705,3.7317 -20.277724,20.2766 -3.731705,-3.7306 20.277724,-20.2777 z m 11.690789,-2.7297 c -3.343429,-3.3505 -8.778123,-3.3505 -12.120372,0 l -22.221468,22.2132 c -0.174666,0.1735 -0.282061,0.3977 -0.315106,0.6373 l -1.64634096,12.1947 c -0.04957,0.347 0.07435,0.6939 0.315106,0.9347 0.20652996,0.2065 0.49567296,0.3304 0.78599496,0.3304 0.04957,0 0.09913,0 0.148702,-0.01 l 7.346574,-0.9926 c 0.612509,-0.083 1.042092,-0.6455 0.95948,-1.258 -0.08261,-0.6113 -0.645555,-1.0421 -1.258064,-0.9595 l -5.890241,0.7943 1.150668,-8.5044 8.951609,8.9516 c 0.20653,0.2066 0.495672,0.3305 0.784815,0.3305 0.290322,0 0.579464,-0.1157 0.787175,-0.3305 l 22.221468,-22.2132 c 1.620376,-1.6215 2.514947,-3.773 2.514947,-6.0649 0,-2.2919 -0.894571,-4.4421 -2.514947,-6.0554 z" />
  </g>
</svg>
