<?xml version="1.0" encoding="UTF-8" standalone="no"?>
<!-- Created with Inkscape (http://www.inkscape.org/) -->

<svg
   xmlns:dc="http://purl.org/dc/elements/1.1/"
   xmlns:cc="http://creativecommons.org/ns#"
   xmlns:rdf="http://www.w3.org/1999/02/22-rdf-syntax-ns#"
   xmlns:svg="http://www.w3.org/2000/svg"
   xmlns="http://www.w3.org/2000/svg"
   xmlns:sodipodi="http://sodipodi.sourceforge.net/DTD/sodipodi-0.dtd"
   xmlns:inkscape="http://www.inkscape.org/namespaces/inkscape"
   width="47.52"
   height="40"
   viewBox="0 0 47.520003 40.000001"
   id="svg7270"
   version="1.1"
   inkscape:version="0.91 r13725"
   sodipodi:docname="icon-twitter.svg">
  <defs
     id="defs7272" />
  <sodipodi:namedview
     id="base"
     pagecolor="#ffffff"
     bordercolor="#666666"
     borderopacity="1.0"
     inkscape:pageopacity="0.0"
     inkscape:pageshadow="2"
     inkscape:zoom="7.9195959"
     inkscape:cx="10.186182"
     inkscape:cy="22.813854"
     inkscape:document-units="px"
     inkscape:current-layer="layer1"
     showgrid="false"
     units="px"
     inkscape:window-width="1329"
     inkscape:window-height="744"
     inkscape:window-x="37"
     inkscape:window-y="24"
     inkscape:window-maximized="1" />
  <metadata
     id="metadata7275">
    <rdf:RDF>
      <cc:Work
         rdf:about="">
        <dc:format>image/svg+xml</dc:format>
        <dc:type
           rdf:resource="http://purl.org/dc/dcmitype/StillImage" />
        <dc:title></dc:title>
      </cc:Work>
    </rdf:RDF>
  </metadata>
  <g
     inkscape:label="Layer 1"
     inkscape:groupmode="layer"
     id="layer1"
     transform="translate(0,-1012.3622)">
    <path
       d="m 4.9725585,1047.3149 c 3.1788061,1.4128 6.6340935,2.151 10.1313595,2.151 3.866389,0 7.476563,-0.7643 10.730642,-2.2711 2.974702,-1.3781 5.60489,-3.3496 7.818185,-5.8612 2.06854,-2.3464 3.686894,-5.0562 4.810187,-8.0584 1.069735,-2.8561 1.634277,-5.9002 1.634277,-8.804 l 0,-0.1462 c 0,-0.9307 0.41834,-1.805 1.147903,-2.3985 0.541381,-0.4387 1.053811,-0.9091 1.537291,-1.407 -0.05356,0.013 -0.108566,0.027 -0.162125,0.039 l -5.229975,1.2464 3.896787,-3.7043 c 0.334383,-0.317 0.641262,-0.6615 0.914848,-1.0291 -0.801939,0.3242 -1.628487,0.5934 -2.46951,0.8062 -0.813519,0.2128 -1.764555,-0.012 -2.427531,-0.592 -2.145259,-1.8934 -5.172073,-2.5231 -8.029525,-1.6372 -2.633083,0.8164 -4.663987,2.9877 -5.303801,5.6685 -0.243187,1.0235 -0.309774,2.0484 -0.196866,3.0428 0.0579,0.5182 -0.110013,1.0306 -0.458871,1.4114 -0.327145,0.3691 -0.817863,0.5891 -1.331741,0.5891 l -0.214236,-0.012 c -6.686204,-0.6209 -12.7948399,-3.6839 -17.3184144,-8.6679 -0.3416203,0.9135 -0.5182207,1.8847 -0.5182207,2.869 0,2.2105 0.8641837,4.279 2.4362163,5.8265 l 3.6941318,3.6362 -5.0446901,-1.1957 c -0.3517533,-0.083 -0.6991638,-0.1868 -1.0407841,-0.3069 0.4559763,2.6273 2.1771059,4.9072 4.6538534,6.0392 l 5.7655678,2.633 -6.5718497,0.1332 c -0.073825,0 -0.1462019,0 -0.2200266,0 1.1956712,2.1887 3.3742243,3.7709 5.8726853,4.1762 l 3.620307,0.5862 -3.045632,2.0439 c -2.719935,1.8268 -5.8307067,2.9169 -9.0804425,3.1948 m 10.1313595,5.0462 c -4.914412,0 -9.7535506,-1.3057 -13.9948541,-3.7752 -0.86273614,-0.4995 -1.28831394,-1.5128 -1.03788894,-2.4624 0.2518726,-0.9596 1.12329414,-1.6328 2.12065174,-1.6328 l 1.1131612,0 c 2.2031618,0 4.3556594,-0.4342 6.3532699,-1.2738 -2.5303066,-1.336 -4.5163367,-3.6334 -5.4065762,-6.414 -0.1780479,-0.5559 -0.1013281,-1.1407 0.1983135,-1.6228 -2.2205322,-2.0887 -3.52332174,-5.0504 -3.48568564,-8.2061 0.00724,-0.6919 0.37057134,-1.3143 0.97130204,-1.6632 0.044874,-0.027 0.0883,-0.05 0.1346215,-0.071 -0.6760029,-1.4475 -1.0320988,-3.0413 -1.0320988,-4.69 0,-1.9557 0.5182208,-3.8809 1.4982079,-5.5644 0.3242498,-0.5544 0.8974772,-0.9148 1.535844,-0.964 0.6456045,-0.057 1.2622583,0.2185 1.6646755,0.715 3.833096,4.7031 9.1542674,7.7212 15.0906444,8.584 0.0058,-0.8859 0.115803,-1.782 0.328592,-2.6751 0.874317,-3.6696 3.657943,-6.6442 7.262327,-7.7617 3.767958,-1.1726 7.831213,-0.3373 10.719063,2.1582 1.476494,-0.385 2.890745,-0.9756 4.205114,-1.7544 0.702059,-0.4183 1.56769,-0.359 2.208952,0.1505 0.639814,0.5082 0.893135,1.3391 0.645605,2.1179 -0.117251,0.3661 -0.25332,0.7251 -0.408208,1.0754 0.482032,0.056 0.936561,0.2895 1.268049,0.6848 0.564542,0.6716 0.618101,1.611 0.130279,2.3406 -1.140665,1.7052 -2.525964,3.2251 -4.116815,4.5178 -0.03474,0.029 -0.07817,0.078 -0.07817,0.1506 l 0,0.1461 c 0,3.2469 -0.628234,6.6429 -1.818115,9.8188 -1.247783,3.3336 -3.04708,6.3474 -5.350122,8.9574 -2.479642,2.8154 -5.431184,5.0272 -8.773564,6.5732 -3.636229,1.6864 -7.656058,2.5405 -11.946578,2.5405"
       style="fill:#000000;fill-opacity:1;fill-rule:nonzero;stroke:none"
       id="path2816"
       inkscape:connector-curvature="0" />
  </g>
</svg>
