<?xml version="1.0" encoding="UTF-8" standalone="no"?>
<!-- Created with Inkscape (http://www.inkscape.org/) -->

<svg
   xmlns:dc="http://purl.org/dc/elements/1.1/"
   xmlns:cc="http://creativecommons.org/ns#"
   xmlns:rdf="http://www.w3.org/1999/02/22-rdf-syntax-ns#"
   xmlns:svg="http://www.w3.org/2000/svg"
   xmlns="http://www.w3.org/2000/svg"
   xmlns:sodipodi="http://sodipodi.sourceforge.net/DTD/sodipodi-0.dtd"
   xmlns:inkscape="http://www.inkscape.org/namespaces/inkscape"
   width="40"
   height="40"
   viewBox="0 0 40.000001 40.000001"
   id="svg7270"
   version="1.1"
   inkscape:version="0.91 r13725"
   sodipodi:docname="message.svg">
  <defs
     id="defs7272">
    <linearGradient
       x1="0"
       y1="0"
       x2="1"
       y2="0"
       gradientUnits="userSpaceOnUse"
       gradientTransform="matrix(52.27025,0,0,-52.27025,-1483.1365,-7838.0029)"
       spreadMethod="pad"
       id="linearGradient448">
      <stop
         style="stop-opacity:1;stop-color:#e43345"
         offset="0"
         id="stop450" />
      <stop
         style="stop-opacity:1;stop-color:#e43345"
         offset="0.308693"
         id="stop452" />
      <stop
         style="stop-opacity:1;stop-color:#2cb4bf"
         offset="0.623585"
         id="stop454" />
      <stop
         style="stop-opacity:1;stop-color:#2cb4bf"
         offset="1"
         id="stop456" />
    </linearGradient>
    <linearGradient
       x1="0"
       y1="0"
       x2="1"
       y2="0"
       gradientUnits="userSpaceOnUse"
       gradientTransform="matrix(0,48.20225,48.20225,0,10.185922,-8098.5803)"
       spreadMethod="pad"
       id="linearGradient2598">
      <stop
         style="stop-opacity:1;stop-color:#e43345"
         offset="0"
         id="stop2600" />
      <stop
         style="stop-opacity:1;stop-color:#e43345"
         offset="0.308693"
         id="stop2602" />
      <stop
         style="stop-opacity:1;stop-color:#2cb4bf"
         offset="0.623585"
         id="stop2604" />
      <stop
         style="stop-opacity:1;stop-color:#2cb4bf"
         offset="1"
         id="stop2606" />
    </linearGradient>
    <linearGradient
       x1="0"
       y1="0"
       x2="1"
       y2="0"
       gradientUnits="userSpaceOnUse"
       gradientTransform="matrix(0,23.75,23.75,0,21.676422,-8078.3988)"
       spreadMethod="pad"
       id="linearGradient2584">
      <stop
         style="stop-opacity:1;stop-color:#e43345"
         offset="0"
         id="stop2586" />
      <stop
         style="stop-opacity:1;stop-color:#e43345"
         offset="0.308693"
         id="stop2588" />
      <stop
         style="stop-opacity:1;stop-color:#2cb4bf"
         offset="0.623585"
         id="stop2590" />
      <stop
         style="stop-opacity:1;stop-color:#2cb4bf"
         offset="1"
         id="stop2592" />
    </linearGradient>
    <linearGradient
       x1="0"
       y1="0"
       x2="1"
       y2="0"
       gradientUnits="userSpaceOnUse"
       gradientTransform="matrix(0,40.012684,40.012684,0,19.999828,-6490.1954)"
       spreadMethod="pad"
       id="linearGradient2716">
      <stop
         style="stop-opacity:1;stop-color:#e43345"
         offset="0"
         id="stop2718" />
      <stop
         style="stop-opacity:1;stop-color:#e43345"
         offset="0.308693"
         id="stop2720" />
      <stop
         style="stop-opacity:1;stop-color:#2cb4bf"
         offset="0.623585"
         id="stop2722" />
      <stop
         style="stop-opacity:1;stop-color:#2cb4bf"
         offset="1"
         id="stop2724" />
    </linearGradient>
    <linearGradient
       x1="0"
       y1="0"
       x2="1"
       y2="0"
       gradientUnits="userSpaceOnUse"
       gradientTransform="matrix(0,19.712369,19.712369,0,3.9586329,-6504.7298)"
       spreadMethod="pad"
       id="linearGradient2744">
      <stop
         style="stop-opacity:1;stop-color:#e43345"
         offset="0"
         id="stop2746" />
      <stop
         style="stop-opacity:1;stop-color:#e43345"
         offset="0.308693"
         id="stop2748" />
      <stop
         style="stop-opacity:1;stop-color:#2cb4bf"
         offset="0.623585"
         id="stop2750" />
      <stop
         style="stop-opacity:1;stop-color:#2cb4bf"
         offset="1"
         id="stop2752" />
    </linearGradient>
    <linearGradient
       x1="0"
       y1="0"
       x2="1"
       y2="0"
       gradientUnits="userSpaceOnUse"
       gradientTransform="matrix(0,19.712369,19.712369,0,22.633508,-6504.7298)"
       spreadMethod="pad"
       id="linearGradient2730">
      <stop
         style="stop-opacity:1;stop-color:#e43345"
         offset="0"
         id="stop2732" />
      <stop
         style="stop-opacity:1;stop-color:#e43345"
         offset="0.308693"
         id="stop2734" />
      <stop
         style="stop-opacity:1;stop-color:#2cb4bf"
         offset="0.623585"
         id="stop2736" />
      <stop
         style="stop-opacity:1;stop-color:#2cb4bf"
         offset="1"
         id="stop2738" />
    </linearGradient>
    <clipPath
       clipPathUnits="userSpaceOnUse"
       id="clipPath1632">
      <path
         d="m 0,7263 2560,0 L 2560,0 0,0 0,7263 Z"
         id="path1634"
         inkscape:connector-curvature="0" />
    </clipPath>
  </defs>
  <sodipodi:namedview
     id="base"
     pagecolor="#ffffff"
     bordercolor="#666666"
     borderopacity="1.0"
     inkscape:pageopacity="0.0"
     inkscape:pageshadow="2"
     inkscape:zoom="5.6"
     inkscape:cx="-0.70836857"
     inkscape:cy="12.088935"
     inkscape:document-units="px"
     inkscape:current-layer="layer1"
     showgrid="false"
     units="px"
     inkscape:window-width="1323"
     inkscape:window-height="744"
     inkscape:window-x="1397"
     inkscape:window-y="24"
     inkscape:window-maximized="1" />
  <metadata
     id="metadata7275">
    <rdf:RDF>
      <cc:Work
         rdf:about="">
        <dc:format>image/svg+xml</dc:format>
        <dc:type
           rdf:resource="http://purl.org/dc/dcmitype/StillImage" />
        <dc:title></dc:title>
      </cc:Work>
    </rdf:RDF>
  </metadata>
  <g
     inkscape:label="Layer 1"
     inkscape:groupmode="layer"
     id="layer1"
     transform="translate(0,-1012.3622)">
    <path
       d="m 7.9636444,1020.48 c -3.0214865,3.0477 -4.8860114,7.2478 -4.8860114,11.8804 0,1.8347 0.2904355,3.5988 0.8282792,5.2421 0.5569671,1.7117 1.382856,3.3036 2.420297,4.7211 0.2007949,0.2715 0.2940212,0.5917 0.2940212,0.9025 l 0.00478,0 0,6.0369 13.3755756,0 c 4.674459,0 8.906692,-1.8957 11.970011,-4.9469 l -0.0036,0 c 3.062123,-3.0573 4.955333,-7.2861 4.955333,-11.9521 0,-4.6685 -1.888429,-8.8935 -4.948162,-11.9485 l -0.0035,0 -0.0036,0 c -3.06332,-3.0573 -7.294357,-4.9505 -11.966426,-4.9505 -4.670874,0 -8.904302,1.8932 -11.9652298,4.9505 l -0.071712,0.068 z M 29.9746,1038.2015 c 0.510354,0 0.921506,-0.4112 0.921506,-0.9227 0,-0.5081 -0.411152,-0.9216 -0.921506,-0.9216 l -19.946831,0 c -0.5091584,0 -0.9215057,0.4135 -0.9215057,0.9216 0,0.5115 0.4123473,0.9227 0.9215057,0.9227 l 19.946831,0 m 0,-4.9184 c 0.510354,0 0.921506,-0.4111 0.921506,-0.9227 0,-0.5067 -0.411152,-0.9179 -0.921506,-0.9179 l -19.946831,0 c -0.5091584,0 -0.9215057,0.4112 -0.9215057,0.9179 0,0.5116 0.4123473,0.9227 0.9215057,0.9227 l 19.946831,0 m 0,-4.9146 c 0.510354,0 0.921506,-0.4147 0.921506,-0.9229 0,-0.5102 -0.411152,-0.9213 -0.921506,-0.9213 l -19.946831,0 c -0.5091584,0 -0.9215057,0.4111 -0.9215057,0.9213 0,0.5082 0.4123473,0.9229 0.9215057,0.9229 l 19.946831,0 m -9.974013,-15.9777 c 5.520667,0 10.522614,2.2363 14.141704,5.8506 l -0.0024,0 c 3.621485,3.6203 5.860109,8.6127 5.860109,14.119 0,5.5135 -2.238624,10.513 -5.857716,14.1239 l -0.0024,0 -0.0035,0 c -3.617897,3.6143 -8.618648,5.8493 -14.135729,5.8493 l -14.8755625,0 -0.038247,0 c -0.8474026,0 -1.5370378,-0.6849 -1.5370378,-1.5335 l 0,-7.0887 C 2.4597299,1042.142 1.5872278,1040.4018 0.98125724,1038.5505 0.34661036,1036.5999 0,1034.5155 0,1032.3604 c 0,-5.4645 2.2063545,-10.421 5.7788322,-14.0318 l 0.078884,-0.087 c 3.6190902,-3.6143 8.6222328,-5.8506 14.1428998,-5.8506"
       style="fill:#000000;fill-opacity:1;fill-rule:nonzero;stroke:none"
       id="path1384"
       inkscape:connector-curvature="0" />
  </g>
</svg>
