<?xml version="1.0" encoding="UTF-8" standalone="no"?>
<!-- Created with Inkscape (http://www.inkscape.org/) -->

<svg
   xmlns:dc="http://purl.org/dc/elements/1.1/"
   xmlns:cc="http://creativecommons.org/ns#"
   xmlns:rdf="http://www.w3.org/1999/02/22-rdf-syntax-ns#"
   xmlns:svg="http://www.w3.org/2000/svg"
   xmlns="http://www.w3.org/2000/svg"
   xmlns:sodipodi="http://sodipodi.sourceforge.net/DTD/sodipodi-0.dtd"
   xmlns:inkscape="http://www.inkscape.org/namespaces/inkscape"
   width="40"
   height="40"
   viewBox="0 0 40.000001 40.000001"
   id="svg7270"
   version="1.1"
   inkscape:version="0.91 r13725"
   sodipodi:docname="pencil.svg">
  <defs
     id="defs7272">
    <linearGradient
       x1="0"
       y1="0"
       x2="1"
       y2="0"
       gradientUnits="userSpaceOnUse"
       gradientTransform="matrix(52.27025,0,0,-52.27025,-1483.1365,-7838.0029)"
       spreadMethod="pad"
       id="linearGradient448">
      <stop
         style="stop-opacity:1;stop-color:#e43345"
         offset="0"
         id="stop450" />
      <stop
         style="stop-opacity:1;stop-color:#e43345"
         offset="0.308693"
         id="stop452" />
      <stop
         style="stop-opacity:1;stop-color:#2cb4bf"
         offset="0.623585"
         id="stop454" />
      <stop
         style="stop-opacity:1;stop-color:#2cb4bf"
         offset="1"
         id="stop456" />
    </linearGradient>
    <linearGradient
       x1="0"
       y1="0"
       x2="1"
       y2="0"
       gradientUnits="userSpaceOnUse"
       gradientTransform="matrix(0,48.20225,48.20225,0,10.185922,-8098.5803)"
       spreadMethod="pad"
       id="linearGradient2598">
      <stop
         style="stop-opacity:1;stop-color:#e43345"
         offset="0"
         id="stop2600" />
      <stop
         style="stop-opacity:1;stop-color:#e43345"
         offset="0.308693"
         id="stop2602" />
      <stop
         style="stop-opacity:1;stop-color:#2cb4bf"
         offset="0.623585"
         id="stop2604" />
      <stop
         style="stop-opacity:1;stop-color:#2cb4bf"
         offset="1"
         id="stop2606" />
    </linearGradient>
    <linearGradient
       x1="0"
       y1="0"
       x2="1"
       y2="0"
       gradientUnits="userSpaceOnUse"
       gradientTransform="matrix(0,23.75,23.75,0,21.676422,-8078.3988)"
       spreadMethod="pad"
       id="linearGradient2584">
      <stop
         style="stop-opacity:1;stop-color:#e43345"
         offset="0"
         id="stop2586" />
      <stop
         style="stop-opacity:1;stop-color:#e43345"
         offset="0.308693"
         id="stop2588" />
      <stop
         style="stop-opacity:1;stop-color:#2cb4bf"
         offset="0.623585"
         id="stop2590" />
      <stop
         style="stop-opacity:1;stop-color:#2cb4bf"
         offset="1"
         id="stop2592" />
    </linearGradient>
    <linearGradient
       x1="0"
       y1="0"
       x2="1"
       y2="0"
       gradientUnits="userSpaceOnUse"
       gradientTransform="matrix(0,40.012684,40.012684,0,19.999828,-6490.1954)"
       spreadMethod="pad"
       id="linearGradient2716">
      <stop
         style="stop-opacity:1;stop-color:#e43345"
         offset="0"
         id="stop2718" />
      <stop
         style="stop-opacity:1;stop-color:#e43345"
         offset="0.308693"
         id="stop2720" />
      <stop
         style="stop-opacity:1;stop-color:#2cb4bf"
         offset="0.623585"
         id="stop2722" />
      <stop
         style="stop-opacity:1;stop-color:#2cb4bf"
         offset="1"
         id="stop2724" />
    </linearGradient>
    <linearGradient
       x1="0"
       y1="0"
       x2="1"
       y2="0"
       gradientUnits="userSpaceOnUse"
       gradientTransform="matrix(0,19.712369,19.712369,0,3.9586329,-6504.7298)"
       spreadMethod="pad"
       id="linearGradient2744">
      <stop
         style="stop-opacity:1;stop-color:#e43345"
         offset="0"
         id="stop2746" />
      <stop
         style="stop-opacity:1;stop-color:#e43345"
         offset="0.308693"
         id="stop2748" />
      <stop
         style="stop-opacity:1;stop-color:#2cb4bf"
         offset="0.623585"
         id="stop2750" />
      <stop
         style="stop-opacity:1;stop-color:#2cb4bf"
         offset="1"
         id="stop2752" />
    </linearGradient>
    <linearGradient
       x1="0"
       y1="0"
       x2="1"
       y2="0"
       gradientUnits="userSpaceOnUse"
       gradientTransform="matrix(0,19.712369,19.712369,0,22.633508,-6504.7298)"
       spreadMethod="pad"
       id="linearGradient2730">
      <stop
         style="stop-opacity:1;stop-color:#e43345"
         offset="0"
         id="stop2732" />
      <stop
         style="stop-opacity:1;stop-color:#e43345"
         offset="0.308693"
         id="stop2734" />
      <stop
         style="stop-opacity:1;stop-color:#2cb4bf"
         offset="0.623585"
         id="stop2736" />
      <stop
         style="stop-opacity:1;stop-color:#2cb4bf"
         offset="1"
         id="stop2738" />
    </linearGradient>
    <clipPath
       clipPathUnits="userSpaceOnUse"
       id="clipPath1632">
      <path
         d="m 0,7263 2560,0 L 2560,0 0,0 0,7263 Z"
         id="path1634"
         inkscape:connector-curvature="0" />
    </clipPath>
    <clipPath
       clipPathUnits="userSpaceOnUse"
       id="clipPath1306">
      <path
         d="m 0,7263 2560,0 L 2560,0 0,0 0,7263 Z"
         id="path1308"
         inkscape:connector-curvature="0" />
    </clipPath>
    <clipPath
       clipPathUnits="userSpaceOnUse"
       id="clipPath1318">
      <path
         d="m 950.637,1106.79 107.143,0 0,-29.49 -107.143,0 0,29.49 z"
         id="path1320"
         inkscape:connector-curvature="0" />
    </clipPath>
    <clipPath
       clipPathUnits="userSpaceOnUse"
       id="clipPath1346">
      <path
         d="m 950.637,1031.63 90.143,0 0,-29.49 -90.143,0 0,29.49 z"
         id="path1348"
         inkscape:connector-curvature="0" />
    </clipPath>
    <clipPath
       clipPathUnits="userSpaceOnUse"
       id="clipPath1370">
      <path
         d="m 950.637,958.005 90.143,0 0,-29.484 -90.143,0 0,29.484 z"
         id="path1372"
         inkscape:connector-curvature="0" />
    </clipPath>
  </defs>
  <sodipodi:namedview
     id="base"
     pagecolor="#ffffff"
     bordercolor="#666666"
     borderopacity="1.0"
     inkscape:pageopacity="0.0"
     inkscape:pageshadow="2"
     inkscape:zoom="5.6"
     inkscape:cx="8.7841632"
     inkscape:cy="26.652378"
     inkscape:document-units="px"
     inkscape:current-layer="layer1"
     showgrid="false"
     units="px"
     inkscape:window-width="1323"
     inkscape:window-height="744"
     inkscape:window-x="1397"
     inkscape:window-y="24"
     inkscape:window-maximized="1" />
  <metadata
     id="metadata7275">
    <rdf:RDF>
      <cc:Work
         rdf:about="">
        <dc:format>image/svg+xml</dc:format>
        <dc:type
           rdf:resource="http://purl.org/dc/dcmitype/StillImage" />
        <dc:title></dc:title>
      </cc:Work>
    </rdf:RDF>
  </metadata>
  <g
     inkscape:label="Layer 1"
     inkscape:groupmode="layer"
     id="layer1"
     transform="translate(0,-1012.3622)">
    <g
       id="g4179"
       transform="translate(-1.0927529e-6,-0.00461958)">
      <path
         d="m 35.728781,1025.5607 -8.924732,-8.9247 c 1.13388,-0.9345 2.547396,-1.4478 4.036424,-1.4478 1.69551,0 3.28365,0.662 4.483604,1.8537 1.198774,1.1904 1.852437,2.7868 1.852437,4.4823 0,1.4974 -0.513255,2.9038 -1.447733,4.0365 m -21.826893,21.8694 -3.648237,-3.6483 20.272969,-20.2717 3.647059,3.647 -20.271791,20.273 z m 11.305762,-29.2308 3.73083,3.7308 -20.2729695,20.2719 -3.7308307,-3.7297 20.2729702,-20.273 z m 11.688049,-2.729 c -3.342646,-3.3498 -8.776066,-3.3498 -12.117531,0 l -22.2162587,22.2079 c -0.1746246,0.1735 -0.2819951,0.3976 -0.3150321,0.6372 l -1.64595477,12.1918 c -0.0495556,0.347 0.0743335,0.6938 0.31503219,0.9345 0.20648178,0.2065 0.49555618,0.3303 0.78581068,0.3303 0.049555,0 0.099112,0 0.1486668,-0.01 l 7.3448516,-0.9923 c 0.6123659,-0.083 1.0418483,-0.6454 0.9592553,-1.2577 -0.08259,-0.6112 -0.645403,-1.0419 -1.2577689,-0.9593 l -5.8888602,0.7941 1.1503985,-8.5024 8.9495096,8.9495 c 0.206482,0.2066 0.495556,0.3304 0.784631,0.3304 0.290254,0 0.579329,-0.1156 0.786991,-0.3304 l 22.216259,-22.208 c 1.619996,-1.6211 2.514357,-3.7721 2.514357,-6.0635 0,-2.2913 -0.894361,-4.441 -2.514357,-6.0539"
         style="fill:#000000;fill-opacity:1;fill-rule:nonzero;stroke:none"
         id="path1392"
         inkscape:connector-curvature="0" />
      <path
         d="m 35.728777,1025.5607 -8.924732,-8.9247 c 1.13388,-0.9345 2.547396,-1.4478 4.036424,-1.4478 1.69551,0 3.28365,0.662 4.483604,1.8537 1.198774,1.1904 1.852437,2.7868 1.852437,4.4823 0,1.4974 -0.513255,2.9038 -1.447733,4.0365 z m -21.826893,21.8694 -3.648237,-3.6483 20.272969,-20.2717 3.647059,3.647 -20.271791,20.273 z m 11.305762,-29.2308 3.73083,3.7308 -20.2729699,20.2719 -3.7308302,-3.7297 20.2729701,-20.273 z m 11.688049,-2.729 c -3.342646,-3.3498 -8.776066,-3.3498 -12.117531,0 l -22.2162587,22.2079 c -0.1746251,0.1735 -0.2819949,0.3976 -0.3150321,0.6372 l -1.64595506,12.1918 c -0.0495584,0.347 0.0743326,0.6938 0.31503213,0.9345 0.20648153,0.2065 0.49555673,0.3303 0.78581073,0.3303 0.049558,0 0.099107,0 0.1486671,-0.01 l 7.3448518,-0.9923 c 0.6123654,-0.083 1.0418481,-0.6454 0.9592551,-1.2577 -0.08259,-0.6112 -0.6454037,-1.0419 -1.2577691,-0.9593 l -5.8888602,0.7941 1.1503983,-8.5024 8.94951,8.9495 c 0.206482,0.2066 0.495556,0.3304 0.784631,0.3304 0.290254,0 0.579329,-0.1156 0.786991,-0.3304 l 22.216259,-22.208 c 1.619996,-1.6211 2.514357,-3.7721 2.514357,-6.0635 0,-2.2913 -0.894361,-4.441 -2.514357,-6.0539 z"
         style="fill:none;stroke:#000000;stroke-width:1.17989576;stroke-linecap:butt;stroke-linejoin:miter;stroke-miterlimit:10;stroke-dasharray:none;stroke-opacity:1"
         id="path1396"
         inkscape:connector-curvature="0" />
    </g>
  </g>
</svg>
