<?xml version="1.0" encoding="UTF-8" standalone="no"?>
<!-- Created with Inkscape (http://www.inkscape.org/) -->

<svg
   xmlns:dc="http://purl.org/dc/elements/1.1/"
   xmlns:cc="http://creativecommons.org/ns#"
   xmlns:rdf="http://www.w3.org/1999/02/22-rdf-syntax-ns#"
   xmlns:svg="http://www.w3.org/2000/svg"
   xmlns="http://www.w3.org/2000/svg"
   xmlns:sodipodi="http://sodipodi.sourceforge.net/DTD/sodipodi-0.dtd"
   xmlns:inkscape="http://www.inkscape.org/namespaces/inkscape"
   width="40"
   height="40"
   viewBox="0 0 40.000002 40.000001"
   id="svg7270"
   version="1.1"
   inkscape:version="0.91 r13725"
   sodipodi:docname="protect.svg">
  <defs
     id="defs7272">
    <linearGradient
       x1="0"
       y1="0"
       x2="1"
       y2="0"
       gradientUnits="userSpaceOnUse"
       gradientTransform="matrix(52.27025,0,0,-52.27025,-1483.1365,-7838.0029)"
       spreadMethod="pad"
       id="linearGradient448">
      <stop
         style="stop-opacity:1;stop-color:#e43345"
         offset="0"
         id="stop450" />
      <stop
         style="stop-opacity:1;stop-color:#e43345"
         offset="0.308693"
         id="stop452" />
      <stop
         style="stop-opacity:1;stop-color:#2cb4bf"
         offset="0.623585"
         id="stop454" />
      <stop
         style="stop-opacity:1;stop-color:#2cb4bf"
         offset="1"
         id="stop456" />
    </linearGradient>
    <linearGradient
       x1="0"
       y1="0"
       x2="1"
       y2="0"
       gradientUnits="userSpaceOnUse"
       gradientTransform="matrix(0,48.20225,48.20225,0,10.185922,-8098.5803)"
       spreadMethod="pad"
       id="linearGradient2598">
      <stop
         style="stop-opacity:1;stop-color:#e43345"
         offset="0"
         id="stop2600" />
      <stop
         style="stop-opacity:1;stop-color:#e43345"
         offset="0.308693"
         id="stop2602" />
      <stop
         style="stop-opacity:1;stop-color:#2cb4bf"
         offset="0.623585"
         id="stop2604" />
      <stop
         style="stop-opacity:1;stop-color:#2cb4bf"
         offset="1"
         id="stop2606" />
    </linearGradient>
    <linearGradient
       x1="0"
       y1="0"
       x2="1"
       y2="0"
       gradientUnits="userSpaceOnUse"
       gradientTransform="matrix(0,23.75,23.75,0,21.676422,-8078.3988)"
       spreadMethod="pad"
       id="linearGradient2584">
      <stop
         style="stop-opacity:1;stop-color:#e43345"
         offset="0"
         id="stop2586" />
      <stop
         style="stop-opacity:1;stop-color:#e43345"
         offset="0.308693"
         id="stop2588" />
      <stop
         style="stop-opacity:1;stop-color:#2cb4bf"
         offset="0.623585"
         id="stop2590" />
      <stop
         style="stop-opacity:1;stop-color:#2cb4bf"
         offset="1"
         id="stop2592" />
    </linearGradient>
    <linearGradient
       x1="0"
       y1="0"
       x2="1"
       y2="0"
       gradientUnits="userSpaceOnUse"
       gradientTransform="matrix(0,40.012684,40.012684,0,19.999828,-6490.1954)"
       spreadMethod="pad"
       id="linearGradient2716">
      <stop
         style="stop-opacity:1;stop-color:#e43345"
         offset="0"
         id="stop2718" />
      <stop
         style="stop-opacity:1;stop-color:#e43345"
         offset="0.308693"
         id="stop2720" />
      <stop
         style="stop-opacity:1;stop-color:#2cb4bf"
         offset="0.623585"
         id="stop2722" />
      <stop
         style="stop-opacity:1;stop-color:#2cb4bf"
         offset="1"
         id="stop2724" />
    </linearGradient>
    <linearGradient
       x1="0"
       y1="0"
       x2="1"
       y2="0"
       gradientUnits="userSpaceOnUse"
       gradientTransform="matrix(0,19.712369,19.712369,0,3.9586329,-6504.7298)"
       spreadMethod="pad"
       id="linearGradient2744">
      <stop
         style="stop-opacity:1;stop-color:#e43345"
         offset="0"
         id="stop2746" />
      <stop
         style="stop-opacity:1;stop-color:#e43345"
         offset="0.308693"
         id="stop2748" />
      <stop
         style="stop-opacity:1;stop-color:#2cb4bf"
         offset="0.623585"
         id="stop2750" />
      <stop
         style="stop-opacity:1;stop-color:#2cb4bf"
         offset="1"
         id="stop2752" />
    </linearGradient>
    <linearGradient
       x1="0"
       y1="0"
       x2="1"
       y2="0"
       gradientUnits="userSpaceOnUse"
       gradientTransform="matrix(0,19.712369,19.712369,0,22.633508,-6504.7298)"
       spreadMethod="pad"
       id="linearGradient2730">
      <stop
         style="stop-opacity:1;stop-color:#e43345"
         offset="0"
         id="stop2732" />
      <stop
         style="stop-opacity:1;stop-color:#e43345"
         offset="0.308693"
         id="stop2734" />
      <stop
         style="stop-opacity:1;stop-color:#2cb4bf"
         offset="0.623585"
         id="stop2736" />
      <stop
         style="stop-opacity:1;stop-color:#2cb4bf"
         offset="1"
         id="stop2738" />
    </linearGradient>
  </defs>
  <sodipodi:namedview
     id="base"
     pagecolor="#ffffff"
     bordercolor="#666666"
     borderopacity="1.0"
     inkscape:pageopacity="0.0"
     inkscape:pageshadow="2"
     inkscape:zoom="7.9195959"
     inkscape:cx="6.6606787"
     inkscape:cy="20.737871"
     inkscape:document-units="px"
     inkscape:current-layer="layer1"
     showgrid="false"
     units="px"
     inkscape:window-width="1323"
     inkscape:window-height="744"
     inkscape:window-x="1397"
     inkscape:window-y="24"
     inkscape:window-maximized="1" />
  <metadata
     id="metadata7275">
    <rdf:RDF>
      <cc:Work
         rdf:about="">
        <dc:format>image/svg+xml</dc:format>
        <dc:type
           rdf:resource="http://purl.org/dc/dcmitype/StillImage" />
        <dc:title></dc:title>
      </cc:Work>
    </rdf:RDF>
  </metadata>
  <g
     inkscape:label="Layer 1"
     inkscape:groupmode="layer"
     id="layer1"
     transform="translate(0,-1012.3622)">
    <g
       id="g4169"
       transform="translate(3.3330024,0)">
      <path
         inkscape:connector-curvature="0"
         id="path2452"
         style="fill:#000000;fill-opacity:1;fill-rule:nonzero;stroke:none"
         d="M 16.667,1050.5655 C 6.6146399,1044.7039 1.8009068,1039.654 1.6697349,1021.0699 c 2.7453404,-0.2768 4.8271083,-1.8817 6.8466332,-3.4388 2.2972999,-1.771 4.6727889,-3.6028 8.1506319,-3.6028 3.477843,0 5.853331,1.8318 8.150632,3.6028 2.019525,1.5571 4.101293,3.162 6.846633,3.4388 -0.131172,18.5841 -4.944905,23.634 -14.997265,29.4956 m 15.833676,-31.1206 c -2.601309,0 -4.575054,-1.5221 -6.665052,-3.1332 -2.401208,-1.8513 -5.122886,-3.9501 -9.168624,-3.9501 -4.045738,0 -6.7674162,2.0988 -9.1686245,3.9501 -2.0899979,1.6111 -4.0637422,3.1332 -6.66505155,3.1332 C 0.37345236,1019.4449 0,1019.8183 0,1020.2782 c 0,9.7304 1.2119214,16.2092 3.9294843,21.0079 2.6980157,4.765 6.7149477,7.728 12.3208537,10.9645 0.129114,0.075 0.272631,0.1116 0.416662,0.1116 0.144031,0 0.287548,-0.037 0.416662,-0.1116 5.605906,-3.2365 9.622838,-6.1995 12.321369,-10.9645 2.717048,-4.7987 3.928969,-11.2775 3.928969,-21.0079 0,-0.4599 -0.373452,-0.8333 -0.833324,-0.8333" />
      <path
         inkscape:connector-curvature="0"
         id="path2456"
         style="fill:#000000;fill-opacity:1;fill-rule:nonzero;stroke:none"
         d="m 6.8207278,1021.8793 c -0.2145031,-0.4074 -0.7186133,-0.5633 -1.1255021,-0.3493 -0.1039075,0.054 -0.208845,0.108 -0.3137825,0.16 -0.413061,0.2037 -0.5833264,0.7032 -0.3796255,1.1162 0.1445461,0.2943 0.4403243,0.465 0.7479347,0.465 0.1234548,0 0.2494826,-0.027 0.3677943,-0.086 0.1188257,-0.058 0.2371374,-0.1188 0.3539051,-0.1805 0.4074038,-0.2145 0.5637801,-0.7181 0.349276,-1.1255" />
      <path
         inkscape:connector-curvature="0"
         id="path2460"
         style="fill:#000000;fill-opacity:1;fill-rule:nonzero;stroke:none"
         d="m 28.822176,1028.4142 c 0.02572,0 0.05092,0 0.07613,0 0.426437,0 0.790116,-0.3251 0.829209,-0.7583 0.0098,-0.1065 0.01903,-0.2135 0.02778,-0.3195 0.03909,-0.4588 -0.301437,-0.8621 -0.759765,-0.9012 -0.458329,-0.039 -0.862131,0.3014 -0.900711,0.7603 -0.0087,0.1029 -0.018,0.2063 -0.02726,0.3096 -0.04167,0.4585 0.296294,0.8638 0.754622,0.9055" />
      <path
         inkscape:connector-curvature="0"
         id="path2464"
         style="fill:#000000;fill-opacity:1;fill-rule:nonzero;stroke:none"
         d="m 8.4678704,1021.5907 c 0.1687224,0 0.339503,-0.051 0.4871351,-0.1579 0.482505,-0.3488 0.953179,-0.7064 1.4073925,-1.0531 2.127034,-1.6193 3.964462,-3.0179 6.304458,-3.0179 0.460386,0 0.833324,-0.3735 0.833324,-0.8333 0,-0.4604 -0.372938,-0.8333 -0.833324,-0.8333 -2.902747,0 -5.045213,1.6311 -7.3142211,3.3589 -0.4459828,0.3395 -0.9079118,0.6914 -1.3734415,1.0273 -0.3729383,0.2695 -0.4572995,0.7906 -0.1877557,1.1636 0.1630644,0.2258 0.417691,0.3457 0.6764327,0.3457" />
      <path
         inkscape:connector-curvature="0"
         id="path2468"
         style="fill:#000000;fill-opacity:1;fill-rule:nonzero;stroke:none"
         d="m 16.667,1046.6817 c -2.132693,-1.3148 -4.708797,-3.0807 -6.639845,-5.358 -0.2978369,-0.3508 -0.8235514,-0.394 -1.1748851,-0.097 -0.350819,0.2978 -0.3940286,0.8242 -0.096706,1.175 2.2191111,2.6167 5.1624951,4.5641 7.4793421,5.969 0.0041,0 0.0087,0 0.01286,0.01 0.02006,0.012 0.04064,0.022 0.06121,0.032 0.01337,0.01 0.02675,0.013 0.04012,0.019 0.01903,0.01 0.03807,0.014 0.0571,0.02 0.01646,0.01 0.03189,0.012 0.04835,0.016 0.01749,0 0.03498,0.01 0.05247,0.011 0.018,0 0.03549,0.01 0.0535,0.01 0.0252,0 0.05092,0 0.07613,0.01 0.0098,0 0.01955,0 0.02932,0 l 10e-4,0 4.94e-4,0 c 0.01029,0 0.02006,0 0.02984,0 0.0252,0 0.05092,0 0.07613,-0.01 0.018,0 0.03498,-0.01 0.05298,-0.01 0.01749,0 0.03549,-0.01 0.05298,-0.011 0.01646,0 0.03189,-0.01 0.04784,-0.016 0.01955,-0.01 0.03858,-0.012 0.05761,-0.02 0.01337,-0.01 0.02675,-0.013 0.04012,-0.019 0.02058,-0.01 0.04115,-0.02 0.06121,-0.032 0.0041,0 0.0087,0 0.01286,-0.01 2.316353,-1.4049 5.260252,-3.3523 7.479363,-5.969 2.529809,-2.9846 4.124956,-7.0231 4.875462,-12.3471 0.0643,-0.4558 -0.253083,-0.877 -0.70884,-0.9414 -0.456271,-0.064 -0.877048,0.2531 -0.941348,0.7089 -0.705239,5.0024 -2.176417,8.7648 -4.496865,11.5018 -1.931048,2.2768 -4.506637,4.0427 -6.639845,5.3575" />
      <path
         inkscape:connector-curvature="0"
         id="path2472"
         style="fill:#000000;fill-opacity:1;fill-rule:nonzero;stroke:none"
         d="m 24.697736,1025.4393 -10.608939,10.609 c -0.0021,0 -0.0041,0 -0.0057,0.01 l -0.07767,0.069 c -4.93e-4,0 -0.0016,0 -0.0026,0 l -0.09928,0.07 -0.14043,0.073 c 0,0 -10e-4,0 -0.0015,0 l -0.0931,0.035 c -10e-4,0 -0.0015,0 -0.0026,0 l -0.144031,0.033 c -0.0015,0 -0.0036,0 -0.0051,0 l -0.07251,0.01 c -0.0015,0 -0.0036,0 -0.0051,0 l -0.04064,0 c -0.0021,0 -0.0036,0 -0.0051,0 l -0.04167,0 -0.02623,0 -0.0144,0 c -0.0021,0 -0.0036,0 -0.0057,0 l -0.04167,0 c -0.0015,0 -0.0031,0 -0.0046,0 l -0.0715,-0.01 c -0.0025,0 -0.0041,0 -0.0067,0 l -0.143003,-0.033 -10e-4,0 -0.08179,-0.029 -0.156376,-0.08 -0.144033,-0.1085 -4.0179602,-4.0159 c -0.4063738,-0.4064 -0.4063738,-1.0674 0,-1.4738 0.1949571,-0.1954 0.4567856,-0.3029 0.7366179,-0.3029 0.2798323,0 0.5416608,0.1075 0.7371323,0.3029 l 2.652234,2.6522 c 0.155862,0.1564 0.367794,0.2444 0.588985,0.2444 0.221192,0 0.433124,-0.088 0.5895,-0.2444 l 9.282821,-9.2828 c 0.195472,-0.1949 0.456786,-0.3025 0.736618,-0.3025 0.279833,0 0.54166,0.1076 0.737132,0.303 0.40586,0.4059 0.40586,1.0669 0,1.4732 m -2.652235,-2.6522 -8.693836,8.6938 -2.062734,-2.0632 c -0.510282,-0.5102 -1.190316,-0.7911 -1.9156173,-0.7911 -0.7247867,0 -1.4048204,0.2809 -1.9156168,0.7911 -1.0555441,1.0566 -1.0555441,2.7746 5.351e-4,3.8307 l 3.98401,3.984 0.03446,0.034 c 0.0051,0 0.01029,0.01 0.01543,0.015 l 0.03498,0.033 c 0.0062,0.01 0.01234,0.011 0.01903,0.017 l 0.03549,0.031 c 0.0057,0 0.01132,0.01 0.01698,0.014 l 0.03601,0.03 c 0.0041,0 0.0087,0.01 0.01286,0.01 l 0.03704,0.03 c 0.0067,0.01 0.01337,0.011 0.02058,0.016 l 0.03755,0.028 c 0.0057,0 0.0108,0.01 0.01595,0.011 l 0.03806,0.027 c 0.0057,0 0.01183,0.01 0.01749,0.012 l 0.03858,0.026 c 0.0062,0 0.01234,0.01 0.01852,0.012 l 0.03909,0.025 c 0.0057,0 0.0108,0.01 0.01595,0.01 l 0.04012,0.024 c 0.0051,0 0.01029,0.01 0.01595,0.01 l 0.03961,0.023 c 0.0082,0 0.01595,0.01 0.02366,0.013 l 0.04064,0.022 c 0.0041,0 0.0087,0 0.01286,0.01 l 0.04115,0.021 c 0.0072,0 0.0144,0.01 0.0216,0.011 l 0.04167,0.019 c 0.0057,0 0.01183,0.01 0.01749,0.01 l 0.02109,0.01 c 0.01492,0.01 0.02984,0.014 0.04578,0.02 l 0.04218,0.017 c 0.0041,0 0.0077,0 0.01132,0 l 0.04269,0.017 c 0.0062,0 0.01286,0 0.01955,0.01 l 0.04321,0.016 c 0.0067,0 0.01337,0 0.02058,0.01 l 0.02109,0.01 c 0.01389,0.01 0.02829,0.01 0.04321,0.014 l 0.04321,0.014 c 0.0062,0 0.01234,0 0.01852,0.01 l 0.04372,0.012 c 0.0062,0 0.01183,0 0.018,0 l 0.04424,0.011 c 0.0057,0 0.01183,0 0.018,0 l 0.04424,0.01 c 0.0062,0 0.01234,0 0.01852,0 l 0.04424,0.01 c 0.0087,0 0.01698,0 0.02572,0 l 0.0216,0 c 0.01286,0 0.02623,0.01 0.03961,0.01 l 0.04424,0.01 c 0.0067,0 0.01337,0 0.02006,0 l 0.04475,0.01 c 0.0067,0 0.01286,0 0.01903,0 l 0.0216,0 c 0.01389,0 0.02778,0 0.04218,0 l 0.04475,0 c 0.0087,0 0.01698,0 0.02572,0 l 0.02109,0 c 0.01389,0 0.02778,0 0.04167,0 l 0.04527,0 c 0.0046,0 0.0087,0 0.01337,0 l 0.04475,0 0.01183,0 0.01234,0 0.04527,0 c 0.0041,0 0.0087,0 0.01337,0 l 0.04527,0 c 0.01389,0 0.02778,0 0.04167,0 l 0.02109,0 c 0.0087,0 0.01749,0 0.02623,0 l 0.04475,0 c 0.01389,0 0.02778,0 0.04167,0 l 0.02109,0 c 0.0062,0 0.01234,0 0.01852,0 l 0.04475,-0.01 c 0.0072,0 0.01389,0 0.02109,0 l 0.04424,-0.01 c 0.01389,0 0.02726,0 0.04064,-0.01 l 0.0216,0 c 0.0082,0 0.01646,0 0.02469,-0.01 l 0.04372,-0.01 c 0.0057,0 0.01132,0 0.01698,0 l 0.04475,-0.01 c 0.0067,0 0.01389,0 0.02058,0 l 0.04424,-0.012 c 0.0057,0 0.01132,0 0.01698,0 l 0.04372,-0.012 c 0.0062,0 0.01234,0 0.018,-0.01 l 0.04321,-0.014 c 0.01389,0 0.02778,-0.01 0.04064,-0.014 l 0.0216,-0.01 c 0.0077,0 0.01543,-0.01 0.02315,-0.01 l 0.04321,-0.016 c 0.0062,0 0.01286,0 0.01903,-0.01 l 0.04269,-0.016 c 0.0046,0 0.0093,0 0.01389,-0.01 l 0.04218,-0.017 c 0.01337,-0.01 0.02675,-0.012 0.04012,-0.018 l 0.0216,-0.01 c 0.0067,0 0.01389,-0.01 0.02109,-0.01 l 0.04115,-0.019 c 0.0057,0 0.01132,-0.01 0.01646,-0.01 l 0.04115,-0.021 c 0.01337,-0.01 0.02623,-0.014 0.03909,-0.021 l 0.02109,-0.011 c 0.0062,0 0.01234,-0.01 0.018,-0.01 l 0.04064,-0.023 c 0.0062,0 0.01286,-0.01 0.01903,-0.011 l 0.03959,-0.024 c 0.0062,0 0.01234,-0.01 0.01852,-0.012 l 0.03909,-0.025 c 0.0046,0 0.0087,-0.01 0.01337,-0.01 l 0.03909,-0.026 c 0.0067,0 0.01286,-0.01 0.01955,-0.014 l 0.03806,-0.027 c 0.0067,0 0.01286,-0.01 0.01955,-0.014 l 0.03755,-0.029 c 0.0046,0 0.0087,-0.01 0.01337,-0.01 l 0.03704,-0.029 c 0.0098,-0.01 0.01955,-0.016 0.02881,-0.024 l 0.02109,-0.017 c 0.0072,-0.01 0.0144,-0.012 0.0216,-0.018 l 0.03549,-0.031 c 0.0051,0 0.0093,-0.01 0.01389,-0.013 l 0.03549,-0.033 c 0.0051,0 0.01029,-0.01 0.01492,-0.014 l 0.03498,-0.033 c 0.0077,-0.01 0.01492,-0.015 0.02212,-0.023 l 10.595564,-10.5951 c 1.055544,-1.0566 1.055544,-2.7752 -0.001,-3.8307 -0.509768,-0.5098 -1.190317,-0.7911 -1.915103,-0.7911 -0.724787,0 -1.404821,0.2813 -1.915103,0.7911" />
    </g>
  </g>
</svg>
