<?xml version="1.0" encoding="UTF-8" standalone="no"?>
<!-- Created with Inkscape (http://www.inkscape.org/) -->

<svg
   xmlns:dc="http://purl.org/dc/elements/1.1/"
   xmlns:cc="http://creativecommons.org/ns#"
   xmlns:rdf="http://www.w3.org/1999/02/22-rdf-syntax-ns#"
   xmlns:svg="http://www.w3.org/2000/svg"
   xmlns="http://www.w3.org/2000/svg"
   xmlns:sodipodi="http://sodipodi.sourceforge.net/DTD/sodipodi-0.dtd"
   xmlns:inkscape="http://www.inkscape.org/namespaces/inkscape"
   width="40"
   height="40"
   viewBox="0 0 40.000002 40.000001"
   id="svg7270"
   version="1.1"
   inkscape:version="0.91 r13725"
   sodipodi:docname="send-mail.svg">
  <defs
     id="defs7272" />
  <sodipodi:namedview
     id="base"
     pagecolor="#ffffff"
     bordercolor="#666666"
     borderopacity="1.0"
     inkscape:pageopacity="0.0"
     inkscape:pageshadow="2"
     inkscape:zoom="7.9195959"
     inkscape:cx="11.575142"
     inkscape:cy="22.813854"
     inkscape:document-units="px"
     inkscape:current-layer="layer1"
     showgrid="false"
     units="px"
     inkscape:window-width="1323"
     inkscape:window-height="744"
     inkscape:window-x="1397"
     inkscape:window-y="24"
     inkscape:window-maximized="1" />
  <metadata
     id="metadata7275">
    <rdf:RDF>
      <cc:Work
         rdf:about="">
        <dc:format>image/svg+xml</dc:format>
        <dc:type
           rdf:resource="http://purl.org/dc/dcmitype/StillImage" />
        <dc:title></dc:title>
      </cc:Work>
    </rdf:RDF>
  </metadata>
  <g
     inkscape:label="Layer 1"
     inkscape:groupmode="layer"
     id="layer1"
     transform="translate(0,-1012.3622)">
    <path
       d="m 13.908395,1034.8845 0.550751,2.4113 c 0.0799,-0.5777 0.342437,-1.0629 0.744799,-1.421 l 6.797359,-6.0098 -8.092909,5.0195 z m 7.045625,4.4574 9.756579,7.1613 c 0.154097,0.1129 0.302486,0.08 0.379534,0.05 0.07562,-0.028 0.208316,-0.105 0.24684,-0.2895 l 5.802867,-27.7332 c 0.03281,-0.1554 -0.03995,-0.2553 -0.107012,-0.311 -0.06706,-0.056 -0.178352,-0.1107 -0.323887,-0.054 l -0.0014,0 -33.4617274,13.0383 7.9830444,2.3571 c 0.186914,-0.3496 0.465144,-0.6606 0.826128,-0.8847 l 18.634239,-11.5557 c 0.814713,-0.5095 1.866277,-0.3111 2.445565,0.4651 0.573581,0.7734 0.462289,1.8349 -0.259681,2.4726 l -15.600824,13.7974 -0.368119,5.5389 4.047881,-4.0522 z m 9.989151,10.0933 c -0.680592,0 -1.35405,-0.2154 -1.920497,-0.6335 l -7.761888,-5.6959 -3.597007,3.6741 c -0.723396,0.7377 -1.75784,1.0344 -2.755185,0.7947 -1.003053,-0.2397 -1.787802,-0.9702 -2.098849,-1.9547 l -2.9920371,-9.5011 -7.9059962,-2.3343 c -1.111491,-0.3281 -1.86057027,-1.287 -1.90908206,-2.4427 -0.04993861,-1.1558 0.6149584,-2.1745 1.69220576,-2.5968 l 33.9753816,-13.238 c 1.088662,-0.4239 2.315725,-0.2198 3.206059,0.5336 0.890335,0.7533 1.295551,1.9319 1.055845,3.0734 l -5.801439,27.7316 c -0.225438,1.0872 -0.981651,1.9747 -2.018947,2.3727 -0.380961,0.1455 -0.776189,0.2169 -1.168564,0.2169"
       style="fill:#000000;fill-opacity:1;fill-rule:nonzero;stroke:none"
       id="path198"
       inkscape:connector-curvature="0" />
    <path
       d="m 12.021914,1034.0631 -10.3544164,-2.9292 4.287587,-2.4056 29.7034894,-11.7128 2.1973,0.2083 0.957395,1.8349 -10.558452,9.0689 -3.866675,-0.5366 -12.366228,6.4721 z"
       style="fill:#000000;fill-opacity:1;fill-rule:nonzero;stroke:none"
       id="path202"
       inkscape:connector-curvature="0" />
  </g>
</svg>
