<?xml version="1.0" encoding="UTF-8" standalone="no"?>
<!-- Created with Inkscape (http://www.inkscape.org/) -->

<svg
   xmlns:dc="http://purl.org/dc/elements/1.1/"
   xmlns:cc="http://creativecommons.org/ns#"
   xmlns:rdf="http://www.w3.org/1999/02/22-rdf-syntax-ns#"
   xmlns:svg="http://www.w3.org/2000/svg"
   xmlns="http://www.w3.org/2000/svg"
   xmlns:sodipodi="http://sodipodi.sourceforge.net/DTD/sodipodi-0.dtd"
   xmlns:inkscape="http://www.inkscape.org/namespaces/inkscape"
   width="40"
   height="40"
   viewBox="0 0 40.000001 40.000001"
   id="svg7270"
   version="1.1"
   inkscape:version="0.91 r13725"
   sodipodi:docname="usd.svg">
  <defs
     id="defs7272">
    <linearGradient
       x1="0"
       y1="0"
       x2="1"
       y2="0"
       gradientUnits="userSpaceOnUse"
       gradientTransform="matrix(52.27025,0,0,-52.27025,-1483.1365,-7838.0029)"
       spreadMethod="pad"
       id="linearGradient448">
      <stop
         style="stop-opacity:1;stop-color:#e43345"
         offset="0"
         id="stop450" />
      <stop
         style="stop-opacity:1;stop-color:#e43345"
         offset="0.308693"
         id="stop452" />
      <stop
         style="stop-opacity:1;stop-color:#2cb4bf"
         offset="0.623585"
         id="stop454" />
      <stop
         style="stop-opacity:1;stop-color:#2cb4bf"
         offset="1"
         id="stop456" />
    </linearGradient>
    <linearGradient
       x1="0"
       y1="0"
       x2="1"
       y2="0"
       gradientUnits="userSpaceOnUse"
       gradientTransform="matrix(0,48.20225,48.20225,0,10.185922,-8098.5803)"
       spreadMethod="pad"
       id="linearGradient2598">
      <stop
         style="stop-opacity:1;stop-color:#e43345"
         offset="0"
         id="stop2600" />
      <stop
         style="stop-opacity:1;stop-color:#e43345"
         offset="0.308693"
         id="stop2602" />
      <stop
         style="stop-opacity:1;stop-color:#2cb4bf"
         offset="0.623585"
         id="stop2604" />
      <stop
         style="stop-opacity:1;stop-color:#2cb4bf"
         offset="1"
         id="stop2606" />
    </linearGradient>
    <linearGradient
       x1="0"
       y1="0"
       x2="1"
       y2="0"
       gradientUnits="userSpaceOnUse"
       gradientTransform="matrix(0,23.75,23.75,0,21.676422,-8078.3988)"
       spreadMethod="pad"
       id="linearGradient2584">
      <stop
         style="stop-opacity:1;stop-color:#e43345"
         offset="0"
         id="stop2586" />
      <stop
         style="stop-opacity:1;stop-color:#e43345"
         offset="0.308693"
         id="stop2588" />
      <stop
         style="stop-opacity:1;stop-color:#2cb4bf"
         offset="0.623585"
         id="stop2590" />
      <stop
         style="stop-opacity:1;stop-color:#2cb4bf"
         offset="1"
         id="stop2592" />
    </linearGradient>
    <linearGradient
       x1="0"
       y1="0"
       x2="1"
       y2="0"
       gradientUnits="userSpaceOnUse"
       gradientTransform="matrix(0,40.012684,40.012684,0,19.999828,-6490.1954)"
       spreadMethod="pad"
       id="linearGradient2716">
      <stop
         style="stop-opacity:1;stop-color:#e43345"
         offset="0"
         id="stop2718" />
      <stop
         style="stop-opacity:1;stop-color:#e43345"
         offset="0.308693"
         id="stop2720" />
      <stop
         style="stop-opacity:1;stop-color:#2cb4bf"
         offset="0.623585"
         id="stop2722" />
      <stop
         style="stop-opacity:1;stop-color:#2cb4bf"
         offset="1"
         id="stop2724" />
    </linearGradient>
    <linearGradient
       x1="0"
       y1="0"
       x2="1"
       y2="0"
       gradientUnits="userSpaceOnUse"
       gradientTransform="matrix(0,19.712369,19.712369,0,3.9586329,-6504.7298)"
       spreadMethod="pad"
       id="linearGradient2744">
      <stop
         style="stop-opacity:1;stop-color:#e43345"
         offset="0"
         id="stop2746" />
      <stop
         style="stop-opacity:1;stop-color:#e43345"
         offset="0.308693"
         id="stop2748" />
      <stop
         style="stop-opacity:1;stop-color:#2cb4bf"
         offset="0.623585"
         id="stop2750" />
      <stop
         style="stop-opacity:1;stop-color:#2cb4bf"
         offset="1"
         id="stop2752" />
    </linearGradient>
    <linearGradient
       x1="0"
       y1="0"
       x2="1"
       y2="0"
       gradientUnits="userSpaceOnUse"
       gradientTransform="matrix(0,19.712369,19.712369,0,22.633508,-6504.7298)"
       spreadMethod="pad"
       id="linearGradient2730">
      <stop
         style="stop-opacity:1;stop-color:#e43345"
         offset="0"
         id="stop2732" />
      <stop
         style="stop-opacity:1;stop-color:#e43345"
         offset="0.308693"
         id="stop2734" />
      <stop
         style="stop-opacity:1;stop-color:#2cb4bf"
         offset="0.623585"
         id="stop2736" />
      <stop
         style="stop-opacity:1;stop-color:#2cb4bf"
         offset="1"
         id="stop2738" />
    </linearGradient>
    <clipPath
       clipPathUnits="userSpaceOnUse"
       id="clipPath1632">
      <path
         d="m 0,7263 2560,0 L 2560,0 0,0 0,7263 Z"
         id="path1634"
         inkscape:connector-curvature="0" />
    </clipPath>
    <clipPath
       clipPathUnits="userSpaceOnUse"
       id="clipPath1306">
      <path
         d="m 0,7263 2560,0 L 2560,0 0,0 0,7263 Z"
         id="path1308"
         inkscape:connector-curvature="0" />
    </clipPath>
    <clipPath
       clipPathUnits="userSpaceOnUse"
       id="clipPath1318">
      <path
         d="m 950.637,1106.79 107.143,0 0,-29.49 -107.143,0 0,29.49 z"
         id="path1320"
         inkscape:connector-curvature="0" />
    </clipPath>
    <clipPath
       clipPathUnits="userSpaceOnUse"
       id="clipPath1346">
      <path
         d="m 950.637,1031.63 90.143,0 0,-29.49 -90.143,0 0,29.49 z"
         id="path1348"
         inkscape:connector-curvature="0" />
    </clipPath>
    <clipPath
       clipPathUnits="userSpaceOnUse"
       id="clipPath1370">
      <path
         d="m 950.637,958.005 90.143,0 0,-29.484 -90.143,0 0,29.484 z"
         id="path1372"
         inkscape:connector-curvature="0" />
    </clipPath>
  </defs>
  <sodipodi:namedview
     id="base"
     pagecolor="#ffffff"
     bordercolor="#666666"
     borderopacity="1.0"
     inkscape:pageopacity="0.0"
     inkscape:pageshadow="2"
     inkscape:zoom="5.6"
     inkscape:cx="-5.5015511"
     inkscape:cy="26.652378"
     inkscape:document-units="px"
     inkscape:current-layer="layer1"
     showgrid="false"
     units="px"
     inkscape:window-width="1323"
     inkscape:window-height="744"
     inkscape:window-x="1397"
     inkscape:window-y="24"
     inkscape:window-maximized="1" />
  <metadata
     id="metadata7275">
    <rdf:RDF>
      <cc:Work
         rdf:about="">
        <dc:format>image/svg+xml</dc:format>
        <dc:type
           rdf:resource="http://purl.org/dc/dcmitype/StillImage" />
        <dc:title></dc:title>
      </cc:Work>
    </rdf:RDF>
  </metadata>
  <g
     inkscape:label="Layer 1"
     inkscape:groupmode="layer"
     id="layer1"
     transform="translate(0,-1012.3622)">
    <path
       d="m 21.780565,1044.0617 0,-9.596 c 1.950737,0.7239 3.346965,2.5966 3.346965,4.798 0,2.1999 -1.396228,4.0741 -3.346965,4.798 m -6.906434,-18.5992 c 0,-2.2015 1.396228,-4.0758 3.346964,-4.7998 l 0,9.5961 c -1.950736,-0.7239 -3.346964,-2.5981 -3.346964,-4.7963 m 6.906434,5.3027 0,-10.1041 c 1.006082,0.3735 1.885988,1.0608 2.496943,1.989 0.539564,0.8201 1.641937,1.0475 2.463737,0.508 0.821799,-0.5413 1.049246,-1.6454 0.508022,-2.4655 -1.280015,-1.9424 -3.249014,-3.2607 -5.468701,-3.7238 l 0,-2.8273 c 0,-0.9829 -0.796897,-1.7798 -1.779736,-1.7798 -0.982839,0 -1.779735,0.7969 -1.779735,1.7798 l 0,2.8223 c -3.939656,0.8201 -6.908095,4.3183 -6.908095,8.4987 0,4.1771 2.970099,7.6751 6.908095,8.4969 l 0,10.104 c -1.007742,-0.3736 -1.885988,-1.0609 -2.496942,-1.9873 -0.539565,-0.8217 -1.643599,-1.0492 -2.463737,-0.508 -0.8218,0.5396 -1.049247,1.6436 -0.508023,2.4637 1.278355,1.9409 3.249014,3.2607 5.468702,3.7239 l 0,2.8273 c 0,0.9828 0.796896,1.7797 1.779735,1.7797 0.982839,0 1.779735,-0.7969 1.779735,-1.7797 l 0,-2.8224 c 3.937996,-0.8201 6.906435,-4.3181 6.906435,-8.497 0,-4.1786 -2.968439,-7.6767 -6.906435,-8.4984"
       style="fill:#000000;fill-opacity:1;fill-rule:nonzero;stroke:none"
       id="path1030"
       inkscape:connector-curvature="0" />
  </g>
</svg>
