<?xml version="1.0" encoding="UTF-8" standalone="no"?>
<!-- Created with Inkscape (http://www.inkscape.org/) -->

<svg
   xmlns:dc="http://purl.org/dc/elements/1.1/"
   xmlns:cc="http://creativecommons.org/ns#"
   xmlns:rdf="http://www.w3.org/1999/02/22-rdf-syntax-ns#"
   xmlns:svg="http://www.w3.org/2000/svg"
   xmlns="http://www.w3.org/2000/svg"
   xmlns:sodipodi="http://sodipodi.sourceforge.net/DTD/sodipodi-0.dtd"
   xmlns:inkscape="http://www.inkscape.org/namespaces/inkscape"
   width="40"
   height="40"
   viewBox="0 0 40 40.000001"
   id="svg7618"
   version="1.1"
   inkscape:version="0.91 r13725"
   sodipodi:docname="books-icon.svg">
  <defs
     id="defs7620" />
  <sodipodi:namedview
     id="base"
     pagecolor="#ffffff"
     bordercolor="#666666"
     borderopacity="1.0"
     inkscape:pageopacity="0.0"
     inkscape:pageshadow="2"
     inkscape:zoom="1.4"
     inkscape:cx="-45.494408"
     inkscape:cy="81.301687"
     inkscape:document-units="px"
     inkscape:current-layer="layer1"
     showgrid="false"
     units="px"
     inkscape:window-width="1323"
     inkscape:window-height="744"
     inkscape:window-x="37"
     inkscape:window-y="24"
     inkscape:window-maximized="1" />
  <metadata
     id="metadata7623">
    <rdf:RDF>
      <cc:Work
         rdf:about="">
        <dc:format>image/svg+xml</dc:format>
        <dc:type
           rdf:resource="http://purl.org/dc/dcmitype/StillImage" />
        <dc:title></dc:title>
      </cc:Work>
    </rdf:RDF>
  </metadata>
  <g
     inkscape:label="Layer 1"
     inkscape:groupmode="layer"
     id="layer1"
     transform="translate(0,-1012.3622)">
    <g
       id="g8244"
       transform="matrix(0.39207038,0,0,0.39207038,110.73653,852.76398)">
      <path
         inkscape:connector-curvature="0"
         id="path1152"
         style="fill:#ffffff;fill-opacity:1;fill-rule:nonzero;stroke:none"
         d="m -209.32405,441.07299 -3.4,0 c -0.94,0 -1.70125,0.7625 -1.70125,1.7 0,0.93875 0.76125,1.7 1.70125,1.7 l 3.4,0 c 0.9375,0 1.7,-0.76125 1.7,-1.7 0,-0.9375 -0.76125,-1.7 -1.7,-1.7" />
      <g
         transform="matrix(1.25,0,0,-1.25,-209.32405,447.87399)"
         id="g1154">
        <path
           inkscape:connector-curvature="0"
           id="path1156"
           style="fill:#ffffff;fill-opacity:1;fill-rule:nonzero;stroke:none"
           d="m 0,0 -2.72,0 c -0.752,0 -1.361,-0.609 -1.361,-1.361 0,-0.75 0.609,-1.359 1.361,-1.359 l 2.72,0 c 0.75,0 1.36,0.609 1.36,1.359 C 1.361,-0.609 0.751,0 0,0" />
      </g>
      <g
         transform="matrix(1.25,0,0,-1.25,-209.32405,434.27119)"
         id="g1158">
        <path
           inkscape:connector-curvature="0"
           id="path1160"
           style="fill:#ffffff;fill-opacity:1;fill-rule:nonzero;stroke:none"
           d="m 0,0 -2.72,0 c -0.752,0 -1.361,-0.609 -1.361,-1.361 0,-0.75 0.609,-1.359 1.361,-1.359 l 2.72,0 c 0.75,0 1.36,0.609 1.36,1.359 C 1.361,-0.609 0.751,0 0,0" />
      </g>
      <g
         transform="matrix(1.25,0,0,-1.25,-209.32405,488.68319)"
         id="g1162">
        <path
           inkscape:connector-curvature="0"
           id="path1164"
           style="fill:#ffffff;fill-opacity:1;fill-rule:nonzero;stroke:none"
           d="m 0,0 -2.72,0 c -0.752,0 -1.361,-0.609 -1.361,-1.361 0,-0.75 0.609,-1.359 1.361,-1.359 l 2.72,0 c 0.75,0 1.36,0.609 1.36,1.359 C 1.36,-0.609 0.751,0 0,0" />
      </g>
      <path
         inkscape:connector-curvature="0"
         id="path1166"
         style="fill:#ffffff;fill-opacity:1;fill-rule:nonzero;stroke:none"
         d="m -248.43195,458.07664 -6.80125,0 0,-20.405 6.80125,0 0,20.405 z m 1.69875,-23.805 -10.2025,0 c -0.9375,0 -1.69875,0.76125 -1.69875,1.7 l 0,23.805 c 0,0.93875 0.76125,1.7 1.69875,1.7 l 10.2025,0 c 0.94,0 1.70125,-0.76125 1.70125,-1.7 l 0,-23.805 c 0,-0.93875 -0.76125,-1.7 -1.70125,-1.7" />
      <g
         transform="matrix(1.25,0,0,-1.25,-246.7327,488.68319)"
         id="g1168">
        <path
           inkscape:connector-curvature="0"
           id="path1170"
           style="fill:#ffffff;fill-opacity:1;fill-rule:nonzero;stroke:none"
           d="m 0,0 -8.162,0 c -0.75,0 -1.36,-0.609 -1.36,-1.361 0,-0.75 0.61,-1.359 1.36,-1.359 l 8.162,0 c 0.751,0 1.361,0.609 1.361,1.359 C 1.361,-0.609 0.751,0 0,0" />
      </g>
      <g
         transform="matrix(1.25,0,0,-1.25,-246.7327,495.48499)"
         id="g1172">
        <path
           inkscape:connector-curvature="0"
           id="path1174"
           style="fill:#ffffff;fill-opacity:1;fill-rule:nonzero;stroke:none"
           d="m 0,0 -8.162,0 c -0.75,0 -1.36,-0.609 -1.36,-1.36 0,-0.751 0.61,-1.361 1.36,-1.361 l 8.162,0 c 0.751,0 1.361,0.61 1.361,1.361 C 1.361,-0.609 0.751,0 0,0" />
      </g>
      <g
         transform="matrix(1.25,0,0,-1.25,-209.32405,495.48499)"
         id="g1176">
        <path
           inkscape:connector-curvature="0"
           id="path1178"
           style="fill:#ffffff;fill-opacity:1;fill-rule:nonzero;stroke:none"
           d="m 0,0 -2.72,0 c -0.752,0 -1.361,-0.609 -1.361,-1.36 0,-0.751 0.609,-1.361 1.361,-1.361 l 2.72,0 c 0.75,0 1.36,0.61 1.36,1.361 C 1.361,-0.609 0.751,0 0,0" />
      </g>
      <g
         transform="matrix(1.25,0,0,-1.25,-188.92005,495.48499)"
         id="g1180">
        <path
           inkscape:connector-curvature="0"
           id="path1182"
           style="fill:#ffffff;fill-opacity:1;fill-rule:nonzero;stroke:none"
           d="m 0,0 -5.441,0 c -0.751,0 -1.36,-0.609 -1.36,-1.36 0,-0.751 0.609,-1.361 1.36,-1.361 l 5.441,0 c 0.751,0 1.361,0.61 1.361,1.361 C 1.361,-0.609 0.751,0 0,0" />
      </g>
      <path
         inkscape:connector-curvature="0"
         id="path1184"
         style="fill:#ffffff;fill-opacity:1;fill-rule:nonzero;stroke:none"
         d="m -228.0282,458.07664 -3.4,0 0,-20.405 3.4,0 0,20.405 z m 3.4,-22.105 c 0,-0.93875 -0.76125,-1.7 -1.7,-1.7 l -6.80125,0 c -0.9375,0 -1.7,0.76125 -1.7,1.7 l 0,23.80625 c 0,0.9375 0.7625,1.69875 1.7,1.69875 l 6.80125,0 c 0.93875,0 1.7,-0.76125 1.7,-1.69875 l 0,-23.80625 z" />
      <g
         transform="matrix(1.25,0,0,-1.25,-188.92005,488.68319)"
         id="g1186">
        <path
           inkscape:connector-curvature="0"
           id="path1188"
           style="fill:#ffffff;fill-opacity:1;fill-rule:nonzero;stroke:none"
           d="m 0,0 -5.441,0 c -0.751,0 -1.36,-0.609 -1.36,-1.361 0,-0.75 0.609,-1.359 1.36,-1.359 l 5.441,0 c 0.751,0 1.361,0.609 1.361,1.359 C 1.361,-0.609 0.751,0 0,0" />
      </g>
      <g
         transform="matrix(1.25,0,0,-1.25,-226.32775,495.48499)"
         id="g1190">
        <path
           inkscape:connector-curvature="0"
           id="path1192"
           style="fill:#ffffff;fill-opacity:1;fill-rule:nonzero;stroke:none"
           d="m 0,0 -5.441,0 c -0.751,0 -1.36,-0.609 -1.36,-1.36 0,-0.751 0.609,-1.361 1.36,-1.361 l 5.441,0 c 0.75,0 1.36,0.61 1.36,1.361 C 1.36,-0.609 0.75,0 0,0" />
      </g>
      <g
         transform="matrix(1.25,0,0,-1.25,-195.72105,468.27919)"
         id="g1194">
        <path
           inkscape:connector-curvature="0"
           id="path1196"
           style="fill:#ffffff;fill-opacity:1;fill-rule:nonzero;stroke:none"
           d="m 0,0 c 0.751,0 1.361,0.61 1.361,1.361 l 0,13.602 c 0,0.752 -0.61,1.361 -1.361,1.361 -0.751,0 -1.361,-0.609 -1.361,-1.361 l 0,-13.602 C -1.361,0.61 -0.751,0 0,0" />
      </g>
      <g
         transform="matrix(1.25,0,0,-1.25,-187.21935,449.57479)"
         id="g1198">
        <path
           inkscape:connector-curvature="0"
           id="path1200"
           style="fill:#ffffff;fill-opacity:1;fill-rule:nonzero;stroke:none"
           d="M 0,0 C 0,0.751 -0.61,1.361 -1.36,1.361 -2.111,1.361 -2.72,0.751 -2.72,0 l 0,-13.603 c 0,-0.75 0.609,-1.36 1.36,-1.36 0.75,0 1.36,0.61 1.36,1.36 L 0,0 Z" />
      </g>
      <g
         transform="matrix(1.25,0,0,-1.25,-204.22295,505.68649)"
         id="g1202">
        <path
           inkscape:connector-curvature="0"
           id="path1204"
           style="fill:#ffffff;fill-opacity:1;fill-rule:nonzero;stroke:none"
           d="m 0,0 -10.882,0 0,65.294 6.801,0 c 0.75,0 1.36,0.61 1.36,1.36 0,0.751 -0.61,1.361 -1.36,1.361 l -6.801,0 0,4.081 c 0,0.763 0.597,1.36 1.359,1.36 l 8.162,0 C -0.585,73.456 0,72.871 0,72.096 L 0,0 Z m -29.927,0 -16.323,0 0,68.015 12.242,0 c 0.751,0 1.361,0.609 1.361,1.36 0,0.751 -0.61,1.36 -1.361,1.36 l -12.242,0 0,4.081 c 0,0.763 0.597,1.361 1.36,1.361 l 13.603,0 c 0.775,0 1.36,-0.586 1.36,-1.361 l 0,-74.816 z m 44.89,68.015 -8.162,0 c -0.751,0 -1.36,-0.61 -1.36,-1.361 0,-0.75 0.609,-1.36 1.36,-1.36 l 8.162,0 c 0.75,0 1.36,-0.611 1.36,-1.36 l 0,-62.574 C 16.323,0.61 15.713,0 14.963,0 l -12.242,0 0,57.132 8.162,0 c 0.75,0 1.359,0.61 1.359,1.361 0,0.75 -0.609,1.36 -1.359,1.36 l -8.162,0 0,12.243 c 0,2.287 -1.793,4.081 -4.082,4.081 l -8.162,0 c -2.249,0 -4.08,-1.832 -4.08,-4.081 l 0,-72.096 -13.603,0 0,70.735 9.522,0 c 0.751,0 1.36,0.61 1.36,1.361 0,0.75 -0.609,1.36 -1.36,1.36 l -9.522,0 0,1.36 c 0,2.289 -1.793,4.081 -4.081,4.081 l -13.603,0 c -2.25,0 -4.081,-1.83 -4.081,-4.081 l 0,-12.243 -6.802,0 c -0.75,0 -1.359,-0.609 -1.359,-1.36 0,-0.751 0.609,-1.36 1.359,-1.36 l 6.802,0 0,-59.853 -9.522,0 c -0.749,0 -1.361,0.61 -1.361,1.36 l 0,65.294 c 0,0.75 0.612,1.361 1.361,1.361 l 5.441,0 c 0.751,0 1.36,0.609 1.36,1.36 0,0.751 -0.609,1.36 -1.36,1.36 l -5.441,0 c -2.25,0 -4.081,-1.83 -4.081,-4.081 l 0,-65.294 c 0,-2.25 1.831,-4.081 4.081,-4.081 l 73.456,0 c 2.25,0 4.082,1.831 4.082,4.081 l 0,62.574 c 0,2.25 -1.832,4.081 -4.082,4.081" />
      </g>
      <g
         transform="matrix(1.25,0,0,-1.25,-270.5382,488.68319)"
         id="g1206">
        <path
           inkscape:connector-curvature="0"
           id="path1208"
           style="fill:#ffffff;fill-opacity:1;fill-rule:nonzero;stroke:none"
           d="m 0,0 -2.72,0 c -0.751,0 -1.36,-0.609 -1.36,-1.361 0,-0.75 0.609,-1.359 1.36,-1.359 l 2.721,0 c 0.75,0 1.36,0.609 1.36,1.359 C 1.361,-0.609 0.751,0 0,0" />
      </g>
      <g
         transform="matrix(1.25,0,0,-1.25,-270.5382,495.48499)"
         id="g1210">
        <path
           inkscape:connector-curvature="0"
           id="path1212"
           style="fill:#ffffff;fill-opacity:1;fill-rule:nonzero;stroke:none"
           d="m 0,0 -2.72,0 c -0.751,0 -1.36,-0.609 -1.36,-1.36 0,-0.751 0.609,-1.361 1.36,-1.361 l 2.721,0 c 0.75,0 1.36,0.61 1.36,1.361 C 1.361,-0.609 0.751,0 0,0" />
      </g>
      <g
         transform="matrix(1.25,0,0,-1.25,-226.32775,488.68319)"
         id="g1214">
        <path
           inkscape:connector-curvature="0"
           id="path1216"
           style="fill:#ffffff;fill-opacity:1;fill-rule:nonzero;stroke:none"
           d="m 0,0 -5.441,0 c -0.751,0 -1.36,-0.609 -1.36,-1.361 0,-0.75 0.609,-1.359 1.36,-1.359 l 5.441,0 c 0.75,0 1.36,0.609 1.36,1.359 C 1.36,-0.609 0.75,0 0,0" />
      </g>
      <g
         transform="matrix(1.25,0,0,-1.25,-270.5382,447.87399)"
         id="g1218">
        <path
           inkscape:connector-curvature="0"
           id="path1220"
           style="fill:#ffffff;fill-opacity:1;fill-rule:nonzero;stroke:none"
           d="m 0,0 -2.72,0 c -0.751,0 -1.36,-0.609 -1.36,-1.361 0,-0.75 0.609,-1.359 1.36,-1.359 l 2.721,0 c 0.75,0 1.36,0.609 1.36,1.359 C 1.361,-0.609 0.751,0 0,0" />
      </g>
      <g
         transform="matrix(1.25,0,0,-1.25,-270.5382,454.67529)"
         id="g1222">
        <path
           inkscape:connector-curvature="0"
           id="path1224"
           style="fill:#ffffff;fill-opacity:1;fill-rule:nonzero;stroke:none"
           d="m 0,0 -2.72,0 c -0.751,0 -1.36,-0.609 -1.36,-1.361 0,-0.751 0.608,-1.36 1.36,-1.36 l 2.721,0 c 0.75,0 1.36,0.609 1.36,1.36 C 1.361,-0.61 0.751,0 0,0" />
      </g>
    </g>
  </g>
</svg>
