<?xml version="1.0" encoding="utf-8"?>
<!-- Generator: Adobe Illustrator 22.1.0, SVG Export Plug-In . SVG Version: 6.00 Build 0)  -->
<svg version="1.1" id="Capa_1" xmlns="http://www.w3.org/2000/svg" xmlns:xlink="http://www.w3.org/1999/xlink" x="0px" y="0px"
	 viewBox="0 0 469.3 469.3" style="enable-background:new 0 0 469.3 469.3;" xml:space="preserve">
<style type="text/css">
	.st0{fill:#1C3664;}
	.st1{fill:#EE3E52;}
	.st2{fill:#FFFFFF;}
	.st3{fill:url(#SVGID_1_);}
</style>
<path class="st0" d="M438,13L38.8,11.1C22.9,11.1,10,24,10,39.9v392.4c0,15.9,12.9,28.8,28.8,28.8h392.4c15.9,0,28.8-12.9,28.8-28.8
	V52C460,29.4,456,19,438,13z"/>
<path class="st1" d="M448,426.7c0,11.8-9.6,21.3-21.3,21.3h-384c-11.8,0-21.3-9.6-21.3-21.3v-384c0-11.8,9.6-21.3,21.3-21.3h384
	c11.8,0,21.3,9.6,21.3,21.3V426.7z"/>
<path class="st2" d="M234.7,85.3c-47.1,0-85.3,38.3-85.3,85.3v10.7c0,5.9,4.8,10.7,10.7,10.7h42.7c5.9,0,10.7-4.8,10.7-10.7v-10.7
	c0-11.8,9.6-21.3,21.3-21.3s21.3,9.6,21.3,21.3v24.6c0,4.3-2.6,8.1-6.5,9.7c-28.4,11.4-46.8,38.5-46.8,69.1V288
	c0,5.9,4.8,10.7,10.7,10.7H256c5.9,0,10.7-4.8,10.7-10.7v-13.9c0-4.3,2.6-8.1,6.5-9.7c28.4-11.4,46.8-38.5,46.8-69.1v-24.6
	C320,123.6,281.7,85.3,234.7,85.3z"/>
<path class="st2" d="M298.7,195.3c0,21.8-13.1,41.2-33.4,49.3c-12.1,4.8-20,16.4-20,29.5v3.3H224v-3.3c0-21.8,13.1-41.2,33.4-49.3
	c12.1-4.8,20-16.4,20-29.5v-24.6c0-23.5-19.1-42.7-42.7-42.7S192,147.1,192,170.7h-21.3c0-35.3,28.7-64,64-64s64,28.7,64,64V195.3z"
	/>
<path class="st2" d="M256,320h-42.7c-5.9,0-10.7,4.8-10.7,10.7v42.7c0,5.9,4.8,10.7,10.7,10.7H256c5.9,0,10.7-4.8,10.7-10.7v-42.7
	C266.7,324.8,261.9,320,256,320z"/>
<rect x="224" y="341.3" class="st2" width="21.3" height="21.3"/>
<g>
	<circle class="st0" cx="64" cy="64" r="21.3"/>
	<circle class="st0" cx="405.3" cy="64" r="21.3"/>
</g>
<linearGradient id="SVGID_1_" gradientUnits="userSpaceOnUse" x1="96.4419" y1="-364.0134" x2="109.1453" y2="-351.311" gradientTransform="matrix(21.3333 0 0 21.3333 -1884.2167 7933.8979)">
	<stop  offset="0" style="stop-color:#000000;stop-opacity:0.1"/>
	<stop  offset="1" style="stop-color:#000000;stop-opacity:0"/>
</linearGradient>
<path class="st3" d="M291,106.7l-0.3,0.2c0.8,0.7,1.7,1.3,2.5,2L291,106.7z M296.5,112.2C311,127.5,320,148,320,170.7v24.6
	c0,30.6-18.4,57.7-46.8,69.1c-4,1.6-6.5,5.4-6.5,9.7V288c0,5.9-4.8,10.7-10.7,10.7h-42.7c-2.2,0-4.1-0.8-5.8-2l23.3,23.3H256
	c5.9,0,10.7,4.8,10.7,10.7v42.7c0,5.9-4.8,10.7-10.7,10.7h-42.7c-2.1,0-4-0.8-5.6-1.8l65.8,65.8h153.1c11.8,0,21.3-9.6,21.3-21.3
	v-163L296.5,112.2z M249.5,204.9c4-1.6,6.5-5.4,6.5-9.7v-24.6c0-11.8-9.6-21.3-21.3-21.3s-21.3,9.6-21.3,21.3v10.7
	c0,5.9-4.8,10.7-10.7,10.7H160c-2.9,0-5.5-1.2-7.4-3.1l56.1,56.1C216.2,227.1,230.5,212.5,249.5,204.9z"/>
<g>
	<circle class="st0" cx="64" cy="405.3" r="21.3"/>
	<circle class="st0" cx="405.3" cy="405.3" r="21.3"/>
</g>
</svg>
