<?xml version="1.0" encoding="UTF-8"?>
<!DOCTYPE svg PUBLIC "-//W3C//DTD SVG 1.1//EN" "http://www.w3.org/Graphics/SVG/1.1/DTD/svg11.dtd">
<!-- Creator: CorelDRAW X6 -->
<svg xmlns="http://www.w3.org/2000/svg" xml:space="preserve" width="10.6944in" height="10.6667in" version="1.1" style="shape-rendering:geometricPrecision; text-rendering:geometricPrecision; image-rendering:optimizeQuality; fill-rule:evenodd; clip-rule:evenodd"
viewBox="0 0 10694 10667"
 xmlns:xlink="http://www.w3.org/1999/xlink">
 <defs>
  <style type="text/css">
   <![CDATA[
    .fil0 {fill:#071328;fill-rule:nonzero}
   ]]>
  </style>
 </defs>
 <g id="Capa_x0020_1">
  <metadata id="CorelCorpID_0Corel-Layer"/>
  <g id="_351385744">
   <path class="fil0" d="M5388 4601c-420,0 -761,341 -761,761 0,420 341,761 761,761 420,0 761,-341 761,-761 0,-420 -341,-761 -761,-761zm0 1047l0 0c-157,0 -285,-128 -285,-285 0,-157 128,-285 285,-285 157,0 285,128 285,285 0,157 -128,285 -285,285z"/>
   <path class="fil0" d="M9062 1688c-981,-981 -2286,-1522 -3674,-1522 -1388,0 -2692,540 -3674,1522 -981,981 -1522,2286 -1522,3674 0,1388 540,2692 1522,3673 981,981 2286,1522 3674,1522 1388,0 2692,-540 3674,-1522 981,-981 1522,-2286 1522,-3673 0,-1388 -540,-2692 -1522,-3674zm-3916 5201l0 0 -992 3027c-140,-38 -278,-82 -413,-133l992 -3022c129,61 267,104 413,127zm243 -457l0 0c-591,0 -1071,-481 -1071,-1071 0,-591 480,-1071 1071,-1071 591,0 1071,480 1071,1071 0,591 -480,1071 -1071,1071zm708 -2446l0 0c-127,-66 -263,-114 -407,-143l991 -3022c139,40 275,86 409,138l-992 3028zm-2695 -2906l0 0 -2148 6554c-373,-675 -585,-1450 -585,-2274 0,-1893 1121,-3529 2733,-4280zm-1817 7071l0 0 2391 -7294c446,-140 921,-216 1413,-216 282,0 558,25 827,73l-1020 3112c-762,95 -1354,747 -1354,1534 0,441 186,839 483,1121l-1020 3112c-682,-337 -1272,-834 -1719,-1442zm3803 1928l0 0c-261,0 -518,-22 -768,-63l1027 -3132c730,-124 1288,-760 1288,-1525 0,-417 -166,-796 -436,-1075l1027 -3132c1531,781 2582,2374 2582,4207 0,2602 -2117,4719 -4719,4719z"/>
  </g>
 </g>
</svg>
