<?xml version="1.0" encoding="UTF-8" standalone="no"?>
<!-- Created with Inkscape (http://www.inkscape.org/) -->

<svg
   xmlns:dc="http://purl.org/dc/elements/1.1/"
   xmlns:cc="http://creativecommons.org/ns#"
   xmlns:rdf="http://www.w3.org/1999/02/22-rdf-syntax-ns#"
   xmlns:svg="http://www.w3.org/2000/svg"
   xmlns="http://www.w3.org/2000/svg"
   xmlns:sodipodi="http://sodipodi.sourceforge.net/DTD/sodipodi-0.dtd"
   xmlns:inkscape="http://www.inkscape.org/namespaces/inkscape"
   width="46.858002"
   height="40"
   viewBox="0 0 46.858002 40.000001"
   id="svg5276"
   version="1.1"
   inkscape:version="0.91 r13725"
   sodipodi:docname="mail-to.svg">
  <defs
     id="defs5278">
    <clipPath
       clipPathUnits="userSpaceOnUse"
       id="clipPath464">
      <path
         d="m 0,2136.975 2560,0 L 2560,0 0,0 0,2136.975 Z"
         id="path466"
         inkscape:connector-curvature="0" />
    </clipPath>
  </defs>
  <sodipodi:namedview
     id="base"
     pagecolor="#ffffff"
     bordercolor="#666666"
     borderopacity="1.0"
     inkscape:pageopacity="0.0"
     inkscape:pageshadow="2"
     inkscape:zoom="2.8"
     inkscape:cx="16.625077"
     inkscape:cy="15.744181"
     inkscape:document-units="px"
     inkscape:current-layer="layer1"
     showgrid="false"
     units="px"
     inkscape:window-width="1329"
     inkscape:window-height="744"
     inkscape:window-x="37"
     inkscape:window-y="24"
     inkscape:window-maximized="1" />
  <metadata
     id="metadata5281">
    <rdf:RDF>
      <cc:Work
         rdf:about="">
        <dc:format>image/svg+xml</dc:format>
        <dc:type
           rdf:resource="http://purl.org/dc/dcmitype/StillImage" />
        <dc:title></dc:title>
      </cc:Work>
    </rdf:RDF>
  </metadata>
  <g
     inkscape:label="Layer 1"
     inkscape:groupmode="layer"
     id="layer1"
     transform="translate(0,-1012.3622)">
    <g
       id="g56"
       transform="matrix(1.6714344,0,0,-1.6714344,16.29288,1035.3169)">
      <path
         d="m 0,0 0.386,-1.69 c 0.056,0.405 0.24,0.745 0.522,0.996 L 5.672,3.518 0,0 Z m 4.938,-3.124 6.838,-5.019 c 0.108,-0.079 0.212,-0.056 0.266,-0.035 0.053,0.02 0.146,0.074 0.173,0.203 l 4.067,19.437 c 0.023,0.109 -0.028,0.179 -0.075,0.218 -0.047,0.039 -0.125,0.078 -0.227,0.038 l -0.001,0 L -7.473,2.58 -1.878,0.928 c 0.131,0.245 0.326,0.463 0.579,0.62 l 13.06,8.099 c 0.571,0.357 1.308,0.218 1.714,-0.326 0.402,-0.542 0.324,-1.286 -0.182,-1.733 l -10.934,-9.67 -0.258,-3.882 2.837,2.84 z m 7.001,-7.074 c -0.477,0 -0.949,0.151 -1.346,0.444 L 5.153,-5.762 2.632,-8.337 C 2.125,-8.854 1.4,-9.062 0.701,-8.894 c -0.703,0.168 -1.253,0.68 -1.471,1.37 l -2.097,6.659 -5.541,1.636 c -0.779,0.23 -1.304,0.902 -1.338,1.712 -0.035,0.81 0.431,1.524 1.186,1.82 l 23.812,9.278 c 0.763,0.297 1.623,0.154 2.247,-0.374 0.624,-0.528 0.908,-1.354 0.74,-2.154 L 14.173,-8.383 c -0.158,-0.762 -0.688,-1.384 -1.415,-1.663 -0.267,-0.102 -0.544,-0.152 -0.819,-0.152"
         style="fill:#e43345;fill-opacity:1;fill-rule:nonzero;stroke:none"
         id="path58"
         inkscape:connector-curvature="0" />
    </g>
    <g
       id="g60"
       transform="matrix(1.6714344,0,0,-1.6714344,14.08297,1034.3547)">
      <path
         d="m 0,0 -7.257,2.052 3.005,1.686 20.818,8.21 1.54,-0.146 0.671,-1.287 L 11.377,4.16 8.667,4.535 0,0 Z"
         style="fill:#e43345;fill-opacity:1;fill-rule:nonzero;stroke:none"
         id="path62"
         inkscape:connector-curvature="0" />
    </g>
  </g>
</svg>
