<?xml version="1.0" encoding="UTF-8" standalone="no"?>
<!-- Created with Inkscape (http://www.inkscape.org/) -->

<svg
   xmlns:dc="http://purl.org/dc/elements/1.1/"
   xmlns:cc="http://creativecommons.org/ns#"
   xmlns:rdf="http://www.w3.org/1999/02/22-rdf-syntax-ns#"
   xmlns:svg="http://www.w3.org/2000/svg"
   xmlns="http://www.w3.org/2000/svg"
   xmlns:sodipodi="http://sodipodi.sourceforge.net/DTD/sodipodi-0.dtd"
   xmlns:inkscape="http://www.inkscape.org/namespaces/inkscape"
   width="28.917"
   height="40"
   viewBox="0 0 28.917 40.000001"
   id="svg5766"
   version="1.1"
   inkscape:version="0.91 r13725"
   sodipodi:docname="map-marker.svg">
  <defs
     id="defs5768" />
  <sodipodi:namedview
     id="base"
     pagecolor="#ffffff"
     bordercolor="#666666"
     borderopacity="1.0"
     inkscape:pageopacity="0.0"
     inkscape:pageshadow="2"
     inkscape:zoom="2.8"
     inkscape:cx="25.402764"
     inkscape:cy="35.794694"
     inkscape:document-units="px"
     inkscape:current-layer="layer1"
     showgrid="false"
     units="px"
     inkscape:window-width="1323"
     inkscape:window-height="744"
     inkscape:window-x="37"
     inkscape:window-y="24"
     inkscape:window-maximized="1" />
  <metadata
     id="metadata5771">
    <rdf:RDF>
      <cc:Work
         rdf:about="">
        <dc:format>image/svg+xml</dc:format>
        <dc:type
           rdf:resource="http://purl.org/dc/dcmitype/StillImage" />
        <dc:title></dc:title>
      </cc:Work>
    </rdf:RDF>
  </metadata>
  <g
     inkscape:label="Layer 1"
     inkscape:groupmode="layer"
     id="layer1"
     transform="translate(0,-1012.3622)">
    <g
       id="g6326"
       transform="translate(0,4.1790136e-5)">
      <g
         transform="matrix(1.2699007,0,0,-1.2699007,14.460192,1031.9511)"
         id="g682">
        <path
           inkscape:connector-curvature="0"
           id="path684"
           style="fill:#ffffff;fill-opacity:1;fill-rule:nonzero;stroke:none"
           d="m 0,0 c -2.14,0 -3.882,1.741 -3.882,3.881 0,2.14 1.742,3.882 3.882,3.882 2.14,0 3.881,-1.742 3.881,-3.882 C 3.881,1.741 2.14,0 0,0 m 0,9.272 c -2.972,0 -5.391,-2.418 -5.391,-5.391 0,-2.972 2.419,-5.39 5.391,-5.39 2.972,0 5.39,2.418 5.39,5.39 0,2.973 -2.418,5.391 -5.39,5.391" />
      </g>
      <g
         transform="matrix(1.2699007,0,0,-1.2699007,24.7666,1033.9423)"
         id="g686">
        <path
           inkscape:connector-curvature="0"
           id="path688"
           style="fill:#ffffff;fill-opacity:1;fill-rule:nonzero;stroke:none"
           d="m 0,0 -8.116,-12.375 -8.131,12.39 c -2.705,3.917 -2.22,9.207 1.151,12.576 1.865,1.865 4.344,2.892 6.981,2.892 2.636,0 5.114,-1.026 6.978,-2.89 C 2.237,9.227 2.719,3.937 0,0 m -0.07,13.661 c -2.148,2.148 -5.005,3.332 -8.045,3.332 -3.04,0 -5.898,-1.185 -8.048,-3.333 -3.888,-3.886 -4.445,-9.986 -1.336,-14.488 l 8.752,-13.337 c 0.14,-0.212 0.377,-0.34 0.631,-0.34 0.255,0 0.492,0.128 0.631,0.34 L 1.252,-0.843 C 4.376,3.679 3.82,9.78 -0.07,13.661" />
      </g>
    </g>
  </g>
</svg>
