<?xml version="1.0" encoding="UTF-8"?>
<!DOCTYPE svg PUBLIC "-//W3C//DTD SVG 1.1//EN" "http://www.w3.org/Graphics/SVG/1.1/DTD/svg11.dtd">
<!-- Creator: CorelDRAW X6 -->
<svg xmlns="http://www.w3.org/2000/svg" xml:space="preserve" width="10.6944in" height="10.6667in" version="1.1" style="shape-rendering:geometricPrecision; text-rendering:geometricPrecision; image-rendering:optimizeQuality; fill-rule:evenodd; clip-rule:evenodd"
viewBox="0 0 10694 10667"
 xmlns:xlink="http://www.w3.org/1999/xlink">
 <defs>
  <style type="text/css">
   <![CDATA[
    .fil0 {fill:#071328;fill-rule:nonzero}
   ]]>
  </style>
 </defs>
 <g id="Capa_x0020_1">
  <metadata id="CorelCorpID_0Corel-Layer"/>
  <g id="_355675560">
   <path class="fil0" d="M8183 2977c-1741,0 -2358,1131 -2358,2100l0 3390c0,969 618,2100 2358,2100 1741,0 2358,-1131 2358,-2100l0 -3390c0,-969 -618,-2100 -2358,-2100zm2026 5490l0 0c0,204 -39,724 -402,1149 -350,411 -897,619 -1624,619 -728,0 -1274,-208 -1624,-619 -363,-426 -402,-946 -402,-1149l0 -3390c0,-204 39,-724 402,-1149 350,-411 897,-619 1624,-619 728,0 1274,208 1624,619 363,426 402,945 402,1149l0 3390z"/>
   <path class="fil0" d="M6755 499c696,0 1262,566 1262,1262l0 719c0,92 74,166 166,166 92,0 166,-74 166,-166l0 -719c0,-879 -715,-1594 -1594,-1594 -879,0 -1594,711 -1594,1586l0 4420c0,691 -566,1254 -1262,1254 -696,0 -1262,-566 -1262,-1262l0 -1321c1214,-85 2175,-1100 2175,-2335 0,-1291 -1050,-2341 -2341,-2341 -1291,0 -2341,1050 -2341,2341 0,1235 961,2250 2175,2335l0 1320c0,879 715,1594 1594,1594 879,0 1594,-711 1594,-1586l0 -4420c0,-691 566,-1254 1262,-1254zm-6293 2009l0 0c0,-1108 901,-2009 2009,-2009 1108,0 2009,901 2009,2009 0,1108 -901,2009 -2009,2009 -1108,0 -2009,-901 -2009,-2009z"/>
   <path class="fil0" d="M2471 2984c-69,0 -125,-56 -125,-125 0,-92 -74,-166 -166,-166 -92,0 -166,74 -166,166 0,193 121,359 291,425l0 71c0,92 74,166 166,166 92,0 166,-74 166,-166l0 -71c170,-67 291,-232 291,-425 0,-320 -261,-442 -386,-501 -153,-72 -195,-115 -195,-201 0,-69 56,-125 125,-125 69,0 125,56 125,125 0,92 74,166 166,166 92,0 166,-74 166,-166 0,-193 -121,-359 -291,-425l0 -71c0,-92 -74,-166 -166,-166 -92,0 -166,74 -166,166l0 71c-170,67 -291,232 -291,425 0,320 261,442 386,501 153,72 195,115 195,201 0,69 -56,125 -125,125z"/>
   <path class="fil0" d="M4148 2508c0,-925 -752,-1677 -1677,-1677 -383,0 -757,133 -1054,374 -293,237 -499,569 -582,935 -20,89 36,178 125,198 89,20 178,-36 198,-125 137,-608 689,-1050 1312,-1050 742,0 1345,603 1345,1345 0,742 -604,1345 -1345,1345 -623,0 -1175,-442 -1312,-1050 -20,-89 -109,-146 -198,-125 -89,20 -146,109 -125,198 82,365 289,697 581,935 297,241 672,374 1054,374 925,0 1677,-752 1677,-1677z"/>
   <path class="fil0" d="M8349 6607l0 -577c247,-72 427,-300 427,-570l0 -788c0,-270 -181,-498 -427,-570l0 -295c0,-92 -74,-166 -166,-166 -92,0 -166,74 -166,166l0 295c-247,72 -427,300 -427,570l0 788c0,270 181,498 427,570l0 577 -1362 0c-92,0 -166,74 -166,166 0,92 74,166 166,166l3057 0c92,0 166,-74 166,-166 0,-92 -74,-166 -166,-166l-1362 0zm-427 -1147l0 0 0 -788c0,-144 117,-262 262,-262 144,0 261,117 261,262l0 788c0,144 -117,262 -261,262 -144,0 -262,-117 -262,-262z"/>
  </g>
 </g>
</svg>
