<?xml version="1.0" encoding="utf-8"?>
<!-- Generator: Adobe Illustrator 16.0.0, SVG Export Plug-In . SVG Version: 6.00 Build 0)  -->
<!DOCTYPE svg PUBLIC "-//W3C//DTD SVG 1.1//EN" "http://www.w3.org/Graphics/SVG/1.1/DTD/svg11.dtd">
<svg version="1.1" id="Capa_1" xmlns="http://www.w3.org/2000/svg" xmlns:xlink="http://www.w3.org/1999/xlink" x="0px" y="0px"
	 width="513px" height="457.527px" viewBox="0 0 513 457.527" enable-background="new 0 0 513 457.527" xml:space="preserve">
<g>
	<path fill="#E43345" stroke="#E43345" stroke-miterlimit="10" d="M512.493,122.172c0-4.001-2.337-7.632-5.981-9.282L260.712,1.408
		c-2.7-1.228-5.764-1.195-8.424,0.006V1.408L6.488,112.89c-3.645,1.65-5.981,5.281-5.981,9.289H0.5v213.708
		c0,4.021,2.344,7.652,6.001,9.296l245.801,110.94c1.346,0.607,2.772,0.904,4.198,0.904c1.433,0,2.865-0.304,4.192-0.904
		l0.033-0.014l0.013-0.006l245.761-110.914c3.657-1.65,6.001-5.282,6.001-9.296V122.179L512.493,122.172z M56.096,130.741H246.3
		v82.479l-12.141-5.269L56.096,130.741z M266.7,213.221v-82.479h91.795c5.631,0,10.193-4.568,10.193-10.2
		s-4.563-10.193-10.193-10.193H266.7V26.515l210.446,95.452l-198.299,85.985L266.7,213.221z M246.3,110.348H61.47L246.3,26.515
		V110.348z M20.894,137.713l15.185,6.582L246.3,235.457v195.578L20.894,329.304V137.713z M492.106,329.304L266.7,431.035V235.457
		l210.222-91.162l15.185-6.582V329.304z"/>
	<path fill="#E43345" stroke="#E43345" stroke-miterlimit="10" d="M401.329,110.341h-7.137c-5.632,0-10.201,4.568-10.201,10.207
		c0,5.625,4.569,10.193,10.201,10.193h7.137c5.631,0,10.206-4.568,10.206-10.193C411.535,114.909,406.96,110.341,401.329,110.341"/>
	<path fill="#E43345" stroke="#E43345" stroke-miterlimit="10" d="M430.18,222.952c-2.865-1.889-6.497-2.199-9.652-0.832
		l-77.812,33.743c-3.73,1.625-6.14,5.295-6.14,9.362v69.03c0,3.467,1.756,6.695,4.667,8.569c1.671,1.083,3.599,1.631,5.526,1.631
		c1.426,0,2.865-0.297,4.199-0.904l77.812-35.123c3.657-1.644,6.008-5.281,6.008-9.295v-67.658
		C434.788,228.042,433.058,224.84,430.18,222.952 M414.388,292.55l-57.411,25.913v-46.544l57.411-24.903V292.55z"/>
</g>
</svg>
