<?xml version="1.0" encoding="UTF-8"?>
<!DOCTYPE svg PUBLIC "-//W3C//DTD SVG 1.1//EN" "http://www.w3.org/Graphics/SVG/1.1/DTD/svg11.dtd">
<!-- Creator: CorelDRAW X6 -->
<svg xmlns="http://www.w3.org/2000/svg" xml:space="preserve" width="10.6944in" height="10.6667in" version="1.1" style="shape-rendering:geometricPrecision; text-rendering:geometricPrecision; image-rendering:optimizeQuality; fill-rule:evenodd; clip-rule:evenodd"
viewBox="0 0 10694 10667"
 xmlns:xlink="http://www.w3.org/1999/xlink">
 <defs>
  <style type="text/css">
   <![CDATA[
    .fil0 {fill:#071328;fill-rule:nonzero}
   ]]>
  </style>
 </defs>
 <g id="Capa_x0020_1">
  <metadata id="CorelCorpID_0Corel-Layer"/>
  <g id="_356284424">
   <path class="fil0" d="M2740 8144c285,0 517,-232 517,-517l0 -517 517 0c285,0 517,-232 517,-517 0,-285 -232,-517 -517,-517l-517 0 0 -517c0,-285 -232,-517 -517,-517 -285,0 -517,232 -517,517l0 517 -517 0c-285,0 -517,232 -517,517 0,285 232,517 517,517l517 0 0 517c0,285 232,517 517,517zm-1035 -1380l0 0c-95,0 -172,-77 -172,-172 0,-95 77,-172 172,-172l690 0c95,0 172,-77 172,-172l0 -690c0,-95 77,-172 172,-172 95,0 173,77 173,172l0 690c0,95 77,172 172,172l690 0c95,0 173,77 173,172 0,95 -77,172 -173,172l-690 0c-95,0 -172,77 -172,172l0 690c0,95 -77,172 -172,172 -95,0 -172,-77 -172,-172l0 -690c0,-95 -77,-172 -172,-172l-690 0z"/>
   <path class="fil0" d="M7913 4006l-1207 0 0 -1552c0,-475 -387,-862 -862,-862 -475,0 -862,387 -862,862 0,285 -232,517 -517,517 -285,0 -517,-232 -517,-517l0 -2069c0,-95 -77,-172 -173,-172 -95,0 -172,77 -172,172l0 2069c0,475 387,862 862,862 475,0 862,-387 862,-862 0,-285 232,-517 517,-517 285,0 517,232 517,517l0 1725c0,95 77,172 172,172l1380 0c1215,0 2242,1027 2242,2242l0 2768c0,549 -510,853 -862,853 -501,0 -798,-325 -1173,-736 -543,-594 -1219,-1334 -2793,-1334 -1571,0 -2245,738 -2786,1331 -377,413 -674,739 -1181,739 -360,0 -862,-328 -862,-862l0 -2759c0,-1215 1027,-2242 2242,-2242l3104 0c95,0 172,-77 172,-172 0,-95 -77,-172 -172,-172l-3104 0c-1402,0 -2587,1185 -2587,2587l0 2759c0,711 636,1207 1207,1207 658,0 1036,-413 1435,-851 522,-571 1112,-1219 2531,-1219 1421,0 2015,649 2538,1222 399,436 776,848 1428,848 571,0 1207,-492 1207,-1198l0 -2768c0,-1402 -1185,-2587 -2587,-2587z"/>
   <path class="fil0" d="M8948 7110c285,0 517,-232 517,-517 0,-285 -232,-517 -517,-517 -285,0 -517,232 -517,517 0,285 232,517 517,517zm0 -690l0 0c95,0 172,77 172,172 0,95 -77,172 -172,172 -95,0 -172,-77 -172,-172 0,-95 77,-172 172,-172z"/>
   <path class="fil0" d="M7913 5040c-285,0 -517,232 -517,517 0,285 232,517 517,517 285,0 517,-232 517,-517 0,-285 -232,-517 -517,-517zm0 690l0 0c-95,0 -172,-77 -172,-172 0,-95 77,-172 172,-172 95,0 172,77 172,172 0,95 -77,172 -172,172z"/>
   <path class="fil0" d="M6878 6075c-285,0 -517,232 -517,517 0,285 232,517 517,517 285,0 517,-232 517,-517 0,-285 -232,-517 -517,-517zm0 690l0 0c-95,0 -172,-77 -172,-172 0,-95 77,-172 172,-172 95,0 172,77 172,172 0,95 -77,172 -172,172z"/>
   <path class="fil0" d="M7913 8144c285,0 517,-232 517,-517 0,-285 -232,-517 -517,-517 -285,0 -517,232 -517,517 0,285 232,517 517,517zm0 -690l0 0c95,0 172,77 172,172 0,95 -77,172 -172,172 -95,0 -172,-77 -172,-172 0,-95 77,-172 172,-172z"/>
  </g>
 </g>
</svg>
