<?xml version="1.0" encoding="UTF-8" standalone="no"?>
<!-- Created with Inkscape (http://www.inkscape.org/) -->

<svg
   xmlns:dc="http://purl.org/dc/elements/1.1/"
   xmlns:cc="http://creativecommons.org/ns#"
   xmlns:rdf="http://www.w3.org/1999/02/22-rdf-syntax-ns#"
   xmlns:svg="http://www.w3.org/2000/svg"
   xmlns="http://www.w3.org/2000/svg"
   xmlns:sodipodi="http://sodipodi.sourceforge.net/DTD/sodipodi-0.dtd"
   xmlns:inkscape="http://www.inkscape.org/namespaces/inkscape"
   width="35.639999"
   height="30"
   viewBox="0 0 35.639998 30"
   id="svg7270"
   version="1.1"
   inkscape:version="0.91 r13725"
   sodipodi:docname="social-media-icon-tw-w.svg">
  <defs
     id="defs7272" />
  <sodipodi:namedview
     id="base"
     pagecolor="#ffffff"
     bordercolor="#666666"
     borderopacity="1.0"
     inkscape:pageopacity="0.0"
     inkscape:pageshadow="2"
     inkscape:zoom="5.6"
     inkscape:cx="20.876739"
     inkscape:cy="6.1374329"
     inkscape:document-units="px"
     inkscape:current-layer="g2814"
     showgrid="false"
     units="px"
     inkscape:window-width="1323"
     inkscape:window-height="744"
     inkscape:window-x="37"
     inkscape:window-y="24"
     inkscape:window-maximized="1" />
  <metadata
     id="metadata7275">
    <rdf:RDF>
      <cc:Work
         rdf:about="">
        <dc:format>image/svg+xml</dc:format>
        <dc:type
           rdf:resource="http://purl.org/dc/dcmitype/StillImage" />
        <dc:title></dc:title>
      </cc:Work>
    </rdf:RDF>
  </metadata>
  <g
     inkscape:label="Layer 1"
     inkscape:groupmode="layer"
     id="layer1"
     transform="translate(0,-1022.3622)">
    <g
       id="g168"
       transform="matrix(1.0214852,0,0,-1.0214852,14.663451,1022.3622)">
      <g
         id="g2814"
         transform="matrix(1.0628277,0,0,1.0628239,-10.704037,-25.663997)">
        <path
           d="m 0,0 c 2.196,-0.976 4.583,-1.486 6.999,-1.486 2.671,0 5.165,0.528 7.413,1.569 2.055,0.952 3.872,2.314 5.401,4.049 1.429,1.621 2.547,3.493 3.323,5.567 0.739,1.973 1.129,4.076 1.129,6.082 l 0,0.101 c 0,0.643 0.289,1.247 0.793,1.657 0.374,0.303 0.728,0.628 1.062,0.972 -0.037,-0.009 -0.075,-0.018 -0.112,-0.027 l -3.613,-0.861 2.692,2.559 c 0.231,0.219 0.443,0.457 0.632,0.711 -0.554,-0.224 -1.125,-0.41 -1.706,-0.557 -0.562,-0.147 -1.219,0.007 -1.677,0.409 -1.482,1.308 -3.573,1.743 -5.547,1.131 -1.819,-0.564 -3.222,-2.064 -3.664,-3.916 -0.168,-0.707 -0.214,-1.415 -0.136,-2.102 0.04,-0.358 -0.076,-0.712 -0.317,-0.975 -0.226,-0.255 -0.565,-0.407 -0.92,-0.407 l -0.148,0.008 C 6.985,14.913 2.765,17.029 -0.36,20.472 -0.596,19.841 -0.718,19.17 -0.718,18.49 c 0,-1.527 0.597,-2.956 1.683,-4.025 l 2.552,-2.512 -3.485,0.826 c -0.243,0.058 -0.483,0.129 -0.719,0.212 0.315,-1.815 1.504,-3.39 3.215,-4.172 L 6.511,7 1.971,6.908 c -0.051,0 -0.101,0 -0.152,10e-4 C 2.645,5.397 4.15,4.304 5.876,4.024 L 8.377,3.619 6.273,2.207 C 4.394,0.945 2.245,0.192 0,0 m 6.999,-3.486 c -3.395,0 -6.738,0.902 -9.668,2.608 -0.596,0.345 -0.89,1.045 -0.717,1.701 0.174,0.663 0.776,1.128 1.465,1.128 l 0.769,0 c 1.522,0 3.009,0.3 4.389,0.88 -1.748,0.923 -3.12,2.51 -3.735,4.431 -0.123,0.384 -0.07,0.788 0.137,1.121 -1.534,1.443 -2.434,3.489 -2.408,5.669 0.005,0.478 0.256,0.908 0.671,1.149 0.031,0.018 0.061,0.034 0.093,0.049 -0.467,1 -0.713,2.101 -0.713,3.24 0,1.351 0.358,2.681 1.035,3.844 0.224,0.383 0.62,0.632 1.061,0.666 0.446,0.039 0.872,-0.151 1.15,-0.494 2.648,-3.249 6.324,-5.334 10.425,-5.93 0.004,0.612 0.08,1.231 0.227,1.848 0.604,2.535 2.527,4.59 5.017,5.362 2.603,0.81 5.41,0.233 7.405,-1.491 1.02,0.266 1.997,0.674 2.905,1.212 0.485,0.289 1.083,0.248 1.526,-0.104 0.442,-0.351 0.617,-0.925 0.446,-1.463 -0.081,-0.253 -0.175,-0.501 -0.282,-0.743 0.333,-0.038 0.647,-0.2 0.876,-0.473 0.39,-0.464 0.427,-1.113 0.09,-1.617 -0.788,-1.178 -1.745,-2.228 -2.844,-3.121 -0.024,-0.02 -0.054,-0.054 -0.054,-0.104 l 0,-0.101 c 0,-2.243 -0.434,-4.589 -1.256,-6.783 C 24.147,6.695 22.904,4.613 21.313,2.81 19.6,0.865 17.561,-0.663 15.252,-1.731 12.74,-2.896 9.963,-3.486 6.999,-3.486"
           style="fill:#ffffff;fill-opacity:1;fill-rule:nonzero;stroke:none"
           id="path2816"
           inkscape:connector-curvature="0" />
      </g>
    </g>
  </g>
</svg>
