<?xml version="1.0" encoding="UTF-8" standalone="no"?>
<!-- Created with Inkscape (http://www.inkscape.org/) -->

<svg
   xmlns:dc="http://purl.org/dc/elements/1.1/"
   xmlns:cc="http://creativecommons.org/ns#"
   xmlns:rdf="http://www.w3.org/1999/02/22-rdf-syntax-ns#"
   xmlns:svg="http://www.w3.org/2000/svg"
   xmlns="http://www.w3.org/2000/svg"
   xmlns:sodipodi="http://sodipodi.sourceforge.net/DTD/sodipodi-0.dtd"
   xmlns:inkscape="http://www.inkscape.org/namespaces/inkscape"
   width="17.066999"
   height="30"
   viewBox="0 0 17.066999 30"
   id="svg7270"
   version="1.1"
   inkscape:version="0.91 r13725"
   sodipodi:docname="share-icon-fb.svg">
  <defs
     id="defs7272" />
  <sodipodi:namedview
     id="base"
     pagecolor="#ffffff"
     bordercolor="#666666"
     borderopacity="1.0"
     inkscape:pageopacity="0.0"
     inkscape:pageshadow="2"
     inkscape:zoom="5.6"
     inkscape:cx="20.876739"
     inkscape:cy="6.1374329"
     inkscape:document-units="px"
     inkscape:current-layer="layer1"
     showgrid="false"
     units="px"
     inkscape:window-width="1323"
     inkscape:window-height="744"
     inkscape:window-x="37"
     inkscape:window-y="24"
     inkscape:window-maximized="1" />
  <metadata
     id="metadata7275">
    <rdf:RDF>
      <cc:Work
         rdf:about="">
        <dc:format>image/svg+xml</dc:format>
        <dc:type
           rdf:resource="http://purl.org/dc/dcmitype/StillImage" />
        <dc:title></dc:title>
      </cc:Work>
    </rdf:RDF>
  </metadata>
  <g
     inkscape:label="Layer 1"
     inkscape:groupmode="layer"
     id="layer1"
     transform="translate(0,-1022.3622)">
    <g
       id="g168"
       transform="matrix(1.0214852,0,0,-1.0214852,14.663451,1022.3622)">
      <path
         d="m 0,0 -3.014,0 c -4.67,0 -7.688,-3.085 -7.688,-7.86 l 0,-2.048 -1.455,0 c -0.589,0 -1.142,-0.23 -1.557,-0.647 -0.416,-0.418 -0.644,-0.972 -0.641,-1.561 l 0.014,-3.671 c 0.005,-1.208 0.992,-2.19 2.199,-2.19 l 1.457,0 -0.017,-9.888 -0.003,-1.503 1.502,0 4.969,-0.001 1.497,0 0.003,1.497 0.017,9.895 2.437,0 c 1.114,0 2.052,0.834 2.183,1.94 l 0.435,3.672 c 0.074,0.622 -0.122,1.249 -0.539,1.718 -0.417,0.469 -1.016,0.738 -1.644,0.738 l -2.889,0 0,1.573 c 0,0.57 0.086,0.718 0.093,0.73 l 0,0 c 0.007,0 0.194,0.112 0.792,0.112 l 1.85,10e-4 c 1.211,0 2.197,0.986 2.197,2.199 l 0,3.095 C 2.198,-0.986 1.212,0 0,0 m 0,-1.5 c 0.385,0 0.698,-0.313 0.698,-0.699 l 0,-3.095 C 0.698,-5.681 0.386,-5.993 0,-5.993 l -1.849,-10e-4 c -1.998,0 -2.385,-0.949 -2.385,-2.342 l 0,-3.073 4.389,0 c 0.419,0 0.743,-0.364 0.694,-0.78 l -0.436,-3.672 c -0.041,-0.351 -0.339,-0.616 -0.693,-0.616 l -3.934,0 -0.02,-11.392 -4.968,0.001 0.019,11.391 -2.959,0 c -0.385,0 -0.697,0.311 -0.699,0.696 l -0.014,3.672 c -0.002,0.386 0.312,0.701 0.698,0.701 l 2.955,0 0,3.548 c 0,4.117 2.515,6.36 6.188,6.36 L 0,-1.5"
         style="fill:#e43345;fill-opacity:1;fill-rule:nonzero;stroke:none"
         id="path170"
         inkscape:connector-curvature="0" />
    </g>
  </g>
</svg>
