<?xml version="1.0" encoding="UTF-8" standalone="no"?>
<!-- Created with Inkscape (http://www.inkscape.org/) -->

<svg
   xmlns:dc="http://purl.org/dc/elements/1.1/"
   xmlns:cc="http://creativecommons.org/ns#"
   xmlns:rdf="http://www.w3.org/1999/02/22-rdf-syntax-ns#"
   xmlns:svg="http://www.w3.org/2000/svg"
   xmlns="http://www.w3.org/2000/svg"
   xmlns:sodipodi="http://sodipodi.sourceforge.net/DTD/sodipodi-0.dtd"
   xmlns:inkscape="http://www.inkscape.org/namespaces/inkscape"
   width="30"
   height="30"
   viewBox="0 0 29.999999 30"
   id="svg7270"
   version="1.1"
   inkscape:version="0.91 r13725"
   sodipodi:docname="share-icon-ins-a.svg">
  <defs
     id="defs7272" />
  <sodipodi:namedview
     id="base"
     pagecolor="#ffffff"
     bordercolor="#666666"
     borderopacity="1.0"
     inkscape:pageopacity="0.0"
     inkscape:pageshadow="2"
     inkscape:zoom="5.6"
     inkscape:cx="20.876739"
     inkscape:cy="6.1374329"
     inkscape:document-units="px"
     inkscape:current-layer="g168"
     showgrid="false"
     units="px"
     inkscape:window-width="1323"
     inkscape:window-height="744"
     inkscape:window-x="37"
     inkscape:window-y="24"
     inkscape:window-maximized="1" />
  <metadata
     id="metadata7275">
    <rdf:RDF>
      <cc:Work
         rdf:about="">
        <dc:format>image/svg+xml</dc:format>
        <dc:type
           rdf:resource="http://purl.org/dc/dcmitype/StillImage" />
        <dc:title></dc:title>
      </cc:Work>
    </rdf:RDF>
  </metadata>
  <g
     inkscape:label="Layer 1"
     inkscape:groupmode="layer"
     id="layer1"
     transform="translate(0,-1022.3622)">
    <g
       id="g168"
       transform="matrix(1.0214852,0,0,-1.0214852,14.663451,1022.3622)">
      <g
         id="g172"
         transform="matrix(1.0738209,0,0,1.0738209,12.059889,-20.620582)">
        <path
           d="m 0,0 c 0,-2.98 -2.416,-5.396 -5.396,-5.396 l -11.055,0 c -2.981,0 -5.397,2.416 -5.397,5.396 l 0,11.055 c 0,2.981 2.416,5.397 5.397,5.397 l 11.055,0 C -2.416,16.452 0,14.036 0,11.055 L 0,0 Z m -5.397,19.203 -11.054,0 c -4.493,0 -8.148,-3.655 -8.148,-8.148 l 0,-11.055 c 0,-4.492 3.655,-8.147 8.148,-8.147 l 11.055,0 c 4.492,0 8.147,3.655 8.147,8.147 l 0,11.055 c 0,4.493 -3.655,8.148 -8.148,8.148"
           style="fill:#ffffff;fill-opacity:1;fill-rule:nonzero;stroke:none"
           id="path174"
           inkscape:connector-curvature="0" />
      </g>
      <g
         id="g176"
         transform="matrix(1.0738209,0,0,1.0738209,0.32968508,-19.325983)">
        <path
           d="m 0,0 c -2.387,0 -4.323,1.935 -4.323,4.322 0,2.387 1.936,4.323 4.323,4.323 2.387,0 4.322,-1.936 4.322,-4.323 C 4.322,1.935 2.387,0 0,0 m 0,11.396 c -3.901,0 -7.074,-3.173 -7.074,-7.074 0,-3.9 3.173,-7.073 7.074,-7.073 3.9,0 7.074,3.173 7.074,7.073 0,3.901 -3.174,7.074 -7.074,7.074"
           style="fill:#ffffff;fill-opacity:1;fill-rule:nonzero;stroke:none"
           id="path178"
           inkscape:connector-curvature="0" />
      </g>
      <g
         id="g180"
         transform="matrix(1.0738209,0,0,1.0738209,9.7600911,-7.1458483)">
        <path
           d="m 0,0 c 0,-0.936 -0.759,-1.695 -1.695,-1.695 -0.936,0 -1.695,0.759 -1.695,1.695 0,0.937 0.759,1.695 1.695,1.695 C -0.759,1.695 0,0.937 0,0"
           style="fill:#ffffff;fill-opacity:1;fill-rule:nonzero;stroke:none"
           id="path182"
           inkscape:connector-curvature="0" />
      </g>
    </g>
  </g>
</svg>
