<?xml version="1.0" encoding="UTF-8" standalone="no"?>
<!-- Created with Inkscape (http://www.inkscape.org/) -->

<svg
   xmlns:dc="http://purl.org/dc/elements/1.1/"
   xmlns:cc="http://creativecommons.org/ns#"
   xmlns:rdf="http://www.w3.org/1999/02/22-rdf-syntax-ns#"
   xmlns:svg="http://www.w3.org/2000/svg"
   xmlns="http://www.w3.org/2000/svg"
   xmlns:sodipodi="http://sodipodi.sourceforge.net/DTD/sodipodi-0.dtd"
   xmlns:inkscape="http://www.inkscape.org/namespaces/inkscape"
   width="41.689999"
   height="40"
   viewBox="0 0 41.69 40.000001"
   id="svg10000"
   version="1.1"
   inkscape:version="0.91 r13725"
   sodipodi:docname="star-no-score.svg">
  <defs
     id="defs10002">
    <clipPath
       clipPathUnits="userSpaceOnUse"
       id="clipPath1306">
      <path
         d="m 0,7263 2560,0 L 2560,0 0,0 0,7263 Z"
         id="path1308"
         inkscape:connector-curvature="0" />
    </clipPath>
    <clipPath
       clipPathUnits="userSpaceOnUse"
       id="clipPath1318">
      <path
         d="m 950.637,1106.79 107.143,0 0,-29.49 -107.143,0 0,29.49 z"
         id="path1320"
         inkscape:connector-curvature="0" />
    </clipPath>
    <clipPath
       clipPathUnits="userSpaceOnUse"
       id="clipPath1346">
      <path
         d="m 950.637,1031.63 90.143,0 0,-29.49 -90.143,0 0,29.49 z"
         id="path1348"
         inkscape:connector-curvature="0" />
    </clipPath>
    <clipPath
       clipPathUnits="userSpaceOnUse"
       id="clipPath1370">
      <path
         d="m 950.637,958.005 90.143,0 0,-29.484 -90.143,0 0,29.484 z"
         id="path1372"
         inkscape:connector-curvature="0" />
    </clipPath>
    <clipPath
       clipPathUnits="userSpaceOnUse"
       id="clipPath2314">
      <path
         d="m 0,7263 2560,0 L 2560,0 0,0 0,7263 Z"
         id="path2316"
         inkscape:connector-curvature="0" />
    </clipPath>
  </defs>
  <sodipodi:namedview
     id="base"
     pagecolor="#ffffff"
     bordercolor="#666666"
     borderopacity="1.0"
     inkscape:pageopacity="0.0"
     inkscape:pageshadow="2"
     inkscape:zoom="0.98994949"
     inkscape:cx="-151.32154"
     inkscape:cy="280.68347"
     inkscape:document-units="px"
     inkscape:current-layer="layer1"
     showgrid="false"
     units="px"
     inkscape:window-width="1329"
     inkscape:window-height="744"
     inkscape:window-x="37"
     inkscape:window-y="24"
     inkscape:window-maximized="1" />
  <metadata
     id="metadata10005">
    <rdf:RDF>
      <cc:Work
         rdf:about="">
        <dc:format>image/svg+xml</dc:format>
        <dc:type
           rdf:resource="http://purl.org/dc/dcmitype/StillImage" />
        <dc:title></dc:title>
      </cc:Work>
    </rdf:RDF>
  </metadata>
  <g
     inkscape:label="Layer 1"
     inkscape:groupmode="layer"
     id="layer1"
     transform="translate(0,-1012.3622)">
    <path
       inkscape:connector-curvature="0"
       id="path2336"
       style="fill:#1c3664;fill-opacity:1;fill-rule:nonzero;stroke:none"
       d="m 31.918559,1038.3143 c -0.134302,-0.4188 0.01463,-0.8763 0.368332,-1.1369 l 7.938418,-5.8228 c 1.264562,-0.9282 1.767196,-2.4893 1.283178,-3.9799 -0.484017,-1.4906 -1.809746,-2.4586 -3.377484,-2.4666 l -9.843905,-0.045 c -0.440137,0 -0.828414,-0.2846 -0.966705,-0.7021 l -3.086276,-9.3492 c -0.490666,-1.488 -1.820385,-2.4494 -3.388122,-2.4494 -1.567738,0 -2.897457,0.9614 -3.388123,2.4494 l -1.390885,4.2125 c -0.220733,0.6675 0.14095,1.3869 0.808469,1.6076 0.667518,0.2194 1.388226,-0.1422 1.607629,-0.8098 l 1.390886,-4.2112 c 0.215414,-0.6529 0.797831,-0.7034 0.972024,-0.7034 0.172863,0 0.756609,0.051 0.972024,0.7034 l 3.084946,9.3479 c 0.481358,1.4587 1.836341,2.4427 3.372166,2.4494 l 9.843904,0.047 c 0.687465,0 0.914846,0.5412 0.968035,0.7074 0.05452,0.1649 0.186161,0.734 -0.367002,1.1396 l -7.938418,5.8241 c -1.237968,0.9082 -1.755228,2.5012 -1.287167,3.9639 l 2.998514,9.3798 c 0.210096,0.6543 -0.231371,1.0372 -0.372321,1.1396 -0.13962,0.1025 -0.640924,0.4029 -1.198076,0 l -7.992937,-5.7516 c -1.245946,-0.8976 -2.921391,-0.8976 -4.168667,0 l -7.991606,5.7524 c -0.557152,0.4002 -1.0597857,0.1 -1.1994057,0 -0.14095,-0.1024 -0.582417,-0.4854 -0.373651,-1.1396 l 2.9985147,-9.3812 c 0.46806,-1.4627 -0.0492,-3.0557 -1.287168,-3.9639 l -7.9370877,-5.8241 c -0.553163,-0.4056 -0.421521,-0.9747 -0.368332,-1.1396 0.05452,-0.1662 0.2819,-0.7047 0.968035,-0.7074 l 9.8452337,-0.047 c 0.703421,0 1.269881,-0.5758 1.267221,-1.2779 -0.004,-0.7007 -0.573108,-1.2659 -1.27254,-1.2659 l -0.0067,0 -9.8452337,0.045 c -1.566408,0.01 -2.89213704,0.9747 -3.37748404,2.4653 -0.482688,1.4907 0.01995,3.0531 1.28317804,3.9799 l 7.938418,5.8242 c 0.353705,0.2606 0.502633,0.7167 0.368332,1.1355 l -2.998515,9.3812 c -0.477369,1.4933 0.03457,3.053 1.301794,3.9732 0.635606,0.4627 1.365621,0.6941 2.0969657,0.6941 0.724697,0 1.450723,-0.2274 2.083669,-0.6835 l 7.994266,-5.7523 c 0.356364,-0.258 0.837722,-0.258 1.194087,0 l 7.991607,5.751 c 1.27387,0.9148 2.913413,0.9122 4.181964,-0.01 1.268551,-0.9202 1.779163,-2.4812 1.303124,-3.9745 l -3.001174,-9.3799 z" />
  </g>
</svg>
