<?xml version="1.0" encoding="UTF-8" standalone="no"?>
<!-- Created with Inkscape (http://www.inkscape.org/) -->

<svg
   xmlns:dc="http://purl.org/dc/elements/1.1/"
   xmlns:cc="http://creativecommons.org/ns#"
   xmlns:rdf="http://www.w3.org/1999/02/22-rdf-syntax-ns#"
   xmlns:svg="http://www.w3.org/2000/svg"
   xmlns="http://www.w3.org/2000/svg"
   xmlns:sodipodi="http://sodipodi.sourceforge.net/DTD/sodipodi-0.dtd"
   xmlns:inkscape="http://www.inkscape.org/namespaces/inkscape"
   width="41.688999"
   height="40"
   viewBox="0 0 41.689001 40.000001"
   id="svg10000"
   version="1.1"
   inkscape:version="0.91 r13725"
   sodipodi:docname="star-score.svg">
  <defs
     id="defs10002">
    <clipPath
       clipPathUnits="userSpaceOnUse"
       id="clipPath1306">
      <path
         d="m 0,7263 2560,0 L 2560,0 0,0 0,7263 Z"
         id="path1308"
         inkscape:connector-curvature="0" />
    </clipPath>
    <clipPath
       clipPathUnits="userSpaceOnUse"
       id="clipPath1318">
      <path
         d="m 950.637,1106.79 107.143,0 0,-29.49 -107.143,0 0,29.49 z"
         id="path1320"
         inkscape:connector-curvature="0" />
    </clipPath>
    <clipPath
       clipPathUnits="userSpaceOnUse"
       id="clipPath1346">
      <path
         d="m 950.637,1031.63 90.143,0 0,-29.49 -90.143,0 0,29.49 z"
         id="path1348"
         inkscape:connector-curvature="0" />
    </clipPath>
    <clipPath
       clipPathUnits="userSpaceOnUse"
       id="clipPath1370">
      <path
         d="m 950.637,958.005 90.143,0 0,-29.484 -90.143,0 0,29.484 z"
         id="path1372"
         inkscape:connector-curvature="0" />
    </clipPath>
    <clipPath
       clipPathUnits="userSpaceOnUse"
       id="clipPath2314">
      <path
         d="m 0,7263 2560,0 L 2560,0 0,0 0,7263 Z"
         id="path2316"
         inkscape:connector-curvature="0" />
    </clipPath>
  </defs>
  <sodipodi:namedview
     id="base"
     pagecolor="#ffffff"
     bordercolor="#666666"
     borderopacity="1.0"
     inkscape:pageopacity="0.0"
     inkscape:pageshadow="2"
     inkscape:zoom="0.98994949"
     inkscape:cx="-151.32154"
     inkscape:cy="-2.1592414"
     inkscape:document-units="px"
     inkscape:current-layer="layer1"
     showgrid="false"
     units="px"
     inkscape:window-width="1329"
     inkscape:window-height="744"
     inkscape:window-x="37"
     inkscape:window-y="24"
     inkscape:window-maximized="1" />
  <metadata
     id="metadata10005">
    <rdf:RDF>
      <cc:Work
         rdf:about="">
        <dc:format>image/svg+xml</dc:format>
        <dc:type
           rdf:resource="http://purl.org/dc/dcmitype/StillImage" />
        <dc:title></dc:title>
      </cc:Work>
    </rdf:RDF>
  </metadata>
  <g
     inkscape:label="Layer 1"
     inkscape:groupmode="layer"
     id="layer1"
     transform="translate(0,-1012.3622)">
    <g
       id="g2318"
       transform="matrix(1.3296988,0,0,-1.3296988,31.918041,1038.3139)">
      <path
         d="m 0,0 c -0.101,0.315 0.011,0.659 0.277,0.855 l 5.97,4.379 c 0.951,0.698 1.329,1.872 0.965,2.993 -0.364,1.121 -1.361,1.849 -2.54,1.855 l -7.403,0.034 c -0.332,0.002 -0.623,0.214 -0.727,0.528 l -2.321,7.031 c -0.369,1.119 -1.369,1.842 -2.548,1.842 -1.179,0 -2.179,-0.723 -2.548,-1.842 l -1.046,-3.168 c -0.166,-0.502 0.106,-1.043 0.608,-1.209 0.502,-0.165 1.044,0.107 1.209,0.609 l 1.046,3.167 c 0.162,0.491 0.6,0.529 0.731,0.529 0.13,0 0.569,-0.038 0.731,-0.529 l 2.32,-7.03 C -4.914,8.947 -3.895,8.207 -2.74,8.202 L 4.663,8.167 C 5.18,8.165 5.351,7.76 5.391,7.635 5.432,7.511 5.531,7.083 5.115,6.778 l -5.97,-4.38 C -1.786,1.715 -2.175,0.517 -1.823,-0.583 L 0.432,-7.637 C 0.59,-8.129 0.258,-8.417 0.152,-8.494 0.047,-8.571 -0.33,-8.797 -0.749,-8.496 l -6.011,4.325 c -0.937,0.675 -2.197,0.675 -3.135,0 l -6.01,-4.326 c -0.419,-0.301 -0.797,-0.075 -0.902,0.002 -0.106,0.077 -0.438,0.365 -0.281,0.857 l 2.255,7.055 c 0.352,1.1 -0.037,2.298 -0.968,2.981 l -5.969,4.38 c -0.416,0.305 -0.317,0.733 -0.277,0.857 0.041,0.125 0.212,0.53 0.728,0.532 l 7.404,0.035 c 0.528,0.002 0.955,0.433 0.953,0.961 -0.003,0.527 -0.431,0.952 -0.957,0.952 l -0.005,0 -7.404,-0.034 c -1.178,-0.006 -2.175,-0.733 -2.54,-1.854 -0.363,-1.121 0.015,-2.296 0.965,-2.993 l 5.969,-4.38 C -16.667,0.658 -16.555,0.315 -16.656,0 l -2.255,-7.055 c -0.359,-1.123 0.026,-2.296 0.979,-2.988 0.478,-0.348 1.027,-0.522 1.577,-0.522 0.545,0 1.091,0.171 1.567,0.514 l 6.012,4.326 c 0.268,0.194 0.63,0.194 0.898,0 l 6.01,-4.325 c 0.958,-0.688 2.191,-0.686 3.145,0.007 0.954,0.692 1.338,1.866 0.98,2.989 L 0,0 Z"
         style="fill:#2cb4bf;fill-opacity:1;fill-rule:nonzero;stroke:none"
         id="path2320"
         inkscape:connector-curvature="0" />
    </g>
  </g>
</svg>
