<svg xmlns="http://www.w3.org/2000/svg" viewBox="0 0 81.78 71.48"><defs><style>.cls-1{fill:#e43345;}.cls-2{fill:#071428;}</style></defs><title>warning-icon.svg</title><g id="Layer_2" data-name="Layer 2"><g id="Layer_1-2" data-name="Layer 1"><path class="cls-1" d="M38.22,26V46.09a2.63,2.63,0,1,0,5.25,0V26a2.63,2.63,0,1,0-5.25,0Zm0,0"/><path class="cls-1" d="M40.85,52.22a2.63,2.63,0,0,0-2.63,2.63V56.6a2.63,2.63,0,1,0,5.25,0V54.85a2.63,2.63,0,0,0-2.63-2.63Zm0,0"/><path class="cls-2" d="M43.17,1.31a2.63,2.63,0,0,0-4.55,0L.36,67.54a2.57,2.57,0,0,0,0,2.63,2.63,2.63,0,0,0,2.28,1.31H79.15a2.63,2.63,0,0,0,2.63-2.63,2.83,2.83,0,0,0-.44-1.49Zm-36,64.91L40.89,7.88,74.6,66.23Zm0,0"/></g></g></svg>