<?xml version="1.0" encoding="UTF-8" standalone="no"?>
<!-- Created with Inkscape (http://www.inkscape.org/) -->

<svg
   xmlns:dc="http://purl.org/dc/elements/1.1/"
   xmlns:cc="http://creativecommons.org/ns#"
   xmlns:rdf="http://www.w3.org/1999/02/22-rdf-syntax-ns#"
   xmlns:svg="http://www.w3.org/2000/svg"
   xmlns="http://www.w3.org/2000/svg"
   xmlns:sodipodi="http://sodipodi.sourceforge.net/DTD/sodipodi-0.dtd"
   xmlns:inkscape="http://www.inkscape.org/namespaces/inkscape"
   width="512"
   height="512"
   viewBox="0 0 512.00001 512.00001"
   id="svg18733"
   version="1.1"
   inkscape:version="0.91 r13725"
   sodipodi:docname="avatar-02.svg">
  <defs
     id="defs18735" />
  <sodipodi:namedview
     id="base"
     pagecolor="#ffffff"
     bordercolor="#666666"
     borderopacity="1.0"
     inkscape:pageopacity="0.0"
     inkscape:pageshadow="2"
     inkscape:zoom="0.35"
     inkscape:cx="51.042771"
     inkscape:cy="800.99937"
     inkscape:document-units="px"
     inkscape:current-layer="layer1"
     showgrid="false"
     units="px"
     inkscape:window-width="1329"
     inkscape:window-height="744"
     inkscape:window-x="37"
     inkscape:window-y="24"
     inkscape:window-maximized="1" />
  <metadata
     id="metadata18738">
    <rdf:RDF>
      <cc:Work
         rdf:about="">
        <dc:format>image/svg+xml</dc:format>
        <dc:type
           rdf:resource="http://purl.org/dc/dcmitype/StillImage" />
        <dc:title></dc:title>
      </cc:Work>
    </rdf:RDF>
  </metadata>
  <g
     inkscape:label="Layer 1"
     inkscape:groupmode="layer"
     id="layer1"
     transform="translate(0,-540.36216)">
    <g
       id="g1860"
       transform="matrix(2.5253696,0,0,-2.5253696,42.074132,853.05848)">
      <path
         d="m 0,0 -12.566,12.566 c -5.459,5.459 -5.459,14.31 0,19.769 l 29.093,29.093 0,3.037 c -5.847,4.057 -9.683,10.817 -9.683,18.457 0,12.381 10.073,22.454 22.455,22.454 8.427,0 15.784,-4.667 19.624,-11.552 l 25.903,25.903 c 2.622,2.622 6.177,4.095 9.885,4.095 l 0,-202.742 c -3.708,0 -7.263,1.472 -9.885,4.094 l -29.092,29.092 -21.495,0 c -4.259,0 -7.712,3.453 -7.712,7.713 l 0,21.494 -2.506,2.506 L 0,0 Z"
         style="fill:#63c2a3;fill-opacity:1;fill-rule:nonzero;stroke:none"
         id="path1862"
         inkscape:connector-curvature="0" />
    </g>
    <g
       id="g1864"
       transform="matrix(2.5253696,0,0,-2.5253696,501.65966,771.39964)">
      <path
         d="m 0,0 c 5.459,-5.459 5.459,-14.311 0,-19.77 l -29.092,-29.092 0,-3.037 c 5.846,-4.058 9.682,-10.818 9.682,-18.458 0,-12.381 -10.073,-22.454 -22.454,-22.454 -8.428,0 -15.785,4.668 -19.625,11.553 l -25.903,-25.903 c -2.621,-2.622 -6.177,-4.095 -9.885,-4.095 l 0,202.742 c 3.708,0 7.264,-1.473 9.885,-4.094 l 29.093,-29.093 21.494,0 c 4.26,0 7.713,-3.453 7.713,-7.712 l 0,-21.495 L 0,0 Z"
         style="fill:#0e1f43;fill-opacity:1;fill-rule:nonzero;stroke:none"
         id="path1866"
         inkscape:connector-curvature="0" />
    </g>
    <g
       id="g1868"
       transform="matrix(2.5253696,0,0,-2.5253696,46.063602,796.36292)">
      <path
         d="m 0,0 83.131,-83.131 0,166.262 L 0,0 Z"
         style="fill:#0e1f43;fill-opacity:1;fill-rule:nonzero;stroke:none"
         id="path1870"
         inkscape:connector-curvature="0" />
    </g>
    <g
       id="g1872"
       transform="matrix(2.5253696,0,0,-2.5253696,465.93699,796.36292)">
      <path
         d="m 0,0 -83.131,83.131 0,-166.262 L 0,0 Z"
         style="fill:#0e1f43;fill-opacity:1;fill-rule:nonzero;stroke:none"
         id="path1874"
         inkscape:connector-curvature="0" />
    </g>
    <g
       id="g1876"
       transform="matrix(2.5253696,0,0,-2.5253696,256.00039,995.53957)">
      <path
         d="M 0,0 -78.87,78.87 0,157.741 0,166.262 -87.392,78.87 0,-8.521 0,0 Z"
         style="fill:#ffffff;fill-opacity:1;fill-rule:nonzero;stroke:none"
         id="path1878"
         inkscape:connector-curvature="0" />
    </g>
    <g
       id="g1880"
       transform="matrix(2.5253696,0,0,-2.5253696,256.00039,575.66608)">
      <path
         d="M 0,0 0,-8.521 78.87,-87.392 0,-166.262 0,-174.783 87.392,-87.392 0,0 Z"
         style="fill:#63c2a3;fill-opacity:1;fill-rule:nonzero;stroke:none"
         id="path1882"
         inkscape:connector-curvature="0" />
    </g>
    <path
       d="m 373.506,683.15086 -97.76716,0 0,-15.21788 97.76716,0 0,15.21788 z"
       style="fill:#ffffff;fill-opacity:1;fill-rule:nonzero;stroke:none"
       id="path1884"
       inkscape:connector-curvature="0" />
    <g
       id="g1886"
       transform="matrix(2.5253696,0,0,-2.5253696,348.25174,770.9279)">
      <path
         d="m 0,0 c 0,-8.131 -6.591,-14.722 -14.722,-14.722 -8.131,0 -14.723,6.591 -14.723,14.722 0,8.131 6.592,14.722 14.723,14.722 C -6.591,14.722 0,8.131 0,0"
         style="fill:#0e1f43;fill-opacity:1;fill-rule:nonzero;stroke:none"
         id="path1888"
         inkscape:connector-curvature="0" />
    </g>
    <g
       id="g1890"
       transform="matrix(2.5253696,0,0,-2.5253696,148.9009,651.2577)">
      <path
         d="M 0,0 20.998,0 16.476,-4.522 0,-4.522 0,0 Z"
         style="fill:#63c2a3;fill-opacity:1;fill-rule:nonzero;stroke:none"
         id="path1892"
         inkscape:connector-curvature="0" />
    </g>
    <g
       id="g1894"
       transform="matrix(2.5253696,0,0,-2.5253696,394.80096,683.15161)">
      <path
         d="M 0,0 -20.998,0 -16.476,-4.522 0,-4.522 0,0 Z"
         style="fill:#0e1f43;fill-opacity:1;fill-rule:nonzero;stroke:none"
         id="path1896"
         inkscape:connector-curvature="0" />
    </g>
    <g
       id="g1898"
       transform="matrix(2.5253696,0,0,-2.5253696,143.79945,936.38533)">
      <path
         d="M 0,0 20.998,0 16.476,4.522 0,4.522 0,0 Z"
         style="fill:#63c2a3;fill-opacity:1;fill-rule:nonzero;stroke:none"
         id="path1900"
         inkscape:connector-curvature="0" />
    </g>
    <g
       id="g1902"
       transform="matrix(2.5253696,0,0,-2.5253696,175.65062,968.10397)">
      <path
         d="M 0,0 20.998,0 16.476,4.522 0,4.522 0,0 Z"
         style="fill:#63c2a3;fill-opacity:1;fill-rule:nonzero;stroke:none"
         id="path1904"
         inkscape:connector-curvature="0" />
    </g>
    <g
       id="g1906"
       transform="matrix(2.5253696,0,0,-2.5253696,84.259312,737.58571)">
      <path
         d="m 0,0 0,-12.413 4.522,4.522 0,12.413 L 0,0 Z"
         style="fill:#63c2a3;fill-opacity:1;fill-rule:nonzero;stroke:none"
         id="path1908"
         inkscape:connector-curvature="0" />
    </g>
    <g
       id="g1910"
       transform="matrix(2.5253696,0,0,-2.5253696,84.259312,855.09063)">
      <path
         d="M 0,0 0,12.413 4.522,7.891 4.522,-4.522 0,0 Z"
         style="fill:#63c2a3;fill-opacity:1;fill-rule:nonzero;stroke:none"
         id="path1912"
         inkscape:connector-curvature="0" />
    </g>
    <g
       id="g1914"
       transform="matrix(2.5253696,0,0,-2.5253696,427.74189,737.58571)">
      <path
         d="m 0,0 0,-12.413 -4.522,4.522 0,12.413 L 0,0 Z"
         style="fill:#0e1f43;fill-opacity:1;fill-rule:nonzero;stroke:none"
         id="path1916"
         inkscape:connector-curvature="0" />
    </g>
    <g
       id="g1918"
       transform="matrix(2.5253696,0,0,-2.5253696,427.74189,855.09063)">
      <path
         d="m 0,0 0,12.413 -4.522,-4.522 0,-12.413 L 0,0 Z"
         style="fill:#0e1f43;fill-opacity:1;fill-rule:nonzero;stroke:none"
         id="path1920"
         inkscape:connector-curvature="0" />
    </g>
    <g
       id="g1922"
       transform="matrix(2.5253696,0,0,-2.5253696,336.36007,968.10397)">
      <path
         d="M 0,0 -20.998,0 -16.476,4.522 0,4.522 0,0 Z"
         style="fill:#0e1f43;fill-opacity:1;fill-rule:nonzero;stroke:none"
         id="path1924"
         inkscape:connector-curvature="0" />
    </g>
    <g
       id="g1926"
       transform="matrix(2.5253696,0,0,-2.5253696,362.94252,651.18673)">
      <path
         d="M 0,0 -20.998,0 -16.476,-4.522 0,-4.522 0,0 Z"
         style="fill:#0e1f43;fill-opacity:1;fill-rule:nonzero;stroke:none"
         id="path1928"
         inkscape:connector-curvature="0" />
    </g>
    <path
       d="m 233.58284,924.9651 -97.76716,0 0,-15.21537 97.76716,0 0,15.21537 z"
       style="fill:#ffffff;fill-opacity:1;fill-rule:nonzero;stroke:none"
       id="path1930"
       inkscape:connector-curvature="0" />
    <g
       id="g1932"
       transform="matrix(2.5253696,0,0,-2.5253696,113.10005,707.28127)">
      <path
         d="M 0,0 6.495,-6.495 2.234,-10.756 -2.34,-6.181 0,0 Z"
         style="fill:#63c2a3;fill-opacity:1;fill-rule:nonzero;stroke:none"
         id="path1934"
         inkscape:connector-curvature="0" />
    </g>
    <g
       id="g1936"
       transform="matrix(2.5253696,0,0,-2.5253696,408.71373,956.68449)">
      <path
         d="m 0,0 -123.956,0 0,114.224 27.821,-27.822 -4.26,-4.26 -17.535,17.535 0,-93.651 L 0,6.026 0,0 Z"
         style="fill:#ffffff;fill-opacity:1;fill-rule:nonzero;stroke:none"
         id="path1938"
         inkscape:connector-curvature="0" />
    </g>
    <g
       id="g1940"
       transform="matrix(2.5253696,0,0,-2.5253696,366.88957,884.62004)">
      <path
         d="M 0,0 4.762,-4.762 0.508,-9.03 -4.267,-4.254 0,0 Z"
         style="fill:#0e1f43;fill-opacity:1;fill-rule:nonzero;stroke:none"
         id="path1942"
         inkscape:connector-curvature="0" />
    </g>
    <g
       id="g1944"
       transform="matrix(2.5253696,0,0,-2.5253696,422.16345,949.07555)">
      <path
         d="m 0,0 c 0,-5.736 -4.65,-10.385 -10.385,-10.385 -5.736,0 -10.386,4.649 -10.386,10.385 0,5.736 4.65,10.385 10.386,10.385 C -4.65,10.385 0,5.736 0,0"
         style="fill:#0e1f43;fill-opacity:1;fill-rule:nonzero;stroke:none"
         id="path1946"
         inkscape:connector-curvature="0" />
    </g>
    <g
       id="g1948"
       transform="matrix(2.5253696,0,0,-2.5253696,412.93352,949.07555)">
      <path
         d="m 0,0 c 0,-3.717 -3.013,-6.73 -6.73,-6.73 -3.718,0 -6.731,3.013 -6.731,6.73 0,3.717 3.013,6.73 6.731,6.73 C -3.013,6.73 0,3.717 0,0"
         style="fill:#ffffff;fill-opacity:1;fill-rule:nonzero;stroke:none"
         id="path1950"
         inkscape:connector-curvature="0" />
    </g>
    <g
       id="g1952"
       transform="matrix(2.5253696,0,0,-2.5253696,416.32216,934.04304)">
      <path
         d="m 0,0 -27.911,27.91 4.261,4.261 17.624,-17.624 0,97.431 -117.93,0 0,6.025 L 0,118.003 0,0 Z"
         style="fill:#ffffff;fill-opacity:1;fill-rule:nonzero;stroke:none"
         id="path1954"
         inkscape:connector-curvature="0" />
    </g>
    <g
       id="g1956"
       transform="matrix(2.5253696,0,0,-2.5253696,142.29029,643.64953)">
      <path
         d="m 0,0 c 0,-5.736 -4.65,-10.385 -10.385,-10.385 -5.736,0 -10.386,4.649 -10.386,10.385 0,5.736 4.65,10.385 10.386,10.385 C -4.65,10.385 0,5.736 0,0"
         style="fill:#63c2a3;fill-opacity:1;fill-rule:nonzero;stroke:none"
         id="path1958"
         inkscape:connector-curvature="0" />
    </g>
    <g
       id="g1960"
       transform="matrix(2.5253696,0,0,-2.5253696,200.56188,712.15952)">
      <path
         d="m 0,0 c -5.359,0 -10.533,-1.937 -14.568,-5.455 -3.838,-3.346 -6.425,-7.935 -7.288,-12.931 -0.119,-0.332 -0.202,-0.677 -0.246,-1.013 -0.149,-0.985 -3.482,-21.685 -4.759,-29.611 -0.225,-1.034 -0.339,-2.075 -0.339,-3.094 0,-8.04 6.542,-14.582 14.582,-14.582 3.495,0 6.87,1.253 9.519,3.54 0.038,0.034 0.949,0.861 2.12,2.297 0.604,0.741 2.421,3.739 4.524,7.209 1.865,3.077 3.788,6.251 4.788,7.709 l 13.62,0 L 21.953,0 0,0 Z"
         style="fill:#ffffff;fill-opacity:1;fill-rule:nonzero;stroke:none"
         id="path1962"
         inkscape:connector-curvature="0" />
    </g>
    <g
       id="g1964"
       transform="matrix(2.5253696,0,0,-2.5253696,200.56228,722.20241)">
      <path
         d="m 0,0 c -9.152,0 -16.725,-6.753 -18.012,-15.548 -0.079,-0.123 -0.133,-0.262 -0.151,-0.421 -0.03,-0.267 -4.791,-29.811 -4.791,-29.811 -0.171,-0.756 -0.269,-1.539 -0.269,-2.347 0,-5.857 4.748,-10.605 10.605,-10.605 3.352,0 6.336,1.559 8.28,3.987 l 0.006,-0.003 c 0,0 8.755,14.858 10.755,16.77 l 15.529,0 L 21.952,0 0,0 Z"
         style="fill:#63c2a3;fill-opacity:1;fill-rule:nonzero;stroke:none"
         id="path1966"
         inkscape:connector-curvature="0" />
    </g>
    <g
       id="g1968"
       transform="matrix(2.5253696,0,0,-2.5253696,237.48438,770.9279)">
      <path
         d="m 0,0 c 0,-8.131 -6.591,-14.722 -14.722,-14.722 -8.131,0 -14.723,6.591 -14.723,14.722 0,8.131 6.592,14.722 14.723,14.722 C -6.591,14.722 0,8.131 0,0"
         style="fill:#63c2a3;fill-opacity:1;fill-rule:nonzero;stroke:none"
         id="path1970"
         inkscape:connector-curvature="0" />
    </g>
    <g
       id="g1972"
       transform="matrix(2.5253696,0,0,-2.5253696,200.3053,736.18309)">
      <path
         d="m 0,0 c -7.586,0 -13.758,-6.172 -13.758,-13.758 0,-7.586 6.172,-13.758 13.758,-13.758 7.586,0 13.758,6.172 13.758,13.758 C 13.758,-6.172 7.586,0 0,0 m 0,-29.445 c -8.65,0 -15.687,7.037 -15.687,15.687 0,8.649 7.037,15.686 15.687,15.686 8.649,0 15.686,-7.037 15.686,-15.686 0,-8.65 -7.037,-15.687 -15.686,-15.687"
         style="fill:#0e1f43;fill-opacity:1;fill-rule:nonzero;stroke:none"
         id="path1974"
         inkscape:connector-curvature="0" />
    </g>
    <g
       id="g1976"
       transform="matrix(2.5253696,0,0,-2.5253696,215.59993,760.59459)">
      <path
         d="m 0,0 -1.766,0 c -0.308,0 -0.559,0.251 -0.559,0.559 l 0,2.247 c 0,1.771 -1.44,3.211 -3.211,3.211 l -1.524,0 c -1.77,0 -3.21,-1.44 -3.21,-3.211 l 0,-2.247 C -10.27,0.251 -10.521,0 -10.83,0 l -2.247,0 c -1.77,0 -3.21,-1.44 -3.21,-3.211 l 0,-1.524 c 0,-1.77 1.44,-3.21 3.21,-3.21 l 2.247,0 c 0.309,0 0.56,-0.251 0.56,-0.56 l 0,-1.766 c 0,-1.77 1.44,-3.21 3.21,-3.21 l 1.524,0 c 1.771,0 3.211,1.44 3.211,3.21 l 0,1.766 c 0,0.309 0.251,0.56 0.559,0.56 l 1.766,0 c 1.771,0 3.211,1.44 3.211,3.21 l 0,1.524 C 3.211,-1.44 1.771,0 0,0"
         style="fill:#0e1f43;fill-opacity:1;fill-rule:nonzero;stroke:none"
         id="path1978"
         inkscape:connector-curvature="0" />
    </g>
    <g
       id="g1980"
       transform="matrix(2.5253696,0,0,-2.5253696,206.38011,782.07211)">
      <path
         d="m 0,0 0,-1.766 c 0,-1.041 -0.844,-1.885 -1.885,-1.885 l -1.524,0 c -1.041,0 -1.885,0.844 -1.885,1.885 l 0,3.651 -1.885,0 -2.247,0 c -1.041,0 -1.885,0.844 -1.885,1.885 l 0,1.524 c 0,1.041 0.844,1.885 1.885,1.885 l 2.247,0 1.885,0 0,4.132 c 0,1.041 0.844,1.885 1.885,1.885 l 1.524,0 C -0.844,13.196 0,12.352 0,11.311 l 0,-2.247 0,-1.885 3.651,0 c 1.041,0 1.885,-0.844 1.885,-1.885 l 0,-1.524 C 5.536,2.729 4.692,1.885 3.651,1.885 L 0,1.885 0,0 Z"
         style="fill:#63c2a3;fill-opacity:1;fill-rule:nonzero;stroke:none"
         id="path1982"
         inkscape:connector-curvature="0" />
    </g>
    <g
       id="g1984"
       transform="matrix(2.5253696,0,0,-2.5253696,185.94504,847.8191)">
      <path
         d="m 0,0 c 0,-3.96 -3.21,-7.17 -7.17,-7.17 -3.96,0 -7.171,3.21 -7.171,7.17 0,3.96 3.211,7.17 7.171,7.17 C -3.21,7.17 0,3.96 0,0"
         style="fill:#0e1f43;fill-opacity:1;fill-rule:nonzero;stroke:none"
         id="path1986"
         inkscape:connector-curvature="0" />
    </g>
    <g
       id="g1988"
       transform="matrix(2.5253696,0,0,-2.5253696,379.27297,835.92661)">
      <path
         d="m 0,0 c -1.586,9.842 -4.616,28.663 -4.757,29.59 -0.039,0.302 -0.106,0.601 -0.199,0.89 -0.838,5.041 -3.424,9.675 -7.288,13.053 -4.039,3.532 -9.221,5.477 -14.592,5.477 l -21.978,0 0,-45.932 13.62,0 c 1.22,-1.772 3.871,-6.112 6.03,-9.648 1.803,-2.951 2.924,-4.782 3.255,-5.234 l 0,0 c 0.852,-1.164 2.069,-2.264 2.132,-2.32 2.639,-2.291 6.024,-3.552 9.533,-3.552 8.041,0 14.583,6.541 14.583,14.582 C 0.339,-2.075 0.224,-1.034 0,0"
         style="fill:#63c2a3;fill-opacity:1;fill-rule:nonzero;stroke:none"
         id="path1990"
         inkscape:connector-curvature="0" />
    </g>
    <g
       id="g1992"
       transform="matrix(2.5253696,0,0,-2.5253696,322.37882,860.46084)">
      <path
         d="m 0,0 0.006,0.003 c 1.944,-2.428 4.927,-3.988 8.279,-3.988 5.858,0 10.606,4.749 10.606,10.606 0,0.807 -0.099,1.591 -0.27,2.347 0,0 -4.76,29.544 -4.791,29.811 -0.015,0.137 -0.057,0.257 -0.119,0.365 -1.263,8.822 -8.847,15.604 -18.018,15.604 l -21.978,0 0,-37.978 15.53,0 C -8.756,14.858 0,0 0,0"
         style="fill:#0e1f43;fill-opacity:1;fill-rule:nonzero;stroke:none"
         id="path1994"
         inkscape:connector-curvature="0" />
    </g>
    <g
       id="g1996"
       transform="matrix(2.5253696,0,0,-2.5253696,361.57761,847.8191)">
      <path
         d="m 0,0 c 0,-3.96 -3.21,-7.17 -7.17,-7.17 -3.96,0 -7.171,3.21 -7.171,7.17 0,3.96 3.211,7.17 7.171,7.17 C -3.21,7.17 0,3.96 0,0"
         style="fill:#ffffff;fill-opacity:1;fill-rule:nonzero;stroke:none"
         id="path1998"
         inkscape:connector-curvature="0" />
    </g>
    <g
       id="g2000"
       transform="matrix(2.5253696,0,0,-2.5253696,311.07223,736.18309)">
      <path
         d="m 0,0 c -7.586,0 -13.758,-6.172 -13.758,-13.758 0,-7.586 6.172,-13.758 13.758,-13.758 7.586,0 13.758,6.172 13.758,13.758 C 13.758,-6.172 7.586,0 0,0 m 0,-29.445 c -8.649,0 -15.686,7.037 -15.686,15.687 0,8.649 7.037,15.686 15.686,15.686 8.65,0 15.687,-7.037 15.687,-15.686 0,-8.65 -7.037,-15.687 -15.687,-15.687"
         style="fill:#ffffff;fill-opacity:1;fill-rule:nonzero;stroke:none"
         id="path2002"
         inkscape:connector-curvature="0" />
    </g>
    <g
       id="g2004"
       transform="matrix(2.5253696,0,0,-2.5253696,310.65949,766.00165)">
      <path
         d="M 0,0 C 2.415,0 4.38,1.965 4.38,4.38 4.38,6.796 2.415,8.761 0,8.761 -2.415,8.761 -4.38,6.796 -4.38,4.38 -4.38,1.965 -2.415,0 0,0"
         style="fill:#ffffff;fill-opacity:1;fill-rule:nonzero;stroke:none"
         id="path2006"
         inkscape:connector-curvature="0" />
    </g>
    <g
       id="g2008"
       transform="matrix(2.5253696,0,0,-2.5253696,304.46607,768.99272)">
      <path
         d="m 0,0 c 0,2.416 -1.965,4.381 -4.381,4.381 -2.415,0 -4.38,-1.965 -4.38,-4.381 0,-2.415 1.965,-4.38 4.38,-4.38 C -1.965,-4.38 0,-2.415 0,0"
         style="fill:#ffffff;fill-opacity:1;fill-rule:nonzero;stroke:none"
         id="path2010"
         inkscape:connector-curvature="0" />
    </g>
    <g
       id="g2012"
       transform="matrix(2.5253696,0,0,-2.5253696,328.74154,761.80071)">
      <path
         d="m 0,0 c -2.415,0 -4.38,-1.965 -4.38,-4.381 0,-2.415 1.965,-4.38 4.38,-4.38 2.415,0 4.38,1.965 4.38,4.38 C 4.38,-1.965 2.415,0 0,0"
         style="fill:#ffffff;fill-opacity:1;fill-rule:nonzero;stroke:none"
         id="path2014"
         inkscape:connector-curvature="0" />
    </g>
    <g
       id="g2016"
       transform="matrix(2.5253696,0,0,-2.5253696,311.48619,775.85338)">
      <path
         d="m 0,0 c -2.416,0 -4.381,-1.965 -4.381,-4.381 0,-2.415 1.965,-4.38 4.381,-4.38 2.415,0 4.38,1.965 4.38,4.38 C 4.38,-1.965 2.415,0 0,0"
         style="fill:#ffffff;fill-opacity:1;fill-rule:nonzero;stroke:none"
         id="path2018"
         inkscape:connector-curvature="0" />
    </g>
    <g
       id="g2020"
       transform="matrix(2.5253696,0,0,-2.5253696,319.28676,754.93979)">
      <path
         d="m 0,0 c 0,-1.887 -1.53,-3.416 -3.416,-3.416 -1.887,0 -3.417,1.529 -3.417,3.416 0,1.887 1.53,3.417 3.417,3.417 C -1.53,3.417 0,1.887 0,0"
         style="fill:#0e1f43;fill-opacity:1;fill-rule:nonzero;stroke:none"
         id="path2022"
         inkscape:connector-curvature="0" />
    </g>
    <g
       id="g2024"
       transform="matrix(2.5253696,0,0,-2.5253696,302.03101,768.99195)">
      <path
         d="m 0,0 c 0,-1.887 -1.53,-3.417 -3.416,-3.417 -1.887,0 -3.417,1.53 -3.417,3.417 0,1.887 1.53,3.416 3.417,3.416 C -1.53,3.416 0,1.887 0,0"
         style="fill:#0e1f43;fill-opacity:1;fill-rule:nonzero;stroke:none"
         id="path2026"
         inkscape:connector-curvature="0" />
    </g>
    <g
       id="g2028"
       transform="matrix(2.5253696,0,0,-2.5253696,337.36941,772.86334)">
      <path
         d="m 0,0 c 0,-1.887 -1.53,-3.417 -3.417,-3.417 -1.886,0 -3.416,1.53 -3.416,3.417 0,1.887 1.53,3.417 3.416,3.417 C -1.53,3.417 0,1.887 0,0"
         style="fill:#0e1f43;fill-opacity:1;fill-rule:nonzero;stroke:none"
         id="path2030"
         inkscape:connector-curvature="0" />
    </g>
    <g
       id="g2032"
       transform="matrix(2.5253696,0,0,-2.5253696,320.11366,786.91626)">
      <path
         d="m 0,0 c 0,-1.887 -1.53,-3.417 -3.417,-3.417 -1.886,0 -3.416,1.53 -3.416,3.417 0,1.887 1.53,3.417 3.416,3.417 C -1.53,3.417 0,1.887 0,0"
         style="fill:#0e1f43;fill-opacity:1;fill-rule:nonzero;stroke:none"
         id="path2034"
         inkscape:connector-curvature="0" />
    </g>
    <g
       id="g2036"
       transform="matrix(2.5253696,0,0,-2.5253696,133.06057,643.64953)">
      <path
         d="m 0,0 c 0,-3.717 -3.013,-6.73 -6.73,-6.73 -3.717,0 -6.731,3.013 -6.731,6.73 0,3.717 3.014,6.73 6.731,6.73 C -3.013,6.73 0,3.717 0,0"
         style="fill:#ffffff;fill-opacity:1;fill-rule:nonzero;stroke:none"
         id="path2038"
         inkscape:connector-curvature="0" />
    </g>
  </g>
</svg>
