<?xml version="1.0" encoding="UTF-8" standalone="no"?>
<!-- Created with Inkscape (http://www.inkscape.org/) -->

<svg
   xmlns:dc="http://purl.org/dc/elements/1.1/"
   xmlns:cc="http://creativecommons.org/ns#"
   xmlns:rdf="http://www.w3.org/1999/02/22-rdf-syntax-ns#"
   xmlns:svg="http://www.w3.org/2000/svg"
   xmlns="http://www.w3.org/2000/svg"
   xmlns:sodipodi="http://sodipodi.sourceforge.net/DTD/sodipodi-0.dtd"
   xmlns:inkscape="http://www.inkscape.org/namespaces/inkscape"
   width="512"
   height="512"
   viewBox="0 0 512.00001 512.00001"
   id="svg18733"
   version="1.1"
   inkscape:version="0.91 r13725"
   sodipodi:docname="avatar-07.svg">
  <defs
     id="defs18735" />
  <sodipodi:namedview
     id="base"
     pagecolor="#ffffff"
     bordercolor="#666666"
     borderopacity="1.0"
     inkscape:pageopacity="0.0"
     inkscape:pageshadow="2"
     inkscape:zoom="0.24748737"
     inkscape:cx="282.83308"
     inkscape:cy="811.89282"
     inkscape:document-units="px"
     inkscape:current-layer="layer1"
     showgrid="false"
     units="px"
     inkscape:window-width="1329"
     inkscape:window-height="744"
     inkscape:window-x="37"
     inkscape:window-y="24"
     inkscape:window-maximized="1" />
  <metadata
     id="metadata18738">
    <rdf:RDF>
      <cc:Work
         rdf:about="">
        <dc:format>image/svg+xml</dc:format>
        <dc:type
           rdf:resource="http://purl.org/dc/dcmitype/StillImage" />
        <dc:title></dc:title>
      </cc:Work>
    </rdf:RDF>
  </metadata>
  <g
     inkscape:label="Layer 1"
     inkscape:groupmode="layer"
     id="layer1"
     transform="translate(0,-540.36216)">
    <g
       id="g2940"
       transform="matrix(2.5733687,0,0,-2.5733687,42.074514,853.05846)">
      <path
         d="m 0,0 -12.331,12.331 c -5.358,5.358 -5.358,14.044 0,19.401 l 28.549,28.55 0,2.98 c -5.737,3.982 -9.502,10.616 -9.502,18.113 0,12.151 9.886,22.036 22.036,22.036 8.27,0 15.49,-4.58 19.258,-11.337 l 25.42,25.42 c 2.573,2.573 6.062,4.018 9.701,4.018 l 0,-198.96 c -3.639,0 -7.128,1.445 -9.701,4.018 l -28.549,28.549 -21.094,0 c -4.18,0 -7.569,3.389 -7.569,7.569 l 0,21.094 L 13.76,-13.76 0,0 Z"
         style="fill:#13bcc5;fill-opacity:1;fill-rule:nonzero;stroke:none"
         id="path2942"
         inkscape:connector-curvature="0" />
    </g>
    <g
       id="g2944"
       transform="matrix(2.5733687,0,0,-2.5733687,501.65963,771.3992)">
      <path
         d="m 0,0 c 5.357,-5.358 5.357,-14.044 0,-19.401 l -28.55,-28.55 0,-2.98 c 5.738,-3.982 9.502,-10.616 9.502,-18.113 0,-12.151 -9.885,-22.036 -22.035,-22.036 -8.271,0 -15.49,4.581 -19.259,11.337 l -25.42,-25.42 c -2.572,-2.572 -6.062,-4.018 -9.7,-4.018 l 0,198.961 c 3.638,0 7.128,-1.446 9.7,-4.019 l 28.55,-28.549 21.094,0 c 4.18,0 7.568,-3.389 7.568,-7.569 l 0,-21.093 L 0,0 Z"
         style="fill:#24e288;fill-opacity:1;fill-rule:nonzero;stroke:none"
         id="path2946"
         inkscape:connector-curvature="0" />
    </g>
    <g
       id="g2948"
       transform="matrix(2.5733687,0,0,-2.5733687,46.064059,794.74609)">
      <path
         d="M 0,0 81.58,-81.581 81.58,81.58 0,0 Z"
         style="fill:#24e288;fill-opacity:1;fill-rule:nonzero;stroke:none"
         id="path2950"
         inkscape:connector-curvature="0" />
    </g>
    <g
       id="g2952"
       transform="matrix(2.5733687,0,0,-2.5733687,465.93695,794.74609)">
      <path
         d="m 0,0 -81.58,81.58 0,-163.161 L 0,0 Z"
         style="fill:#1c3664;fill-opacity:1;fill-rule:nonzero;stroke:none"
         id="path2954"
         inkscape:connector-curvature="0" />
    </g>
    <g
       id="g2956"
       transform="matrix(2.5733687,0,0,-2.5733687,256.00009,993.92281)">
      <path
         d="M 0,0 -77.399,77.399 0,154.798 0,163.161 -85.762,77.399 0,-8.363 0,0 Z"
         style="fill:#1c3664;fill-opacity:1;fill-rule:nonzero;stroke:none"
         id="path2958"
         inkscape:connector-curvature="0" />
    </g>
    <g
       id="g2960"
       transform="matrix(2.5733687,0,0,-2.5733687,256.00009,574.05013)">
      <path
         d="M 0,0 0,-8.362 77.399,-85.761 0,-163.161 0,-171.523 85.762,-85.761 0,0 Z"
         style="fill:#13bcc5;fill-opacity:1;fill-rule:nonzero;stroke:none"
         id="path2962"
         inkscape:connector-curvature="0" />
    </g>
    <path
       d="m 373.5048,681.53537 -97.76743,0 0,-15.21633 97.76743,0 0,15.21633 z"
       style="fill:#13bcc5;fill-opacity:1;fill-rule:nonzero;stroke:none"
       id="path2964"
       inkscape:connector-curvature="0" />
    <g
       id="g2966"
       transform="matrix(2.5733687,0,0,-2.5733687,348.25144,769.31141)">
      <path
         d="m 0,0 c 0,-7.979 -6.469,-14.448 -14.448,-14.448 -7.979,0 -14.447,6.469 -14.447,14.448 0,7.979 6.468,14.448 14.447,14.448 C -6.469,14.448 0,7.979 0,0"
         style="fill:#0e1f43;fill-opacity:1;fill-rule:nonzero;stroke:none"
         id="path2968"
         inkscape:connector-curvature="0" />
    </g>
    <g
       id="g2970"
       transform="matrix(2.5733687,0,0,-2.5733687,148.90102,649.64154)">
      <path
         d="M 0,0 20.606,0 16.169,-4.437 0,-4.437 0,0 Z"
         style="fill:#13bcc5;fill-opacity:1;fill-rule:nonzero;stroke:none"
         id="path2972"
         inkscape:connector-curvature="0" />
    </g>
    <g
       id="g2974"
       transform="matrix(2.5733687,0,0,-2.5733687,394.80101,681.53535)">
      <path
         d="M 0,0 -20.606,0 -16.169,-4.437 0,-4.437 0,0 Z"
         style="fill:#24e288;fill-opacity:1;fill-rule:nonzero;stroke:none"
         id="path2976"
         inkscape:connector-curvature="0" />
    </g>
    <g
       id="g2978"
       transform="matrix(2.5733687,0,0,-2.5733687,143.79957,934.76848)">
      <path
         d="M 0,0 20.606,0 16.169,4.437 0,4.437 0,0 Z"
         style="fill:#13bcc5;fill-opacity:1;fill-rule:nonzero;stroke:none"
         id="path2980"
         inkscape:connector-curvature="0" />
    </g>
    <g
       id="g2982"
       transform="matrix(2.5733687,0,0,-2.5733687,175.65067,966.487)">
      <path
         d="M 0,0 20.606,0 16.169,4.437 0,4.437 0,0 Z"
         style="fill:#13bcc5;fill-opacity:1;fill-rule:nonzero;stroke:none"
         id="path2984"
         inkscape:connector-curvature="0" />
    </g>
    <g
       id="g2986"
       transform="matrix(2.5733687,0,0,-2.5733687,84.259235,735.96879)">
      <path
         d="m 0,0 0,-12.182 4.438,4.438 0,12.182 L 0,0 Z"
         style="fill:#13bcc5;fill-opacity:1;fill-rule:nonzero;stroke:none"
         id="path2988"
         inkscape:connector-curvature="0" />
    </g>
    <g
       id="g2990"
       transform="matrix(2.5733687,0,0,-2.5733687,84.259235,853.47432)">
      <path
         d="M 0,0 0,12.182 4.438,7.744 4.438,-4.437 0,0 Z"
         style="fill:#13bcc5;fill-opacity:1;fill-rule:nonzero;stroke:none"
         id="path2992"
         inkscape:connector-curvature="0" />
    </g>
    <g
       id="g2994"
       transform="matrix(2.5733687,0,0,-2.5733687,427.74157,735.96879)">
      <path
         d="m 0,0 0,-12.182 -4.438,4.438 0,12.182 L 0,0 Z"
         style="fill:#24e288;fill-opacity:1;fill-rule:nonzero;stroke:none"
         id="path2996"
         inkscape:connector-curvature="0" />
    </g>
    <g
       id="g2998"
       transform="matrix(2.5733687,0,0,-2.5733687,427.74157,853.47432)">
      <path
         d="m 0,0 0,12.182 -4.438,-4.438 0,-12.181 L 0,0 Z"
         style="fill:#24e288;fill-opacity:1;fill-rule:nonzero;stroke:none"
         id="path3000"
         inkscape:connector-curvature="0" />
    </g>
    <g
       id="g3002"
       transform="matrix(2.5733687,0,0,-2.5733687,336.36001,966.487)">
      <path
         d="M 0,0 -20.606,0 -16.169,4.437 0,4.437 0,0 Z"
         style="fill:#24e288;fill-opacity:1;fill-rule:nonzero;stroke:none"
         id="path3004"
         inkscape:connector-curvature="0" />
    </g>
    <g
       id="g3006"
       transform="matrix(2.5733687,0,0,-2.5733687,362.9425,649.57051)">
      <path
         d="M 0,0 -20.606,0 -16.169,-4.437 0,-4.437 0,0 Z"
         style="fill:#24e288;fill-opacity:1;fill-rule:nonzero;stroke:none"
         id="path3008"
         inkscape:connector-curvature="0" />
    </g>
    <path
       d="m 233.58302,923.34968 -97.76742,0 0,-15.21635 97.76742,0 0,15.21635 z"
       style="fill:#1c3664;fill-opacity:1;fill-rule:nonzero;stroke:none"
       id="path3010"
       inkscape:connector-curvature="0" />
    <g
       id="g3012"
       transform="matrix(2.5733687,0,0,-2.5733687,113.09991,705.66455)">
      <path
         d="M 0,0 6.374,-6.374 2.193,-10.555 -2.296,-6.066 0,0 Z"
         style="fill:#13bcc5;fill-opacity:1;fill-rule:nonzero;stroke:none"
         id="path3014"
         inkscape:connector-curvature="0" />
    </g>
    <g
       id="g3016"
       transform="matrix(2.5733687,0,0,-2.5733687,408.71367,955.06762)">
      <path
         d="m 0,0 -121.644,0 0,112.093 27.303,-27.302 -4.182,-4.182 -17.208,17.209 0,-91.905 L 0,5.913 0,0 Z"
         style="fill:#1c3664;fill-opacity:1;fill-rule:nonzero;stroke:none"
         id="path3018"
         inkscape:connector-curvature="0" />
    </g>
    <g
       id="g3020"
       transform="matrix(2.5733687,0,0,-2.5733687,366.88963,883.00342)">
      <path
         d="M 0,0 4.673,-4.673 0.499,-8.862 -4.187,-4.175 0,0 Z"
         style="fill:#24e288;fill-opacity:1;fill-rule:nonzero;stroke:none"
         id="path3022"
         inkscape:connector-curvature="0" />
    </g>
    <g
       id="g3024"
       transform="matrix(2.5733687,0,0,-2.5733687,422.16333,947.4593)">
      <path
         d="m 0,0 c 0,-5.629 -4.563,-10.191 -10.192,-10.191 -5.628,0 -10.191,4.562 -10.191,10.191 0,5.629 4.563,10.192 10.191,10.192 C -4.563,10.192 0,5.629 0,0"
         style="fill:#24e288;fill-opacity:1;fill-rule:nonzero;stroke:none"
         id="path3026"
         inkscape:connector-curvature="0" />
    </g>
    <g
       id="g3028"
       transform="matrix(2.5733687,0,0,-2.5733687,412.93337,947.4593)">
      <path
         d="m 0,0 c 0,-3.648 -2.957,-6.605 -6.605,-6.605 -3.648,0 -6.605,2.957 -6.605,6.605 0,3.648 2.957,6.605 6.605,6.605 C -2.957,6.605 0,3.648 0,0"
         style="fill:#1c3664;fill-opacity:1;fill-rule:nonzero;stroke:none"
         id="path3030"
         inkscape:connector-curvature="0" />
    </g>
    <g
       id="g3032"
       transform="matrix(2.5733687,0,0,-2.5733687,416.32178,932.4263)">
      <path
         d="m 0,0 -27.39,27.39 4.181,4.181 17.296,-17.295 0,95.613 -115.731,0 0,5.913 L 0,115.802 0,0 Z"
         style="fill:#1c3664;fill-opacity:1;fill-rule:nonzero;stroke:none"
         id="path3034"
         inkscape:connector-curvature="0" />
    </g>
    <g
       id="g3036"
       transform="matrix(2.5733687,0,0,-2.5733687,142.29055,642.03338)">
      <path
         d="m 0,0 c 0,-5.629 -4.563,-10.191 -10.192,-10.191 -5.628,0 -10.191,4.562 -10.191,10.191 0,5.629 4.563,10.192 10.191,10.192 C -4.563,10.192 0,5.629 0,0"
         style="fill:#13bcc5;fill-opacity:1;fill-rule:nonzero;stroke:none"
         id="path3038"
         inkscape:connector-curvature="0" />
    </g>
    <g
       id="g3040"
       transform="matrix(2.5733687,0,0,-2.5733687,200.56191,710.5429)">
      <path
         d="m 0,0 c -5.259,0 -10.336,-1.901 -14.297,-5.353 -3.766,-3.284 -6.304,-7.788 -7.152,-12.69 -0.116,-0.325 -0.198,-0.664 -0.24,-0.994 -0.147,-0.967 -3.418,-21.281 -4.671,-29.059 -0.221,-1.015 -0.332,-2.036 -0.332,-3.036 0,-7.89 6.419,-14.31 14.31,-14.31 3.429,0 6.742,1.229 9.341,3.473 0.037,0.034 0.931,0.846 2.08,2.255 0.593,0.728 2.376,3.669 4.44,7.075 1.83,3.02 3.717,6.134 4.698,7.565 l 13.366,0 L 21.543,0 0,0 Z"
         style="fill:#1c3664;fill-opacity:1;fill-rule:nonzero;stroke:none"
         id="path3042"
         inkscape:connector-curvature="0" />
    </g>
    <g
       id="g3044"
       transform="matrix(2.5733687,0,0,-2.5733687,200.56232,720.58571)">
      <path
         d="m 0,0 c -8.981,0 -16.413,-6.627 -17.676,-15.258 -0.078,-0.121 -0.13,-0.257 -0.148,-0.413 -0.03,-0.262 -4.701,-29.255 -4.701,-29.255 -0.168,-0.742 -0.265,-1.511 -0.265,-2.303 0,-5.748 4.66,-10.408 10.408,-10.408 3.289,0 6.217,1.53 8.125,3.913 l 0.005,-0.003 c 0,0 8.593,14.581 10.555,16.458 l 15.24,0 L 21.543,0 0,0 Z"
         style="fill:#13bcc5;fill-opacity:1;fill-rule:nonzero;stroke:none"
         id="path3046"
         inkscape:connector-curvature="0" />
    </g>
    <g
       id="g3048"
       transform="matrix(2.5733687,0,0,-2.5733687,237.48419,769.31141)">
      <path
         d="m 0,0 c 0,-7.979 -6.468,-14.448 -14.448,-14.448 -7.979,0 -14.447,6.469 -14.447,14.448 0,7.979 6.468,14.448 14.447,14.448 C -6.468,14.448 0,7.979 0,0"
         style="fill:#13bcc5;fill-opacity:1;fill-rule:nonzero;stroke:none"
         id="path3050"
         inkscape:connector-curvature="0" />
    </g>
    <g
       id="g3052"
       transform="matrix(2.5733687,0,0,-2.5733687,200.30519,734.56657)">
      <path
         d="m 0,0 c -7.445,0 -13.502,-6.057 -13.502,-13.502 0,-7.444 6.057,-13.501 13.502,-13.501 7.445,0 13.502,6.057 13.502,13.501 C 13.502,-6.057 7.445,0 0,0 m 0,-28.895 c -8.488,0 -15.394,6.905 -15.394,15.393 0,8.488 6.906,15.394 15.394,15.394 8.488,0 15.394,-6.906 15.394,-15.394 0,-8.488 -6.906,-15.393 -15.394,-15.393"
         style="fill:#1c3664;fill-opacity:1;fill-rule:nonzero;stroke:none"
         id="path3054"
         inkscape:connector-curvature="0" />
    </g>
    <g
       id="g3056"
       transform="matrix(2.5733687,0,0,-2.5733687,215.60005,758.97833)">
      <path
         d="m 0,0 -1.733,0 c -0.303,0 -0.549,0.246 -0.549,0.549 l 0,2.205 c 0,1.737 -1.413,3.151 -3.15,3.151 l -1.496,0 c -1.738,0 -3.151,-1.414 -3.151,-3.151 l 0,-2.205 C -10.079,0.246 -10.325,0 -10.628,0 l -2.205,0 c -1.737,0 -3.151,-1.413 -3.151,-3.151 l 0,-1.495 c 0,-1.738 1.414,-3.151 3.151,-3.151 l 2.205,0 c 0.303,0 0.549,-0.246 0.549,-0.549 l 0,-1.733 c 0,-1.737 1.413,-3.151 3.151,-3.151 l 1.496,0 c 1.737,0 3.15,1.414 3.15,3.151 l 0,1.733 c 0,0.303 0.246,0.549 0.549,0.549 l 1.733,0 c 1.737,0 3.151,1.413 3.151,3.151 l 0,1.495 C 3.151,-1.413 1.737,0 0,0"
         style="fill:#1c3664;fill-opacity:1;fill-rule:nonzero;stroke:none"
         id="path3058"
         inkscape:connector-curvature="0" />
    </g>
    <g
       id="g3060"
       transform="matrix(2.5733687,0,0,-2.5733687,206.38019,780.45566)">
      <path
         d="m 0,0 0,-1.733 c 0,-1.021 -0.828,-1.85 -1.85,-1.85 l -1.495,0 c -1.022,0 -1.85,0.829 -1.85,1.85 l 0,3.583 -1.85,0 -2.205,0 c -1.022,0 -1.85,0.828 -1.85,1.85 l 0,1.495 c 0,1.022 0.828,1.85 1.85,1.85 l 2.205,0 1.85,0 0,4.055 c 0,1.022 0.828,1.85 1.85,1.85 l 1.495,0 C -0.828,12.95 0,12.122 0,11.1 l 0,-2.205 0,-1.85 3.583,0 c 1.021,0 1.85,-0.828 1.85,-1.85 l 0,-1.495 C 5.433,2.678 4.604,1.85 3.583,1.85 L 0,1.85 0,0 Z"
         style="fill:#13bcc5;fill-opacity:1;fill-rule:nonzero;stroke:none"
         id="path3062"
         inkscape:connector-curvature="0" />
    </g>
    <g
       id="g3064"
       transform="matrix(2.5733687,0,0,-2.5733687,185.94497,846.20219)">
      <path
         d="m 0,0 c 0,-3.886 -3.15,-7.037 -7.037,-7.037 -3.886,0 -7.036,3.151 -7.036,7.037 0,3.886 3.15,7.037 7.036,7.037 C -3.15,7.037 0,3.886 0,0"
         style="fill:#1c3664;fill-opacity:1;fill-rule:nonzero;stroke:none"
         id="path3066"
         inkscape:connector-curvature="0" />
    </g>
    <g
       id="g3068"
       transform="matrix(2.5733687,0,0,-2.5733687,379.27268,834.31034)">
      <path
         d="m 0,0 c -1.556,9.658 -4.53,28.129 -4.668,29.038 -0.038,0.296 -0.104,0.59 -0.196,0.874 -0.822,4.947 -3.36,9.494 -7.151,12.809 -3.964,3.466 -9.05,5.374 -14.321,5.374 l -21.567,0 0,-45.074 13.365,0 c 1.198,-1.739 3.799,-5.999 5.918,-9.468 1.769,-2.896 2.869,-4.693 3.194,-5.137 l 0,0 c 0.836,-1.142 2.031,-2.221 2.092,-2.277 2.59,-2.247 5.912,-3.485 9.356,-3.485 7.891,0 14.31,6.419 14.31,14.309 C 0.332,-2.036 0.22,-1.015 0,0"
         style="fill:#13bcc5;fill-opacity:1;fill-rule:nonzero;stroke:none"
         id="path3070"
         inkscape:connector-curvature="0" />
    </g>
    <g
       id="g3072"
       transform="matrix(2.5733687,0,0,-2.5733687,322.379,858.84401)">
      <path
         d="M 0,0 0.006,0.003 C 1.913,-2.38 4.841,-3.91 8.131,-3.91 c 5.748,0 10.407,4.659 10.407,10.407 0,0.793 -0.096,1.562 -0.264,2.304 0,0 -4.671,28.993 -4.701,29.254 -0.016,0.134 -0.057,0.253 -0.117,0.359 -1.24,8.657 -8.683,15.313 -17.683,15.313 l -21.567,0 0,-37.27 15.24,0 C -8.592,14.58 0,0 0,0"
         style="fill:#24e288;fill-opacity:1;fill-rule:nonzero;stroke:none"
         id="path3074"
         inkscape:connector-curvature="0" />
    </g>
    <g
       id="g3076"
       transform="matrix(2.5733687,0,0,-2.5733687,361.57738,846.20219)">
      <path
         d="m 0,0 c 0,-3.886 -3.15,-7.037 -7.037,-7.037 -3.886,0 -7.036,3.151 -7.036,7.037 0,3.886 3.15,7.037 7.036,7.037 C -3.15,7.037 0,3.886 0,0"
         style="fill:#1c3664;fill-opacity:1;fill-rule:nonzero;stroke:none"
         id="path3078"
         inkscape:connector-curvature="0" />
    </g>
    <g
       id="g3080"
       transform="matrix(2.5733687,0,0,-2.5733687,311.07203,734.56657)">
      <path
         d="m 0,0 c -7.445,0 -13.502,-6.057 -13.502,-13.502 0,-7.444 6.057,-13.501 13.502,-13.501 7.445,0 13.502,6.057 13.502,13.501 C 13.502,-6.057 7.445,0 0,0 m 0,-28.895 c -8.488,0 -15.394,6.905 -15.394,15.393 0,8.488 6.906,15.394 15.394,15.394 8.488,0 15.394,-6.906 15.394,-15.394 0,-8.488 -6.906,-15.393 -15.394,-15.393"
         style="fill:#1c3664;fill-opacity:1;fill-rule:nonzero;stroke:none"
         id="path3082"
         inkscape:connector-curvature="0" />
    </g>
    <g
       id="g3084"
       transform="matrix(2.5733687,0,0,-2.5733687,310.65926,764.38522)">
      <path
         d="M 0,0 C 2.37,0 4.299,1.928 4.299,4.299 4.299,6.669 2.37,8.598 0,8.598 -2.37,8.598 -4.299,6.669 -4.299,4.299 -4.299,1.928 -2.37,0 0,0"
         style="fill:#1c3664;fill-opacity:1;fill-rule:nonzero;stroke:none"
         id="path3086"
         inkscape:connector-curvature="0" />
    </g>
    <g
       id="g3088"
       transform="matrix(2.5733687,0,0,-2.5733687,304.4663,767.37573)">
      <path
         d="m 0,0 c 0,2.371 -1.928,4.299 -4.299,4.299 -2.37,0 -4.299,-1.928 -4.299,-4.299 0,-2.37 1.929,-4.299 4.299,-4.299 C -1.928,-4.299 0,-2.37 0,0"
         style="fill:#1c3664;fill-opacity:1;fill-rule:nonzero;stroke:none"
         id="path3090"
         inkscape:connector-curvature="0" />
    </g>
    <g
       id="g3092"
       transform="matrix(2.5733687,0,0,-2.5733687,328.7416,760.18394)">
      <path
         d="m 0,0 c -2.37,0 -4.299,-1.928 -4.299,-4.299 0,-2.37 1.929,-4.299 4.299,-4.299 2.37,0 4.299,1.929 4.299,4.299 C 4.299,-1.928 2.37,0 0,0"
         style="fill:#1c3664;fill-opacity:1;fill-rule:nonzero;stroke:none"
         id="path3094"
         inkscape:connector-curvature="0" />
    </g>
    <g
       id="g3096"
       transform="matrix(2.5733687,0,0,-2.5733687,311.48604,774.23711)">
      <path
         d="m 0,0 c -2.371,0 -4.299,-1.928 -4.299,-4.299 0,-2.37 1.928,-4.299 4.299,-4.299 2.37,0 4.299,1.929 4.299,4.299 C 4.299,-1.928 2.37,0 0,0"
         style="fill:#1c3664;fill-opacity:1;fill-rule:nonzero;stroke:none"
         id="path3098"
         inkscape:connector-curvature="0" />
    </g>
    <g
       id="g3100"
       transform="matrix(2.5733687,0,0,-2.5733687,319.28664,753.32283)">
      <path
         d="m 0,0 c 0,-1.852 -1.501,-3.353 -3.353,-3.353 -1.851,0 -3.353,1.501 -3.353,3.353 0,1.852 1.502,3.353 3.353,3.353 C -1.501,3.353 0,1.852 0,0"
         style="fill:#24e288;fill-opacity:1;fill-rule:nonzero;stroke:none"
         id="path3102"
         inkscape:connector-curvature="0" />
    </g>
    <g
       id="g3104"
       transform="matrix(2.5733687,0,0,-2.5733687,302.03107,767.37573)">
      <path
         d="m 0,0 c 0,-1.852 -1.501,-3.353 -3.353,-3.353 -1.851,0 -3.353,1.501 -3.353,3.353 0,1.852 1.502,3.353 3.353,3.353 C -1.501,3.353 0,1.852 0,0"
         style="fill:#24e288;fill-opacity:1;fill-rule:nonzero;stroke:none"
         id="path3106"
         inkscape:connector-curvature="0" />
    </g>
    <g
       id="g3108"
       transform="matrix(2.5733687,0,0,-2.5733687,337.36939,771.24634)">
      <path
         d="m 0,0 c 0,-1.852 -1.501,-3.353 -3.353,-3.353 -1.851,0 -3.353,1.501 -3.353,3.353 0,1.852 1.502,3.353 3.353,3.353 C -1.501,3.353 0,1.852 0,0"
         style="fill:#24e288;fill-opacity:1;fill-rule:nonzero;stroke:none"
         id="path3110"
         inkscape:connector-curvature="0" />
    </g>
    <g
       id="g3112"
       transform="matrix(2.5733687,0,0,-2.5733687,320.11361,785.29951)">
      <path
         d="m 0,0 c 0,-1.852 -1.501,-3.353 -3.353,-3.353 -1.851,0 -3.352,1.501 -3.352,3.353 0,1.852 1.501,3.353 3.352,3.353 C -1.501,3.353 0,1.852 0,0"
         style="fill:#24e288;fill-opacity:1;fill-rule:nonzero;stroke:none"
         id="path3114"
         inkscape:connector-curvature="0" />
    </g>
    <g
       id="g3116"
       transform="matrix(2.5733687,0,0,-2.5733687,133.0606,642.03338)">
      <path
         d="m 0,0 c 0,-3.648 -2.957,-6.605 -6.605,-6.605 -3.648,0 -6.605,2.957 -6.605,6.605 0,3.648 2.957,6.605 6.605,6.605 C -2.957,6.605 0,3.648 0,0"
         style="fill:#1c3664;fill-opacity:1;fill-rule:nonzero;stroke:none"
         id="path3118"
         inkscape:connector-curvature="0" />
    </g>
  </g>
</svg>
