<?xml version="1.0" encoding="UTF-8" standalone="no"?>
<!-- Created with Inkscape (http://www.inkscape.org/) -->

<svg
   xmlns:dc="http://purl.org/dc/elements/1.1/"
   xmlns:cc="http://creativecommons.org/ns#"
   xmlns:rdf="http://www.w3.org/1999/02/22-rdf-syntax-ns#"
   xmlns:svg="http://www.w3.org/2000/svg"
   xmlns="http://www.w3.org/2000/svg"
   xmlns:sodipodi="http://sodipodi.sourceforge.net/DTD/sodipodi-0.dtd"
   xmlns:inkscape="http://www.inkscape.org/namespaces/inkscape"
   width="512"
   height="512"
   viewBox="0 0 512.00001 512.00001"
   id="svg18733"
   version="1.1"
   inkscape:version="0.91 r13725"
   sodipodi:docname="avatar-12.svg">
  <defs
     id="defs18735" />
  <sodipodi:namedview
     id="base"
     pagecolor="#ffffff"
     bordercolor="#666666"
     borderopacity="1.0"
     inkscape:pageopacity="0.0"
     inkscape:pageshadow="2"
     inkscape:zoom="0.24748737"
     inkscape:cx="282.83308"
     inkscape:cy="811.89282"
     inkscape:document-units="px"
     inkscape:current-layer="layer1"
     showgrid="false"
     units="px"
     inkscape:window-width="1329"
     inkscape:window-height="744"
     inkscape:window-x="37"
     inkscape:window-y="24"
     inkscape:window-maximized="1" />
  <metadata
     id="metadata18738">
    <rdf:RDF>
      <cc:Work
         rdf:about="">
        <dc:format>image/svg+xml</dc:format>
        <dc:type
           rdf:resource="http://purl.org/dc/dcmitype/StillImage" />
        <dc:title></dc:title>
      </cc:Work>
    </rdf:RDF>
  </metadata>
  <g
     inkscape:label="Layer 1"
     inkscape:groupmode="layer"
     id="layer1"
     transform="translate(0,-540.36216)">
    <g
       id="g3660"
       transform="matrix(2.5253711,0,0,-2.5253711,42.073987,853.05866)">
      <path
         d="m 0,0 -12.566,12.566 c -5.459,5.459 -5.459,14.31 0,19.769 l 29.093,29.093 0,3.037 c -5.847,4.057 -9.683,10.817 -9.683,18.457 0,12.382 10.073,22.455 22.455,22.455 8.427,0 15.784,-4.668 19.624,-11.553 l 25.903,25.903 c 2.622,2.622 6.177,4.095 9.885,4.095 l 0,-202.742 c -3.708,0 -7.263,1.472 -9.885,4.094 l -29.092,29.092 -21.495,0 c -4.259,0 -7.712,3.453 -7.712,7.713 l 0,21.494 -2.506,2.506 L 0,0 Z"
         style="fill:#63c2a3;fill-opacity:1;fill-rule:nonzero;stroke:none"
         id="path3662"
         inkscape:connector-curvature="0" />
    </g>
    <g
       id="g3664"
       transform="matrix(2.5253711,0,0,-2.5253711,501.65983,771.39947)">
      <path
         d="m 0,0 c 5.459,-5.459 5.459,-14.311 0,-19.77 l -29.092,-29.092 0,-3.037 c 5.846,-4.058 9.682,-10.818 9.682,-18.457 0,-12.382 -10.073,-22.455 -22.454,-22.455 -8.428,0 -15.785,4.668 -19.625,11.553 l -25.903,-25.903 c -2.621,-2.622 -6.177,-4.095 -9.885,-4.095 l 0,202.742 c 3.708,0 7.264,-1.473 9.885,-4.094 l 29.093,-29.093 21.494,0 c 4.26,0 7.713,-3.453 7.713,-7.712 l 0,-21.495 L 0,0 Z"
         style="fill:#0e1f43;fill-opacity:1;fill-rule:nonzero;stroke:none"
         id="path3666"
         inkscape:connector-curvature="0" />
    </g>
    <g
       id="g3668"
       transform="matrix(2.5253711,0,0,-2.5253711,46.063467,796.36226)">
      <path
         d="m 0,0 83.131,-83.131 0,166.262 L 0,0 Z"
         style="fill:#0e1f43;fill-opacity:1;fill-rule:nonzero;stroke:none"
         id="path3670"
         inkscape:connector-curvature="0" />
    </g>
    <g
       id="g3672"
       transform="matrix(2.5253711,0,0,-2.5253711,465.93713,796.36226)">
      <path
         d="m 0,0 -83.131,83.131 0,-166.262 L 0,0 Z"
         style="fill:#0e1f43;fill-opacity:1;fill-rule:nonzero;stroke:none"
         id="path3674"
         inkscape:connector-curvature="0" />
    </g>
    <g
       id="g3676"
       transform="matrix(2.5253711,0,0,-2.5253711,256.0004,995.53909)">
      <path
         d="M 0,0 -78.87,78.87 0,157.741 0,166.262 -87.392,78.87 0,-8.521 0,0 Z"
         style="fill:#ffffff;fill-opacity:1;fill-rule:nonzero;stroke:none"
         id="path3678"
         inkscape:connector-curvature="0" />
    </g>
    <g
       id="g3680"
       transform="matrix(2.5253711,0,0,-2.5253711,256.0004,575.66604)">
      <path
         d="M 0,0 0,-8.521 78.87,-87.392 0,-166.262 0,-174.783 87.392,-87.392 0,0 Z"
         style="fill:#63c2a3;fill-opacity:1;fill-rule:nonzero;stroke:none"
         id="path3682"
         inkscape:connector-curvature="0" />
    </g>
    <path
       d="m 373.50608,683.15044 -97.76722,0 0,-15.21789 97.76722,0 0,15.21789 z"
       style="fill:#ffffff;fill-opacity:1;fill-rule:nonzero;stroke:none"
       id="path3684"
       inkscape:connector-curvature="0" />
    <g
       id="g3686"
       transform="matrix(2.5253711,0,0,-2.5253711,348.2518,770.92733)">
      <path
         d="m 0,0 c 0,-8.131 -6.591,-14.722 -14.722,-14.722 -8.131,0 -14.723,6.591 -14.723,14.722 0,8.131 6.592,14.722 14.723,14.722 C -6.591,14.722 0,8.131 0,0"
         style="fill:#0e1f43;fill-opacity:1;fill-rule:nonzero;stroke:none"
         id="path3688"
         inkscape:connector-curvature="0" />
    </g>
    <g
       id="g3690"
       transform="matrix(2.5253711,0,0,-2.5253711,148.90083,651.25747)">
      <path
         d="M 0,0 20.998,0 16.476,-4.522 0,-4.522 0,0 Z"
         style="fill:#63c2a3;fill-opacity:1;fill-rule:nonzero;stroke:none"
         id="path3692"
         inkscape:connector-curvature="0" />
    </g>
    <g
       id="g3694"
       transform="matrix(2.5253711,0,0,-2.5253711,394.80106,683.15149)">
      <path
         d="M 0,0 -20.998,0 -16.476,-4.522 0,-4.522 0,0 Z"
         style="fill:#0e1f43;fill-opacity:1;fill-rule:nonzero;stroke:none"
         id="path3696"
         inkscape:connector-curvature="0" />
    </g>
    <g
       id="g3698"
       transform="matrix(2.5253711,0,0,-2.5253711,143.79937,936.3854)">
      <path
         d="M 0,0 20.998,0 16.476,4.522 0,4.522 0,0 Z"
         style="fill:#63c2a3;fill-opacity:1;fill-rule:nonzero;stroke:none"
         id="path3700"
         inkscape:connector-curvature="0" />
    </g>
    <g
       id="g3702"
       transform="matrix(2.5253711,0,0,-2.5253711,175.65057,968.10426)">
      <path
         d="M 0,0 20.998,0 16.476,4.522 0,4.522 0,0 Z"
         style="fill:#63c2a3;fill-opacity:1;fill-rule:nonzero;stroke:none"
         id="path3704"
         inkscape:connector-curvature="0" />
    </g>
    <g
       id="g3706"
       transform="matrix(2.5253711,0,0,-2.5253711,84.259197,737.58516)">
      <path
         d="m 0,0 0,-12.413 4.522,4.522 0,12.413 L 0,0 Z"
         style="fill:#63c2a3;fill-opacity:1;fill-rule:nonzero;stroke:none"
         id="path3708"
         inkscape:connector-curvature="0" />
    </g>
    <g
       id="g3710"
       transform="matrix(2.5253711,0,0,-2.5253711,84.259197,855.09007)">
      <path
         d="M 0,0 0,12.413 4.522,7.891 4.522,-4.522 0,0 Z"
         style="fill:#63c2a3;fill-opacity:1;fill-rule:nonzero;stroke:none"
         id="path3712"
         inkscape:connector-curvature="0" />
    </g>
    <g
       id="g3714"
       transform="matrix(2.5253711,0,0,-2.5253711,427.74203,737.58516)">
      <path
         d="m 0,0 0,-12.413 -4.522,4.522 0,12.413 L 0,0 Z"
         style="fill:#0e1f43;fill-opacity:1;fill-rule:nonzero;stroke:none"
         id="path3716"
         inkscape:connector-curvature="0" />
    </g>
    <g
       id="g3718"
       transform="matrix(2.5253711,0,0,-2.5253711,427.74203,855.09007)">
      <path
         d="m 0,0 0,12.413 -4.522,-4.522 0,-12.413 L 0,0 Z"
         style="fill:#0e1f43;fill-opacity:1;fill-rule:nonzero;stroke:none"
         id="path3720"
         inkscape:connector-curvature="0" />
    </g>
    <g
       id="g3722"
       transform="matrix(2.5253711,0,0,-2.5253711,336.36013,968.10426)">
      <path
         d="M 0,0 -20.998,0 -16.476,4.522 0,4.522 0,0 Z"
         style="fill:#0e1f43;fill-opacity:1;fill-rule:nonzero;stroke:none"
         id="path3724"
         inkscape:connector-curvature="0" />
    </g>
    <g
       id="g3726"
       transform="matrix(2.5253711,0,0,-2.5253711,362.94259,651.18676)">
      <path
         d="M 0,0 -20.998,0 -16.476,-4.522 0,-4.522 0,0 Z"
         style="fill:#0e1f43;fill-opacity:1;fill-rule:nonzero;stroke:none"
         id="path3728"
         inkscape:connector-curvature="0" />
    </g>
    <path
       d="m 233.58284,924.9648 -97.76721,0 0,-15.21788 97.76721,0 0,15.21788 z"
       style="fill:#ffffff;fill-opacity:1;fill-rule:nonzero;stroke:none"
       id="path3730"
       inkscape:connector-curvature="0" />
    <g
       id="g3732"
       transform="matrix(2.5253711,0,0,-2.5253711,113.09995,707.28131)">
      <path
         d="M 0,0 6.495,-6.495 2.234,-10.756 -2.34,-6.181 0,0 Z"
         style="fill:#63c2a3;fill-opacity:1;fill-rule:nonzero;stroke:none"
         id="path3734"
         inkscape:connector-curvature="0" />
    </g>
    <g
       id="g3736"
       transform="matrix(2.5253711,0,0,-2.5253711,408.71383,956.68373)">
      <path
         d="m 0,0 -123.956,0 0,114.224 27.821,-27.822 -4.26,-4.261 -17.535,17.536 0,-93.652 L 0,6.025 0,0 Z"
         style="fill:#ffffff;fill-opacity:1;fill-rule:nonzero;stroke:none"
         id="path3738"
         inkscape:connector-curvature="0" />
    </g>
    <g
       id="g3740"
       transform="matrix(2.5253711,0,0,-2.5253711,366.88965,884.61954)">
      <path
         d="M 0,0 4.762,-4.762 0.508,-9.03 -4.267,-4.254 0,0 Z"
         style="fill:#0e1f43;fill-opacity:1;fill-rule:nonzero;stroke:none"
         id="path3742"
         inkscape:connector-curvature="0" />
    </g>
    <g
       id="g3744"
       transform="matrix(2.5253711,0,0,-2.5253711,422.16356,949.07549)">
      <path
         d="m 0,0 c 0,-5.736 -4.65,-10.385 -10.385,-10.385 -5.736,0 -10.386,4.649 -10.386,10.385 0,5.736 4.65,10.385 10.386,10.385 C -4.65,10.385 0,5.736 0,0"
         style="fill:#0e1f43;fill-opacity:1;fill-rule:nonzero;stroke:none"
         id="path3746"
         inkscape:connector-curvature="0" />
    </g>
    <g
       id="g3748"
       transform="matrix(2.5253711,0,0,-2.5253711,412.93363,949.07549)">
      <path
         d="m 0,0 c 0,-3.717 -3.013,-6.73 -6.73,-6.73 -3.718,0 -6.731,3.013 -6.731,6.73 0,3.717 3.013,6.73 6.731,6.73 C -3.013,6.73 0,3.717 0,0"
         style="fill:#ffffff;fill-opacity:1;fill-rule:nonzero;stroke:none"
         id="path3750"
         inkscape:connector-curvature="0" />
    </g>
    <g
       id="g3752"
       transform="matrix(2.5253711,0,0,-2.5253711,416.32227,934.04307)">
      <path
         d="m 0,0 -27.911,27.91 4.261,4.261 17.624,-17.624 0,97.431 -117.93,0 0,6.025 L 0,118.003 0,0 Z"
         style="fill:#ffffff;fill-opacity:1;fill-rule:nonzero;stroke:none"
         id="path3754"
         inkscape:connector-curvature="0" />
    </g>
    <g
       id="g3756"
       transform="matrix(2.5253711,0,0,-2.5253711,142.29021,643.64943)">
      <path
         d="m 0,0 c 0,-5.736 -4.65,-10.385 -10.385,-10.385 -5.736,0 -10.386,4.649 -10.386,10.385 0,5.736 4.65,10.385 10.386,10.385 C -4.65,10.385 0,5.736 0,0"
         style="fill:#63c2a3;fill-opacity:1;fill-rule:nonzero;stroke:none"
         id="path3758"
         inkscape:connector-curvature="0" />
    </g>
    <g
       id="g3760"
       transform="matrix(2.5253711,0,0,-2.5253711,200.56184,712.15891)">
      <path
         d="m 0,0 c -5.359,0 -10.533,-1.937 -14.568,-5.455 -3.838,-3.346 -6.425,-7.936 -7.288,-12.931 -0.119,-0.332 -0.202,-0.677 -0.246,-1.013 -0.149,-0.985 -3.482,-21.686 -4.759,-29.611 -0.225,-1.034 -0.339,-2.075 -0.339,-3.094 0,-8.041 6.542,-14.582 14.582,-14.582 3.495,0 6.87,1.252 9.519,3.539 0.038,0.035 0.949,0.862 2.12,2.298 0.604,0.741 2.421,3.738 4.524,7.209 1.865,3.077 3.788,6.251 4.788,7.709 l 13.62,0 L 21.953,0 0,0 Z"
         style="fill:#ffffff;fill-opacity:1;fill-rule:nonzero;stroke:none"
         id="path3762"
         inkscape:connector-curvature="0" />
    </g>
    <g
       id="g3764"
       transform="matrix(2.5253711,0,0,-2.5253711,200.56224,722.20181)">
      <path
         d="m 0,0 c -9.152,0 -16.725,-6.754 -18.012,-15.549 -0.079,-0.122 -0.133,-0.261 -0.151,-0.42 -0.03,-0.267 -4.791,-29.811 -4.791,-29.811 -0.171,-0.756 -0.269,-1.539 -0.269,-2.347 0,-5.857 4.748,-10.606 10.605,-10.606 3.352,0 6.336,1.56 8.28,3.988 l 0.006,-0.003 c 0,0 8.755,14.858 10.755,16.77 l 15.529,0 L 21.952,0 0,0 Z"
         style="fill:#63c2a3;fill-opacity:1;fill-rule:nonzero;stroke:none"
         id="path3766"
         inkscape:connector-curvature="0" />
    </g>
    <g
       id="g3768"
       transform="matrix(2.5253711,0,0,-2.5253711,237.48438,770.92733)">
      <path
         d="m 0,0 c 0,-8.131 -6.591,-14.722 -14.722,-14.722 -8.131,0 -14.723,6.591 -14.723,14.722 0,8.131 6.592,14.722 14.723,14.722 C -6.591,14.722 0,8.131 0,0"
         style="fill:#63c2a3;fill-opacity:1;fill-rule:nonzero;stroke:none"
         id="path3770"
         inkscape:connector-curvature="0" />
    </g>
    <g
       id="g3772"
       transform="matrix(2.5253711,0,0,-2.5253711,200.30526,736.18287)">
      <path
         d="m 0,0 c -7.586,0 -13.758,-6.172 -13.758,-13.758 0,-7.586 6.172,-13.758 13.758,-13.758 7.586,0 13.758,6.172 13.758,13.758 C 13.758,-6.172 7.586,0 0,0 m 0,-29.445 c -8.65,0 -15.687,7.038 -15.687,15.687 0,8.649 7.037,15.686 15.687,15.686 8.649,0 15.686,-7.037 15.686,-15.686 0,-8.649 -7.037,-15.687 -15.686,-15.687"
         style="fill:#0e1f43;fill-opacity:1;fill-rule:nonzero;stroke:none"
         id="path3774"
         inkscape:connector-curvature="0" />
    </g>
    <g
       id="g3776"
       transform="matrix(2.5253711,0,0,-2.5253711,215.59992,760.59452)">
      <path
         d="m 0,0 -1.766,0 c -0.308,0 -0.559,0.251 -0.559,0.56 l 0,2.247 c 0,1.77 -1.44,3.21 -3.211,3.21 l -1.524,0 c -1.77,0 -3.21,-1.44 -3.21,-3.21 l 0,-2.247 C -10.27,0.251 -10.521,0 -10.83,0 l -2.247,0 c -1.77,0 -3.21,-1.44 -3.21,-3.211 l 0,-1.524 c 0,-1.77 1.44,-3.21 3.21,-3.21 l 2.247,0 c 0.309,0 0.56,-0.251 0.56,-0.56 l 0,-1.766 c 0,-1.77 1.44,-3.21 3.21,-3.21 l 1.524,0 c 1.771,0 3.211,1.44 3.211,3.21 l 0,1.766 c 0,0.309 0.251,0.56 0.559,0.56 l 1.766,0 c 1.771,0 3.211,1.44 3.211,3.21 l 0,1.524 C 3.211,-1.44 1.771,0 0,0"
         style="fill:#0e1f43;fill-opacity:1;fill-rule:nonzero;stroke:none"
         id="path3778"
         inkscape:connector-curvature="0" />
    </g>
    <g
       id="g3780"
       transform="matrix(2.5253711,0,0,-2.5253711,206.38009,782.0721)">
      <path
         d="m 0,0 0,-1.766 c 0,-1.041 -0.844,-1.885 -1.885,-1.885 l -1.524,0 c -1.041,0 -1.885,0.844 -1.885,1.885 l 0,3.651 -1.885,0 -2.247,0 c -1.041,0 -1.885,0.844 -1.885,1.885 l 0,1.524 c 0,1.041 0.844,1.885 1.885,1.885 l 2.247,0 1.885,0 0,4.132 c 0,1.041 0.844,1.885 1.885,1.885 l 1.524,0 C -0.844,13.196 0,12.352 0,11.311 l 0,-2.247 0,-1.885 3.651,0 c 1.041,0 1.885,-0.844 1.885,-1.885 l 0,-1.524 C 5.536,2.729 4.692,1.885 3.651,1.885 L 0,1.885 0,0 Z"
         style="fill:#63c2a3;fill-opacity:1;fill-rule:nonzero;stroke:none"
         id="path3782"
         inkscape:connector-curvature="0" />
    </g>
    <g
       id="g3784"
       transform="matrix(2.5253711,0,0,-2.5253711,185.94499,847.81862)">
      <path
         d="m 0,0 c 0,-3.96 -3.21,-7.17 -7.17,-7.17 -3.96,0 -7.171,3.21 -7.171,7.17 0,3.96 3.211,7.17 7.171,7.17 C -3.21,7.17 0,3.96 0,0"
         style="fill:#0e1f43;fill-opacity:1;fill-rule:nonzero;stroke:none"
         id="path3786"
         inkscape:connector-curvature="0" />
    </g>
    <g
       id="g3788"
       transform="matrix(2.5253711,0,0,-2.5253711,379.27306,835.92654)">
      <path
         d="m 0,0 c -1.586,9.842 -4.616,28.664 -4.757,29.59 -0.039,0.302 -0.106,0.601 -0.199,0.89 -0.838,5.041 -3.424,9.675 -7.288,13.053 -4.039,3.532 -9.221,5.477 -14.592,5.477 l -21.978,0 0,-45.932 13.62,0 c 1.22,-1.772 3.871,-6.112 6.03,-9.648 1.803,-2.951 2.924,-4.782 3.255,-5.234 l 0,0 c 0.852,-1.164 2.069,-2.264 2.132,-2.32 2.639,-2.291 6.024,-3.552 9.533,-3.552 8.041,0 14.583,6.541 14.583,14.582 C 0.339,-2.075 0.224,-1.034 0,0"
         style="fill:#63c2a3;fill-opacity:1;fill-rule:nonzero;stroke:none"
         id="path3790"
         inkscape:connector-curvature="0" />
    </g>
    <g
       id="g3792"
       transform="matrix(2.5253711,0,0,-2.5253711,322.37887,860.46083)">
      <path
         d="m 0,0 0.006,0.003 c 1.944,-2.428 4.927,-3.988 8.279,-3.988 5.858,0 10.606,4.749 10.606,10.606 0,0.808 -0.099,1.591 -0.27,2.347 0,0 -4.76,29.544 -4.791,29.811 -0.015,0.137 -0.057,0.257 -0.119,0.365 -1.263,8.822 -8.847,15.604 -18.018,15.604 l -21.978,0 0,-37.978 15.53,0 C -8.756,14.858 0,0 0,0"
         style="fill:#0e1f43;fill-opacity:1;fill-rule:nonzero;stroke:none"
         id="path3794"
         inkscape:connector-curvature="0" />
    </g>
    <g
       id="g3796"
       transform="matrix(2.5253711,0,0,-2.5253711,361.57768,847.81862)">
      <path
         d="m 0,0 c 0,-3.96 -3.21,-7.17 -7.17,-7.17 -3.96,0 -7.171,3.21 -7.171,7.17 0,3.96 3.211,7.17 7.171,7.17 C -3.21,7.17 0,3.96 0,0"
         style="fill:#ffffff;fill-opacity:1;fill-rule:nonzero;stroke:none"
         id="path3798"
         inkscape:connector-curvature="0" />
    </g>
    <g
       id="g3800"
       transform="matrix(2.5253711,0,0,-2.5253711,311.07228,736.18287)">
      <path
         d="m 0,0 c -7.586,0 -13.758,-6.172 -13.758,-13.758 0,-7.586 6.172,-13.758 13.758,-13.758 7.586,0 13.758,6.172 13.758,13.758 C 13.758,-6.172 7.586,0 0,0 m 0,-29.445 c -8.649,0 -15.686,7.038 -15.686,15.687 0,8.649 7.037,15.686 15.686,15.686 8.65,0 15.687,-7.037 15.687,-15.686 0,-8.649 -7.037,-15.687 -15.687,-15.687"
         style="fill:#ffffff;fill-opacity:1;fill-rule:nonzero;stroke:none"
         id="path3802"
         inkscape:connector-curvature="0" />
    </g>
    <g
       id="g3804"
       transform="matrix(2.5253711,0,0,-2.5253711,310.65953,766.00185)">
      <path
         d="M 0,0 C 2.415,0 4.38,1.965 4.38,4.38 4.38,6.796 2.415,8.761 0,8.761 -2.415,8.761 -4.38,6.796 -4.38,4.38 -4.38,1.965 -2.415,0 0,0"
         style="fill:#ffffff;fill-opacity:1;fill-rule:nonzero;stroke:none"
         id="path3806"
         inkscape:connector-curvature="0" />
    </g>
    <g
       id="g3808"
       transform="matrix(2.5253711,0,0,-2.5253711,304.46611,768.99188)">
      <path
         d="m 0,0 c 0,2.416 -1.965,4.381 -4.381,4.381 -2.415,0 -4.38,-1.965 -4.38,-4.381 0,-2.416 1.965,-4.381 4.38,-4.381 C -1.965,-4.381 0,-2.416 0,0"
         style="fill:#ffffff;fill-opacity:1;fill-rule:nonzero;stroke:none"
         id="path3810"
         inkscape:connector-curvature="0" />
    </g>
    <g
       id="g3812"
       transform="matrix(2.5253711,0,0,-2.5253711,328.74159,761.80064)">
      <path
         d="m 0,0 c -2.415,0 -4.38,-1.965 -4.38,-4.38 0,-2.416 1.965,-4.381 4.38,-4.381 2.415,0 4.38,1.965 4.38,4.381 C 4.38,-1.965 2.415,0 0,0"
         style="fill:#ffffff;fill-opacity:1;fill-rule:nonzero;stroke:none"
         id="path3814"
         inkscape:connector-curvature="0" />
    </g>
    <g
       id="g3816"
       transform="matrix(2.5253711,0,0,-2.5253711,311.48624,775.85362)">
      <path
         d="m 0,0 c -2.416,0 -4.381,-1.965 -4.381,-4.38 0,-2.416 1.965,-4.381 4.381,-4.381 2.415,0 4.38,1.965 4.38,4.381 C 4.38,-1.965 2.415,0 0,0"
         style="fill:#ffffff;fill-opacity:1;fill-rule:nonzero;stroke:none"
         id="path3818"
         inkscape:connector-curvature="0" />
    </g>
    <g
       id="g3820"
       transform="matrix(2.5253711,0,0,-2.5253711,319.28681,754.9389)">
      <path
         d="m 0,0 c 0,-1.887 -1.53,-3.417 -3.416,-3.417 -1.887,0 -3.417,1.53 -3.417,3.417 0,1.887 1.53,3.417 3.417,3.417 C -1.53,3.417 0,1.887 0,0"
         style="fill:#0e1f43;fill-opacity:1;fill-rule:nonzero;stroke:none"
         id="path3822"
         inkscape:connector-curvature="0" />
    </g>
    <g
       id="g3824"
       transform="matrix(2.5253711,0,0,-2.5253711,302.03105,768.99188)">
      <path
         d="m 0,0 c 0,-1.887 -1.53,-3.417 -3.416,-3.417 -1.887,0 -3.417,1.53 -3.417,3.417 0,1.887 1.53,3.417 3.417,3.417 C -1.53,3.417 0,1.887 0,0"
         style="fill:#0e1f43;fill-opacity:1;fill-rule:nonzero;stroke:none"
         id="path3826"
         inkscape:connector-curvature="0" />
    </g>
    <g
       id="g3828"
       transform="matrix(2.5253711,0,0,-2.5253711,337.36947,772.86318)">
      <path
         d="m 0,0 c 0,-1.887 -1.53,-3.416 -3.417,-3.416 -1.886,0 -3.416,1.529 -3.416,3.416 0,1.887 1.53,3.417 3.416,3.417 C -1.53,3.417 0,1.887 0,0"
         style="fill:#0e1f43;fill-opacity:1;fill-rule:nonzero;stroke:none"
         id="path3830"
         inkscape:connector-curvature="0" />
    </g>
    <g
       id="g3832"
       transform="matrix(2.5253711,0,0,-2.5253711,320.11371,786.91616)">
      <path
         d="m 0,0 c 0,-1.887 -1.53,-3.416 -3.417,-3.416 -1.886,0 -3.416,1.529 -3.416,3.416 0,1.887 1.53,3.417 3.416,3.417 C -1.53,3.417 0,1.887 0,0"
         style="fill:#0e1f43;fill-opacity:1;fill-rule:nonzero;stroke:none"
         id="path3834"
         inkscape:connector-curvature="0" />
    </g>
    <g
       id="g3836"
       transform="matrix(2.5253711,0,0,-2.5253711,133.06049,643.64943)">
      <path
         d="m 0,0 c 0,-3.717 -3.013,-6.73 -6.73,-6.73 -3.717,0 -6.731,3.013 -6.731,6.73 0,3.717 3.014,6.73 6.731,6.73 C -3.013,6.73 0,3.717 0,0"
         style="fill:#ffffff;fill-opacity:1;fill-rule:nonzero;stroke:none"
         id="path3838"
         inkscape:connector-curvature="0" />
    </g>
  </g>
</svg>
