<?xml version="1.0" encoding="UTF-8" standalone="no"?>
<!-- Created with Inkscape (http://www.inkscape.org/) -->

<svg
   xmlns:dc="http://purl.org/dc/elements/1.1/"
   xmlns:cc="http://creativecommons.org/ns#"
   xmlns:rdf="http://www.w3.org/1999/02/22-rdf-syntax-ns#"
   xmlns:svg="http://www.w3.org/2000/svg"
   xmlns="http://www.w3.org/2000/svg"
   xmlns:sodipodi="http://sodipodi.sourceforge.net/DTD/sodipodi-0.dtd"
   xmlns:inkscape="http://www.inkscape.org/namespaces/inkscape"
   width="512"
   height="512"
   viewBox="0 0 512.00001 512.00001"
   id="svg18733"
   version="1.1"
   inkscape:version="0.91 r13725"
   sodipodi:docname="avatar-05.svg">
  <defs
     id="defs18735" />
  <sodipodi:namedview
     id="base"
     pagecolor="#ffffff"
     bordercolor="#666666"
     borderopacity="1.0"
     inkscape:pageopacity="0.0"
     inkscape:pageshadow="2"
     inkscape:zoom="0.24748737"
     inkscape:cx="282.83308"
     inkscape:cy="811.89282"
     inkscape:document-units="px"
     inkscape:current-layer="layer1"
     showgrid="false"
     units="px"
     inkscape:window-width="1329"
     inkscape:window-height="744"
     inkscape:window-x="37"
     inkscape:window-y="24"
     inkscape:window-maximized="1" />
  <metadata
     id="metadata18738">
    <rdf:RDF>
      <cc:Work
         rdf:about="">
        <dc:format>image/svg+xml</dc:format>
        <dc:type
           rdf:resource="http://purl.org/dc/dcmitype/StillImage" />
        <dc:title></dc:title>
      </cc:Work>
    </rdf:RDF>
  </metadata>
  <g
     inkscape:label="Layer 1"
     inkscape:groupmode="layer"
     id="layer1"
     transform="translate(0,-540.36216)">
    <g
       id="g2760"
       transform="matrix(2.573379,0,0,-2.573379,42.073683,853.0591)">
      <path
         d="m 0,0 -12.331,12.331 c -5.358,5.358 -5.358,14.044 0,19.401 l 28.549,28.55 0,2.98 c -5.737,3.982 -9.502,10.616 -9.502,18.113 0,12.151 9.886,22.036 22.036,22.036 8.27,0 15.49,-4.581 19.258,-11.337 l 25.42,25.42 c 2.573,2.573 6.062,4.018 9.701,4.018 l 0,-198.96 c -3.639,0 -7.128,1.445 -9.701,4.018 l -28.549,28.549 -21.094,0 c -4.18,0 -7.569,3.389 -7.569,7.569 l 0,21.094 L 13.76,-13.76 0,0 Z"
         style="fill:#65b4da;fill-opacity:1;fill-rule:nonzero;stroke:none"
         id="path2762"
         inkscape:connector-curvature="0" />
    </g>
    <g
       id="g2764"
       transform="matrix(2.573379,0,0,-2.573379,501.66058,771.40013)">
      <path
         d="m 0,0 c 5.357,-5.357 5.357,-14.043 0,-19.401 l -28.55,-28.549 0,-2.981 c 5.738,-3.982 9.502,-10.616 9.502,-18.113 0,-12.151 -9.885,-22.036 -22.035,-22.036 -8.271,0 -15.49,4.581 -19.259,11.338 l -25.42,-25.42 c -2.572,-2.573 -6.062,-4.018 -9.7,-4.018 l 0,198.96 c 3.638,0 7.128,-1.446 9.7,-4.018 l 28.55,-28.55 21.094,0 c 4.18,0 7.568,-3.389 7.568,-7.569 l 0,-21.093 L 0,0 Z"
         style="fill:#fbb569;fill-opacity:1;fill-rule:nonzero;stroke:none"
         id="path2766"
         inkscape:connector-curvature="0" />
    </g>
    <g
       id="g2768"
       transform="matrix(2.573379,0,0,-2.573379,46.063183,796.36318)">
      <path
         d="m 0,0 81.58,-81.58 0,163.16 L 0,0 Z"
         style="fill:#fbb569;fill-opacity:1;fill-rule:nonzero;stroke:none"
         id="path2770"
         inkscape:connector-curvature="0" />
    </g>
    <g
       id="g2772"
       transform="matrix(2.573379,0,0,-2.573379,465.93778,796.36318)">
      <path
         d="m 0,0 -81.58,81.581 0,-0.001 0,-163.16 L 0,0 Z"
         style="fill:#412343;fill-opacity:1;fill-rule:nonzero;stroke:none"
         id="path2774"
         inkscape:connector-curvature="0" />
    </g>
    <g
       id="g2776"
       transform="matrix(2.573379,0,0,-2.573379,256.00028,995.54065)">
      <path
         d="M 0,0 -77.399,77.399 0,154.798 0,163.161 -85.762,77.399 0,-8.362 0,0 Z"
         style="fill:#412343;fill-opacity:1;fill-rule:nonzero;stroke:none"
         id="path2778"
         inkscape:connector-curvature="0" />
    </g>
    <g
       id="g2780"
       transform="matrix(2.573379,0,0,-2.573379,256.00028,575.66583)">
      <path
         d="M 0,0 0,-8.363 77.399,-85.762 0,-163.161 0,-171.523 85.762,-85.762 0,0 Z"
         style="fill:#65b4da;fill-opacity:1;fill-rule:nonzero;stroke:none"
         id="path2782"
         inkscape:connector-curvature="0" />
    </g>
    <path
       d="m 373.50798,683.15021 -97.7678,0 0,-15.21639 97.7678,0 0,15.21639 z"
       style="fill:#65b4da;fill-opacity:1;fill-rule:nonzero;stroke:none"
       id="path2784"
       inkscape:connector-curvature="0" />
    <g
       id="g2786"
       transform="matrix(2.573379,0,0,-2.573379,348.25208,770.9279)">
      <path
         d="m 0,0 c 0,-7.979 -6.469,-14.448 -14.448,-14.448 -7.979,0 -14.447,6.469 -14.447,14.448 0,7.979 6.468,14.448 14.447,14.448 C -6.469,14.448 0,7.979 0,0"
         style="fill:#0e1f43;fill-opacity:1;fill-rule:nonzero;stroke:none"
         id="path2788"
         inkscape:connector-curvature="0" />
    </g>
    <g
       id="g2790"
       transform="matrix(2.573379,0,0,-2.573379,148.90058,651.25754)">
      <path
         d="M 0,0 20.606,0 16.169,-4.438 0,-4.438 0,0 Z"
         style="fill:#65b4da;fill-opacity:1;fill-rule:nonzero;stroke:none"
         id="path2792"
         inkscape:connector-curvature="0" />
    </g>
    <g
       id="g2794"
       transform="matrix(2.573379,0,0,-2.573379,394.80158,683.15149)">
      <path
         d="M 0,0 -20.606,0 -16.168,-4.438 0,-4.438 0,0 Z"
         style="fill:#fbb569;fill-opacity:1;fill-rule:nonzero;stroke:none"
         id="path2796"
         inkscape:connector-curvature="0" />
    </g>
    <g
       id="g2798"
       transform="matrix(2.573379,0,0,-2.573379,143.79918,936.38614)">
      <path
         d="M 0,0 20.606,0 16.169,4.438 0,4.438 0,0 Z"
         style="fill:#65b4da;fill-opacity:1;fill-rule:nonzero;stroke:none"
         id="path2800"
         inkscape:connector-curvature="0" />
    </g>
    <g
       id="g2802"
       transform="matrix(2.573379,0,0,-2.573379,175.65038,968.10483)">
      <path
         d="M 0,0 20.606,0 16.169,4.438 0,4.438 0,0 Z"
         style="fill:#65b4da;fill-opacity:1;fill-rule:nonzero;stroke:none"
         id="path2804"
         inkscape:connector-curvature="0" />
    </g>
    <g
       id="g2806"
       transform="matrix(2.573379,0,0,-2.573379,84.259183,737.58566)">
      <path
         d="m 0,0 0,-12.182 4.437,4.438 0,12.182 L 0,0 Z"
         style="fill:#65b4da;fill-opacity:1;fill-rule:nonzero;stroke:none"
         id="path2808"
         inkscape:connector-curvature="0" />
    </g>
    <g
       id="g2810"
       transform="matrix(2.573379,0,0,-2.573379,84.259183,855.09104)">
      <path
         d="M 0,0 0,12.182 4.437,7.744 4.437,-4.438 0,0 Z"
         style="fill:#65b4da;fill-opacity:1;fill-rule:nonzero;stroke:none"
         id="path2812"
         inkscape:connector-curvature="0" />
    </g>
    <g
       id="g2814"
       transform="matrix(2.573379,0,0,-2.573379,427.74228,737.58566)">
      <path
         d="m 0,0 0,-12.182 -4.438,4.438 0,12.182 L 0,0 Z"
         style="fill:#fbb569;fill-opacity:1;fill-rule:nonzero;stroke:none"
         id="path2816"
         inkscape:connector-curvature="0" />
    </g>
    <g
       id="g2818"
       transform="matrix(2.573379,0,0,-2.573379,427.74228,855.09104)">
      <path
         d="m 0,0 0,12.182 -4.438,-4.438 0,-12.182 L 0,0 Z"
         style="fill:#fbb569;fill-opacity:1;fill-rule:nonzero;stroke:none"
         id="path2820"
         inkscape:connector-curvature="0" />
    </g>
    <g
       id="g2822"
       transform="matrix(2.573379,0,0,-2.573379,336.36078,968.10483)">
      <path
         d="M 0,0 -20.606,0 -16.169,4.438 0,4.438 0,0 Z"
         style="fill:#fbb569;fill-opacity:1;fill-rule:nonzero;stroke:none"
         id="path2824"
         inkscape:connector-curvature="0" />
    </g>
    <g
       id="g2826"
       transform="matrix(2.573379,0,0,-2.573379,362.94298,651.18652)">
      <path
         d="M 0,0 -20.606,0 -16.169,-4.438 0,-4.438 0,0 Z"
         style="fill:#fbb569;fill-opacity:1;fill-rule:nonzero;stroke:none"
         id="path2828"
         inkscape:connector-curvature="0" />
    </g>
    <path
       d="m 233.58308,924.96547 -97.7678,0 0,-15.21639 97.7678,0 0,15.21639 z"
       style="fill:#412343;fill-opacity:1;fill-rule:nonzero;stroke:none"
       id="path2830"
       inkscape:connector-curvature="0" />
    <g
       id="g2832"
       transform="matrix(2.573379,0,0,-2.573379,113.09958,707.2813)">
      <path
         d="M 0,0 6.374,-6.374 2.193,-10.555 -2.296,-6.066 0,0 Z"
         style="fill:#65b4da;fill-opacity:1;fill-rule:nonzero;stroke:none"
         id="path2834"
         inkscape:connector-curvature="0" />
    </g>
    <g
       id="g2836"
       transform="matrix(2.573379,0,0,-2.573379,408.71428,956.68469)">
      <path
         d="m 0,0 -121.644,0 0,112.093 27.303,-27.302 -4.182,-4.182 -17.208,17.209 0,-91.905 L 0,5.913 0,0 Z"
         style="fill:#412343;fill-opacity:1;fill-rule:nonzero;stroke:none"
         id="path2838"
         inkscape:connector-curvature="0" />
    </g>
    <g
       id="g2840"
       transform="matrix(2.573379,0,0,-2.573379,366.89028,884.62081)">
      <path
         d="M 0,0 4.673,-4.673 0.499,-8.862 -4.187,-4.175 0,0 Z"
         style="fill:#fbb569;fill-opacity:1;fill-rule:nonzero;stroke:none"
         id="path2842"
         inkscape:connector-curvature="0" />
    </g>
    <g
       id="g2844"
       transform="matrix(2.573379,0,0,-2.573379,422.16418,949.07649)">
      <path
         d="m 0,0 c 0,-5.629 -4.563,-10.192 -10.192,-10.192 -5.628,0 -10.191,4.563 -10.191,10.192 0,5.629 4.563,10.191 10.191,10.191 C -4.563,10.191 0,5.629 0,0"
         style="fill:#fbb569;fill-opacity:1;fill-rule:nonzero;stroke:none"
         id="path2846"
         inkscape:connector-curvature="0" />
    </g>
    <g
       id="g2848"
       transform="matrix(2.573379,0,0,-2.573379,412.93438,949.07649)">
      <path
         d="m 0,0 c 0,-3.648 -2.957,-6.605 -6.605,-6.605 -3.648,0 -6.605,2.957 -6.605,6.605 0,3.648 2.957,6.605 6.605,6.605 C -2.957,6.605 0,3.648 0,0"
         style="fill:#412343;fill-opacity:1;fill-rule:nonzero;stroke:none"
         id="path2850"
         inkscape:connector-curvature="0" />
    </g>
    <g
       id="g2852"
       transform="matrix(2.573379,0,0,-2.573379,416.32268,934.04383)">
      <path
         d="m 0,0 -27.39,27.39 4.181,4.181 17.296,-17.295 0,95.613 -115.731,0 0,5.913 L 0,115.802 0,0 Z"
         style="fill:#412343;fill-opacity:1;fill-rule:nonzero;stroke:none"
         id="path2854"
         inkscape:connector-curvature="0" />
    </g>
    <g
       id="g2856"
       transform="matrix(2.573379,0,0,-2.573379,142.29008,643.64909)">
      <path
         d="m 0,0 c 0,-5.629 -4.563,-10.192 -10.192,-10.192 -5.628,0 -10.191,4.563 -10.191,10.192 0,5.629 4.563,10.191 10.191,10.191 C -4.563,10.191 0,5.629 0,0"
         style="fill:#65b4da;fill-opacity:1;fill-rule:nonzero;stroke:none"
         id="path2858"
         inkscape:connector-curvature="0" />
    </g>
    <g
       id="g2860"
       transform="matrix(2.573379,0,0,-2.573379,200.56168,712.15913)">
      <path
         d="m 0,0 c -5.259,0 -10.336,-1.901 -14.297,-5.353 -3.766,-3.284 -6.304,-7.788 -7.152,-12.69 -0.116,-0.326 -0.198,-0.664 -0.24,-0.994 -0.147,-0.967 -3.418,-21.281 -4.671,-29.059 -0.221,-1.015 -0.332,-2.036 -0.332,-3.036 0,-7.891 6.419,-14.31 14.31,-14.31 3.429,0 6.742,1.229 9.341,3.473 0.037,0.034 0.931,0.846 2.08,2.255 0.593,0.727 2.376,3.669 4.44,7.075 1.83,3.019 3.718,6.133 4.698,7.564 l 13.366,0 L 21.543,0 0,0 Z"
         style="fill:#412343;fill-opacity:1;fill-rule:nonzero;stroke:none"
         id="path2862"
         inkscape:connector-curvature="0" />
    </g>
    <g
       id="g2864"
       transform="matrix(2.573379,0,0,-2.573379,200.56248,722.202)">
      <path
         d="m 0,0 c -8.981,0 -16.413,-6.628 -17.676,-15.259 -0.078,-0.12 -0.13,-0.256 -0.148,-0.412 -0.03,-0.262 -4.701,-29.255 -4.701,-29.255 -0.168,-0.742 -0.265,-1.511 -0.265,-2.303 0,-5.748 4.66,-10.408 10.408,-10.408 3.289,0 6.217,1.53 8.125,3.913 l 0.005,-0.003 c 0,0 8.593,14.581 10.555,16.457 l 15.24,0 0,37.27 L 0,0 Z"
         style="fill:#65b4da;fill-opacity:1;fill-rule:nonzero;stroke:none"
         id="path2866"
         inkscape:connector-curvature="0" />
    </g>
    <g
       id="g2868"
       transform="matrix(2.573379,0,0,-2.573379,237.48438,770.9279)">
      <path
         d="m 0,0 c 0,-7.979 -6.469,-14.448 -14.448,-14.448 -7.979,0 -14.447,6.469 -14.447,14.448 0,7.979 6.468,14.448 14.447,14.448 C -6.469,14.448 0,7.979 0,0"
         style="fill:#65b4da;fill-opacity:1;fill-rule:nonzero;stroke:none"
         id="path2870"
         inkscape:connector-curvature="0" />
    </g>
    <g
       id="g2872"
       transform="matrix(2.573379,0,0,-2.573379,200.30518,736.18341)">
      <path
         d="m 0,0 c -7.445,0 -13.502,-6.057 -13.502,-13.501 0,-7.445 6.057,-13.502 13.502,-13.502 7.445,0 13.502,6.057 13.502,13.502 C 13.502,-6.057 7.445,0 0,0 m 0,-28.895 c -8.488,0 -15.394,6.905 -15.394,15.394 0,8.488 6.906,15.393 15.394,15.393 8.488,0 15.394,-6.905 15.394,-15.393 0,-8.489 -6.906,-15.394 -15.394,-15.394"
         style="fill:#412343;fill-opacity:1;fill-rule:nonzero;stroke:none"
         id="path2874"
         inkscape:connector-curvature="0" />
    </g>
    <g
       id="g2876"
       transform="matrix(2.573379,0,0,-2.573379,215.60008,760.59476)">
      <path
         d="m 0,0 -1.733,0 c -0.303,0 -0.549,0.246 -0.549,0.549 l 0,2.205 c 0,1.737 -1.413,3.151 -3.15,3.151 l -1.496,0 c -1.737,0 -3.151,-1.414 -3.151,-3.151 l 0,-2.205 C -10.079,0.246 -10.325,0 -10.628,0 l -2.205,0 c -1.737,0 -3.151,-1.414 -3.151,-3.151 l 0,-1.495 c 0,-1.738 1.414,-3.151 3.151,-3.151 l 2.205,0 c 0.303,0 0.549,-0.246 0.549,-0.549 l 0,-1.733 c 0,-1.737 1.414,-3.151 3.151,-3.151 l 1.496,0 c 1.737,0 3.15,1.414 3.15,3.151 l 0,1.733 c 0,0.303 0.246,0.549 0.549,0.549 l 1.733,0 c 1.737,0 3.151,1.413 3.151,3.151 l 0,1.495 C 3.151,-1.414 1.737,0 0,0"
         style="fill:#412343;fill-opacity:1;fill-rule:nonzero;stroke:none"
         id="path2878"
         inkscape:connector-curvature="0" />
    </g>
    <g
       id="g2880"
       transform="matrix(2.573379,0,0,-2.573379,206.38018,782.07269)">
      <path
         d="m 0,0 0,-1.733 c 0,-1.021 -0.828,-1.85 -1.85,-1.85 l -1.495,0 c -1.022,0 -1.85,0.829 -1.85,1.85 l 0,3.583 -1.85,0 -2.205,0 c -1.022,0 -1.85,0.828 -1.85,1.85 l 0,1.495 c 0,1.022 0.828,1.85 1.85,1.85 l 2.205,0 1.85,0 0,4.055 c 0,1.022 0.828,1.85 1.85,1.85 l 1.495,0 C -0.828,12.95 0,12.122 0,11.1 l 0,-2.205 0,-1.85 3.583,0 c 1.021,0 1.85,-0.828 1.85,-1.85 l 0,-1.495 C 5.433,2.678 4.604,1.85 3.583,1.85 L 0,1.85 0,0 Z"
         style="fill:#65b4da;fill-opacity:1;fill-rule:nonzero;stroke:none"
         id="path2882"
         inkscape:connector-curvature="0" />
    </g>
    <g
       id="g2884"
       transform="matrix(2.573379,0,0,-2.573379,185.94488,847.81944)">
      <path
         d="m 0,0 c 0,-3.886 -3.15,-7.037 -7.037,-7.037 -3.886,0 -7.036,3.151 -7.036,7.037 0,3.886 3.15,7.037 7.036,7.037 C -3.15,7.037 0,3.886 0,0"
         style="fill:#412343;fill-opacity:1;fill-rule:nonzero;stroke:none"
         id="path2886"
         inkscape:connector-curvature="0" />
    </g>
    <g
       id="g2888"
       transform="matrix(2.573379,0,0,-2.573379,379.27338,835.9276)">
      <path
         d="m 0,0 c -1.556,9.658 -4.53,28.129 -4.668,29.038 -0.038,0.296 -0.104,0.59 -0.196,0.874 -0.822,4.947 -3.36,9.494 -7.151,12.809 -3.964,3.466 -9.05,5.375 -14.321,5.375 l -21.567,0 0,-45.075 13.365,0 c 1.198,-1.739 3.8,-5.999 5.918,-9.468 1.769,-2.896 2.869,-4.693 3.194,-5.137 l 0,0 c 0.836,-1.142 2.031,-2.221 2.092,-2.277 2.59,-2.247 5.912,-3.485 9.356,-3.485 7.891,0 14.31,6.419 14.31,14.309 C 0.332,-2.036 0.22,-1.015 0,0"
         style="fill:#65b4da;fill-opacity:1;fill-rule:nonzero;stroke:none"
         id="path2890"
         inkscape:connector-curvature="0" />
    </g>
    <g
       id="g2892"
       transform="matrix(2.573379,0,0,-2.573379,322.37948,860.46142)">
      <path
         d="M 0,0 0.006,0.003 C 1.913,-2.38 4.841,-3.91 8.131,-3.91 c 5.748,0 10.407,4.66 10.407,10.407 0,0.793 -0.096,1.562 -0.264,2.304 0,0 -4.672,28.993 -4.702,29.255 -0.015,0.134 -0.056,0.252 -0.116,0.358 -1.24,8.657 -8.683,15.313 -17.683,15.313 l -21.568,0 0,-37.27 15.241,0 C -8.592,14.581 0,0 0,0"
         style="fill:#fbb569;fill-opacity:1;fill-rule:nonzero;stroke:none"
         id="path2894"
         inkscape:connector-curvature="0" />
    </g>
    <g
       id="g2896"
       transform="matrix(2.573379,0,0,-2.573379,361.57818,847.81944)">
      <path
         d="m 0,0 c 0,-3.886 -3.15,-7.037 -7.037,-7.037 -3.886,0 -7.036,3.151 -7.036,7.037 0,3.886 3.15,7.037 7.036,7.037 C -3.15,7.037 0,3.886 0,0"
         style="fill:#412343;fill-opacity:1;fill-rule:nonzero;stroke:none"
         id="path2898"
         inkscape:connector-curvature="0" />
    </g>
    <g
       id="g2900"
       transform="matrix(2.573379,0,0,-2.573379,311.07268,736.18341)">
      <path
         d="m 0,0 c -7.445,0 -13.502,-6.057 -13.502,-13.501 0,-7.445 6.057,-13.502 13.502,-13.502 7.445,0 13.502,6.057 13.502,13.502 C 13.502,-6.057 7.445,0 0,0 m 0,-28.895 c -8.488,0 -15.394,6.905 -15.394,15.394 0,8.488 6.906,15.393 15.394,15.393 8.488,0 15.394,-6.905 15.394,-15.393 0,-8.489 -6.906,-15.394 -15.394,-15.394"
         style="fill:#412343;fill-opacity:1;fill-rule:nonzero;stroke:none"
         id="path2902"
         inkscape:connector-curvature="0" />
    </g>
    <g
       id="g2904"
       transform="matrix(2.573379,0,0,-2.573379,310.65988,766.00221)">
      <path
         d="M 0,0 C 2.37,0 4.299,1.928 4.299,4.299 4.299,6.669 2.37,8.598 0,8.598 -2.37,8.598 -4.299,6.669 -4.299,4.299 -4.299,1.928 -2.37,0 0,0"
         style="fill:#412343;fill-opacity:1;fill-rule:nonzero;stroke:none"
         id="path2906"
         inkscape:connector-curvature="0" />
    </g>
    <g
       id="g2908"
       transform="matrix(2.573379,0,0,-2.573379,304.46668,768.99272)">
      <path
         d="m 0,0 c 0,2.371 -1.928,4.299 -4.299,4.299 -2.37,0 -4.299,-1.928 -4.299,-4.299 0,-2.37 1.929,-4.299 4.299,-4.299 C -1.928,-4.299 0,-2.37 0,0"
         style="fill:#412343;fill-opacity:1;fill-rule:nonzero;stroke:none"
         id="path2910"
         inkscape:connector-curvature="0" />
    </g>
    <g
       id="g2912"
       transform="matrix(2.573379,0,0,-2.573379,328.74188,761.80089)">
      <path
         d="m 0,0 c -2.37,0 -4.299,-1.928 -4.299,-4.299 0,-2.37 1.929,-4.299 4.299,-4.299 2.37,0 4.299,1.929 4.299,4.299 C 4.299,-1.928 2.37,0 0,0"
         style="fill:#412343;fill-opacity:1;fill-rule:nonzero;stroke:none"
         id="path2914"
         inkscape:connector-curvature="0" />
    </g>
    <g
       id="g2916"
       transform="matrix(2.573379,0,0,-2.573379,311.48668,775.85411)">
      <path
         d="m 0,0 c -2.371,0 -4.299,-1.928 -4.299,-4.299 0,-2.37 1.928,-4.299 4.299,-4.299 2.37,0 4.299,1.929 4.299,4.299 C 4.299,-1.928 2.37,0 0,0"
         style="fill:#412343;fill-opacity:1;fill-rule:nonzero;stroke:none"
         id="path2918"
         inkscape:connector-curvature="0" />
    </g>
    <g
       id="g2920"
       transform="matrix(2.573379,0,0,-2.573379,319.28708,754.93976)">
      <path
         d="m 0,0 c 0,-1.852 -1.501,-3.353 -3.353,-3.353 -1.851,0 -3.352,1.501 -3.352,3.353 0,1.852 1.501,3.353 3.352,3.353 C -1.501,3.353 0,1.852 0,0"
         style="fill:#fbb569;fill-opacity:1;fill-rule:nonzero;stroke:none"
         id="path2922"
         inkscape:connector-curvature="0" />
    </g>
    <g
       id="g2924"
       transform="matrix(2.573379,0,0,-2.573379,302.03168,768.99272)">
      <path
         d="m 0,0 c 0,-1.852 -1.501,-3.353 -3.353,-3.353 -1.851,0 -3.353,1.501 -3.353,3.353 0,1.852 1.502,3.353 3.353,3.353 C -1.501,3.353 0,1.852 0,0"
         style="fill:#fbb569;fill-opacity:1;fill-rule:nonzero;stroke:none"
         id="path2926"
         inkscape:connector-curvature="0" />
    </g>
    <g
       id="g2928"
       transform="matrix(2.573379,0,0,-2.573379,337.36968,772.8636)">
      <path
         d="m 0,0 c 0,-1.852 -1.501,-3.353 -3.353,-3.353 -1.851,0 -3.352,1.501 -3.352,3.353 0,1.852 1.501,3.353 3.352,3.353 C -1.501,3.353 0,1.852 0,0"
         style="fill:#fbb569;fill-opacity:1;fill-rule:nonzero;stroke:none"
         id="path2930"
         inkscape:connector-curvature="0" />
    </g>
    <g
       id="g2932"
       transform="matrix(2.573379,0,0,-2.573379,320.11388,786.91655)">
      <path
         d="m 0,0 c 0,-1.852 -1.501,-3.353 -3.353,-3.353 -1.851,0 -3.352,1.501 -3.352,3.353 0,1.852 1.501,3.353 3.352,3.353 C -1.501,3.353 0,1.852 0,0"
         style="fill:#fbb569;fill-opacity:1;fill-rule:nonzero;stroke:none"
         id="path2934"
         inkscape:connector-curvature="0" />
    </g>
    <g
       id="g2936"
       transform="matrix(2.573379,0,0,-2.573379,133.06008,643.64909)">
      <path
         d="m 0,0 c 0,-3.648 -2.957,-6.605 -6.605,-6.605 -3.648,0 -6.605,2.957 -6.605,6.605 0,3.648 2.957,6.605 6.605,6.605 C -2.957,6.605 0,3.648 0,0"
         style="fill:#412343;fill-opacity:1;fill-rule:nonzero;stroke:none"
         id="path2938"
         inkscape:connector-curvature="0" />
    </g>
  </g>
</svg>
