<?xml version="1.0" encoding="UTF-8" standalone="no"?>
<!-- Created with Inkscape (http://www.inkscape.org/) -->

<svg
   xmlns:dc="http://purl.org/dc/elements/1.1/"
   xmlns:cc="http://creativecommons.org/ns#"
   xmlns:rdf="http://www.w3.org/1999/02/22-rdf-syntax-ns#"
   xmlns:svg="http://www.w3.org/2000/svg"
   xmlns="http://www.w3.org/2000/svg"
   xmlns:sodipodi="http://sodipodi.sourceforge.net/DTD/sodipodi-0.dtd"
   xmlns:inkscape="http://www.inkscape.org/namespaces/inkscape"
   width="512"
   height="512"
   viewBox="0 0 512.00001 512.00001"
   id="svg18733"
   version="1.1"
   inkscape:version="0.91 r13725"
   sodipodi:docname="avatar-11.svg">
  <defs
     id="defs18735" />
  <sodipodi:namedview
     id="base"
     pagecolor="#ffffff"
     bordercolor="#666666"
     borderopacity="1.0"
     inkscape:pageopacity="0.0"
     inkscape:pageshadow="2"
     inkscape:zoom="0.24748737"
     inkscape:cx="282.83308"
     inkscape:cy="811.89282"
     inkscape:document-units="px"
     inkscape:current-layer="layer1"
     showgrid="false"
     units="px"
     inkscape:window-width="1329"
     inkscape:window-height="744"
     inkscape:window-x="37"
     inkscape:window-y="24"
     inkscape:window-maximized="1" />
  <metadata
     id="metadata18738">
    <rdf:RDF>
      <cc:Work
         rdf:about="">
        <dc:format>image/svg+xml</dc:format>
        <dc:type
           rdf:resource="http://purl.org/dc/dcmitype/StillImage" />
        <dc:title></dc:title>
      </cc:Work>
    </rdf:RDF>
  </metadata>
  <g
     inkscape:label="Layer 1"
     inkscape:groupmode="layer"
     id="layer1"
     transform="translate(0,-540.36216)">
    <g
       id="g3480"
       transform="matrix(2.5586311,0,0,-2.5586311,42.074131,853.0583)">
      <path
         d="m 0,0 -12.402,12.403 c -5.389,5.388 -5.389,14.124 0,19.512 l 28.714,28.714 0,2.998 c -5.771,4.005 -9.557,10.677 -9.557,18.217 0,12.221 9.942,22.163 22.163,22.163 8.318,0 15.579,-4.607 19.369,-11.403 l 25.566,25.567 c 2.588,2.588 6.097,4.041 9.757,4.041 l 0,-200.106 c -3.66,0 -7.169,1.453 -9.757,4.041 l -28.714,28.714 -21.215,0 c -4.204,0 -7.612,3.408 -7.612,7.612 l 0,21.215 -2.473,2.473 L 0,0 Z"
         style="fill:#0e1f43;fill-opacity:1;fill-rule:nonzero;stroke:none"
         id="path3482"
         inkscape:connector-curvature="0" />
    </g>
    <g
       id="g3484"
       transform="matrix(2.5586311,0,0,-2.5586311,501.65993,771.39888)">
      <path
         d="m 0,0 c 5.388,-5.388 5.388,-14.125 0,-19.513 l -28.714,-28.714 0,-2.997 c 5.77,-4.006 9.556,-10.677 9.556,-18.218 0,-12.221 -9.942,-22.162 -22.162,-22.162 -8.318,0 -15.579,4.606 -19.369,11.402 l -25.567,-25.567 c -2.587,-2.587 -6.097,-4.041 -9.756,-4.041 l 0,200.107 c 3.659,0 7.169,-1.454 9.756,-4.041 l 28.714,-28.714 21.215,0 c 4.205,0 7.613,-3.409 7.613,-7.613 l 0,-21.215 L 0,0 Z"
         style="fill:#931b4c;fill-opacity:1;fill-rule:nonzero;stroke:none"
         id="path3486"
         inkscape:connector-curvature="0" />
    </g>
    <g
       id="g3488"
       transform="matrix(2.5586311,0,0,-2.5586311,46.063131,796.3619)">
      <path
         d="M 0,0 82.05,-82.051 82.05,82.05 0,0 Z"
         style="fill:#931b4c;fill-opacity:1;fill-rule:nonzero;stroke:none"
         id="path3490"
         inkscape:connector-curvature="0" />
    </g>
    <g
       id="g3492"
       transform="matrix(2.5586311,0,0,-2.5586311,465.93693,796.3619)">
      <path
         d="m 0,0 -82.05,82.05 0,-164.101 L 0,0 Z"
         style="fill:#0e1f43;fill-opacity:1;fill-rule:nonzero;stroke:none"
         id="path3494"
         inkscape:connector-curvature="0" />
    </g>
    <g
       id="g3496"
       transform="matrix(2.5586311,0,0,-2.5586311,256.00023,995.53906)">
      <path
         d="M 0,0 -77.845,77.845 0,155.69 0,164.101 -86.256,77.845 0,-8.411 0,0 Z"
         style="fill:#ed2f43;fill-opacity:1;fill-rule:nonzero;stroke:none"
         id="path3498"
         inkscape:connector-curvature="0" />
    </g>
    <g
       id="g3500"
       transform="matrix(2.5586311,0,0,-2.5586311,256.00023,575.66564)">
      <path
         d="M 0,0 0,-8.411 77.845,-86.256 0,-164.101 0,-172.511 86.256,-86.256 0,0 Z"
         style="fill:#00aab7;fill-opacity:1;fill-rule:nonzero;stroke:none"
         id="path3502"
         inkscape:connector-curvature="0" />
    </g>
    <path
       d="m 373.50733,683.15073 -97.7677,0 0,-15.21618 97.7677,0 0,15.21618 z"
       style="fill:#ed2f43;fill-opacity:1;fill-rule:nonzero;stroke:none"
       id="path3504"
       inkscape:connector-curvature="0" />
    <g
       id="g3506"
       transform="matrix(2.5586311,0,0,-2.5586311,348.25163,770.92727)">
      <path
         d="m 0,0 c 0,-8.025 -6.506,-14.531 -14.531,-14.531 -8.025,0 -14.531,6.506 -14.531,14.531 0,8.025 6.506,14.531 14.531,14.531 C -6.506,14.531 0,8.025 0,0"
         style="fill:#0e1f43;fill-opacity:1;fill-rule:nonzero;stroke:none"
         id="path3508"
         inkscape:connector-curvature="0" />
    </g>
    <g
       id="g3510"
       transform="matrix(2.5586311,0,0,-2.5586311,148.90063,651.25702)">
      <path
         d="M 0,0 20.725,0 16.262,-4.463 0,-4.463 0,0 Z"
         style="fill:#0e1f43;fill-opacity:1;fill-rule:nonzero;stroke:none"
         id="path3512"
         inkscape:connector-curvature="0" />
    </g>
    <g
       id="g3514"
       transform="matrix(2.5586311,0,0,-2.5586311,394.80113,683.15046)">
      <path
         d="M 0,0 -20.725,0 -16.262,-4.463 0,-4.463 0,0 Z"
         style="fill:#931b4c;fill-opacity:1;fill-rule:nonzero;stroke:none"
         id="path3516"
         inkscape:connector-curvature="0" />
    </g>
    <g
       id="g3518"
       transform="matrix(2.5586311,0,0,-2.5586311,143.79913,936.38514)">
      <path
         d="M 0,0 20.725,0 16.262,4.463 0,4.463 0,0 Z"
         style="fill:#0e1f43;fill-opacity:1;fill-rule:nonzero;stroke:none"
         id="path3520"
         inkscape:connector-curvature="0" />
    </g>
    <g
       id="g3522"
       transform="matrix(2.5586311,0,0,-2.5586311,175.65023,968.10378)">
      <path
         d="M 0,0 20.725,0 16.262,4.463 0,4.463 0,0 Z"
         style="fill:#272333;fill-opacity:1;fill-rule:nonzero;stroke:none"
         id="path3524"
         inkscape:connector-curvature="0" />
    </g>
    <g
       id="g3526"
       transform="matrix(2.5586311,0,0,-2.5586311,84.259031,737.58462)">
      <path
         d="m 0,0 0,-12.252 4.463,4.463 0,12.252 L 0,0 Z"
         style="fill:#0e1f43;fill-opacity:1;fill-rule:nonzero;stroke:none"
         id="path3528"
         inkscape:connector-curvature="0" />
    </g>
    <g
       id="g3530"
       transform="matrix(2.5586311,0,0,-2.5586311,84.259031,855.09006)">
      <path
         d="M 0,0 0,12.252 4.463,7.789 4.463,-4.463 0,0 Z"
         style="fill:#0e1f43;fill-opacity:1;fill-rule:nonzero;stroke:none"
         id="path3532"
         inkscape:connector-curvature="0" />
    </g>
    <g
       id="g3534"
       transform="matrix(2.5586311,0,0,-2.5586311,427.74173,737.58462)">
      <path
         d="m 0,0 0,-12.252 -4.463,4.463 0,12.252 L 0,0 Z"
         style="fill:#931b4c;fill-opacity:1;fill-rule:nonzero;stroke:none"
         id="path3536"
         inkscape:connector-curvature="0" />
    </g>
    <g
       id="g3538"
       transform="matrix(2.5586311,0,0,-2.5586311,427.74173,855.09006)">
      <path
         d="m 0,0 0,12.252 -4.463,-4.463 0,-12.252 L 0,0 Z"
         style="fill:#931b4c;fill-opacity:1;fill-rule:nonzero;stroke:none"
         id="path3540"
         inkscape:connector-curvature="0" />
    </g>
    <g
       id="g3542"
       transform="matrix(2.5586311,0,0,-2.5586311,336.36013,968.10378)">
      <path
         d="M 0,0 -20.725,0 -16.262,4.463 0,4.463 0,0 Z"
         style="fill:#931b4c;fill-opacity:1;fill-rule:nonzero;stroke:none"
         id="path3544"
         inkscape:connector-curvature="0" />
    </g>
    <g
       id="g3546"
       transform="matrix(2.5586311,0,0,-2.5586311,362.94223,651.18579)">
      <path
         d="M 0,0 -20.725,0 -16.262,-4.463 0,-4.463 0,0 Z"
         style="fill:#931b4c;fill-opacity:1;fill-rule:nonzero;stroke:none"
         id="path3548"
         inkscape:connector-curvature="0" />
    </g>
    <path
       d="m 233.58353,924.96437 -97.7679,0 0,-15.21617 97.7679,0 0,15.21617 z"
       style="fill:#00aab7;fill-opacity:1;fill-rule:nonzero;stroke:none"
       id="path3550"
       inkscape:connector-curvature="0" />
    <g
       id="g3552"
       transform="matrix(2.5586311,0,0,-2.5586311,113.09973,707.28081)">
      <path
         d="M 0,0 6.411,-6.411 2.205,-10.616 -2.31,-6.101 0,0 Z"
         style="fill:#0e1f43;fill-opacity:1;fill-rule:nonzero;stroke:none"
         id="path3554"
         inkscape:connector-curvature="0" />
    </g>
    <g
       id="g3556"
       transform="matrix(2.5586311,0,0,-2.5586311,408.71373,956.68348)">
      <path
         d="m 0,0 -122.345,0 0,112.739 27.46,-27.46 -4.205,-4.205 -17.308,17.307 0,-92.434 L 0,5.947 0,0 Z"
         style="fill:#00aab7;fill-opacity:1;fill-rule:nonzero;stroke:none"
         id="path3558"
         inkscape:connector-curvature="0" />
    </g>
    <g
       id="g3560"
       transform="matrix(2.5586311,0,0,-2.5586311,366.88973,884.61974)">
      <path
         d="M 0,0 4.7,-4.7 0.502,-8.913 -4.212,-4.199 0,0 Z"
         style="fill:#931b4c;fill-opacity:1;fill-rule:nonzero;stroke:none"
         id="path3562"
         inkscape:connector-curvature="0" />
    </g>
    <g
       id="g3564"
       transform="matrix(2.5586311,0,0,-2.5586311,422.16353,949.07513)">
      <path
         d="m 0,0 c 0,-5.661 -4.589,-10.25 -10.25,-10.25 -5.661,0 -10.251,4.589 -10.251,10.25 0,5.661 4.59,10.25 10.251,10.25 C -4.589,10.25 0,5.661 0,0"
         style="fill:#931b4c;fill-opacity:1;fill-rule:nonzero;stroke:none"
         id="path3566"
         inkscape:connector-curvature="0" />
    </g>
    <g
       id="g3568"
       transform="matrix(2.5586311,0,0,-2.5586311,412.93363,949.07513)">
      <path
         d="m 0,0 c 0,-3.669 -2.974,-6.643 -6.643,-6.643 -3.669,0 -6.643,2.974 -6.643,6.643 0,3.669 2.974,6.643 6.643,6.643 C -2.974,6.643 0,3.669 0,0"
         style="fill:#00aab7;fill-opacity:1;fill-rule:nonzero;stroke:none"
         id="path3570"
         inkscape:connector-curvature="0" />
    </g>
    <g
       id="g3572"
       transform="matrix(2.5586311,0,0,-2.5586311,416.32203,934.04266)">
      <path
         d="m 0,0 -27.548,27.548 4.206,4.205 17.395,-17.395 0,96.164 -116.398,0 0,5.947 L 0,116.469 0,0 Z"
         style="fill:#ed2f43;fill-opacity:1;fill-rule:nonzero;stroke:none"
         id="path3574"
         inkscape:connector-curvature="0" />
    </g>
    <g
       id="g3576"
       transform="matrix(2.5586311,0,0,-2.5586311,142.29023,643.64847)">
      <path
         d="m 0,0 c 0,-5.661 -4.589,-10.25 -10.25,-10.25 -5.661,0 -10.251,4.589 -10.251,10.25 0,5.661 4.59,10.25 10.251,10.25 C -4.589,10.25 0,5.661 0,0"
         style="fill:#0e1f43;fill-opacity:1;fill-rule:nonzero;stroke:none"
         id="path3578"
         inkscape:connector-curvature="0" />
    </g>
    <g
       id="g3580"
       transform="matrix(2.5586311,0,0,-2.5586311,200.56143,712.15817)">
      <path
         d="m 0,0 c -5.289,0 -10.396,-1.912 -14.379,-5.384 -3.788,-3.303 -6.341,-7.833 -7.193,-12.763 -0.117,-0.328 -0.2,-0.668 -0.242,-1 -0.148,-0.972 -3.438,-21.404 -4.698,-29.226 -0.222,-1.021 -0.334,-2.048 -0.334,-3.054 0,-7.936 6.456,-14.392 14.392,-14.392 3.45,0 6.781,1.236 9.395,3.493 0.038,0.034 0.937,0.851 2.093,2.268 0.596,0.731 2.389,3.69 4.465,7.115 1.841,3.037 3.739,6.169 4.726,7.609 l 13.442,0 L 21.667,0 0,0 Z"
         style="fill:#0e1f43;fill-opacity:1;fill-rule:nonzero;stroke:none"
         id="path3582"
         inkscape:connector-curvature="0" />
    </g>
    <g
       id="g3584"
       transform="matrix(2.5586311,0,0,-2.5586311,200.56213,722.20152)">
      <path
         d="m 0,0 c -9.033,0 -16.507,-6.666 -17.777,-15.346 -0.079,-0.122 -0.132,-0.258 -0.15,-0.415 -0.03,-0.264 -4.728,-29.424 -4.728,-29.424 -0.169,-0.746 -0.266,-1.519 -0.266,-2.316 0,-5.781 4.686,-10.468 10.467,-10.468 3.309,0 6.254,1.539 8.172,3.936 l 0.006,-0.003 c 0,0 8.642,14.664 10.615,16.552 l 15.328,0 L 21.667,0 0,0 Z"
         style="fill:#931b4c;fill-opacity:1;fill-rule:nonzero;stroke:none"
         id="path3586"
         inkscape:connector-curvature="0" />
    </g>
    <g
       id="g3588"
       transform="matrix(2.5586311,0,0,-2.5586311,237.48413,770.92727)">
      <path
         d="m 0,0 c 0,-8.025 -6.506,-14.531 -14.531,-14.531 -8.025,0 -14.531,6.506 -14.531,14.531 0,8.025 6.506,14.531 14.531,14.531 C -6.506,14.531 0,8.025 0,0"
         style="fill:#931b4c;fill-opacity:1;fill-rule:nonzero;stroke:none"
         id="path3590"
         inkscape:connector-curvature="0" />
    </g>
    <g
       id="g3592"
       transform="matrix(2.5586311,0,0,-2.5586311,200.30523,736.1827)">
      <path
         d="m 0,0 c -7.488,0 -13.58,-6.092 -13.58,-13.579 0,-7.488 6.092,-13.58 13.58,-13.58 7.488,0 13.579,6.092 13.579,13.58 C 13.579,-6.092 7.488,0 0,0 m 0,-29.062 c -8.537,0 -15.483,6.946 -15.483,15.483 0,8.537 6.946,15.482 15.483,15.482 8.537,0 15.482,-6.945 15.482,-15.482 0,-8.537 -6.945,-15.483 -15.482,-15.483"
         style="fill:#00aab7;fill-opacity:1;fill-rule:nonzero;stroke:none"
         id="path3594"
         inkscape:connector-curvature="0" />
    </g>
    <g
       id="g3596"
       transform="matrix(2.5586311,0,0,-2.5586311,215.59963,760.59408)">
      <path
         d="m 0,0 -1.743,0 c -0.304,0 -0.552,0.248 -0.552,0.552 l 0,2.218 c 0,1.747 -1.421,3.169 -3.169,3.169 l -1.504,0 c -1.747,0 -3.169,-1.422 -3.169,-3.169 l 0,-2.218 C -10.137,0.248 -10.385,0 -10.689,0 l -2.218,0 c -1.747,0 -3.169,-1.421 -3.169,-3.169 l 0,-1.504 c 0,-1.747 1.422,-3.169 3.169,-3.169 l 2.218,0 c 0.304,0 0.552,-0.248 0.552,-0.552 l 0,-1.743 c 0,-1.747 1.422,-3.169 3.169,-3.169 l 1.504,0 c 1.748,0 3.169,1.422 3.169,3.169 l 0,1.743 c 0,0.304 0.248,0.552 0.552,0.552 l 1.743,0 c 1.747,0 3.169,1.422 3.169,3.169 l 0,1.504 C 3.169,-1.421 1.747,0 0,0"
         style="fill:#00aab7;fill-opacity:1;fill-rule:nonzero;stroke:none"
         id="path3598"
         inkscape:connector-curvature="0" />
    </g>
    <g
       id="g3600"
       transform="matrix(2.5586311,0,0,-2.5586311,206.37983,782.07144)">
      <path
         d="m 0,0 0,-1.743 c 0,-1.028 -0.833,-1.86 -1.861,-1.86 l -1.504,0 c -1.027,0 -1.86,0.832 -1.86,1.86 l 0,3.603 -1.861,0 -2.218,0 c -1.027,0 -1.86,0.833 -1.86,1.861 l 0,1.504 c 0,1.028 0.833,1.861 1.86,1.861 l 2.218,0 1.861,0 0,4.078 c 0,1.028 0.833,1.861 1.86,1.861 l 1.504,0 C -0.833,13.025 0,12.192 0,11.164 l 0,-2.218 0,-1.86 3.603,0 c 1.028,0 1.861,-0.833 1.861,-1.861 l 0,-1.504 C 5.464,2.693 4.631,1.86 3.603,1.86 L 0,1.86 0,0 Z"
         style="fill:#931b4c;fill-opacity:1;fill-rule:nonzero;stroke:none"
         id="path3602"
         inkscape:connector-curvature="0" />
    </g>
    <g
       id="g3604"
       transform="matrix(2.5586311,0,0,-2.5586311,185.94453,847.81802)">
      <path
         d="m 0,0 c 0,-3.909 -3.169,-7.077 -7.077,-7.077 -3.909,0 -7.077,3.168 -7.077,7.077 0,3.908 3.168,7.077 7.077,7.077 C -3.169,7.077 0,3.908 0,0"
         style="fill:#00aab7;fill-opacity:1;fill-rule:nonzero;stroke:none"
         id="path3606"
         inkscape:connector-curvature="0" />
    </g>
    <g
       id="g3608"
       transform="matrix(2.5586311,0,0,-2.5586311,379.27303,835.92632)">
      <path
         d="m 0,0 c -1.565,9.714 -4.556,28.291 -4.695,29.205 -0.038,0.298 -0.104,0.593 -0.197,0.879 -0.827,4.976 -3.379,9.549 -7.193,12.883 -3.986,3.486 -9.101,5.406 -14.402,5.406 l -21.692,0 0,-45.335 13.442,0 c 1.205,-1.749 3.821,-6.033 5.952,-9.522 1.779,-2.913 2.886,-4.721 3.213,-5.167 l 0,0 c 0.84,-1.149 2.042,-2.234 2.104,-2.29 2.604,-2.26 5.946,-3.505 9.409,-3.505 7.937,0 14.393,6.456 14.393,14.392 C 0.334,-2.048 0.222,-1.021 0,0"
         style="fill:#931b4c;fill-opacity:1;fill-rule:nonzero;stroke:none"
         id="path3610"
         inkscape:connector-curvature="0" />
    </g>
    <g
       id="g3612"
       transform="matrix(2.5586311,0,0,-2.5586311,322.37873,860.46012)">
      <path
         d="m 0,0 0.006,0.003 c 1.918,-2.397 4.863,-3.936 8.172,-3.936 5.781,0 10.467,4.687 10.467,10.468 0,0.797 -0.097,1.57 -0.266,2.317 0,0 -4.698,29.159 -4.728,29.423 -0.016,0.135 -0.057,0.253 -0.118,0.36 -1.247,8.707 -8.732,15.401 -17.784,15.401 l -21.692,0 0,-37.484 15.328,0 C -8.642,14.664 0,0 0,0"
         style="fill:#0e1f43;fill-opacity:1;fill-rule:nonzero;stroke:none"
         id="path3614"
         inkscape:connector-curvature="0" />
    </g>
    <g
       id="g3616"
       transform="matrix(2.5586311,0,0,-2.5586311,361.57753,847.81802)">
      <path
         d="m 0,0 c 0,-3.909 -3.169,-7.077 -7.077,-7.077 -3.909,0 -7.077,3.168 -7.077,7.077 0,3.908 3.168,7.077 7.077,7.077 C -3.169,7.077 0,3.908 0,0"
         style="fill:#ed2f43;fill-opacity:1;fill-rule:nonzero;stroke:none"
         id="path3618"
         inkscape:connector-curvature="0" />
    </g>
    <g
       id="g3620"
       transform="matrix(2.5586311,0,0,-2.5586311,311.07223,736.1827)">
      <path
         d="m 0,0 c -7.488,0 -13.579,-6.092 -13.579,-13.579 0,-7.488 6.091,-13.58 13.579,-13.58 7.488,0 13.58,6.092 13.58,13.58 C 13.58,-6.092 7.488,0 0,0 m 0,-29.062 c -8.537,0 -15.482,6.946 -15.482,15.483 0,8.537 6.945,15.482 15.482,15.482 8.537,0 15.483,-6.945 15.483,-15.482 0,-8.537 -6.946,-15.483 -15.483,-15.483"
         style="fill:#ed2f43;fill-opacity:1;fill-rule:nonzero;stroke:none"
         id="path3622"
         inkscape:connector-curvature="0" />
    </g>
    <g
       id="g3624"
       transform="matrix(2.5586311,0,0,-2.5586311,310.65913,766.00119)">
      <path
         d="M 0,0 C 2.384,0 4.324,1.939 4.324,4.323 4.324,6.708 2.384,8.647 0,8.647 -2.384,8.647 -4.324,6.708 -4.324,4.323 -4.324,1.939 -2.384,0 0,0"
         style="fill:#ed2f43;fill-opacity:1;fill-rule:nonzero;stroke:none"
         id="path3626"
         inkscape:connector-curvature="0" />
    </g>
    <g
       id="g3628"
       transform="matrix(2.5586311,0,0,-2.5586311,304.46623,768.99151)">
      <path
         d="m 0,0 c 0,2.384 -1.94,4.324 -4.324,4.324 -2.384,0 -4.323,-1.94 -4.323,-4.324 0,-2.384 1.939,-4.324 4.323,-4.324 C -1.94,-4.324 0,-2.384 0,0"
         style="fill:#ed2f43;fill-opacity:1;fill-rule:nonzero;stroke:none"
         id="path3630"
         inkscape:connector-curvature="0" />
    </g>
    <g
       id="g3632"
       transform="matrix(2.5586311,0,0,-2.5586311,328.74153,761.80053)">
      <path
         d="m 0,0 c -2.384,0 -4.324,-1.939 -4.324,-4.323 0,-2.385 1.94,-4.324 4.324,-4.324 2.384,0 4.324,1.939 4.324,4.324 C 4.324,-1.939 2.384,0 0,0"
         style="fill:#ed2f43;fill-opacity:1;fill-rule:nonzero;stroke:none"
         id="path3634"
         inkscape:connector-curvature="0" />
    </g>
    <g
       id="g3636"
       transform="matrix(2.5586311,0,0,-2.5586311,311.48613,775.85274)">
      <path
         d="m 0,0 c -2.384,0 -4.324,-1.94 -4.324,-4.323 0,-2.385 1.94,-4.324 4.324,-4.324 2.384,0 4.324,1.939 4.324,4.324 C 4.324,-1.94 2.384,0 0,0"
         style="fill:#ed2f43;fill-opacity:1;fill-rule:nonzero;stroke:none"
         id="path3638"
         inkscape:connector-curvature="0" />
    </g>
    <g
       id="g3640"
       transform="matrix(2.5586311,0,0,-2.5586311,319.28663,754.9391)">
      <path
         d="m 0,0 c 0,-1.862 -1.51,-3.372 -3.372,-3.372 -1.862,0 -3.372,1.51 -3.372,3.372 0,1.863 1.51,3.372 3.372,3.372 C -1.51,3.372 0,1.863 0,0"
         style="fill:#0e1f43;fill-opacity:1;fill-rule:nonzero;stroke:none"
         id="path3642"
         inkscape:connector-curvature="0" />
    </g>
    <g
       id="g3644"
       transform="matrix(2.5586311,0,0,-2.5586311,302.03103,768.99151)">
      <path
         d="m 0,0 c 0,-1.862 -1.51,-3.372 -3.372,-3.372 -1.862,0 -3.372,1.51 -3.372,3.372 0,1.862 1.51,3.372 3.372,3.372 C -1.51,3.372 0,1.862 0,0"
         style="fill:#0e1f43;fill-opacity:1;fill-rule:nonzero;stroke:none"
         id="path3646"
         inkscape:connector-curvature="0" />
    </g>
    <g
       id="g3648"
       transform="matrix(2.5586311,0,0,-2.5586311,337.36923,772.86241)">
      <path
         d="m 0,0 c 0,-1.862 -1.51,-3.372 -3.372,-3.372 -1.862,0 -3.372,1.51 -3.372,3.372 0,1.862 1.51,3.372 3.372,3.372 C -1.51,3.372 0,1.862 0,0"
         style="fill:#0e1f43;fill-opacity:1;fill-rule:nonzero;stroke:none"
         id="path3650"
         inkscape:connector-curvature="0" />
    </g>
    <g
       id="g3652"
       transform="matrix(2.5586311,0,0,-2.5586311,320.11343,786.91564)">
      <path
         d="m 0,0 c 0,-1.862 -1.51,-3.372 -3.372,-3.372 -1.862,0 -3.372,1.51 -3.372,3.372 0,1.862 1.51,3.372 3.372,3.372 C -1.51,3.372 0,1.862 0,0"
         style="fill:#0e1f43;fill-opacity:1;fill-rule:nonzero;stroke:none"
         id="path3654"
         inkscape:connector-curvature="0" />
    </g>
    <g
       id="g3656"
       transform="matrix(2.5586311,0,0,-2.5586311,133.06003,643.64847)">
      <path
         d="m 0,0 c 0,-3.669 -2.974,-6.643 -6.643,-6.643 -3.669,0 -6.643,2.974 -6.643,6.643 0,3.669 2.974,6.643 6.643,6.643 C -2.974,6.643 0,3.669 0,0"
         style="fill:#ed2f43;fill-opacity:1;fill-rule:nonzero;stroke:none"
         id="path3658"
         inkscape:connector-curvature="0" />
    </g>
  </g>
</svg>
