<?xml version="1.0" encoding="UTF-8" standalone="no"?>
<!-- Created with Inkscape (http://www.inkscape.org/) -->

<svg
   xmlns:dc="http://purl.org/dc/elements/1.1/"
   xmlns:cc="http://creativecommons.org/ns#"
   xmlns:rdf="http://www.w3.org/1999/02/22-rdf-syntax-ns#"
   xmlns:svg="http://www.w3.org/2000/svg"
   xmlns="http://www.w3.org/2000/svg"
   xmlns:sodipodi="http://sodipodi.sourceforge.net/DTD/sodipodi-0.dtd"
   xmlns:inkscape="http://www.inkscape.org/namespaces/inkscape"
   width="512"
   height="512"
   viewBox="0 0 512.00001 512.00001"
   id="svg18733"
   version="1.1"
   inkscape:version="0.91 r13725"
   sodipodi:docname="avatar-18.svg">
  <defs
     id="defs18735" />
  <sodipodi:namedview
     id="base"
     pagecolor="#ffffff"
     bordercolor="#666666"
     borderopacity="1.0"
     inkscape:pageopacity="0.0"
     inkscape:pageshadow="2"
     inkscape:zoom="0.24748737"
     inkscape:cx="282.83308"
     inkscape:cy="811.89282"
     inkscape:document-units="px"
     inkscape:current-layer="layer1"
     showgrid="false"
     units="px"
     inkscape:window-width="1329"
     inkscape:window-height="744"
     inkscape:window-x="37"
     inkscape:window-y="24"
     inkscape:window-maximized="1" />
  <metadata
     id="metadata18738">
    <rdf:RDF>
      <cc:Work
         rdf:about="">
        <dc:format>image/svg+xml</dc:format>
        <dc:type
           rdf:resource="http://purl.org/dc/dcmitype/StillImage" />
        <dc:title></dc:title>
      </cc:Work>
    </rdf:RDF>
  </metadata>
  <g
     inkscape:label="Layer 1"
     inkscape:groupmode="layer"
     id="layer1"
     transform="translate(0,-540.36216)">
    <g
       id="g5100"
       transform="matrix(2.5733687,0,0,-2.5733687,42.074585,853.05815)">
      <path
         d="m 0,0 -12.331,12.331 c -5.358,5.358 -5.358,14.044 0,19.401 l 28.549,28.55 0,2.98 c -5.737,3.982 -9.501,10.616 -9.501,18.113 0,12.151 9.885,22.036 22.035,22.036 8.27,0 15.49,-4.581 19.258,-11.337 l 25.42,25.42 c 2.573,2.573 6.062,4.018 9.701,4.018 l 0,-198.96 c -3.639,0 -7.128,1.445 -9.701,4.018 l -28.549,28.549 -21.094,0 c -4.18,0 -7.569,3.389 -7.569,7.569 l 0,21.094 L 13.76,-13.76 0,0 Z"
         style="fill:#13bcc5;fill-opacity:1;fill-rule:nonzero;stroke:none"
         id="path5102"
         inkscape:connector-curvature="0" />
    </g>
    <g
       id="g5104"
       transform="matrix(2.5733687,0,0,-2.5733687,501.65955,771.3992)">
      <path
         d="m 0,0 c 5.357,-5.358 5.357,-14.044 0,-19.401 l -28.55,-28.55 0,-2.98 c 5.738,-3.982 9.502,-10.616 9.502,-18.113 0,-12.151 -9.885,-22.036 -22.035,-22.036 -8.271,0 -15.49,4.581 -19.259,11.337 l -25.42,-25.42 c -2.572,-2.572 -6.062,-4.018 -9.7,-4.018 l 0,198.961 c 3.638,0 7.128,-1.446 9.7,-4.018 l 28.55,-28.55 21.094,0 c 4.18,0 7.568,-3.389 7.568,-7.569 l 0,-21.093 L 0,0 Z"
         style="fill:#ea7131;fill-opacity:1;fill-rule:nonzero;stroke:none"
         id="path5106"
         inkscape:connector-curvature="0" />
    </g>
    <g
       id="g5108"
       transform="matrix(2.5733687,0,0,-2.5733687,46.064125,794.74603)">
      <path
         d="m 0,0 81.58,-81.58 0,163.16 L 0,0 Z"
         style="fill:#ea7131;fill-opacity:1;fill-rule:nonzero;stroke:none"
         id="path5110"
         inkscape:connector-curvature="0" />
    </g>
    <g
       id="g5112"
       transform="matrix(2.5733687,0,0,-2.5733687,465.93665,794.74603)">
      <path
         d="m 0,0 -81.58,81.58 0,0 0,-163.16 L 0,0 Z"
         style="fill:#1c3664;fill-opacity:1;fill-rule:nonzero;stroke:none"
         id="path5114"
         inkscape:connector-curvature="0" />
    </g>
    <g
       id="g5116"
       transform="matrix(2.5733687,0,0,-2.5733687,256.00038,993.92271)">
      <path
         d="M 0,0 -77.399,77.399 0,154.798 0,163.161 -85.762,77.399 0,-8.362 0,0 Z"
         style="fill:#1c3664;fill-opacity:1;fill-rule:nonzero;stroke:none"
         id="path5118"
         inkscape:connector-curvature="0" />
    </g>
    <g
       id="g5120"
       transform="matrix(2.5733687,0,0,-2.5733687,256.00038,574.04982)">
      <path
         d="M 0,0 0,-8.362 77.399,-85.762 0,-163.161 0,-171.523 85.762,-85.762 0,0 Z"
         style="fill:#13bcc5;fill-opacity:1;fill-rule:nonzero;stroke:none"
         id="path5122"
         inkscape:connector-curvature="0" />
    </g>
    <path
       d="m 373.50565,681.53506 -97.76739,0 0,-15.21632 97.76739,0 0,15.21632 z"
       style="fill:#13bcc5;fill-opacity:1;fill-rule:nonzero;stroke:none"
       id="path5124"
       inkscape:connector-curvature="0" />
    <g
       id="g5126"
       transform="matrix(2.5733687,0,0,-2.5733687,348.25173,769.31106)">
      <path
         d="m 0,0 c 0,-7.979 -6.468,-14.448 -14.448,-14.448 -7.979,0 -14.447,6.469 -14.447,14.448 0,7.979 6.468,14.448 14.447,14.448 C -6.468,14.448 0,7.979 0,0"
         style="fill:#0e1f43;fill-opacity:1;fill-rule:nonzero;stroke:none"
         id="path5128"
         inkscape:connector-curvature="0" />
    </g>
    <g
       id="g5130"
       transform="matrix(2.5733687,0,0,-2.5733687,148.90108,649.64119)">
      <path
         d="M 0,0 20.606,0 16.169,-4.438 0,-4.438 0,0 Z"
         style="fill:#13bcc5;fill-opacity:1;fill-rule:nonzero;stroke:none"
         id="path5132"
         inkscape:connector-curvature="0" />
    </g>
    <g
       id="g5134"
       transform="matrix(2.5733687,0,0,-2.5733687,394.80105,681.53469)">
      <path
         d="M 0,0 -20.606,0 -16.168,-4.438 0,-4.438 0,0 Z"
         style="fill:#ea7131;fill-opacity:1;fill-rule:nonzero;stroke:none"
         id="path5136"
         inkscape:connector-curvature="0" />
    </g>
    <g
       id="g5138"
       transform="matrix(2.5733687,0,0,-2.5733687,143.79984,934.76837)">
      <path
         d="M 0,0 20.606,0 16.168,4.438 0,4.438 0,0 Z"
         style="fill:#13bcc5;fill-opacity:1;fill-rule:nonzero;stroke:none"
         id="path5140"
         inkscape:connector-curvature="0" />
    </g>
    <g
       id="g5142"
       transform="matrix(2.5733687,0,0,-2.5733687,175.65073,966.4871)">
      <path
         d="M 0,0 20.606,0 16.169,4.438 0,4.438 0,0 Z"
         style="fill:#13bcc5;fill-opacity:1;fill-rule:nonzero;stroke:none"
         id="path5144"
         inkscape:connector-curvature="0" />
    </g>
    <g
       id="g5146"
       transform="matrix(2.5733687,0,0,-2.5733687,84.259505,735.96865)">
      <path
         d="m 0,0 0,-12.182 4.437,4.438 0,12.182 L 0,0 Z"
         style="fill:#13bcc5;fill-opacity:1;fill-rule:nonzero;stroke:none"
         id="path5148"
         inkscape:connector-curvature="0" />
    </g>
    <g
       id="g5150"
       transform="matrix(2.5733687,0,0,-2.5733687,84.259505,853.4736)">
      <path
         d="M 0,0 0,12.182 4.437,7.744 4.437,-4.438 0,0 Z"
         style="fill:#13bcc5;fill-opacity:1;fill-rule:nonzero;stroke:none"
         id="path5152"
         inkscape:connector-curvature="0" />
    </g>
    <g
       id="g5154"
       transform="matrix(2.5733687,0,0,-2.5733687,427.74145,735.96865)">
      <path
         d="m 0,0 0,-12.182 -4.438,4.438 0,12.182 L 0,0 Z"
         style="fill:#ea7131;fill-opacity:1;fill-rule:nonzero;stroke:none"
         id="path5156"
         inkscape:connector-curvature="0" />
    </g>
    <g
       id="g5158"
       transform="matrix(2.5733687,0,0,-2.5733687,427.74145,853.4736)">
      <path
         d="m 0,0 0,12.182 -4.438,-4.438 0,-12.182 L 0,0 Z"
         style="fill:#ea7131;fill-opacity:1;fill-rule:nonzero;stroke:none"
         id="path5160"
         inkscape:connector-curvature="0" />
    </g>
    <g
       id="g5162"
       transform="matrix(2.5733687,0,0,-2.5733687,336.36009,966.4871)">
      <path
         d="M 0,0 -20.606,0 -16.169,4.438 0,4.438 0,0 Z"
         style="fill:#ea7131;fill-opacity:1;fill-rule:nonzero;stroke:none"
         id="path5164"
         inkscape:connector-curvature="0" />
    </g>
    <g
       id="g5166"
       transform="matrix(2.5733687,0,0,-2.5733687,362.94235,649.56996)">
      <path
         d="M 0,0 -20.606,0 -16.169,-4.438 0,-4.438 0,0 Z"
         style="fill:#ea7131;fill-opacity:1;fill-rule:nonzero;stroke:none"
         id="path5168"
         inkscape:connector-curvature="0" />
    </g>
    <path
       d="m 233.58391,923.34935 -97.76742,0 0,-15.21633 97.76742,0 0,15.21633 z"
       style="fill:#1c3664;fill-opacity:1;fill-rule:nonzero;stroke:none"
       id="path5170"
       inkscape:connector-curvature="0" />
    <g
       id="g5172"
       transform="matrix(2.5733687,0,0,-2.5733687,113.10017,705.66445)">
      <path
         d="M 0,0 6.374,-6.374 2.193,-10.555 -2.296,-6.066 0,0 Z"
         style="fill:#13bcc5;fill-opacity:1;fill-rule:nonzero;stroke:none"
         id="path5174"
         inkscape:connector-curvature="0" />
    </g>
    <g
       id="g5176"
       transform="matrix(2.5733687,0,0,-2.5733687,408.71355,955.06752)">
      <path
         d="m 0,0 -121.644,0 0,112.093 27.303,-27.302 -4.182,-4.182 -17.208,17.209 0,-91.905 L 0,5.913 0,0 Z"
         style="fill:#1c3664;fill-opacity:1;fill-rule:nonzero;stroke:none"
         id="path5178"
         inkscape:connector-curvature="0" />
    </g>
    <g
       id="g5180"
       transform="matrix(2.5733687,0,0,-2.5733687,366.88975,883.00311)">
      <path
         d="M 0,0 4.673,-4.673 0.499,-8.862 -4.187,-4.175 0,0 Z"
         style="fill:#ea7131;fill-opacity:1;fill-rule:nonzero;stroke:none"
         id="path5182"
         inkscape:connector-curvature="0" />
    </g>
    <g
       id="g5184"
       transform="matrix(2.5733687,0,0,-2.5733687,422.16345,947.45899)">
      <path
         d="m 0,0 c 0,-5.629 -4.563,-10.192 -10.192,-10.192 -5.628,0 -10.191,4.563 -10.191,10.192 0,5.629 4.563,10.192 10.191,10.192 C -4.563,10.192 0,5.629 0,0"
         style="fill:#ea7131;fill-opacity:1;fill-rule:nonzero;stroke:none"
         id="path5186"
         inkscape:connector-curvature="0" />
    </g>
    <g
       id="g5188"
       transform="matrix(2.5733687,0,0,-2.5733687,412.93365,947.45899)">
      <path
         d="m 0,0 c 0,-3.648 -2.957,-6.605 -6.605,-6.605 -3.648,0 -6.605,2.957 -6.605,6.605 0,3.648 2.957,6.605 6.605,6.605 C -2.957,6.605 0,3.648 0,0"
         style="fill:#1c3664;fill-opacity:1;fill-rule:nonzero;stroke:none"
         id="path5190"
         inkscape:connector-curvature="0" />
    </g>
    <g
       id="g5192"
       transform="matrix(2.5733687,0,0,-2.5733687,416.32185,932.42578)">
      <path
         d="m 0,0 -27.39,27.39 4.181,4.181 17.296,-17.295 0,95.613 -115.731,0 0,5.913 L 0,115.802 0,0 Z"
         style="fill:#1c3664;fill-opacity:1;fill-rule:nonzero;stroke:none"
         id="path5194"
         inkscape:connector-curvature="0" />
    </g>
    <g
       id="g5196"
       transform="matrix(2.5733687,0,0,-2.5733687,142.29082,642.03307)">
      <path
         d="m 0,0 c 0,-5.629 -4.563,-10.192 -10.192,-10.192 -5.628,0 -10.191,4.563 -10.191,10.192 0,5.629 4.563,10.192 10.191,10.192 C -4.563,10.192 0,5.629 0,0"
         style="fill:#13bcc5;fill-opacity:1;fill-rule:nonzero;stroke:none"
         id="path5198"
         inkscape:connector-curvature="0" />
    </g>
    <g
       id="g5200"
       transform="matrix(2.5733687,0,0,-2.5733687,200.56197,710.54232)">
      <path
         d="m 0,0 c -5.259,0 -10.336,-1.901 -14.297,-5.353 -3.766,-3.284 -6.304,-7.788 -7.152,-12.69 -0.116,-0.326 -0.198,-0.664 -0.24,-0.994 -0.147,-0.967 -3.418,-21.281 -4.671,-29.059 -0.221,-1.015 -0.332,-2.036 -0.332,-3.036 0,-7.891 6.419,-14.31 14.31,-14.31 3.429,0 6.742,1.229 9.341,3.473 0.037,0.034 0.931,0.846 2.08,2.255 0.593,0.727 2.376,3.669 4.44,7.074 1.83,3.02 3.718,6.135 4.698,7.565 l 13.366,0 L 21.543,0 0,0 Z"
         style="fill:#1c3664;fill-opacity:1;fill-rule:nonzero;stroke:none"
         id="path5202"
         inkscape:connector-curvature="0" />
    </g>
    <g
       id="g5204"
       transform="matrix(2.5733687,0,0,-2.5733687,200.56238,720.58546)">
      <path
         d="m 0,0 c -8.981,0 -16.413,-6.628 -17.676,-15.258 -0.078,-0.121 -0.13,-0.257 -0.148,-0.413 -0.03,-0.262 -4.701,-29.255 -4.701,-29.255 -0.168,-0.742 -0.265,-1.511 -0.265,-2.303 0,-5.748 4.66,-10.408 10.408,-10.408 3.289,0 6.217,1.53 8.125,3.913 l 0.005,-0.003 c 0,0 8.593,14.581 10.555,16.458 l 15.24,0 L 21.543,0 0,0 Z"
         style="fill:#13bcc5;fill-opacity:1;fill-rule:nonzero;stroke:none"
         id="path5206"
         inkscape:connector-curvature="0" />
    </g>
    <g
       id="g5208"
       transform="matrix(2.5733687,0,0,-2.5733687,237.48448,769.31106)">
      <path
         d="m 0,0 c 0,-7.979 -6.468,-14.448 -14.448,-14.448 -7.979,0 -14.447,6.469 -14.447,14.448 0,7.979 6.468,14.448 14.447,14.448 C -6.468,14.448 0,7.979 0,0"
         style="fill:#13bcc5;fill-opacity:1;fill-rule:nonzero;stroke:none"
         id="path5210"
         inkscape:connector-curvature="0" />
    </g>
    <g
       id="g5212"
       transform="matrix(2.5733687,0,0,-2.5733687,200.30546,734.56647)">
      <path
         d="m 0,0 c -7.445,0 -13.502,-6.057 -13.502,-13.502 0,-7.444 6.057,-13.501 13.502,-13.501 7.445,0 13.502,6.057 13.502,13.501 C 13.502,-6.057 7.445,0 0,0 m 0,-28.895 c -8.488,0 -15.394,6.905 -15.394,15.393 0,8.489 6.906,15.394 15.394,15.394 8.488,0 15.394,-6.905 15.394,-15.394 0,-8.488 -6.906,-15.393 -15.394,-15.393"
         style="fill:#1c3664;fill-opacity:1;fill-rule:nonzero;stroke:none"
         id="path5214"
         inkscape:connector-curvature="0" />
    </g>
    <g
       id="g5216"
       transform="matrix(2.5733687,0,0,-2.5733687,215.59993,758.97806)">
      <path
         d="m 0,0 -1.733,0 c -0.303,0 -0.549,0.246 -0.549,0.549 l 0,2.205 c 0,1.737 -1.413,3.151 -3.15,3.151 l -1.496,0 c -1.737,0 -3.151,-1.414 -3.151,-3.151 l 0,-2.205 C -10.079,0.246 -10.325,0 -10.628,0 l -2.205,0 c -1.737,0 -3.151,-1.413 -3.151,-3.151 l 0,-1.495 c 0,-1.738 1.414,-3.151 3.151,-3.151 l 2.205,0 c 0.303,0 0.549,-0.246 0.549,-0.549 l 0,-1.733 c 0,-1.737 1.414,-3.151 3.151,-3.151 l 1.496,0 c 1.737,0 3.15,1.414 3.15,3.151 l 0,1.733 c 0,0.303 0.246,0.549 0.549,0.549 l 1.733,0 c 1.737,0 3.151,1.413 3.151,3.151 l 0,1.495 C 3.151,-1.413 1.737,0 0,0"
         style="fill:#1c3664;fill-opacity:1;fill-rule:nonzero;stroke:none"
         id="path5218"
         inkscape:connector-curvature="0" />
    </g>
    <g
       id="g5220"
       transform="matrix(2.5733687,0,0,-2.5733687,206.38027,780.4554)">
      <path
         d="m 0,0 0,-1.733 c 0,-1.022 -0.828,-1.85 -1.85,-1.85 l -1.495,0 c -1.022,0 -1.85,0.828 -1.85,1.85 l 0,3.583 -1.85,0 -2.205,0 c -1.022,0 -1.85,0.828 -1.85,1.85 l 0,1.495 c 0,1.022 0.828,1.85 1.85,1.85 l 2.205,0 1.85,0 0,4.055 c 0,1.022 0.828,1.85 1.85,1.85 l 1.495,0 C -0.828,12.95 0,12.122 0,11.1 l 0,-2.205 0,-1.85 3.583,0 c 1.021,0 1.85,-0.828 1.85,-1.85 l 0,-1.495 C 5.433,2.678 4.604,1.85 3.583,1.85 L 0,1.85 0,0 Z"
         style="fill:#13bcc5;fill-opacity:1;fill-rule:nonzero;stroke:none"
         id="path5222"
         inkscape:connector-curvature="0" />
    </g>
    <g
       id="g5224"
       transform="matrix(2.5733687,0,0,-2.5733687,185.94503,846.20208)">
      <path
         d="m 0,0 c 0,-3.886 -3.15,-7.037 -7.037,-7.037 -3.886,0 -7.036,3.151 -7.036,7.037 0,3.886 3.15,7.037 7.036,7.037 C -3.15,7.037 0,3.886 0,0"
         style="fill:#1c3664;fill-opacity:1;fill-rule:nonzero;stroke:none"
         id="path5226"
         inkscape:connector-curvature="0" />
    </g>
    <g
       id="g5228"
       transform="matrix(2.5733687,0,0,-2.5733687,379.27295,834.31003)">
      <path
         d="m 0,0 c -1.556,9.658 -4.53,28.129 -4.668,29.038 -0.038,0.296 -0.104,0.59 -0.196,0.873 -0.822,4.948 -3.36,9.495 -7.151,12.81 -3.964,3.466 -9.05,5.375 -14.321,5.375 l -21.567,0 0,-45.075 13.365,0 c 1.198,-1.739 3.8,-5.999 5.918,-9.468 1.769,-2.896 2.869,-4.694 3.194,-5.137 l 0,0 c 0.836,-1.142 2.031,-2.222 2.092,-2.277 2.59,-2.247 5.912,-3.485 9.356,-3.485 7.891,0 14.31,6.419 14.31,14.309 C 0.332,-2.036 0.22,-1.015 0,0"
         style="fill:#13bcc5;fill-opacity:1;fill-rule:nonzero;stroke:none"
         id="path5230"
         inkscape:connector-curvature="0" />
    </g>
    <g
       id="g5232"
       transform="matrix(2.5733687,0,0,-2.5733687,322.37909,858.84412)">
      <path
         d="M 0,0 0.006,0.003 C 1.913,-2.38 4.841,-3.91 8.131,-3.91 c 5.748,0 10.407,4.66 10.407,10.407 0,0.793 -0.096,1.562 -0.264,2.304 0,0 -4.672,28.993 -4.702,29.255 -0.015,0.134 -0.056,0.252 -0.116,0.358 -1.24,8.657 -8.683,15.313 -17.683,15.313 l -21.568,0 0,-37.27 15.241,0 C -8.592,14.58 0,0 0,0"
         style="fill:#ea7131;fill-opacity:1;fill-rule:nonzero;stroke:none"
         id="path5234"
         inkscape:connector-curvature="0" />
    </g>
    <g
       id="g5236"
       transform="matrix(2.5733687,0,0,-2.5733687,361.57785,846.20208)">
      <path
         d="m 0,0 c 0,-3.886 -3.15,-7.037 -7.037,-7.037 -3.886,0 -7.036,3.151 -7.036,7.037 0,3.886 3.15,7.037 7.036,7.037 C -3.15,7.037 0,3.886 0,0"
         style="fill:#1c3664;fill-opacity:1;fill-rule:nonzero;stroke:none"
         id="path5238"
         inkscape:connector-curvature="0" />
    </g>
    <g
       id="g5240"
       transform="matrix(2.5733687,0,0,-2.5733687,311.07212,734.56647)">
      <path
         d="m 0,0 c -7.445,0 -13.501,-6.057 -13.501,-13.502 0,-7.444 6.056,-13.501 13.501,-13.501 7.445,0 13.502,6.057 13.502,13.501 C 13.502,-6.057 7.445,0 0,0 m 0,-28.895 c -8.488,0 -15.394,6.905 -15.394,15.393 0,8.489 6.906,15.394 15.394,15.394 8.488,0 15.394,-6.905 15.394,-15.394 0,-8.488 -6.906,-15.393 -15.394,-15.393"
         style="fill:#1c3664;fill-opacity:1;fill-rule:nonzero;stroke:none"
         id="path5242"
         inkscape:connector-curvature="0" />
    </g>
    <g
       id="g5244"
       transform="matrix(2.5733687,0,0,-2.5733687,310.65935,764.38522)">
      <path
         d="M 0,0 C 2.37,0 4.299,1.928 4.299,4.299 4.299,6.669 2.37,8.598 0,8.598 -2.37,8.598 -4.299,6.669 -4.299,4.299 -4.299,1.928 -2.37,0 0,0"
         style="fill:#1c3664;fill-opacity:1;fill-rule:nonzero;stroke:none"
         id="path5246"
         inkscape:connector-curvature="0" />
    </g>
    <g
       id="g5248"
       transform="matrix(2.5733687,0,0,-2.5733687,304.46638,767.37568)">
      <path
         d="m 0,0 c 0,2.371 -1.928,4.299 -4.299,4.299 -2.37,0 -4.299,-1.928 -4.299,-4.299 0,-2.37 1.929,-4.299 4.299,-4.299 C -1.928,-4.299 0,-2.37 0,0"
         style="fill:#1c3664;fill-opacity:1;fill-rule:nonzero;stroke:none"
         id="path5250"
         inkscape:connector-curvature="0" />
    </g>
    <g
       id="g5252"
       transform="matrix(2.5733687,0,0,-2.5733687,328.74148,760.18384)">
      <path
         d="m 0,0 c -2.37,0 -4.299,-1.928 -4.299,-4.299 0,-2.37 1.929,-4.299 4.299,-4.299 2.37,0 4.299,1.929 4.299,4.299 C 4.299,-1.928 2.37,0 0,0"
         style="fill:#1c3664;fill-opacity:1;fill-rule:nonzero;stroke:none"
         id="path5254"
         inkscape:connector-curvature="0" />
    </g>
    <g
       id="g5256"
       transform="matrix(2.5733687,0,0,-2.5733687,311.48632,774.2369)">
      <path
         d="m 0,0 c -2.371,0 -4.299,-1.928 -4.299,-4.299 0,-2.37 1.928,-4.299 4.299,-4.299 2.37,0 4.299,1.929 4.299,4.299 C 4.299,-1.928 2.37,0 0,0"
         style="fill:#1c3664;fill-opacity:1;fill-rule:nonzero;stroke:none"
         id="path5258"
         inkscape:connector-curvature="0" />
    </g>
    <g
       id="g5260"
       transform="matrix(2.5733687,0,0,-2.5733687,319.28693,753.32283)">
      <path
         d="m 0,0 c 0,-1.852 -1.501,-3.353 -3.353,-3.353 -1.851,0 -3.352,1.501 -3.352,3.353 0,1.852 1.501,3.353 3.352,3.353 C -1.501,3.353 0,1.852 0,0"
         style="fill:#ea7131;fill-opacity:1;fill-rule:nonzero;stroke:none"
         id="path5262"
         inkscape:connector-curvature="0" />
    </g>
    <g
       id="g5264"
       transform="matrix(2.5733687,0,0,-2.5733687,302.03115,767.37548)">
      <path
         d="m 0,0 c 0,-1.852 -1.501,-3.353 -3.353,-3.353 -1.851,0 -3.353,1.501 -3.353,3.353 0,1.852 1.502,3.353 3.353,3.353 C -1.501,3.353 0,1.852 0,0"
         style="fill:#ea7131;fill-opacity:1;fill-rule:nonzero;stroke:none"
         id="path5266"
         inkscape:connector-curvature="0" />
    </g>
    <g
       id="g5268"
       transform="matrix(2.5733687,0,0,-2.5733687,337.36947,771.24665)">
      <path
         d="m 0,0 c 0,-1.852 -1.501,-3.353 -3.353,-3.353 -1.851,0 -3.353,1.501 -3.353,3.353 0,1.852 1.502,3.353 3.353,3.353 C -1.501,3.353 0,1.852 0,0"
         style="fill:#ea7131;fill-opacity:1;fill-rule:nonzero;stroke:none"
         id="path5270"
         inkscape:connector-curvature="0" />
    </g>
    <g
       id="g5272"
       transform="matrix(2.5733687,0,0,-2.5733687,320.1137,785.29951)">
      <path
         d="m 0,0 c 0,-1.852 -1.501,-3.353 -3.353,-3.353 -1.851,0 -3.352,1.501 -3.352,3.353 0,1.852 1.501,3.353 3.352,3.353 C -1.501,3.353 0,1.852 0,0"
         style="fill:#ea7131;fill-opacity:1;fill-rule:nonzero;stroke:none"
         id="path5274"
         inkscape:connector-curvature="0" />
    </g>
    <g
       id="g5276"
       transform="matrix(2.5733687,0,0,-2.5733687,133.06066,642.03307)">
      <path
         d="m 0,0 c 0,-3.648 -2.957,-6.605 -6.605,-6.605 -3.648,0 -6.605,2.957 -6.605,6.605 0,3.648 2.957,6.605 6.605,6.605 C -2.957,6.605 0,3.648 0,0"
         style="fill:#1c3664;fill-opacity:1;fill-rule:nonzero;stroke:none"
         id="path5278"
         inkscape:connector-curvature="0" />
    </g>
  </g>
</svg>
