<?xml version="1.0" encoding="UTF-8" standalone="no"?>
<!-- Created with Inkscape (http://www.inkscape.org/) -->

<svg
   xmlns:dc="http://purl.org/dc/elements/1.1/"
   xmlns:cc="http://creativecommons.org/ns#"
   xmlns:rdf="http://www.w3.org/1999/02/22-rdf-syntax-ns#"
   xmlns:svg="http://www.w3.org/2000/svg"
   xmlns="http://www.w3.org/2000/svg"
   xmlns:sodipodi="http://sodipodi.sourceforge.net/DTD/sodipodi-0.dtd"
   xmlns:inkscape="http://www.inkscape.org/namespaces/inkscape"
   width="53.096001"
   height="40"
   viewBox="0 0 53.096001 40.000001"
   id="svg7312"
   version="1.1"
   inkscape:version="0.91 r13725"
   sodipodi:docname="contact-email.svg">
  <defs
     id="defs7314" />
  <sodipodi:namedview
     id="base"
     pagecolor="#ffffff"
     bordercolor="#666666"
     borderopacity="1.0"
     inkscape:pageopacity="0.0"
     inkscape:pageshadow="2"
     inkscape:zoom="0.49497475"
     inkscape:cx="217.04388"
     inkscape:cy="209.41928"
     inkscape:document-units="px"
     inkscape:current-layer="layer1"
     showgrid="false"
     units="px"
     inkscape:window-width="1329"
     inkscape:window-height="744"
     inkscape:window-x="37"
     inkscape:window-y="24"
     inkscape:window-maximized="1" />
  <metadata
     id="metadata7317">
    <rdf:RDF>
      <cc:Work
         rdf:about="">
        <dc:format>image/svg+xml</dc:format>
        <dc:type
           rdf:resource="http://purl.org/dc/dcmitype/StillImage" />
        <dc:title></dc:title>
      </cc:Work>
    </rdf:RDF>
  </metadata>
  <g
     inkscape:label="Layer 1"
     inkscape:groupmode="layer"
     id="layer1"
     transform="translate(0,-1012.3622)">
    <g
       id="g1382"
       transform="matrix(1.4760692,0,0,-1.4760692,6.887339,1047.4543)">
      <path
         d="M 0,0 C -0.325,0 -0.631,0.13 -0.854,0.323 L 7.072,8.277 8.818,6.524 c 1.24,-1.242 2.874,-1.862 4.509,-1.862 1.625,0 3.259,0.62 4.513,1.862 l 1.722,1.753 7.94,-7.954 C 27.275,0.13 26.973,0 26.644,0 L 0,0 Z m -1.332,3.777 0,12.911 6.44,-6.45 -6.44,-6.461 z m 27.976,16.677 c 0.329,0 0.631,-0.135 0.858,-0.332 L 15.889,8.513 c -0.7,-0.682 -1.602,-1.072 -2.562,-1.072 -0.962,0 -1.872,0.39 -2.559,1.072 L -0.854,20.122 c 0.223,0.197 0.529,0.332 0.854,0.332 l 26.644,0 z m -5.117,-10.216 6.463,6.45 0,-12.911 -6.463,6.461 z m 5.117,13.536 -26.644,0 c -2.581,0 -4.666,-2.092 -4.666,-4.662 l 0,-17.77 c 0,-2.558 2.085,-4.667 4.666,-4.667 l 26.644,0 c 2.581,0 4.661,2.109 4.661,4.667 l 0,17.77 c 0,2.57 -2.08,4.662 -4.661,4.662"
         style="fill:#ffffff;fill-opacity:1;fill-rule:nonzero;stroke:none"
         id="path1384"
         inkscape:connector-curvature="0" />
    </g>
  </g>
</svg>
