<?xml version="1.0" encoding="UTF-8" standalone="no"?>
<!-- Created with Inkscape (http://www.inkscape.org/) -->

<svg
   xmlns:dc="http://purl.org/dc/elements/1.1/"
   xmlns:cc="http://creativecommons.org/ns#"
   xmlns:rdf="http://www.w3.org/1999/02/22-rdf-syntax-ns#"
   xmlns:svg="http://www.w3.org/2000/svg"
   xmlns="http://www.w3.org/2000/svg"
   xmlns:sodipodi="http://sodipodi.sourceforge.net/DTD/sodipodi-0.dtd"
   xmlns:inkscape="http://www.inkscape.org/namespaces/inkscape"
   width="40.008999"
   height="40"
   viewBox="0 0 40.009 40.000001"
   id="svg10000"
   version="1.1"
   inkscape:version="0.91 r13725"
   sodipodi:docname="contact-message.svg">
  <defs
     id="defs10002">
    <clipPath
       clipPathUnits="userSpaceOnUse"
       id="clipPath1306">
      <path
         d="m 0,7263 2560,0 L 2560,0 0,0 0,7263 Z"
         id="path1308"
         inkscape:connector-curvature="0" />
    </clipPath>
    <clipPath
       clipPathUnits="userSpaceOnUse"
       id="clipPath1318">
      <path
         d="m 950.637,1106.79 107.143,0 0,-29.49 -107.143,0 0,29.49 z"
         id="path1320"
         inkscape:connector-curvature="0" />
    </clipPath>
    <clipPath
       clipPathUnits="userSpaceOnUse"
       id="clipPath1346">
      <path
         d="m 950.637,1031.63 90.143,0 0,-29.49 -90.143,0 0,29.49 z"
         id="path1348"
         inkscape:connector-curvature="0" />
    </clipPath>
    <clipPath
       clipPathUnits="userSpaceOnUse"
       id="clipPath1370">
      <path
         d="m 950.637,958.005 90.143,0 0,-29.484 -90.143,0 0,29.484 z"
         id="path1372"
         inkscape:connector-curvature="0" />
    </clipPath>
  </defs>
  <sodipodi:namedview
     id="base"
     pagecolor="#ffffff"
     bordercolor="#666666"
     borderopacity="1.0"
     inkscape:pageopacity="0.0"
     inkscape:pageshadow="2"
     inkscape:zoom="0.35"
     inkscape:cx="-453.03742"
     inkscape:cy="653.88662"
     inkscape:document-units="px"
     inkscape:current-layer="layer1"
     showgrid="false"
     units="px"
     inkscape:window-width="1329"
     inkscape:window-height="744"
     inkscape:window-x="37"
     inkscape:window-y="24"
     inkscape:window-maximized="1" />
  <metadata
     id="metadata10005">
    <rdf:RDF>
      <cc:Work
         rdf:about="">
        <dc:format>image/svg+xml</dc:format>
        <dc:type
           rdf:resource="http://purl.org/dc/dcmitype/StillImage" />
        <dc:title></dc:title>
      </cc:Work>
    </rdf:RDF>
  </metadata>
  <g
     inkscape:label="Layer 1"
     inkscape:groupmode="layer"
     id="layer1"
     transform="translate(0,-1012.3622)">
    <g
       transform="matrix(1.1801725,0,0,-1.1801725,35.737159,1025.5544)"
       id="g1390">
      <path
         inkscape:connector-curvature="0"
         id="path1392"
         style="fill:#071428;fill-opacity:1;fill-rule:nonzero;stroke:none"
         d="m 0,0 -7.564,7.564 c 0.961,0.792 2.159,1.227 3.421,1.227 1.437,0 2.783,-0.561 3.8,-1.571 C 0.673,6.211 1.227,4.858 1.227,3.421 1.227,2.152 0.792,0.96 0,0 m -18.499,-18.535 -3.092,3.092 17.182,17.181 3.091,-3.091 -17.181,-17.182 z m 9.582,24.774 3.162,-3.162 -17.182,-17.181 -3.162,3.161 17.182,17.182 z m 9.906,2.313 c -2.833,2.839 -7.438,2.839 -10.27,0 L -28.11,-10.27 c -0.148,-0.147 -0.239,-0.337 -0.267,-0.54 l -1.395,-10.333 c -0.042,-0.294 0.063,-0.588 0.267,-0.792 0.175,-0.175 0.42,-0.28 0.666,-0.28 0.042,0 0.084,0 0.126,0.007 l 6.225,0.841 c 0.519,0.07 0.883,0.547 0.813,1.066 -0.07,0.518 -0.547,0.883 -1.066,0.813 l -4.991,-0.673 0.975,7.206 7.585,-7.585 c 0.175,-0.175 0.42,-0.28 0.665,-0.28 0.246,0 0.491,0.098 0.667,0.28 L 0.989,-1.718 c 1.373,1.374 2.131,3.197 2.131,5.139 0,1.942 -0.758,3.764 -2.131,5.131" />
    </g>
    <g
       transform="matrix(1.1801725,0,0,-1.1801725,35.737159,1025.5544)"
       id="g1394">
      <path
         inkscape:connector-curvature="0"
         id="path1396"
         style="fill:none;stroke:#071428;stroke-width:1;stroke-linecap:butt;stroke-linejoin:miter;stroke-miterlimit:10;stroke-dasharray:none;stroke-opacity:1"
         d="m 0,0 -7.564,7.564 c 0.961,0.792 2.159,1.227 3.421,1.227 1.437,0 2.783,-0.561 3.8,-1.571 C 0.673,6.211 1.227,4.858 1.227,3.421 1.227,2.152 0.792,0.96 0,0 Z m -18.499,-18.535 -3.092,3.092 17.182,17.181 3.091,-3.091 -17.181,-17.182 z m 9.582,24.774 3.162,-3.162 -17.182,-17.181 -3.162,3.161 17.182,17.182 z m 9.906,2.313 c -2.833,2.839 -7.438,2.839 -10.27,0 L -28.11,-10.27 c -0.148,-0.147 -0.239,-0.337 -0.267,-0.54 l -1.395,-10.333 c -0.042,-0.294 0.063,-0.588 0.267,-0.792 0.175,-0.175 0.42,-0.28 0.666,-0.28 0.042,0 0.084,0 0.126,0.007 l 6.225,0.841 c 0.519,0.07 0.883,0.547 0.813,1.066 -0.07,0.518 -0.547,0.883 -1.066,0.813 l -4.991,-0.673 0.975,7.206 7.585,-7.585 c 0.175,-0.175 0.42,-0.28 0.665,-0.28 0.246,0 0.491,0.098 0.667,0.28 L 0.989,-1.718 c 1.373,1.374 2.131,3.197 2.131,5.139 0,1.942 -0.758,3.764 -2.131,5.131 z" />
    </g>
  </g>
</svg>
