<?xml version="1.0" encoding="UTF-8" standalone="no"?>
<!-- Created with Inkscape (http://www.inkscape.org/) -->

<svg
   xmlns:dc="http://purl.org/dc/elements/1.1/"
   xmlns:cc="http://creativecommons.org/ns#"
   xmlns:rdf="http://www.w3.org/1999/02/22-rdf-syntax-ns#"
   xmlns:svg="http://www.w3.org/2000/svg"
   xmlns="http://www.w3.org/2000/svg"
   xmlns:sodipodi="http://sodipodi.sourceforge.net/DTD/sodipodi-0.dtd"
   xmlns:inkscape="http://www.inkscape.org/namespaces/inkscape"
   width="40.056999"
   height="40"
   viewBox="0 0 40.057 40.000001"
   id="svg10000"
   version="1.1"
   inkscape:version="0.91 r13725"
   sodipodi:docname="contact-phone.svg">
  <defs
     id="defs10002">
    <clipPath
       clipPathUnits="userSpaceOnUse"
       id="clipPath1306">
      <path
         d="m 0,7263 2560,0 L 2560,0 0,0 0,7263 Z"
         id="path1308"
         inkscape:connector-curvature="0" />
    </clipPath>
    <clipPath
       clipPathUnits="userSpaceOnUse"
       id="clipPath1318">
      <path
         d="m 950.637,1106.79 107.143,0 0,-29.49 -107.143,0 0,29.49 z"
         id="path1320"
         inkscape:connector-curvature="0" />
    </clipPath>
    <clipPath
       clipPathUnits="userSpaceOnUse"
       id="clipPath1346">
      <path
         d="m 950.637,1031.63 90.143,0 0,-29.49 -90.143,0 0,29.49 z"
         id="path1348"
         inkscape:connector-curvature="0" />
    </clipPath>
    <clipPath
       clipPathUnits="userSpaceOnUse"
       id="clipPath1370">
      <path
         d="m 950.637,958.005 90.143,0 0,-29.484 -90.143,0 0,29.484 z"
         id="path1372"
         inkscape:connector-curvature="0" />
    </clipPath>
  </defs>
  <sodipodi:namedview
     id="base"
     pagecolor="#ffffff"
     bordercolor="#666666"
     borderopacity="1.0"
     inkscape:pageopacity="0.0"
     inkscape:pageshadow="2"
     inkscape:zoom="0.35"
     inkscape:cx="-453.03742"
     inkscape:cy="653.88662"
     inkscape:document-units="px"
     inkscape:current-layer="layer1"
     showgrid="false"
     units="px"
     inkscape:window-width="1329"
     inkscape:window-height="744"
     inkscape:window-x="37"
     inkscape:window-y="24"
     inkscape:window-maximized="1" />
  <metadata
     id="metadata10005">
    <rdf:RDF>
      <cc:Work
         rdf:about="">
        <dc:format>image/svg+xml</dc:format>
        <dc:type
           rdf:resource="http://purl.org/dc/dcmitype/StillImage" />
        <dc:title></dc:title>
      </cc:Work>
    </rdf:RDF>
  </metadata>
  <g
     inkscape:label="Layer 1"
     inkscape:groupmode="layer"
     id="layer1"
     transform="translate(0,-1012.3622)">
    <g
       transform="matrix(1.1969239,0,0,-1.1969239,7.9751039,1020.463)"
       id="g1382">
      <path
         inkscape:connector-curvature="0"
         id="path1384"
         style="fill:#ffffff;fill-opacity:1;fill-rule:nonzero;stroke:none"
         d="m 0,0 c -2.528,-2.55 -4.088,-6.064 -4.088,-9.94 0,-1.535 0.243,-3.011 0.693,-4.386 0.466,-1.432 1.157,-2.764 2.025,-3.95 0.168,-0.227 0.246,-0.495 0.246,-0.755 l 0.004,0 0,-5.051 11.191,0 c 3.911,0 7.452,1.586 10.015,4.139 l -0.003,0.003 c 2.562,2.558 4.146,6.096 4.146,10 0,3.906 -1.58,7.441 -4.14,9.997 L 20.086,0.059 20.083,0.057 C 17.52,2.615 13.98,4.199 10.071,4.199 6.163,4.199 2.621,2.615 0.06,0.057 L 0,0 Z m 18.416,-14.827 c 0.427,0 0.771,0.344 0.771,0.772 0,0.425 -0.344,0.771 -0.771,0.771 l -16.689,0 c -0.426,0 -0.771,-0.346 -0.771,-0.771 0,-0.428 0.345,-0.772 0.771,-0.772 l 16.689,0 m 0,4.115 c 0.427,0 0.771,0.344 0.771,0.772 0,0.424 -0.344,0.768 -0.771,0.768 l -16.689,0 c -0.426,0 -0.771,-0.344 -0.771,-0.768 0,-0.428 0.345,-0.772 0.771,-0.772 l 16.689,0 m 0,4.112 c 0.427,0 0.771,0.347 0.771,0.772 0,0.427 -0.344,0.771 -0.771,0.771 l -16.689,0 c -0.426,0 -0.771,-0.344 -0.771,-0.771 0,-0.425 0.345,-0.772 0.771,-0.772 l 16.689,0 M 10.071,6.768 c 4.619,0 8.804,-1.871 11.832,-4.895 l -0.002,0 c 3.03,-3.029 4.903,-7.206 4.903,-11.813 0,-4.613 -1.873,-8.796 -4.901,-11.817 l -0.002,0 -0.003,0 c -3.027,-3.024 -7.211,-4.894 -11.827,-4.894 l -12.446,0 -0.032,0 c -0.709,0 -1.286,0.573 -1.286,1.283 l 0,5.931 c -0.912,1.313 -1.642,2.769 -2.149,4.318 -0.531,1.632 -0.821,3.376 -0.821,5.179 0,4.572 1.846,8.719 4.835,11.74 l 0.066,0.073 c 3.028,3.024 7.214,4.895 11.833,4.895" />
    </g>
  </g>
</svg>
