<?xml version="1.0" encoding="UTF-8" standalone="no"?>
<!-- Created with Inkscape (http://www.inkscape.org/) -->

<svg
   xmlns:dc="http://purl.org/dc/elements/1.1/"
   xmlns:cc="http://creativecommons.org/ns#"
   xmlns:rdf="http://www.w3.org/1999/02/22-rdf-syntax-ns#"
   xmlns:svg="http://www.w3.org/2000/svg"
   xmlns="http://www.w3.org/2000/svg"
   xmlns:sodipodi="http://sodipodi.sourceforge.net/DTD/sodipodi-0.dtd"
   xmlns:inkscape="http://www.inkscape.org/namespaces/inkscape"
   width="40"
   height="40"
   viewBox="0 0 40.000002 40.000001"
   id="svg7270"
   version="1.1"
   inkscape:version="0.91 r13725"
   sodipodi:docname="birth.svg">
  <defs
     id="defs7272" />
  <sodipodi:namedview
     id="base"
     pagecolor="#ffffff"
     bordercolor="#666666"
     borderopacity="1.0"
     inkscape:pageopacity="0.0"
     inkscape:pageshadow="2"
     inkscape:zoom="7.9195959"
     inkscape:cx="-4.3347603"
     inkscape:cy="22.813854"
     inkscape:document-units="px"
     inkscape:current-layer="layer1"
     showgrid="false"
     units="px"
     inkscape:window-width="1329"
     inkscape:window-height="744"
     inkscape:window-x="37"
     inkscape:window-y="24"
     inkscape:window-maximized="1" />
  <metadata
     id="metadata7275">
    <rdf:RDF>
      <cc:Work
         rdf:about="">
        <dc:format>image/svg+xml</dc:format>
        <dc:type
           rdf:resource="http://purl.org/dc/dcmitype/StillImage" />
        <dc:title />
      </cc:Work>
    </rdf:RDF>
  </metadata>
  <g
     inkscape:label="Layer 1"
     inkscape:groupmode="layer"
     id="layer1"
     transform="translate(0,-1012.3622)">
    <path
       d="m 16.936785,1052.3622 0,-16.7341 5.593496,0 0,16.7341 2.606954,0 0,-17.5113 c 0,-1.0905 -0.885077,-1.9755 -1.976514,-1.9755 l -6.322383,0 c -1.091438,0 -1.976515,0.885 -1.976515,1.9755 l 0,17.5113 2.074962,0 z"
       style="fill:#ffffff;fill-opacity:1;fill-rule:nonzero;stroke:none"
       id="path1358"
       inkscape:connector-curvature="0" />
    <path
       d="m 20.000002,1014.972 c 2.668484,3.6018 4.961164,7.4781 4.961164,9.0221 0,2.7367 -2.225471,4.9612 -4.961164,4.9612 -2.735691,0 -4.961163,-2.2245 -4.961163,-4.9612 0,-1.5402 2.292681,-5.4184 4.961163,-9.0221 m 0,15.9276 c 4.020238,0 7.292655,-3.2724 7.292655,-7.2927 0,-3.3926 -4.424437,-8.9246 -5.779978,-10.5395 -0.374856,-0.4477 -0.928621,-0.7052 -1.512677,-0.7052 -0.585002,0 -1.138767,0.2584 -1.513623,0.7052 -1.35554,1.6149 -5.779032,7.1469 -5.779032,10.5395 0,4.0203 3.270525,7.2927 7.292655,7.2927"
       style="fill:#ffffff;fill-opacity:1;fill-rule:nonzero;stroke:none"
       id="path1362"
       inkscape:connector-curvature="0" />
  </g>
</svg>
