<?xml version="1.0" encoding="UTF-8" standalone="no"?>
<!-- Created with Inkscape (http://www.inkscape.org/) -->

<svg
   xmlns:dc="http://purl.org/dc/elements/1.1/"
   xmlns:cc="http://creativecommons.org/ns#"
   xmlns:rdf="http://www.w3.org/1999/02/22-rdf-syntax-ns#"
   xmlns:svg="http://www.w3.org/2000/svg"
   xmlns="http://www.w3.org/2000/svg"
   xmlns:sodipodi="http://sodipodi.sourceforge.net/DTD/sodipodi-0.dtd"
   xmlns:inkscape="http://www.inkscape.org/namespaces/inkscape"
   width="25.584"
   height="40"
   viewBox="0 0 25.584 40.000001"
   id="svg6388"
   version="1.1"
   inkscape:version="0.91 r13725"
   sodipodi:docname="phone-icon.svg">
  <defs
     id="defs6390" />
  <sodipodi:namedview
     id="base"
     pagecolor="#ffffff"
     bordercolor="#666666"
     borderopacity="1.0"
     inkscape:pageopacity="0.0"
     inkscape:pageshadow="2"
     inkscape:zoom="7.9195959"
     inkscape:cx="9.2119788"
     inkscape:cy="17.569086"
     inkscape:document-units="px"
     inkscape:current-layer="layer1"
     showgrid="false"
     units="px"
     inkscape:window-width="1323"
     inkscape:window-height="744"
     inkscape:window-x="37"
     inkscape:window-y="24"
     inkscape:window-maximized="1" />
  <metadata
     id="metadata6393">
    <rdf:RDF>
      <cc:Work
         rdf:about="">
        <dc:format>image/svg+xml</dc:format>
        <dc:type
           rdf:resource="http://purl.org/dc/dcmitype/StillImage" />
        <dc:title></dc:title>
      </cc:Work>
    </rdf:RDF>
  </metadata>
  <g
     inkscape:label="Layer 1"
     inkscape:groupmode="layer"
     id="layer1"
     transform="translate(0,-1012.3622)">
    <g
       id="g6960"
       transform="matrix(0.43734268,0,0,0.43734268,-98.417996,867.01354)">
      <g
         transform="matrix(1.25,0,0,-1.25,263.43884,419.60774)"
         id="g988">
        <path
           inkscape:connector-curvature="0"
           id="path990"
           style="fill:#1c3664;fill-opacity:1;fill-rule:nonzero;stroke:none"
           d="m 0,0 -14.637,0 c -7.017,0 -12.726,4.015 -12.726,8.951 l 0,5.409 40.08,0 0,-5.409 C 12.717,4.015 7.012,0 0,0 m -10.02,66.449 5.386,0 c 2.915,0 15.975,-1.992 17.227,-7.545 l -39.832,0 c 1.252,5.553 14.305,7.545 17.219,7.545 m 22.737,-48.73 -40.08,0 0,37.826 40.08,0 0,-37.826 z m -17.351,52.09 -5.386,0 c -3.217,0 -20.702,-2.17 -20.702,-11.766 l 0,-49.092 c 0,-6.788 7.216,-12.31 16.085,-12.31 l 14.637,0 c 8.865,0 16.077,5.522 16.077,12.31 l 0,49.092 c 0,9.596 -17.493,11.766 -20.711,11.766" />
      </g>
      <g
         transform="matrix(1.25,0,0,-1.25,262.65234,408.09234)"
         id="g992">
        <path
           inkscape:connector-curvature="0"
           id="path994"
           style="fill:#1c3664;fill-opacity:1;fill-rule:nonzero;stroke:none"
           d="m 0,0 -13.387,0 c -0.928,0 -1.68,-0.752 -1.68,-1.68 0,-0.927 0.752,-1.679 1.68,-1.679 l 13.387,0 c 0.928,0 1.68,0.752 1.68,1.679 C 1.68,-0.752 0.928,0 0,0" />
      </g>
      <path
         inkscape:connector-curvature="0"
         id="path996"
         style="fill:#1c3664;fill-opacity:1;fill-rule:nonzero;stroke:none"
         d="m 241.26209,357.75149 -6.395,0 0,6.395 6.395,0 0,-6.395 z" />
      <path
         inkscape:connector-curvature="0"
         id="path998"
         style="fill:#1c3664;fill-opacity:1;fill-rule:nonzero;stroke:none"
         d="m 257.61959,357.75149 -6.395,0 0,6.395 6.395,0 0,-6.395 z" />
      <path
         inkscape:connector-curvature="0"
         id="path1000"
         style="fill:#1c3664;fill-opacity:1;fill-rule:nonzero;stroke:none"
         d="m 273.97709,357.75149 -6.395,0 0,6.395 6.395,0 0,-6.395 z" />
      <path
         inkscape:connector-curvature="0"
         id="path1002"
         style="fill:#1c3664;fill-opacity:1;fill-rule:nonzero;stroke:none"
         d="m 241.26209,370.68774 -6.395,0 0,6.395 6.395,0 0,-6.395 z" />
      <path
         inkscape:connector-curvature="0"
         id="path1004"
         style="fill:#1c3664;fill-opacity:1;fill-rule:nonzero;stroke:none"
         d="m 257.61959,370.68774 -6.395,0 0,6.395 6.395,0 0,-6.395 z" />
      <path
         inkscape:connector-curvature="0"
         id="path1006"
         style="fill:#1c3664;fill-opacity:1;fill-rule:nonzero;stroke:none"
         d="m 241.26209,383.62524 -6.395,0 0,6.395 6.395,0 0,-6.395 z" />
    </g>
  </g>
</svg>
