<svg xmlns="http://www.w3.org/2000/svg" viewBox="0 0 51.89 47.43"><defs><style>.cls-1{fill:#071428;}</style></defs><title>alert</title><g id="Layer_2" data-name="Layer 2"><g id="Layer_1-2" data-name="Layer 1"><path class="cls-1" d="M25.94,33.33a2.67,2.67,0,1,0,0,5.33,2.67,2.67,0,0,0,0-5.33Zm0,0"/><path class="cls-1" d="M50.63,42.78a9.1,9.1,0,0,0,0-9.22L33.94,4.64a9.2,9.2,0,0,0-16,0l-16.72,29a9.24,9.24,0,0,0,8,13.84H42.6a9.19,9.19,0,0,0,8-4.65ZM47,40.69a5,5,0,0,1-4.41,2.55H9.23a5,5,0,0,1-4.35-2.5,5,5,0,0,1,0-5.09L21.59,6.71a5,5,0,0,1,8.72,0L47,35.67a5,5,0,0,1,0,5Zm0,0"/><path class="cls-1" d="M25.28,14.61a2.9,2.9,0,0,0-2.06,2.91c.06.84.12,1.7.18,2.54.18,3.21.36,6.36.54,9.57a2,2,0,0,0,2,1.88,2,2,0,0,0,2-1.94c0-.66,0-1.27.06-1.94.12-2.06.25-4.12.36-6.18.06-1.33.18-2.67.25-4a3.29,3.29,0,0,0-.25-1.33,2.67,2.67,0,0,0-3.08-1.5Zm0,0"/></g></g></svg>