<svg xmlns="http://www.w3.org/2000/svg" viewBox="0 0 88.3 88.36"><defs><style>.cls-1{fill:#fff;}.cls-2{fill:#2cb4bf;}.cls-3{fill:#e43345;}.cls-4{fill:#1c3664;}</style></defs><title>gameclub-icon</title><g id="Layer_2" data-name="Layer 2"><g id="Layer_1-2" data-name="Layer 1"><path class="cls-1" d="M86.25,48.35c2.38-2.38,2.87-6.23.49-8.6L76.33,28.84V16.24c0-1.91-2.28-3.19-4.19-3.19H59.54L48.48,1.85A6.15,6.15,0,0,0,44.18,0a6.05,6.05,0,0,0-4.3,1.75L28.6,13a9.82,9.82,0,0,0-18.4,4.73c0,3.32,2.12,6.26,4.12,8v1.32L1.76,39.74a6.08,6.08,0,0,0,0,8.6L7,53.81l5.31,5.56V71.77c0,1.91,2.1,4.28,4,4.28H28.74L39.88,86.78a5.9,5.9,0,0,0,4.3,1.58,6.19,6.19,0,0,0,4.3-1.88L59.75,75.15a9.75,9.75,0,0,0,8.54,5,9.58,9.58,0,0,0,9.51-9.78,9,9,0,0,0-4.47-8V61Z"/><path class="cls-2" d="M40.9,9.7l-9.2,9.2A8,8,0,1,0,20.19,29.34v1.08L9.85,40.76a5,5,0,0,0,0,7l4.47,4.47,4.54,4.54V66.92a2.83,2.83,0,0,0,2.83,2.83H31.81l9.1,9.1a5,5,0,0,0,3.51,1.45v-72A5,5,0,0,0,40.9,9.7Z"/><path class="cls-3" d="M35.08,53.06h0a3.76,3.76,0,0,1-6.62-3.19s1.69-10.5,1.7-10.59a.34.34,0,0,1,.05-.15,6.47,6.47,0,0,1,6.4-5.53h7.8V16l-28,28,28,28v-25H38.9C38.19,47.78,35.08,53.06,35.08,53.06Z"/><path class="cls-3" d="M79,47.78a5,5,0,0,0,0-7l-8.9-8.9V21.56a2.83,2.83,0,0,0-2.83-2.83H57l-9-9a5,5,0,0,0-3.51-1.45v72a5,5,0,0,0,3.51-1.45l9.2-9.2A8,8,0,1,0,68.65,59.2V58.12Z"/><polygon class="cls-4" points="20.25 50.93 20.25 47.91 16.39 44.04 20.25 40.18 20.25 37.16 13.36 44.04 20.25 50.93"/><polygon class="cls-4" points="37.53 68.21 44.42 75.1 44.42 72.07 40.56 68.21 37.53 68.21"/><circle class="cls-4" cx="64.11" cy="65.53" r="2.39"/><path class="cls-4" d="M36.58,46A5.57,5.57,0,1,0,31,40.47,5.58,5.58,0,0,0,36.58,46Zm0-10.46a4.89,4.89,0,1,1-4.89,4.89A4.89,4.89,0,0,1,36.58,35.58Z"/><path class="cls-4" d="M34.08,41.83h.8a.2.2,0,0,1,.2.2v.63a1.14,1.14,0,0,0,1.14,1.14h.54a1.14,1.14,0,0,0,1.14-1.14V42a.2.2,0,0,1,.2-.2h.63a1.14,1.14,0,0,0,1.14-1.14v-.54A1.14,1.14,0,0,0,38.73,39H38.1a.2.2,0,0,1-.2-.2V38a1.14,1.14,0,0,0-1.14-1.14h-.54A1.14,1.14,0,0,0,35.08,38v.8a.2.2,0,0,1-.2.2h-.8a1.14,1.14,0,0,0-1.14,1.14v.54A1.14,1.14,0,0,0,34.08,41.83Zm-.67-1.68a.67.67,0,0,1,.67-.67h1.47V38a.67.67,0,0,1,.67-.67h.54a.67.67,0,0,1,.67.67v1.47h1.3a.67.67,0,0,1,.67.67v.54a.67.67,0,0,1-.67.67h-1.3v1.3a.67.67,0,0,1-.67.67h-.54a.67.67,0,0,1-.67-.67v-1.3H34.08a.67.67,0,0,1-.67-.67Z"/><circle class="cls-4" cx="32.01" cy="51.28" r="2.55"/><path class="cls-4" d="M67,38.59h0V21.48H49.87L44.42,16h0v5.46H38.95L44.42,16V13l-8.5,8.5H28.26a3.7,3.7,0,0,1,0,2.14H44.42V32.2h-7.8a7.86,7.86,0,0,0-5.91,2.67L28.14,32.3l7.06-7.06h-3l-5.55,5.55L21.86,26v9.54h0v3h0V49.51h0v3h0V66.6H44.42v5.46l5.46-5.46h10.7a3.7,3.7,0,0,1,0-2.14H52l8-8h0L61.54,58h0L67,63.42V49.51h0L72.43,44ZM36.81,64.46l-.72-.72h-3l.72.72H24V54.68L29.32,60H27.5v2.14H41.26V60H32.34L24,51.65V36.44l1.1-1.1L24,34.23v-3l1.11,1.11h0l1.51,1.51h0l2.88,2.88a7.84,7.84,0,0,0-.65,2c0,.12-1.32,8.07-1.78,10.88a5.18,5.18,0,0,0,8.44,5,8,8,0,0,0,.75-.82c.21-.26.86-1.33,1.61-2.56s1.35-2.22,1.7-2.74h4.84V64.46Zm8.29-30.85h7.13a6.47,6.47,0,0,1,6.4,5.55.33.33,0,0,1,0,.13c0,.09,1.7,10.59,1.7,10.59a3.77,3.77,0,0,1-6.62,3.19h0s-3.11-5.28-3.82-6h-11c-.71.68-3.82,6-3.82,6h0a3.76,3.76,0,0,1-6.62-3.19s1.73-10.7,1.76-10.74a6.47,6.47,0,0,1,6.4-5.53h8.48Zm19.74,18v6.6l-1.78-1.78L61.54,55h0l3.3-3.3Zm0-18.25v3h0L52,23.63H64.84Z"/><circle class="cls-4" cx="56.73" cy="51.28" r="2.55"/><path class="cls-4" d="M57.74,40.47A5.57,5.57,0,1,0,52.17,46,5.58,5.58,0,0,0,57.74,40.47Zm-5.57,4.89a4.89,4.89,0,1,1,4.89-4.89A4.89,4.89,0,0,1,52.17,45.35Z"/><path class="cls-4" d="M52.11,39.77a1.56,1.56,0,1,0-1.56-1.56A1.56,1.56,0,0,0,52.11,39.77Zm0-2.77a1.21,1.21,0,1,1-1.21,1.21A1.21,1.21,0,0,1,52.11,37Z"/><path class="cls-4" d="M51.24,40.19a1.56,1.56,0,1,0-1.56,1.56A1.56,1.56,0,0,0,51.24,40.19Zm-1.56,1.21a1.21,1.21,0,1,1,1.21-1.21A1.21,1.21,0,0,1,49.68,41.41Z"/><path class="cls-4" d="M54.65,39.18a1.56,1.56,0,1,0,1.56,1.56A1.56,1.56,0,0,0,54.65,39.18Zm0,2.77a1.21,1.21,0,1,1,1.21-1.21A1.21,1.21,0,0,1,54.65,42Z"/><path class="cls-4" d="M52.22,41.16a1.56,1.56,0,1,0,1.56,1.56A1.56,1.56,0,0,0,52.22,41.16Zm0,2.77a1.21,1.21,0,1,1,1.21-1.21A1.21,1.21,0,0,1,52.22,43.93Z"/><circle class="cls-4" cx="24.73" cy="22.56" r="2.39"/><polygon class="cls-2" points="60.95 28.11 60.95 25.97 57.4 25.97 56.65 25.22 53.62 25.22 54.37 25.97 47.19 25.97 47.19 28.11 56.51 28.11 64.83 36.44 64.83 33.41 59.54 28.11 60.95 28.11"/><polygon class="cls-2" points="44.42 72.07 44.42 75.1 51.31 68.21 48.28 68.21 44.42 72.07"/><polygon class="cls-2" points="63.05 56.47 64.83 54.68 64.83 51.65 61.54 54.95 63.05 56.47"/><polygon class="cls-2" points="68.58 37.16 68.58 40.18 72.44 44.04 68.58 47.91 68.58 50.93 75.47 44.04 68.58 37.16"/><polygon class="cls-2" points="52.91 21.48 44.42 12.99 44.42 16.02 49.88 21.48 52.91 21.48"/><polygon class="cls-2" points="52.03 64.46 55.05 64.46 60.02 59.49 58.51 57.98 52.03 64.46"/><path class="cls-2" d="M61.76,49.61C61.2,46.11,60,38.88,60,38.78a7.88,7.88,0,0,0-7.78-6.58H44.42v1.41h7.81a6.47,6.47,0,0,1,6.4,5.55s1.74,10.72,1.74,10.72a3.77,3.77,0,0,1-6.62,3.19h0s-3.11-5.28-3.82-6H44.42v1.41h4.84c.43.63,1.38,2.17,2.14,3.43.64,1,1,1.7,1.16,1.86h0a6.27,6.27,0,0,0,.76.82,5.18,5.18,0,0,0,8.45-5Z"/></g></g></svg>