<svg width="511.99999" height="512.00001" xmlns="http://www.w3.org/2000/svg">
 <defs>
  <clipPath id="clipPath366" clipPathUnits="userSpaceOnUse">
   <path id="path368" d="m0,1080l2529,0l0,-1080l-2529,0l0,1080z"/>
  </clipPath>
  <clipPath id="clipPath282" clipPathUnits="userSpaceOnUse">
   <path id="path284" d="m0,1080l2529,0l0,-1080l-2529,0l0,1080z"/>
  </clipPath>
  <clipPath id="clipPath242" clipPathUnits="userSpaceOnUse">
   <path id="path244" d="m0,1080l2529,0l0,-1080l-2529,0l0,1080z"/>
  </clipPath>
  <clipPath id="clipPath210" clipPathUnits="userSpaceOnUse">
   <path id="path212" d="m0,1080l2529,0l0,-1080l-2529,0l0,1080z"/>
  </clipPath>
  <clipPath id="clipPath186" clipPathUnits="userSpaceOnUse">
   <path id="path188" d="m0,1080l2529,0l0,-1080l-2529,0l0,1080z"/>
  </clipPath>
  <clipPath id="clipPath94" clipPathUnits="userSpaceOnUse">
   <path id="path96" d="m0,1080l2529,0l0,-1080l-2529,0l0,1080z"/>
  </clipPath>
  <clipPath id="clipPath66" clipPathUnits="userSpaceOnUse">
   <path id="path68" d="m0,1080l2529,0l0,-1080l-2529,0l0,1080z"/>
  </clipPath>
 </defs>
 <metadata id="metadata4945">image/svg+xml</metadata>
 <g>
  <title>background</title>
  <rect fill="none" id="canvas_background" height="402" width="582" y="-1" x="-1"/>
 </g>
 <g>
  <title>Layer 1</title>
  <g stroke="null" id="layer1">
   <g stroke="null" transform="matrix(3.014744438247878,0,0,2.8829589921027927,-897.1324789523508,-1654.378718512285) " id="g6498">
    <g stroke="null" id="g74" transform="matrix(1.25,0,0,-1.25,419.97485,831.29635) ">
     <path fill="#061529" fill-rule="nonzero" d="m15.698527,90.174179c-0.796,-0.796 -1.854,-1.234 -2.98,-1.234c-0.259,0 -0.516,0.027 -0.767,0.072l3.196,7.67l0.551,-0.55c0.795,-0.796 1.233,-1.855 1.233,-2.98c0,-1.125 -0.438,-2.183 -1.233,-2.978m-10.1,4.143l3.504,8.411l2.553,-2.554l-3.505,-8.41l-2.552,2.553zm8.665,9.206l1.446,-1.446l-3.504,-8.411l-3.9,3.901l5.958,5.956zm-51.116,32.356l-0.803,10.376l44.095,-44.096l-4.787,-4.785l-38.505,38.505zm6.173,-49.066c-10.607,4.021 -19.641,11.042 -26.165,20.346c-6.683,9.532 -10.215,20.723 -10.215,32.364l0,33.211c24.152,4.528 48.609,4.528 72.761,0l0,-33.211c0,-4.285 -0.486,-8.538 -1.445,-12.688l-2.889,2.888c0.603,3.206 0.909,6.497 0.909,9.8l0,27.105c0,1.085 -0.764,2.02 -1.828,2.237c-20.654,4.21 -41.601,4.21 -62.255,0c-1.064,-0.217 -1.828,-1.152 -1.828,-2.237l0,-27.105c0,-10.932 3.318,-21.444 9.594,-30.398c5.664,-8.074 13.43,-14.386 22.462,-18.255c0.288,-0.123 0.593,-0.185 0.9,-0.185c0.306,0 0.612,0.062 0.899,0.185c7.081,3.032 13.245,7.442 18.359,13.118l2.424,-2.425c-16.055,-2.395 -23.499,-7.464 -31.783,-10.607m28.389,52.71c0,-1.943 -0.119,-3.879 -0.347,-5.794l-18.78,18.779c-0.385,0.386 -0.896,0.62 -1.439,0.662l-17.376,1.345c-0.667,0.051 -1.319,-0.19 -1.791,-0.662c-0.471,-0.472 -0.713,-1.127 -0.662,-1.791l1.344,-17.376c0.042,-0.544 0.277,-1.054 0.662,-1.44l26.026,-26.024c-4.485,-5.024 -9.862,-8.974 -16.025,-11.759c-7.867,3.562 -14.636,9.176 -19.622,16.284c-5.735,8.182 -8.766,17.786 -8.766,27.776l0,25.228c18.846,3.605 37.93,3.605 56.776,0l0,-25.228zm12.863,-33.231l-0.904,-0.903l-44.095,44.096l10.376,-0.803l38.506,-38.507l-3.883,-3.883zm18.455,-11.074l-11.535,11.535l5.591,5.59c0.891,0.892 0.891,2.339 0,3.231c-0.892,0.891 -2.338,0.891 -3.231,0l-2.167,-2.169l-9.676,9.675c1.499,5.345 2.26,10.869 2.26,16.443l0,35.098c0,1.09 -0.772,2.029 -1.843,2.24c-25.948,5.116 -52.263,5.116 -78.211,0c-1.071,-0.211 -1.843,-1.15 -1.843,-2.24l0,-35.098c0,-12.585 3.818,-24.682 11.043,-34.986c7.224,-10.303 17.297,-18.018 29.128,-22.307c0.251,-0.09 0.514,-0.136 0.778,-0.136c0.263,0 0.526,0.046 0.778,0.136c9.224,3.346 17.521,8.889 24.137,16.1l4.187,-4.187l-2.167,-2.167c-0.893,-0.892 -0.893,-2.339 0,-3.231c0.445,-0.446 1.03,-0.669 1.614,-0.669c0.584,0 1.169,0.223 1.615,0.669l5.591,5.591l11.534,-11.535c1.659,-1.658 3.864,-2.572 6.208,-2.572c2.347,0 4.551,0.914 6.209,2.572c1.658,1.658 2.571,3.863 2.571,6.208c0,2.345 -0.913,4.551 -2.571,6.209" id="path76"/>
    </g>
    <g stroke="null" id="g78" transform="matrix(1.25,0,0,-1.25,328.69285,741.88273) ">
     <path fill="#061529" fill-rule="nonzero" d="m15.698527,90.174179c0,-1.129 -0.915,-2.044 -2.044,-2.044c-1.128,0 -2.043,0.915 -2.043,2.044c0,1.129 0.915,2.044 2.043,2.044c1.129,0 2.044,-0.915 2.044,-2.044" id="path80"/>
    </g>
    <g stroke="null" id="g82" transform="matrix(1.25,0,0,-1.25,322.76272,738.9176) ">
     <path fill="#061529" fill-rule="nonzero" d="m15.698527,90.174179c0,-1.129 -0.915,-2.044 -2.044,-2.044c-1.128,0 -2.043,0.915 -2.043,2.044c0,1.129 0.915,2.044 2.043,2.044c1.129,0 2.044,-0.915 2.044,-2.044" id="path84"/>
    </g>
   </g>
  </g>
 </g>
</svg>