<?xml version="1.0" encoding="UTF-8" standalone="no"?>
<!-- Created with Inkscape (http://www.inkscape.org/) -->

<svg
   xmlns:dc="http://purl.org/dc/elements/1.1/"
   xmlns:cc="http://creativecommons.org/ns#"
   xmlns:rdf="http://www.w3.org/1999/02/22-rdf-syntax-ns#"
   xmlns:svg="http://www.w3.org/2000/svg"
   xmlns="http://www.w3.org/2000/svg"
   xmlns:sodipodi="http://sodipodi.sourceforge.net/DTD/sodipodi-0.dtd"
   xmlns:inkscape="http://www.inkscape.org/namespaces/inkscape"
   width="512"
   height="512"
   viewBox="0 0 511.99999 512.00001"
   id="svg4940"
   version="1.1"
   inkscape:version="0.91 r13725"
   sodipodi:docname="action-black.svg">
  <defs
     id="defs4942">
    <clipPath
       clipPathUnits="userSpaceOnUse"
       id="clipPath366">
      <path
         d="m 0,1080 2529,0 L 2529,0 0,0 0,1080 Z"
         id="path368"
         inkscape:connector-curvature="0" />
    </clipPath>
    <clipPath
       clipPathUnits="userSpaceOnUse"
       id="clipPath282">
      <path
         d="m 0,1080 2529,0 L 2529,0 0,0 0,1080 Z"
         id="path284"
         inkscape:connector-curvature="0" />
    </clipPath>
    <clipPath
       clipPathUnits="userSpaceOnUse"
       id="clipPath242">
      <path
         d="m 0,1080 2529,0 L 2529,0 0,0 0,1080 Z"
         id="path244"
         inkscape:connector-curvature="0" />
    </clipPath>
    <clipPath
       clipPathUnits="userSpaceOnUse"
       id="clipPath210">
      <path
         d="m 0,1080 2529,0 L 2529,0 0,0 0,1080 Z"
         id="path212"
         inkscape:connector-curvature="0" />
    </clipPath>
    <clipPath
       clipPathUnits="userSpaceOnUse"
       id="clipPath186">
      <path
         d="m 0,1080 2529,0 L 2529,0 0,0 0,1080 Z"
         id="path188"
         inkscape:connector-curvature="0" />
    </clipPath>
    <clipPath
       clipPathUnits="userSpaceOnUse"
       id="clipPath94">
      <path
         d="m 0,1080 2529,0 L 2529,0 0,0 0,1080 Z"
         id="path96"
         inkscape:connector-curvature="0" />
    </clipPath>
    <clipPath
       clipPathUnits="userSpaceOnUse"
       id="clipPath66">
      <path
         d="m 0,1080 2529,0 L 2529,0 0,0 0,1080 Z"
         id="path68"
         inkscape:connector-curvature="0" />
    </clipPath>
  </defs>
  <sodipodi:namedview
     id="base"
     pagecolor="#ffffff"
     bordercolor="#666666"
     borderopacity="1.0"
     inkscape:pageopacity="0.0"
     inkscape:pageshadow="2"
     inkscape:zoom="0.35355339"
     inkscape:cx="-332.71581"
     inkscape:cy="149.06111"
     inkscape:document-units="px"
     inkscape:current-layer="layer1"
     showgrid="false"
     inkscape:window-width="1360"
     inkscape:window-height="744"
     inkscape:window-x="1360"
     inkscape:window-y="24"
     inkscape:window-maximized="1"
     units="px" />
  <metadata
     id="metadata4945">
    <rdf:RDF>
      <cc:Work
         rdf:about="">
        <dc:format>image/svg+xml</dc:format>
        <dc:type
           rdf:resource="http://purl.org/dc/dcmitype/StillImage" />
        <dc:title></dc:title>
      </cc:Work>
    </rdf:RDF>
  </metadata>
  <g
     inkscape:label="Layer 1"
     inkscape:groupmode="layer"
     id="layer1"
     transform="translate(0,-540.3622)">
    <g
       id="g6498"
       transform="matrix(3.9679926,0,0,3.9679926,-1183.225,-2281.8308)">
      <g
         transform="matrix(1.25,0,0,-1.25,419.97485,831.29635)"
         id="g74">
        <path
           inkscape:connector-curvature="0"
           id="path76"
           style="fill:#061529;fill-opacity:1;fill-rule:nonzero;stroke:none"
           d="m 0,0 c -0.796,-0.796 -1.854,-1.234 -2.98,-1.234 -0.259,0 -0.516,0.027 -0.767,0.072 L -0.551,6.508 0,5.958 C 0.795,5.162 1.233,4.103 1.233,2.978 1.233,1.853 0.795,0.795 0,0 M -10.1,4.143 -6.596,12.554 -4.043,10 -7.548,1.59 -10.1,4.143 Z m -1.435,13.349 1.446,-1.446 -3.504,-8.411 -3.9,3.901 5.958,5.956 z m -51.116,32.356 -0.803,10.376 44.095,-44.096 -4.787,-4.785 -38.505,38.505 z m 6.173,-49.066 c -10.607,4.021 -19.641,11.042 -26.165,20.346 -6.683,9.532 -10.215,20.723 -10.215,32.364 l 0,33.211 c 24.152,4.528 48.609,4.528 72.761,0 l 0,-33.211 c 0,-4.285 -0.486,-8.538 -1.445,-12.688 l -2.889,2.888 c 0.603,3.206 0.909,6.497 0.909,9.8 l 0,27.105 c 0,1.085 -0.764,2.02 -1.828,2.237 -20.654,4.21 -41.601,4.21 -62.255,0 -1.064,-0.217 -1.828,-1.152 -1.828,-2.237 l 0,-27.105 c 0,-10.932 3.318,-21.444 9.594,-30.398 5.664,-8.074 13.43,-14.386 22.462,-18.255 0.288,-0.123 0.593,-0.185 0.9,-0.185 0.306,0 0.612,0.062 0.899,0.185 7.081,3.032 13.245,7.442 18.359,13.118 l 2.424,-2.425 C -40.75,8.994 -48.194,3.925 -56.478,0.782 m 28.389,52.71 c 0,-1.943 -0.119,-3.879 -0.347,-5.794 l -18.78,18.779 c -0.385,0.386 -0.896,0.62 -1.439,0.662 l -17.376,1.345 c -0.667,0.051 -1.319,-0.19 -1.791,-0.662 -0.471,-0.472 -0.713,-1.127 -0.662,-1.791 l 1.344,-17.376 c 0.042,-0.544 0.277,-1.054 0.662,-1.44 l 26.026,-26.024 c -4.485,-5.024 -9.862,-8.974 -16.025,-11.759 -7.867,3.562 -14.636,9.176 -19.622,16.284 -5.735,8.182 -8.766,17.786 -8.766,27.776 l 0,25.228 c 18.846,3.605 37.93,3.605 56.776,0 l 0,-25.228 z m 12.863,-33.231 -0.904,-0.903 -44.095,44.096 10.376,-0.803 38.506,-38.507 -3.883,-3.883 z M 3.229,9.187 -8.306,20.722 l 5.591,5.59 c 0.891,0.892 0.891,2.339 0,3.231 -0.892,0.891 -2.338,0.891 -3.231,0 l -2.167,-2.169 -9.676,9.675 c 1.499,5.345 2.26,10.869 2.26,16.443 l 0,35.098 c 0,1.09 -0.772,2.029 -1.843,2.24 -25.948,5.116 -52.263,5.116 -78.211,0 -1.071,-0.211 -1.843,-1.15 -1.843,-2.24 l 0,-35.098 c 0,-12.585 3.818,-24.682 11.043,-34.986 7.224,-10.303 17.297,-18.018 29.128,-22.307 0.251,-0.09 0.514,-0.136 0.778,-0.136 0.263,0 0.526,0.046 0.778,0.136 9.224,3.346 17.521,8.889 24.137,16.1 l 4.187,-4.187 -2.167,-2.167 c -0.893,-0.892 -0.893,-2.339 0,-3.231 0.445,-0.446 1.03,-0.669 1.614,-0.669 0.584,0 1.169,0.223 1.615,0.669 l 5.591,5.591 11.534,-11.535 c 1.659,-1.658 3.864,-2.572 6.208,-2.572 2.347,0 4.551,0.914 6.209,2.572 C 4.887,-1.572 5.8,0.633 5.8,2.978 5.8,5.323 4.887,7.529 3.229,9.187" />
      </g>
      <g
         transform="matrix(1.25,0,0,-1.25,328.69285,741.88273)"
         id="g78">
        <path
           inkscape:connector-curvature="0"
           id="path80"
           style="fill:#061529;fill-opacity:1;fill-rule:nonzero;stroke:none"
           d="m 0,0 c 0,-1.129 -0.915,-2.044 -2.044,-2.044 -1.128,0 -2.043,0.915 -2.043,2.044 0,1.129 0.915,2.044 2.043,2.044 C -0.915,2.044 0,1.129 0,0" />
      </g>
      <g
         transform="matrix(1.25,0,0,-1.25,322.76272,738.9176)"
         id="g82">
        <path
           inkscape:connector-curvature="0"
           id="path84"
           style="fill:#061529;fill-opacity:1;fill-rule:nonzero;stroke:none"
           d="m 0,0 c 0,-1.129 -0.915,-2.044 -2.044,-2.044 -1.128,0 -2.043,0.915 -2.043,2.044 0,1.129 0.915,2.044 2.043,2.044 C -0.915,2.044 0,1.129 0,0" />
      </g>
    </g>
  </g>
</svg>
