<?xml version="1.0" encoding="UTF-8" standalone="no"?>
<!-- Created with Inkscape (http://www.inkscape.org/) -->

<svg
   xmlns:dc="http://purl.org/dc/elements/1.1/"
   xmlns:cc="http://creativecommons.org/ns#"
   xmlns:rdf="http://www.w3.org/1999/02/22-rdf-syntax-ns#"
   xmlns:svg="http://www.w3.org/2000/svg"
   xmlns="http://www.w3.org/2000/svg"
   xmlns:sodipodi="http://sodipodi.sourceforge.net/DTD/sodipodi-0.dtd"
   xmlns:inkscape="http://www.inkscape.org/namespaces/inkscape"
   width="512"
   height="512"
   viewBox="0 0 511.99999 512.00001"
   id="svg4940"
   version="1.1"
   inkscape:version="0.91 r13725"
   sodipodi:docname="fight-white.svg">
  <defs
     id="defs4942">
    <clipPath
       clipPathUnits="userSpaceOnUse"
       id="clipPath366">
      <path
         d="m 0,1080 2529,0 L 2529,0 0,0 0,1080 Z"
         id="path368"
         inkscape:connector-curvature="0" />
    </clipPath>
    <clipPath
       clipPathUnits="userSpaceOnUse"
       id="clipPath282">
      <path
         d="m 0,1080 2529,0 L 2529,0 0,0 0,1080 Z"
         id="path284"
         inkscape:connector-curvature="0" />
    </clipPath>
    <clipPath
       clipPathUnits="userSpaceOnUse"
       id="clipPath242">
      <path
         d="m 0,1080 2529,0 L 2529,0 0,0 0,1080 Z"
         id="path244"
         inkscape:connector-curvature="0" />
    </clipPath>
    <clipPath
       clipPathUnits="userSpaceOnUse"
       id="clipPath210">
      <path
         d="m 0,1080 2529,0 L 2529,0 0,0 0,1080 Z"
         id="path212"
         inkscape:connector-curvature="0" />
    </clipPath>
    <clipPath
       clipPathUnits="userSpaceOnUse"
       id="clipPath186">
      <path
         d="m 0,1080 2529,0 L 2529,0 0,0 0,1080 Z"
         id="path188"
         inkscape:connector-curvature="0" />
    </clipPath>
    <clipPath
       clipPathUnits="userSpaceOnUse"
       id="clipPath94">
      <path
         d="m 0,1080 2529,0 L 2529,0 0,0 0,1080 Z"
         id="path96"
         inkscape:connector-curvature="0" />
    </clipPath>
    <clipPath
       clipPathUnits="userSpaceOnUse"
       id="clipPath388">
      <path
         d="m 0,1080 2529,0 L 2529,0 0,0 0,1080 Z"
         id="path390"
         inkscape:connector-curvature="0" />
    </clipPath>
  </defs>
  <sodipodi:namedview
     id="base"
     pagecolor="#ffffff"
     bordercolor="#666666"
     borderopacity="1.0"
     inkscape:pageopacity="0.0"
     inkscape:pageshadow="2"
     inkscape:zoom="0.35355339"
     inkscape:cx="-21.298886"
     inkscape:cy="294.28205"
     inkscape:document-units="px"
     inkscape:current-layer="layer1"
     showgrid="false"
     inkscape:window-width="1360"
     inkscape:window-height="744"
     inkscape:window-x="1360"
     inkscape:window-y="24"
     inkscape:window-maximized="1"
     units="px" />
  <metadata
     id="metadata4945">
    <rdf:RDF>
      <cc:Work
         rdf:about="">
        <dc:format>image/svg+xml</dc:format>
        <dc:type
           rdf:resource="http://purl.org/dc/dcmitype/StillImage" />
        <dc:title></dc:title>
      </cc:Work>
    </rdf:RDF>
  </metadata>
  <g
     inkscape:label="Layer 1"
     inkscape:groupmode="layer"
     id="layer1"
     transform="translate(0,-540.3622)">
    <g
       id="g6841"
       transform="matrix(4.1959475,0,0,4.1959475,-243.6982,-1622.8888)">
      <g
         transform="matrix(1.25,0,0,-1.25,148.5503,571.6421)"
         id="g396">
        <path
           inkscape:connector-curvature="0"
           id="path398"
           style="fill:#ffffff;fill-opacity:1;fill-rule:nonzero;stroke:none"
           d="m 0,0 -23.194,0 c -1.379,5.166 -6.097,8.983 -11.691,8.983 l -10.92,0 c -2.392,0 -4.69,-0.411 -6.827,-1.165 l 0,10.83 c 0,10.468 8.517,18.984 18.985,18.984 l 27.656,0 c 10.468,0 18.985,-8.516 18.985,-18.984 l 0,-5.654 C 12.994,5.829 7.165,0 0,0 m -5.991,-25.902 -39.814,0 c -7.898,0 -14.324,6.425 -14.324,14.324 0,7.899 6.426,14.325 14.324,14.325 l 10.92,0 c 3.234,0 5.864,-2.631 5.864,-5.865 0,-3.234 -2.631,-5.865 -5.864,-5.865 l -13.341,0 0,-6.236 13.341,0 c 5.594,0 10.312,3.817 11.691,8.983 l 23.194,0 c 5.005,0 9.569,1.923 12.994,5.068 l 0,-5.75 c 0,-10.468 -8.517,-18.984 -18.985,-18.984 m 9.548,-6.236 0,-13.376 -46.792,0 0,13.376 37.244,0 9.548,0 z m -9.548,76.006 -27.656,0 c -13.907,0 -25.221,-11.314 -25.221,-25.22 l 0,-14.36 c -4.576,-3.774 -7.497,-9.485 -7.497,-15.866 0,-10.086 7.3,-18.499 16.894,-20.233 l 0,-19.939 59.264,0 0,25.177 c 5.75,4.626 9.437,11.718 9.437,19.655 l 0,25.566 c 0,13.906 -11.314,25.22 -25.221,25.22" />
      </g>
      <g
         transform="matrix(1.25,0,0,-1.25,120.48817,570.39222)"
         id="g400">
        <path
           inkscape:connector-curvature="0"
           id="path402"
           style="fill:#ffffff;fill-opacity:1;fill-rule:nonzero;stroke:none"
           d="m 0,0 22.449,0 c 6.613,0 11.994,5.38 11.994,11.994 l 0,5.654 c 0,9.916 -8.067,17.984 -17.984,17.984 l -27.656,0 c -9.917,0 -17.986,-8.068 -17.986,-17.984 l 0,-9.465 c 1.891,0.531 3.846,0.8 5.829,0.8 l 10.918,0 C -6.771,8.983 -1.764,5.327 0,0 m 22.449,-2 -23.962,0 -0.197,0.742 c -1.296,4.852 -5.706,8.241 -10.726,8.241 l -10.918,0 c -2.226,0 -4.411,-0.373 -6.496,-1.108 l -1.333,-0.47 0,12.243 c 0,11.019 8.966,19.984 19.986,19.984 l 27.656,0 c 11.02,0 19.984,-8.965 19.984,-19.984 l 0,-5.654 C 36.443,4.278 30.166,-2 22.449,-2 m -45.803,2.747 c -7.348,0 -13.326,-5.977 -13.326,-13.325 0,-7.347 5.978,-13.324 13.326,-13.324 l 39.813,0 c 9.917,0 17.984,8.068 17.984,17.984 l 0,3.63 C 30.979,-6.847 26.794,-8.236 22.449,-8.236 L 0,-8.236 c -1.764,-5.327 -6.771,-8.983 -12.436,-8.983 l -14.34,0 0,8.237 14.34,0 c 2.683,0 4.865,2.182 4.865,4.864 0,2.682 -2.182,4.865 -4.865,4.865 l -10.918,0 z m 39.813,-28.649 -39.813,0 c -8.451,0 -15.326,6.874 -15.326,15.324 0,8.45 6.875,15.325 15.326,15.325 l 10.918,0 c 3.786,0 6.865,-3.08 6.865,-6.865 0,-3.785 -3.079,-6.864 -6.865,-6.864 l -12.34,0 0,-4.237 12.34,0 c 5.02,0 9.43,3.389 10.726,8.241 l 0.197,0.742 23.962,0 c 4.57,0 8.944,1.706 12.318,4.804 l 1.676,1.539 0,-8.025 c 0,-11.019 -8.964,-19.984 -19.984,-19.984 m -36.244,-17.612 44.792,0 0,11.375 -44.792,0 0,-11.375 z m 46.792,-2 -48.792,0 0,15.375 48.792,0 0,-15.375 z m -53.028,-4.236 57.264,0 0,24.656 0.373,0.301 c 5.76,4.634 9.064,11.514 9.064,18.875 l 0,25.565 c 0,13.356 -10.866,24.221 -24.221,24.221 l -27.656,0 c -13.356,0 -24.221,-10.865 -24.221,-24.221 l 0,-14.831 -0.363,-0.299 c -4.534,-3.74 -7.135,-9.241 -7.135,-15.095 0,-9.47 6.76,-17.566 16.072,-19.249 l 0.823,-0.148 0,-19.775 z m 59.264,-2 -61.264,0 0,20.12 c -9.839,2.172 -16.895,10.895 -16.895,21.052 0,6.295 2.727,12.22 7.498,16.331 l 0,13.894 c 0,14.458 11.763,26.221 26.221,26.221 l 27.656,0 c 14.458,0 26.221,-11.763 26.221,-26.221 l 0,-25.565 c 0,-7.81 -3.434,-15.118 -9.437,-20.128 l 0,-25.704 z" />
      </g>
    </g>
  </g>
</svg>
