<?xml version="1.0" encoding="UTF-8" standalone="no"?>
<!-- Created with Inkscape (http://www.inkscape.org/) -->

<svg
   xmlns:dc="http://purl.org/dc/elements/1.1/"
   xmlns:cc="http://creativecommons.org/ns#"
   xmlns:rdf="http://www.w3.org/1999/02/22-rdf-syntax-ns#"
   xmlns:svg="http://www.w3.org/2000/svg"
   xmlns="http://www.w3.org/2000/svg"
   xmlns:sodipodi="http://sodipodi.sourceforge.net/DTD/sodipodi-0.dtd"
   xmlns:inkscape="http://www.inkscape.org/namespaces/inkscape"
   width="512"
   height="512"
   viewBox="0 0 512 512.00001"
   id="svg4940"
   version="1.1"
   inkscape:version="0.91 r13725"
   sodipodi:docname="multiplayer-black.svg">
  <defs
     id="defs4942">
    <clipPath
       clipPathUnits="userSpaceOnUse"
       id="clipPath366">
      <path
         d="m 0,1080 2529,0 L 2529,0 0,0 0,1080 Z"
         id="path368"
         inkscape:connector-curvature="0" />
    </clipPath>
    <clipPath
       clipPathUnits="userSpaceOnUse"
       id="clipPath282">
      <path
         d="m 0,1080 2529,0 L 2529,0 0,0 0,1080 Z"
         id="path284"
         inkscape:connector-curvature="0" />
    </clipPath>
  </defs>
  <sodipodi:namedview
     id="base"
     pagecolor="#ffffff"
     bordercolor="#666666"
     borderopacity="1.0"
     inkscape:pageopacity="0.0"
     inkscape:pageshadow="2"
     inkscape:zoom="0.35355339"
     inkscape:cx="-329.88738"
     inkscape:cy="149.06111"
     inkscape:document-units="px"
     inkscape:current-layer="layer1"
     showgrid="false"
     inkscape:window-width="1360"
     inkscape:window-height="744"
     inkscape:window-x="1360"
     inkscape:window-y="24"
     inkscape:window-maximized="1"
     units="px" />
  <metadata
     id="metadata4945">
    <rdf:RDF>
      <cc:Work
         rdf:about="">
        <dc:format>image/svg+xml</dc:format>
        <dc:type
           rdf:resource="http://purl.org/dc/dcmitype/StillImage" />
        <dc:title></dc:title>
      </cc:Work>
    </rdf:RDF>
  </metadata>
  <g
     inkscape:label="Layer 1"
     inkscape:groupmode="layer"
     id="layer1"
     transform="translate(0,-540.3622)">
    <g
       id="g5794"
       transform="matrix(3.3755792,0,0,3.3755804,-820.59169,-2082.9495)">
      <g
         transform="matrix(1.25,0,0,-1.25,323.60964,870.78365)"
         id="g290">
        <path
           inkscape:connector-curvature="0"
           id="path292"
           style="fill:#061529;fill-opacity:1;fill-rule:nonzero;stroke:none"
           d="M 0,0 C 3.072,-0.158 6.066,-0.619 8.846,-1.361 6.664,-6.665 3.469,-10.288 0,-11.445 L 0,0 Z m 0,11.976 11.647,0 C 11.498,8.786 11.022,5.674 10.247,2.797 7.028,3.677 3.553,4.216 0,4.383 l 0,7.593 z m 0,4.373 0,7.591 c 3.552,0.168 7.028,0.706 10.247,1.586 0.775,-2.876 1.251,-5.988 1.4,-9.178 L 0,16.348 0,16.349 Z M 0,39.77 C 3.469,38.612 6.664,34.989 8.846,29.684 6.066,28.944 3.072,28.482 0,28.324 L 0,39.77 Z m 16.011,-7.278 c -0.937,-0.518 -1.938,-0.997 -3.004,-1.432 -0.91,2.274 -1.985,4.299 -3.192,6.044 2.289,-1.226 4.378,-2.785 6.196,-4.612 m 7.503,-16.143 -7.489,0 c -0.158,3.666 -0.709,7.252 -1.624,10.563 1.604,0.639 3.1,1.364 4.471,2.175 2.585,-3.67 4.247,-8.031 4.642,-12.738 M 18.872,-0.763 c -1.371,0.81 -2.867,1.534 -4.471,2.174 0.915,3.311 1.466,6.898 1.624,10.565 l 7.489,0 C 23.119,7.268 21.457,2.907 18.872,-0.763 M 9.813,-8.782 c 1.208,1.745 2.283,3.771 3.194,6.044 1.066,-0.434 2.067,-0.914 3.004,-1.43 -1.819,-1.828 -3.908,-3.387 -6.198,-4.614 M -4.373,28.311 c -3.148,0.149 -6.214,0.615 -9.058,1.373 2.226,5.412 5.506,9.071 9.058,10.15 l 0,-11.523 z m 0,-11.962 -11.86,0 c 0.15,3.189 0.625,6.301 1.401,9.178 3.283,-0.898 6.832,-1.442 10.459,-1.597 l 0,-7.581 z m 0,-11.954 C -8,4.239 -11.549,3.696 -14.832,2.797 c -0.777,2.877 -1.251,5.989 -1.401,9.178 l 11.86,0 0,-7.58 z m 0,-15.906 c -3.55,1.079 -6.83,4.739 -9.058,10.15 2.843,0.759 5.91,1.226 9.058,1.374 l 0,-11.524 z m -16.223,7.343 c 0.937,0.516 1.938,0.996 3.005,1.43 0.91,-2.273 1.985,-4.299 3.193,-6.044 -2.29,1.227 -4.378,2.786 -6.198,4.614 m -7.503,16.144 7.489,0 c 0.157,-3.667 0.709,-7.253 1.624,-10.565 -1.604,-0.64 -3.1,-1.364 -4.47,-2.174 -2.586,3.67 -4.247,8.031 -4.643,12.739 m 4.643,17.11 c 1.371,-0.81 2.866,-1.535 4.47,-2.174 -0.915,-3.311 -1.467,-6.898 -1.624,-10.563 l -7.489,0 c 0.396,4.707 2.057,9.068 4.643,12.737 m 9.056,8.017 c -1.208,-1.744 -2.282,-3.769 -3.192,-6.043 -1.066,0.435 -2.067,0.914 -3.004,1.432 1.818,1.827 3.906,3.386 6.196,4.611 m 11.657,7.433 c -7.945,-0.141 -15.39,-3.319 -20.999,-8.968 -5.691,-5.728 -8.824,-13.33 -8.824,-21.405 0,-8.076 3.133,-15.679 8.824,-21.409 5.609,-5.649 13.054,-8.824 20.999,-8.965 0.028,-0.003 0.872,-0.003 0.901,0 7.945,0.141 15.39,3.316 21,8.965 5.69,5.73 8.823,13.332 8.823,21.409 0,8.075 -3.133,15.677 -8.823,21.405 -5.61,5.649 -13.055,8.827 -21,8.968 -0.029,10e-4 -0.873,10e-4 -0.901,0" />
      </g>
      <g
         transform="matrix(1.25,0,0,-1.25,298.91039,830.01965)"
         id="g294">
        <path
           inkscape:connector-curvature="0"
           id="path296"
           style="fill:#061529;fill-opacity:1;fill-rule:nonzero;stroke:none"
           d="M 0,0 C 0.611,-0.318 1.246,-0.618 1.895,-0.896 2.475,0.497 3.12,1.803 3.825,3.01 2.459,2.131 1.179,1.124 0,0 m 2.445,-2.204 -0.466,0.19 c -1.063,0.433 -2.091,0.923 -3.057,1.458 l -0.579,0.321 0.467,0.469 C 0.673,2.106 2.797,3.688 5.123,4.933 L 6.949,5.91 5.77,4.207 C 4.575,2.48 3.519,0.481 2.632,-1.736 L 2.445,-2.204 Z m 28.663,5.215 c 0.705,-1.208 1.351,-2.514 1.931,-3.907 0.649,0.278 1.283,0.578 1.895,0.896 -1.179,1.124 -2.459,2.131 -3.826,3.011 m 1.381,-5.215 -0.187,0.467 C 31.415,0.48 30.359,2.48 29.164,4.209 l -1.179,1.704 1.826,-0.979 c 2.326,-1.247 4.45,-2.829 6.314,-4.7 l 0.467,-0.469 -0.58,-0.321 c -0.966,-0.535 -1.994,-1.025 -3.057,-1.458 l -0.466,-0.19 z m -12.23,8.635 0,-10.188 c 2.651,0.166 5.222,0.559 7.66,1.169 -1.955,4.505 -4.702,7.733 -7.66,9.019 m -1,-11.244 0,12.665 0.658,-0.22 c 3.651,-1.217 6.901,-4.9 9.151,-10.369 l 0.217,-0.527 -0.551,-0.147 C 25.905,-4.164 22.895,-4.626 19.785,-4.786 L 19.259,-4.813 Z M 7.015,-2.588 c 2.505,-0.627 5.148,-1.025 7.871,-1.184 l 0,10.289 C 11.844,5.293 9.02,2.033 7.015,-2.588 m 8.871,-2.236 -0.523,0.025 C 12.18,-4.649 9.097,-4.182 6.2,-3.411 l -0.551,0.147 0.217,0.527 C 8.133,2.775 11.55,6.58 15.241,7.701 l 0.645,0.196 0,-12.721 z m -23.676,-10.938 6.462,0 c 0.177,3.39 0.682,6.67 1.503,9.766 -1.322,0.545 -2.571,1.151 -3.723,1.807 -2.345,-3.457 -3.804,-7.437 -4.242,-11.573 m 7.418,-1 -8.512,0 0.046,0.542 c 0.392,4.657 2.028,9.147 4.733,12.983 l 0.266,0.377 0.397,-0.235 c 1.334,-0.788 2.815,-1.508 4.401,-2.139 L 1.375,-5.4 1.256,-5.832 c -0.911,-3.293 -1.451,-6.81 -1.607,-10.451 l -0.021,-0.479 z m 4.426,1 10.832,0 0,6.604 c -3.324,0.173 -6.55,0.663 -9.602,1.461 -0.654,-2.557 -1.067,-5.266 -1.23,-8.065 m 11.832,-1 -12.883,0 0.024,0.524 c 0.152,3.234 0.629,6.358 1.418,9.284 l 0.131,0.485 0.484,-0.133 c 3.269,-0.895 6.751,-1.426 10.348,-1.58 l 0.478,-0.02 0,-8.56 z m 20.375,1 6.463,0 c -0.438,4.134 -1.897,8.115 -4.241,11.574 -1.148,-0.654 -2.397,-1.261 -3.724,-1.808 0.82,-3.091 1.324,-6.372 1.502,-9.766 m 7.557,-1 -8.513,0 -0.02,0.479 c -0.157,3.647 -0.698,7.163 -1.607,10.451 l -0.119,0.432 0.416,0.166 c 1.593,0.634 3.074,1.354 4.401,2.14 l 0.398,0.236 0.266,-0.378 c 2.704,-3.839 4.34,-8.328 4.732,-12.984 l 0.046,-0.542 z m -23.559,1 10.621,-10e-4 c -0.163,2.8 -0.576,5.508 -1.23,8.065 -2.981,-0.778 -6.135,-1.264 -9.391,-1.448 l 0,-6.616 z m 11.672,-1.001 -12.672,0 0,8.569 0.477,0.022 c 3.53,0.167 6.941,0.695 10.138,1.569 l 0.484,0.132 0.131,-0.484 c 0.789,-2.925 1.265,-6.049 1.417,-9.285 l 0.025,-0.523 z m -11.672,-10.99 c 3.251,-0.183 6.405,-0.669 9.391,-1.448 0.654,2.557 1.067,5.266 1.23,8.066 l -10.621,0 0,-6.618 z m 10.099,-2.676 -0.484,0.133 c -3.204,0.876 -6.614,1.403 -10.138,1.568 l -0.477,0.023 0,8.57 12.672,0 -0.025,-0.523 c -0.151,-3.236 -0.628,-6.36 -1.417,-9.286 l -0.131,-0.485 z m -26.304,9.293 c 0.163,-2.805 0.576,-5.513 1.23,-8.065 3.052,0.797 6.278,1.288 9.602,1.462 l 0,6.603 -10.832,0 z m 0.522,-9.293 -0.131,0.485 c -0.789,2.919 -1.266,6.043 -1.418,9.284 l -0.024,0.524 12.883,0 0,-8.559 -0.478,-0.021 C 11.81,-28.87 8.329,-29.401 5.06,-30.296 l -0.484,-0.133 z m 30.183,-0.474 c 1.327,-0.549 2.577,-1.154 3.723,-1.807 2.345,3.459 3.804,7.44 4.242,11.575 l -6.463,0 c -0.178,-3.396 -0.682,-6.677 -1.502,-9.768 m 4.015,-3.137 -0.397,0.235 c -1.327,0.784 -2.808,1.505 -4.402,2.14 l -0.416,0.166 0.119,0.432 c 0.909,3.287 1.45,6.804 1.607,10.454 l 0.02,0.478 8.513,0 -0.046,-0.542 C 43.38,-25.333 41.744,-29.823 39.04,-33.662 L 38.774,-34.04 Z M -7.79,-21.135 c 0.438,-4.136 1.897,-8.117 4.242,-11.575 1.147,0.653 2.396,1.259 3.723,1.807 -0.821,3.097 -1.326,6.378 -1.503,9.768 l -6.462,0 z m 3.951,-12.905 -0.266,0.378 c -2.705,3.837 -4.341,8.328 -4.733,12.985 l -0.046,0.542 8.512,0 0.021,-0.478 c 0.156,-3.642 0.696,-7.159 1.607,-10.454 l 0.119,-0.432 -0.416,-0.166 C -0.635,-32.3 -2.116,-33.02 -3.442,-33.804 L -3.839,-34.04 Z M 0,-36.898 c 1.18,-1.125 2.46,-2.133 3.827,-3.013 -0.705,1.208 -1.351,2.515 -1.931,3.907 C 1.25,-36.28 0.615,-36.58 0,-36.898 m 6.953,-5.915 -1.828,0.979 c -2.326,1.247 -4.451,2.829 -6.315,4.702 l -0.468,0.47 0.58,0.321 c 0.974,0.537 2.003,1.027 3.058,1.456 l 0.466,0.189 0.187,-0.467 c 0.888,-2.218 1.944,-4.219 3.14,-5.945 l 1.18,-1.705 z m 26.086,6.809 c -0.581,-1.392 -1.227,-2.699 -1.933,-3.907 1.367,0.88 2.648,1.888 3.827,3.012 -0.614,0.319 -1.248,0.618 -1.894,0.895 m -5.059,-6.809 1.181,1.705 c 1.195,1.726 2.252,3.726 3.141,5.945 l 0.188,0.467 0.465,-0.19 c 1.055,-0.429 2.084,-0.919 3.056,-1.455 l 0.581,-0.321 -0.467,-0.47 c -1.865,-1.873 -3.99,-3.455 -6.317,-4.702 l -1.828,-0.979 z m -7.721,9.672 0,-10.188 c 2.958,1.286 5.704,4.514 7.66,9.018 -2.435,0.61 -5.006,1.003 -7.66,1.17 m -1,-11.609 0,12.665 0.526,-0.027 c 3.113,-0.16 6.124,-0.623 8.949,-1.377 l 0.551,-0.146 -0.217,-0.527 c -2.251,-5.469 -5.5,-9.151 -9.151,-10.368 l -0.658,-0.22 z M 7.015,-34.311 c 2.006,-4.621 4.831,-7.882 7.871,-9.105 l 0,10.291 c -2.726,-0.16 -5.369,-0.558 -7.871,-1.186 m 8.871,-10.485 -0.645,0.195 c -3.688,1.122 -7.105,4.926 -9.375,10.439 l -0.217,0.527 0.551,0.146 c 2.893,0.772 5.976,1.24 9.163,1.39 l 0.523,0.025 0,-12.722 z m 1.567,56.221 c -0.197,0 -0.39,0 -0.423,-0.001 l -0.005,0 C 9.217,11.286 1.882,8.154 -3.627,2.605 c -5.598,-5.633 -8.68,-13.11 -8.68,-21.053 0,-7.944 3.082,-15.422 8.68,-21.056 5.508,-5.549 12.843,-8.68 20.652,-8.818 0.094,-0.003 0.788,-0.002 0.871,-10e-4 7.822,0.139 15.157,3.27 20.667,8.819 5.596,5.635 8.678,13.113 8.678,21.056 0,7.943 -3.082,15.42 -8.678,21.053 -5.511,5.549 -12.846,8.681 -20.654,8.819 -0.037,0.001 -0.249,0.001 -0.456,0.001 m 0.1,-60.75 c -0.255,0 -0.553,0.002 -0.588,0.005 -8.028,0.141 -15.609,3.377 -21.302,9.111 -5.784,5.823 -8.97,13.552 -8.97,21.761 0,8.209 3.186,15.936 8.97,21.758 5.694,5.734 13.275,8.971 21.345,9.114 l 0,0 c 0.128,0.001 0.907,0.001 0.935,0 8.053,-0.143 15.634,-3.38 21.33,-9.114 5.783,-5.822 8.968,-13.55 8.968,-21.758 0,-8.209 -3.185,-15.937 -8.968,-21.761 -5.695,-5.734 -13.276,-8.97 -21.347,-9.113 -0.008,-0.002 -0.178,-0.003 -0.373,-0.003" />
      </g>
      <path
         inkscape:connector-curvature="0"
         id="path298"
         style="fill:#061529;fill-opacity:1;fill-rule:nonzero;stroke:none"
         d="m 313.40102,783.2364 14.685,0 0,14.685 -14.685,0 0,-14.685 z m -2.7325,20.15125 20.15125,0 c 1.51125,0 2.73375,-1.2225 2.73375,-2.7325 l 0,-20.1525 c 0,-1.50875 -1.2225,-2.7325 -2.73375,-2.7325 l -20.15125,0 c -1.51125,0 -2.73375,1.22375 -2.73375,2.7325 l 0,20.1525 c 0,1.51 1.2225,2.7325 2.73375,2.7325" />
      <path
         inkscape:connector-curvature="0"
         id="path300"
         style="fill:#061529;fill-opacity:1;fill-rule:nonzero;stroke:none"
         d="m 314.02602,797.2964 13.435,0 0,-13.43625 -13.435,0 0,13.43625 z m 14.685,1.25 -15.935,0 0,-15.93625 15.935,0 0,15.93625 z m -18.0425,-20.1525 c -1.1625,0 -2.10875,0.94625 -2.10875,2.10875 l 0,20.15125 c 0,1.16375 0.94625,2.10875 2.10875,2.10875 l 20.15125,0 c 1.1625,0 2.10875,-0.945 2.10875,-2.10875 l 0,-20.15125 c 0,-1.1625 -0.94625,-2.10875 -2.10875,-2.10875 l -20.15125,0 z m 20.15125,25.61875 -20.15125,0 c -1.8525,0 -3.35875,-1.50625 -3.35875,-3.35875 l 0,-20.15125 c 0,-1.8525 1.50625,-3.35875 3.35875,-3.35875 l 20.15125,0 c 1.8525,0 3.35875,1.50625 3.35875,3.35875 l 0,20.15125 c 0,1.8525 -1.50625,3.35875 -3.35875,3.35875" />
      <g
         transform="matrix(1.25,0,0,-1.25,313.55052,922.7304)"
         id="g302">
        <path
           inkscape:connector-curvature="0"
           id="path304"
           style="fill:#061529;fill-opacity:1;fill-rule:nonzero;stroke:none"
           d="M 0,0 5.754,9.425 11.509,0 0,0 Z M 7.622,14.759 C 7.224,15.41 6.517,15.807 5.755,15.807 4.994,15.807 4.286,15.41 3.889,14.759 L -5.764,-1.046 c -0.411,-0.675 -0.427,-1.521 -0.04,-2.211 0.386,-0.689 1.116,-1.116 1.906,-1.116 l 19.305,0 c 0.791,0 1.52,0.427 1.908,1.116 0.387,0.69 0.371,1.536 -0.042,2.211 L 7.622,14.759 Z" />
      </g>
      <g
         transform="matrix(1.25,0,0,-1.25,314.66415,922.10527)"
         id="g306">
        <path
           inkscape:connector-curvature="0"
           id="path308"
           style="fill:#061529;fill-opacity:1;fill-rule:nonzero;stroke:none"
           d="M 0,0 9.728,0 4.863,7.966 0,0 Z M 11.51,-1 -1.782,-1 4.863,9.885 11.51,-1 Z M 4.865,14.807 c -0.584,0 -1.136,-0.309 -1.44,-0.808 L -6.228,-1.807 c -0.317,-0.52 -0.329,-1.174 -0.031,-1.706 0.298,-0.53 0.861,-0.86 1.47,-0.86 l 19.305,0 c 0.609,0 1.173,0.33 1.472,0.861 0.298,0.531 0.286,1.185 -0.032,1.705 L 6.304,13.999 C 6,14.498 5.448,14.807 4.865,14.807 m 9.651,-20.18 -19.305,0 c -0.97,0 -1.868,0.525 -2.342,1.371 -0.474,0.847 -0.455,1.887 0.049,2.716 L 2.572,14.52 c 0.485,0.794 1.363,1.287 2.293,1.287 0.929,0 1.807,-0.493 2.293,-1.287 L 16.81,-1.286 c 0.505,-0.828 0.525,-1.869 0.05,-2.716 -0.476,-0.846 -1.374,-1.371 -2.344,-1.371" />
      </g>
      <g
         transform="matrix(1.25,0,0,-1.25,258.24052,862.13215)"
         id="g310">
        <path
           inkscape:connector-curvature="0"
           id="path312"
           style="fill:#061529;fill-opacity:1;fill-rule:nonzero;stroke:none"
           d="m 0,0 c -3.992,0 -7.24,3.247 -7.24,7.24 0,3.993 3.248,7.24 7.24,7.24 3.993,0 7.242,-3.247 7.242,-7.24 C 7.242,3.247 3.993,0 0,0 m 11.615,7.24 c 0,6.405 -5.211,11.613 -11.615,11.613 -6.403,0 -11.613,-5.208 -11.613,-11.613 0,-6.403 5.21,-11.613 11.613,-11.613 6.404,0 11.615,5.21 11.615,11.613" />
      </g>
      <g
         transform="matrix(1.25,0,0,-1.25,258.24077,844.65715)"
         id="g314">
        <path
           inkscape:connector-curvature="0"
           id="path316"
           style="fill:#061529;fill-opacity:1;fill-rule:nonzero;stroke:none"
           d="m 0,0 c -3.717,0 -6.74,-3.023 -6.74,-6.74 0,-3.717 3.023,-6.74 6.74,-6.74 3.717,0 6.741,3.023 6.741,6.74 C 6.741,-3.023 3.717,0 0,0 m 0,-14.48 c -4.268,0 -7.74,3.472 -7.74,7.74 C -7.74,-2.472 -4.268,1 0,1 4.269,1 7.741,-2.472 7.741,-6.74 7.741,-11.008 4.269,-14.48 0,-14.48 M 0,4.374 c -6.128,0 -11.113,-4.986 -11.113,-11.114 0,-6.128 4.985,-11.113 11.113,-11.113 6.128,0 11.114,4.985 11.114,11.113 C 11.114,-0.612 6.128,4.374 0,4.374 m 0,-23.227 c -6.679,0 -12.113,5.434 -12.113,12.113 0,6.679 5.434,12.114 12.113,12.114 6.68,0 12.114,-5.435 12.114,-12.114 0,-6.679 -5.434,-12.113 -12.114,-12.113" />
      </g>
      <g
         transform="matrix(1.25,0,0,-1.25,393.34552,859.31327)"
         id="g318">
        <path
           inkscape:connector-curvature="0"
           id="path320"
           style="fill:#061529;fill-opacity:1;fill-rule:nonzero;stroke:none"
           d="M 0,0 -4.986,4.985 0,9.972 c 0.854,0.854 0.854,2.238 0,3.092 -0.854,0.854 -2.239,0.854 -3.093,0 l -4.986,-4.987 -4.986,4.987 c -0.854,0.854 -2.238,0.854 -3.092,0 -0.854,-0.854 -0.854,-2.238 0,-3.092 L -11.172,4.985 -16.157,0 c -0.854,-0.854 -0.854,-2.239 0,-3.094 0.427,-0.425 0.986,-0.64 1.546,-0.64 0.559,0 1.119,0.213 1.546,0.64 l 4.986,4.987 4.987,-4.987 c 0.427,-0.425 0.987,-0.64 1.546,-0.64 0.559,0 1.119,0.213 1.546,0.64 0.854,0.855 0.854,2.24 0,3.094" />
      </g>
      <g
         transform="matrix(1.25,0,0,-1.25,383.24752,856.06277)"
         id="g322">
        <path
           inkscape:connector-curvature="0"
           id="path324"
           style="fill:#061529;fill-opacity:1;fill-rule:nonzero;stroke:none"
           d="m 0,0 5.34,-5.34 c 0.639,-0.638 1.748,-0.638 2.385,0 0.318,0.319 0.494,0.742 0.494,1.193 0,0.451 -0.176,0.874 -0.494,1.193 l -5.34,5.339 5.34,5.34 c 0.318,0.319 0.494,0.742 0.494,1.192 0,0.451 -0.176,0.874 -0.494,1.193 -0.658,0.657 -1.728,0.657 -2.386,0 L 0,4.77 -5.34,10.11 c -0.638,0.637 -1.747,0.637 -2.385,0 -0.319,-0.319 -0.494,-0.742 -0.494,-1.193 0,-0.45 0.175,-0.873 0.494,-1.192 l 5.339,-5.34 -5.339,-5.339 c -0.319,-0.319 -0.494,-0.742 -0.494,-1.193 0,-0.451 0.175,-0.874 0.494,-1.193 0.639,-0.638 1.748,-0.638 2.385,0 L 0,0 Z m 6.533,-6.834 c -0.717,0 -1.391,0.279 -1.899,0.786 L 0,-1.414 -4.633,-6.047 c -1.013,-1.014 -2.782,-1.016 -3.799,-0.001 -0.508,0.508 -0.787,1.183 -0.787,1.901 0,0.718 0.279,1.393 0.787,1.9 L -3.8,2.385 -8.432,7.018 C -8.94,7.525 -9.219,8.2 -9.219,8.917 c 0,0.718 0.279,1.393 0.787,1.9 1.015,1.015 2.784,1.015 3.799,0 L 0,6.184 4.632,10.817 c 1.047,1.048 2.752,1.048 3.8,0 C 8.939,10.31 9.219,9.635 9.219,8.917 9.219,8.2 8.939,7.525 8.432,7.018 L 3.799,2.385 8.432,-2.247 c 0.507,-0.507 0.787,-1.182 0.787,-1.9 0,-0.718 -0.28,-1.393 -0.787,-1.9 C 7.925,-6.555 7.25,-6.834 6.533,-6.834" />
      </g>
      <g
         transform="matrix(1.25,0,0,-1.25,262.32802,828.25365)"
         id="g326">
        <path
           inkscape:connector-curvature="0"
           id="path328"
           style="fill:#061529;fill-opacity:1;fill-rule:nonzero;stroke:none"
           d="m 0,0 c 0.305,-0.145 0.625,-0.214 0.941,-0.214 0.816,0 1.599,0.459 1.974,1.245 4.845,10.144 13.121,18.351 23.307,23.109 1.093,0.512 1.566,1.813 1.055,2.907 -0.512,1.094 -1.814,1.566 -2.907,1.055 C 13.27,22.915 4.249,13.971 -1.031,2.915 -1.55,1.827 -1.089,0.521 0,0" />
      </g>
      <g
         transform="matrix(1.25,0,0,-1.25,262.59752,827.6894)"
         id="g330">
        <path
           inkscape:connector-curvature="0"
           id="path332"
           style="fill:#061529;fill-opacity:1;fill-rule:nonzero;stroke:none"
           d="m 0,0 c 0.823,-0.391 1.861,-0.014 2.249,0.795 4.894,10.248 13.256,18.539 23.545,23.347 0.842,0.394 1.207,1.4 0.814,2.243 -0.394,0.842 -1.401,1.206 -2.242,0.813 C 13.37,22.059 4.434,13.198 -0.795,2.249 -1.195,1.41 -0.838,0.401 0,0 m 0.726,-1.165 c -0.401,0 -0.79,0.088 -1.156,0.262 l -0.001,0.001 c -1.336,0.638 -1.904,2.245 -1.266,3.581 5.328,11.158 14.434,20.188 25.639,25.425 1.345,0.628 2.944,0.046 3.572,-1.296 0.626,-1.343 0.045,-2.945 -1.296,-3.572 C 16.138,18.526 7.946,10.403 3.151,0.364 2.707,-0.565 1.755,-1.165 0.726,-1.165" />
      </g>
      <g
         transform="matrix(1.25,0,0,-1.25,379.57977,876.89777)"
         id="g334">
        <path
           inkscape:connector-curvature="0"
           id="path336"
           style="fill:#061529;fill-opacity:1;fill-rule:nonzero;stroke:none"
           d="m 0,0 c -1.099,0.501 -2.396,0.017 -2.898,-1.082 -4.793,-10.501 -13.195,-18.977 -23.66,-23.866 -1.093,-0.51 -1.566,-1.812 -1.054,-2.907 0.371,-0.794 1.16,-1.261 1.983,-1.261 0.309,0 0.625,0.067 0.923,0.207 11.404,5.328 20.562,14.566 25.787,26.011 C 1.582,-1.799 1.098,-0.503 0,0" />
      </g>
      <g
         transform="matrix(1.25,0,0,-1.25,378.44889,877.27678)"
         id="g338">
        <path
           inkscape:connector-curvature="0"
           id="path340"
           style="fill:#061529;fill-opacity:1;fill-rule:nonzero;stroke:none"
           d="m 0,0 c -0.641,0 -1.255,-0.367 -1.539,-0.987 -4.842,-10.609 -13.331,-19.172 -23.902,-24.111 -0.842,-0.393 -1.207,-1.399 -0.813,-2.242 0.379,-0.813 1.414,-1.2 2.241,-0.813 11.297,5.278 20.368,14.428 25.543,25.765 0.386,0.846 0.012,1.849 -0.833,2.237 C 0.471,-0.048 0.233,0 0,0 m -24.725,-29.312 c -1.04,0 -1.996,0.608 -2.436,1.549 -0.627,1.343 -0.045,2.945 1.297,3.572 10.356,4.837 18.672,13.226 23.415,23.62 0.617,1.347 2.212,1.944 3.561,1.329 l 10e-4,0 c 1.346,-0.616 1.941,-2.214 1.327,-3.561 -5.273,-11.553 -14.518,-20.878 -26.029,-26.256 -0.355,-0.166 -0.748,-0.253 -1.136,-0.253" />
      </g>
      <g
         transform="matrix(1.25,0,0,-1.25,346.38277,798.07815)"
         id="g342">
        <path
           inkscape:connector-curvature="0"
           id="path344"
           style="fill:#061529;fill-opacity:1;fill-rule:nonzero;stroke:none"
           d="m 0,0 c 10.186,-4.762 18.463,-12.968 23.306,-23.11 0.376,-0.785 1.159,-1.244 1.975,-1.244 0.316,0 0.637,0.069 0.941,0.214 1.09,0.519 1.551,1.826 1.031,2.915 C 21.974,-10.173 12.953,-1.228 1.852,3.962 0.758,4.473 -0.544,4 -1.055,2.906 -1.566,1.812 -1.093,0.511 0,0" />
      </g>
      <g
         transform="matrix(1.25,0,0,-1.25,346.64777,797.51177)"
         id="g346">
        <path
           inkscape:connector-curvature="0"
           id="path348"
           style="fill:#061529;fill-opacity:1;fill-rule:nonzero;stroke:none"
           d="m 0,0 c 10.292,-4.812 18.654,-13.103 23.545,-23.348 0.388,-0.81 1.436,-1.183 2.249,-0.794 0.407,0.194 0.714,0.535 0.864,0.959 0.15,0.425 0.126,0.883 -0.069,1.289 C 21.361,-10.947 12.425,-2.086 1.428,3.056 1.019,3.248 0.562,3.267 0.139,3.113 -0.285,2.959 -0.623,2.649 -0.813,2.241 -1.208,1.399 -0.842,0.394 0,0 m 25.068,-25.307 c -1.028,0 -1.981,0.6 -2.425,1.528 -4.792,10.036 -12.984,18.159 -23.067,22.873 -1.342,0.627 -1.923,2.229 -1.296,3.571 0.304,0.649 0.843,1.143 1.517,1.388 0.674,0.245 1.404,0.213 2.055,-0.091 11.206,-5.24 20.312,-14.269 25.64,-25.425 0.309,-0.647 0.348,-1.376 0.109,-2.053 -0.24,-0.677 -0.728,-1.22 -1.376,-1.528 -0.364,-0.175 -0.753,-0.263 -1.157,-0.263" />
      </g>
      <g
         transform="matrix(1.25,0,0,-1.25,295.10502,908.08227)"
         id="g350">
        <path
           inkscape:connector-curvature="0"
           id="path352"
           style="fill:#061529;fill-opacity:1;fill-rule:nonzero;stroke:none"
           d="m 0,0 c -10.465,4.89 -18.866,13.366 -23.659,23.866 -0.503,1.099 -1.798,1.583 -2.897,1.082 -1.099,-0.503 -1.583,-1.8 -1.082,-2.899 5.224,-11.443 14.382,-20.682 25.786,-26.011 0.3,-0.141 0.615,-0.206 0.924,-0.206 0.823,0 1.611,0.467 1.983,1.261 C 1.566,-1.812 1.093,-0.511 0,0" />
      </g>
      <g
         transform="matrix(1.25,0,0,-1.25,263.0394,877.27678)"
         id="g354">
        <path
           inkscape:connector-curvature="0"
           id="path356"
           style="fill:#061529;fill-opacity:1;fill-rule:nonzero;stroke:none"
           d="m 0,0 c -0.233,0 -0.471,-0.049 -0.696,-0.152 -0.846,-0.386 -1.221,-1.39 -0.835,-2.236 5.176,-11.337 14.247,-20.487 25.543,-25.765 0.822,-0.386 1.862,-0.001 2.242,0.814 0.394,0.842 0.029,1.848 -0.813,2.241 l -10e-4,0 C 14.869,-20.157 6.381,-11.595 1.538,-0.986 1.255,-0.367 0.641,0 0,0 m 24.724,-29.312 c -0.395,0 -0.778,0.085 -1.137,0.253 -11.509,5.378 -20.753,14.703 -26.028,26.256 -0.614,1.348 -0.018,2.945 1.329,3.561 1.349,0.614 2.944,0.018 3.56,-1.329 4.744,-10.392 13.06,-18.781 23.416,-23.62 l 0,0 c 1.341,-0.627 1.923,-2.229 1.297,-3.572 -0.441,-0.941 -1.397,-1.549 -2.437,-1.549" />
      </g>
    </g>
  </g>
</svg>
