<?xml version="1.0" encoding="UTF-8" standalone="no"?>
<!-- Created with Inkscape (http://www.inkscape.org/) -->

<svg
   xmlns:dc="http://purl.org/dc/elements/1.1/"
   xmlns:cc="http://creativecommons.org/ns#"
   xmlns:rdf="http://www.w3.org/1999/02/22-rdf-syntax-ns#"
   xmlns:svg="http://www.w3.org/2000/svg"
   xmlns="http://www.w3.org/2000/svg"
   xmlns:sodipodi="http://sodipodi.sourceforge.net/DTD/sodipodi-0.dtd"
   xmlns:inkscape="http://www.inkscape.org/namespaces/inkscape"
   width="512"
   height="512"
   viewBox="0 0 512 512.00001"
   id="svg4940"
   version="1.1"
   inkscape:version="0.91 r13725"
   sodipodi:docname="strategy-black.svg">
  <defs
     id="defs4942">
    <clipPath
       clipPathUnits="userSpaceOnUse"
       id="clipPath366">
      <path
         d="m 0,1080 2529,0 L 2529,0 0,0 0,1080 Z"
         id="path368"
         inkscape:connector-curvature="0" />
    </clipPath>
  </defs>
  <sodipodi:namedview
     id="base"
     pagecolor="#ffffff"
     bordercolor="#666666"
     borderopacity="1.0"
     inkscape:pageopacity="0.0"
     inkscape:pageshadow="2"
     inkscape:zoom="0.35355339"
     inkscape:cx="-443.02447"
     inkscape:cy="149.06111"
     inkscape:document-units="px"
     inkscape:current-layer="layer1"
     showgrid="false"
     inkscape:window-width="1360"
     inkscape:window-height="744"
     inkscape:window-x="1360"
     inkscape:window-y="24"
     inkscape:window-maximized="1"
     units="px" />
  <metadata
     id="metadata4945">
    <rdf:RDF>
      <cc:Work
         rdf:about="">
        <dc:format>image/svg+xml</dc:format>
        <dc:type
           rdf:resource="http://purl.org/dc/dcmitype/StillImage" />
        <dc:title></dc:title>
      </cc:Work>
    </rdf:RDF>
  </metadata>
  <g
     inkscape:label="Layer 1"
     inkscape:groupmode="layer"
     id="layer1"
     transform="translate(0,-540.3622)">
    <g
       id="g5564"
       transform="matrix(3.9524456,0,0,3.9524456,72.660734,-3284.7445)">
      <g
         transform="matrix(1.25,0,0,-1.25,24.3769,1053.5175)"
         id="g374">
        <path
           inkscape:connector-curvature="0"
           id="path376"
           style="fill:#061529;fill-opacity:1;fill-rule:nonzero;stroke:none"
           d="m 0,0 c -2.778,0 -5.038,2.26 -5.038,5.027 0,2.778 2.26,5.038 5.038,5.038 l 10.055,0 c 0.935,0 1.679,0.745 1.679,1.68 l 0,38.571 47.131,0 -16.642,-24.208 c -0.392,-0.573 -0.392,-1.327 0,-1.9 L 58.865,0 0,0 Z m -25.158,58.702 33.544,0 0,-45.288 -33.544,0 0,45.288 z M 45.638,25.158 63.433,51.045 c 0.353,0.516 0.395,1.179 0.099,1.728 -0.285,0.549 -0.86,0.901 -1.482,0.901 l -50.316,0 0,6.707 c 0,0.925 -0.744,1.679 -1.679,1.679 l -35.213,0 0,3.348 c 0,0.927 -0.755,1.68 -1.679,1.68 -0.927,0 -1.679,-0.753 -1.679,-1.68 l 0,-97.273 c 0,-0.926 0.752,-1.679 1.679,-1.679 0.924,0 1.679,0.753 1.679,1.679 l 0,41.93 18.491,0 C -7.732,8.656 -8.386,6.929 -8.386,5.027 -8.386,0.409 -4.627,-3.359 0,-3.359 l 62.05,0 c 0.622,0 1.197,0.353 1.482,0.902 0.296,0.549 0.254,1.22 -0.099,1.727 L 45.638,25.158 Z" />
      </g>
      <path
         inkscape:connector-curvature="0"
         id="path378"
         style="fill:#061529;fill-opacity:1;fill-rule:nonzero;stroke:none"
         d="m -5.1951,1034.876 38.18,0 0,-52.86 -38.18,0 0,52.86 z m 41.92875,3.75 -45.68,0 0,-60.36 45.68,0 0,60.36 z m -12.35625,4.185 c -2.43875,0 -4.4225,1.9838 -4.4225,4.4225 0,2.4313 1.98375,4.4088 4.4225,4.4088 l 70.01625,0 -18.7825,-27.3225 c -0.9225,-1.3463 -0.9225,-3.1525 -0.0012,-4.4963 l 18.78375,-27.32625 -53.47375,0 0,46.34005 c 0,2.1912 -1.78375,3.9737 -3.975,3.9737 l -12.5675,0 z m 77.14625,12.5813 -77.14625,0 c -4.50625,0 -8.1725,-3.66 -8.1725,-8.1588 0,-4.5062 3.66625,-8.1725 8.1725,-8.1725 l 12.5675,0 c 0.135,0 0.225,-0.09 0.225,-0.2237 l 0,-50.09005 64.35375,0 -22.8225,33.19745 c -0.05,0.074 -0.05,0.1776 0.0012,0.2538 l 22.82125,33.1937 z M -9.1701,971.53225 c -0.1225,0 -0.22375,0.10125 -0.22375,0.225 l 0,121.59125 c 0,0.2438 0.44875,0.2438 0.44875,0 l 0,-54.2875 28.755,0 -2.27,3.005 c -1.15875,1.5325 -1.77125,3.3188 -1.77125,5.1675 0,4.7463 3.8625,8.6075 8.60875,8.6075 l 77.5625,0 c 0.075,0 0.1525,-0.047 0.1875,-0.1162 0.0463,-0.086 0.0413,-0.1688 0.001,-0.2263 l -22.97875,-33.4287 22.97375,-33.4213 c 0.02,-0.0288 0.0675,-0.11625 0.0175,-0.2075 -0.0487,-0.0937 -0.12625,-0.14125 -0.20125,-0.14125 l -64.77,0 0,-10.25875 c 0,-0.1275 -0.0975,-0.22375 -0.225,-0.22375 l -45.89,0 0,-6.06 c 0,-0.12125 -0.10375,-0.225 -0.225,-0.225 m 0,125.79005 c -2.19125,0 -3.97375,-1.7825 -3.97375,-3.9738 l 0,-121.59125 c 0,-2.19125 1.7825,-3.975 3.97375,-3.975 2.19125,0 3.975,1.78375 3.975,3.975 l 0,2.31 42.14,0 c 2.19125,0 3.975,1.7825 3.975,3.97375 l 0,6.50875 61.02,0 c 1.48375,0 2.83125,0.81875 3.51625,2.1375 0.6875,1.2775 0.60125,2.85 -0.23875,4.08125 l -21.5175,31.3013 21.515,31.2975 c 0.845,1.22 0.935,2.7975 0.2275,4.1112 -0.67125,1.2925 -2.01875,2.1125 -3.5025,2.1125 l -77.5625,0 c -6.81375,0 -12.35875,-5.5437 -12.35875,-12.3575 0,-1.525 0.28625,-3.0162 0.8375,-4.4225 l -18.05125,0 0,50.5375 c 0,2.1913 -1.78375,3.9738 -3.975,3.9738" />
    </g>
  </g>
</svg>
